#N canvas 617 201 579 400 10;
#N canvas 305 285 966 315 (subpatch) 0;
#X array wave 100 float 0;
#X coords 0 -1 99 1 100 140 1 0 0;
#X restore 17 20 graph;
#X obj 19 184 hsl 128 15 200 2000 0 0 freq empty Freq -2 -8 0 10 -262144
-1 -1 1800 1;
#N canvas 0 50 450 250 (subpatch) 0;
#X array large 1000 float 0;
#X coords 0 1 999 -1 100 140 1 0 0;
#X restore 140 21 graph;
#N canvas 0 50 450 250 (subpatch) 0;
#X array small 10 float 0;
#X coords 0 1 10 -1 100 140 1 0 0;
#X restore 258 21 graph;
#N canvas 0 50 450 250 (subpatch) 0;
#X array manual 32 float 1;
#A 0 -0.214285 -0.514286 -0.5 -0.442857 0.4 0.4 0.4 0.4 0.385714 0.357143
0.314286 0.271429 0.214286 0.128572 1.112e-06 -0.828568 -0.85714 -0.85714
-0.842854 -0.771425 -0.585712 -0.471426 -0.114286 -0.128571 -0.171428
-0.214285 0.114284 0.071427 0.0428557 -1.33179e-06 -0.0285727 -0.057144
;
#X coords 0 1 31 -1 100 140 1 0 0;
#X restore 369 23 graph;
#X obj 374 179 hsl 128 15 0.1 1 0 0 speed empty Speed -2 -8 0 10 -262144
-1 -1 6800 1;
#N canvas 86 232 537 461 core 0;
#X obj 270 427 dac~;
#X obj 161 201 osc~ 440;
#X obj 199 272 tabwrite~ wave;
#X obj 238 129 loadbang;
#X obj 281 390 /~ 4;
#X obj 238 190 metro 100;
#X obj 103 106 r freq;
#X obj 220 250 tabwrite~ large;
#X obj 238 227 tabwrite~ small;
#X msg 238 160 1;
#X obj 175 107 tabread4~ manual;
#X obj 175 45 phasor~ 0.1;
#X obj 175 129 *~ 100;
#X obj 103 129 sig~;
#X obj 161 177 +~;
#X obj 175 22 r speed;
#X obj 176 81 *~ 32;
#X obj 164 312 clip~ -1 1;
#X obj 396 113 *~ 6;
#X obj 393 219 mtof~;
#X obj 164 290 *~ 4;
#X obj 280 363 vcf~ 4;
#X obj 395 159 tabread~ points;
#X obj 394 188 lop~ 10;
#X connect 1 0 2 0;
#X connect 1 0 7 0;
#X connect 1 0 8 0;
#X connect 1 0 20 0;
#X connect 3 0 9 0;
#X connect 4 0 0 0;
#X connect 4 0 0 1;
#X connect 5 0 2 0;
#X connect 5 0 7 0;
#X connect 5 0 8 0;
#X connect 6 0 13 0;
#X connect 9 0 5 0;
#X connect 10 0 12 0;
#X connect 11 0 16 0;
#X connect 11 0 18 0;
#X connect 12 0 14 1;
#X connect 13 0 14 0;
#X connect 14 0 1 0;
#X connect 15 0 11 0;
#X connect 16 0 10 0;
#X connect 17 0 21 0;
#X connect 18 0 22 0;
#X connect 19 0 21 1;
#X connect 20 0 17 0;
#X connect 21 0 4 0;
#X connect 22 0 23 0;
#X connect 23 0 19 0;
#X restore 496 23 pd core;
#N canvas 0 50 450 250 (subpatch) 0;
#X array points 6 float 2;
#X coords 0 100 6 40 150 100 1 0 0;
#X restore 178 183 graph;
