#N canvas 679 415 624 326 10;
#X declare -path ../../../../pd-party/droidparty-abstractions;
#X obj 132 123 phasor~;
#X obj 132 167 -~ 1;
#X obj 132 145 *~ 2;
#X obj 131 231 *~;
#X obj 131 253 dac~;
#X obj 132 51 r freq.s;
#X obj 167 171 r volume.s;
#X obj 167 193 sig~;
#X obj 132 80 sig~;
#X obj 43 11 declare -path ../../../../pd-party/droidparty-abstractions
;
#X obj 282 145 loadsave store;
#X obj 283 265 persist-save store;
#X obj 283 209 persist-load store;
#X obj 283 179 r store-load;
#X obj 283 237 r store-save;
#X obj 276 60 r save;
#X msg 276 82 \; store save presets cbs;
#X obj 396 108 r load;
#X msg 396 130 \; store load presets cbs;
#X obj 383 60 persist-map store freq.s freq.r;
#X obj 383 39 persist-map store volume.s volume.r;
#X connect 0 0 2 0;
#X connect 1 0 3 0;
#X connect 2 0 1 0;
#X connect 3 0 4 0;
#X connect 3 0 4 1;
#X connect 5 0 8 0;
#X connect 6 0 7 0;
#X connect 7 0 3 1;
#X connect 8 0 0 0;
#X connect 13 0 12 0;
#X connect 14 0 11 0;
#X connect 15 0 16 0;
#X connect 17 0 18 0;
