#N struct 2623template-marker float a float b;
#N struct 2624template-marker float a float b;
#N canvas 167 87 478 324 10;
#X declare -path z_nrci_abs;
#X declare -path z_nrci_abs;
#X obj 165 40 cnv 15 24 150 empty cursor empty 20 12 0 14 -258113 -66577
0;
#N canvas 457 87 889 553 audio 0;
#N canvas 490 82 862 680 synthetiser 0;
#X obj 198 101 line~;
#X obj 126 19 mtof;
#X obj 127 90 phasor~;
#X obj 126 185 cos~;
#X obj 126 209 +~ 1;
#X obj 126 261 *~;
#X obj 197 128 *~ 0.5;
#X obj 172 161 *~;
#X obj 171 210 cos~;
#X obj 126 234 *~;
#X obj 127 523 outlet~;
#X obj 127 117 -~ 0.5;
#X obj 198 76 pack 1 f;
#X obj 256 49 pack 0 f;
#X obj 256 24 delay;
#X obj 278 129 pack f 10;
#X obj 278 154 line~;
#X obj 172 186 *~;
#X obj 278 105 expr $f1*11+1;
#X obj 127 42 pack f f;
#X obj 127 67 line~;
#X obj 521 318 s \$0-toshape;
#X obj 363 -1 * 700;
#X obj 363 25 + 5;
#X obj 638 370 s \$0-todecay;
#X obj 579 344 s \$0-toattack;
#X obj 313 -27 * 300;
#X obj 313 -2 + 2;
#X msg 521 270 attack 0.1 \, decay 0.3 \, shape 0.5;
#X text 444 79 attack;
#X text 446 58 messages accepted:;
#X text 445 98 decay;
#X text 446 120 glide;
#X text 446 140 shape;
#X text 517 104 + value between 0 and 1;
#X text 446 169 or number as midi note;
#X obj 184 261 / 127;
#X obj 184 285 line~;
#X obj 184 237 t f b;
#X obj 145 324 *~;
#X obj 289 -122 r notetime;
#X msg 224 261 5;
#X obj 126 -70 t f b;
#X obj 263 -41 *;
#X obj 126 -96 unpack 0 0 0;
#X obj 125 -131 inlet;
#X obj 521 292 route shape attack decay;
#X obj 292 -98 / 2;
#X obj 521 244 r \$0+loadbang;
#X obj 278 -75 f;
#X obj 218 -95 t f b;
#X obj 313 -51 r fromattack;
#X obj 363 -26 r fromdecay;
#X obj 278 81 r fromshape;
#X obj 144 435 tanh~;
#X obj 145 401 *~ 0.5;
#X text 464 -121 synthé avec glissando provenant du pack d'abstraction
des objets volants.;
#X connect 0 0 5 1;
#X connect 0 0 6 0;
#X connect 1 0 19 0;
#X connect 2 0 11 0;
#X connect 3 0 4 0;
#X connect 4 0 9 0;
#X connect 5 0 39 0;
#X connect 6 0 7 1;
#X connect 7 0 17 0;
#X connect 8 0 9 1;
#X connect 9 0 5 0;
#X connect 11 0 3 0;
#X connect 11 0 7 0;
#X connect 12 0 0 0;
#X connect 13 0 0 0;
#X connect 14 0 13 0;
#X connect 15 0 16 0;
#X connect 16 0 17 1;
#X connect 17 0 8 0;
#X connect 18 0 15 0;
#X connect 19 0 20 0;
#X connect 20 0 2 0;
#X connect 22 0 23 0;
#X connect 23 0 13 1;
#X connect 26 0 27 0;
#X connect 27 0 14 1;
#X connect 27 0 12 1;
#X connect 28 0 46 0;
#X connect 36 0 37 0;
#X connect 37 0 39 1;
#X connect 38 0 36 0;
#X connect 38 1 41 0;
#X connect 39 0 55 0;
#X connect 40 0 47 0;
#X connect 41 0 37 1;
#X connect 42 0 1 0;
#X connect 42 1 14 0;
#X connect 42 1 12 0;
#X connect 43 0 19 1;
#X connect 44 0 42 0;
#X connect 44 1 38 0;
#X connect 44 2 50 0;
#X connect 45 0 44 0;
#X connect 46 0 21 0;
#X connect 46 1 25 0;
#X connect 46 2 24 0;
#X connect 47 0 49 1;
#X connect 48 0 28 0;
#X connect 49 0 43 1;
#X connect 50 0 43 0;
#X connect 50 1 49 0;
#X connect 51 0 26 0;
#X connect 52 0 22 0;
#X connect 53 0 18 0;
#X connect 54 0 10 0;
#X connect 55 0 54 0;
#X restore 137 62 pd synthetiser;
#N canvas 715 82 650 686 beats 0;
#X obj 11 53 f 0;
#X obj 37 53 + 1;
#X obj 11 107 s pos;
#X obj 11 75 mod 16;
#X obj 94 153 * 25;
#X obj 94 176 + 65;
#X obj 18 131 s beat;
#X msg 94 203 \; cursor pos \$1 40;
#X text 143 149 ici on envoit un valeur de position horizontale à un
canvas présent dans l'interface. Permettant de marquer la position
à laquelle on se trouve.;
#X obj 45 -140 f 0;
#X obj 80 -140 + 1;
#X obj 45 -163 b;
#X floatatom 45 -109 5 0 0 0 - - -, f 5;
#X obj 45 -88 / 24;
#X floatatom 45 -67 10 0 0 0 - - -, f 10;
#X obj 45 -45 i;
#X obj 45 -20 change;
#X floatatom 90 -19 5 0 0 0 - - -, f 5;
#X floatatom 96 -173 5 0 0 0 - - -, f 5;
#X obj 45 -198 route 248;
#X floatatom 149 -196 5 0 0 0 - - -, f 5;
#X obj 44 -219 midirealtimein;
#X obj 302 71 s notetime;
#X obj 342 -107 timer;
#X obj 342 -153 % 2;
#X obj 342 -133 sel 0 1;
#X floatatom 380 -85 10 0 0 0 - - -, f 10;
#X obj 342 -63 swap 60000;
#X obj 342 -40 /;
#X floatatom 365 -12 10 0 0 0 - - -, f 10;
#X connect 0 0 1 0;
#X connect 0 0 3 0;
#X connect 1 0 0 1;
#X connect 3 0 2 0;
#X connect 3 0 4 0;
#X connect 3 0 6 0;
#X connect 4 0 5 0;
#X connect 5 0 7 0;
#X connect 9 0 10 0;
#X connect 9 0 12 0;
#X connect 10 0 9 1;
#X connect 11 0 9 0;
#X connect 12 0 13 0;
#X connect 13 0 14 0;
#X connect 14 0 15 0;
#X connect 15 0 16 0;
#X connect 16 0 17 0;
#X connect 16 0 0 0;
#X connect 16 0 24 0;
#X connect 19 0 11 0;
#X connect 19 1 18 0;
#X connect 21 0 19 0;
#X connect 21 1 20 0;
#X connect 23 0 22 0;
#X connect 23 0 27 0;
#X connect 23 0 26 0;
#X connect 24 0 25 0;
#X connect 25 0 23 0;
#X connect 25 1 23 1;
#X connect 27 0 28 0;
#X connect 27 1 28 1;
#X connect 28 0 29 0;
#X restore 11 -147 pd beats;
#N canvas 830 118 667 680 synth-seq 0;
#X obj 75 -88 r pos;
#X obj 75 -59 sel 0 1 2 3 4 5 6 7 8 9 10 11 12 13 14 15;
#X obj 75 -12 onestep2 note1 octave1 glide1 accent1 half1;
#X msg 127 380 set \$1 \$2 \$3;
#X msg 130 401 37 60 0;
#X obj 56 462 outlet;
#X obj 75 343 t a;
#X obj 29 376 route 0;
#X obj 90 11 onestep2 note2 octave2 glide2 accent2 half2;
#X obj 105 33 onestep2 note3 octave3 glide3 accent3 half3;
#X obj 120 55 onestep2 note4 octave4 glide4 accent4 half4;
#X obj 135 78 onestep2 note5 octave5 glide5 accent5 half5;
#X obj 150 100 onestep2 note6 octave6 glide6 accent6 half6;
#X obj 165 122 onestep2 note7 octave7 glide7 accent7 half7;
#X obj 179 145 onestep2 note8 octave8 glide8 accent8 half8;
#X obj 196 168 onestep2 note9 octave9 glide9 accent9 half9;
#X obj 209 190 onestep2 note10 octave10 glide10 accent10 half10;
#X obj 227 215 onestep2 note11 octave11 glide11 accent11 half11;
#X obj 241 238 onestep2 note12 octave12 glide12 accent112 half12;
#X obj 257 259 onestep2 note13 octave13 glide13 accent13 half13;
#X obj 288 305 onestep2 note15 octave15 glide15 accent15 half15;
#X obj 302 326 onestep2 note16 octave16 glide16 accent16 half16;
#X obj 272 282 onestep2 note14 octave14 glide14 accent14 half14;
#X text 353 -59 séquenceur de synthé comme dans l'épisode 3;
#X connect 0 0 1 0;
#X connect 1 0 2 0;
#X connect 1 1 8 0;
#X connect 1 2 9 0;
#X connect 1 3 10 0;
#X connect 1 4 11 0;
#X connect 1 5 12 0;
#X connect 1 6 13 0;
#X connect 1 7 14 0;
#X connect 1 8 15 0;
#X connect 1 9 16 0;
#X connect 1 10 17 0;
#X connect 1 11 18 0;
#X connect 1 12 19 0;
#X connect 1 13 22 0;
#X connect 1 14 20 0;
#X connect 1 15 21 0;
#X connect 2 0 3 0;
#X connect 2 0 6 0;
#X connect 3 0 4 0;
#X connect 6 0 7 0;
#X connect 7 1 5 0;
#X connect 8 0 3 0;
#X connect 8 0 6 0;
#X connect 9 0 3 0;
#X connect 9 0 6 0;
#X connect 10 0 3 0;
#X connect 10 0 6 0;
#X connect 11 0 3 0;
#X connect 11 0 6 0;
#X connect 12 0 3 0;
#X connect 12 0 6 0;
#X connect 13 0 3 0;
#X connect 13 0 6 0;
#X connect 14 0 3 0;
#X connect 14 0 6 0;
#X connect 15 0 3 0;
#X connect 15 0 6 0;
#X connect 16 0 3 0;
#X connect 16 0 6 0;
#X connect 17 0 3 0;
#X connect 17 0 6 0;
#X connect 18 0 3 0;
#X connect 18 0 6 0;
#X connect 19 0 3 0;
#X connect 19 0 6 0;
#X connect 20 0 3 0;
#X connect 20 0 6 0;
#X connect 21 0 3 0;
#X connect 21 0 6 0;
#X connect 22 0 3 0;
#X connect 22 0 6 0;
#X restore 137 39 pd synth-seq;
#X obj 192 112 r fxcontrol;
#X obj 192 134 unpack f f;
#X obj 90 348 dac~;
#N canvas 0 50 450 300 objects_send_receives 0;
#X text 66 100 taplist 50 20 nada drum-line Kick Snare RimShot Hihat
;
#X text 67 118 taplist 50 20 rien play-pause Play Stop;
#X text 62 55 taplist 20 20 nothing note1 Off C C# D Eb E F F# G G#
A Bb B;
#X text 64 30 touch 250 100 fxcontrol;
#X text 64 169 onestep note1 octave1 glide1 accent1 half1;
#X text 65 138 taplist 20 20 null half1 /1 /2 /3 /4;
#X text 64 75 taplist 20 20 nichts octave1 *0 *1 *2 *3;
#X text 65 0 MESSAGES UTILISES POUR LES CREER LES ABSTRACTION SPECIFIQUES
A PDDROIDPARTY;
#X restore 11 -167 pd objects_send_receives;
#N canvas 65 54 1301 714 drum-seq 0;
#X floatatom 627 364 0 0 0 0 - - -;
#X obj 45 410 sequence a--------------------------------------------------
;
#X obj 484 250 r drum-line;
#X obj 484 272 sel Kick Snare RimShot Hihat;
#X msg 484 298 0;
#X msg 525 298 1;
#X msg 566 298 2;
#X msg 608 298 3;
#X msg 809 395 0;
#X obj 808 336 r wordbutton-reset;
#X obj -244 555 s dt1.r;
#X obj -275 153 r dt1;
#X obj -194 554 s dt2.r;
#X obj -142 555 s dt3.r;
#X obj -92 555 s dt4.r;
#X obj -42 556 s dt5.r;
#X obj 10 557 s dt6.r;
#X obj 63 560 s dt7.r;
#X obj 112 559 s dt8.r;
#X obj -225 151 r dt2;
#X obj -173 152 r dt3;
#X obj -123 152 r dt4;
#X obj -73 154 r dt5;
#X obj -21 154 r dt6;
#X obj 32 157 r dt7;
#X obj 81 156 r dt8;
#N canvas 501 233 417 136 route-uo 0;
#X obj 18 23 inlet;
#X obj 60 22 inlet;
#X obj 105 21 inlet;
#X obj 147 20 inlet;
#X obj 12 88 outlet;
#X obj 58 88 outlet;
#X obj 107 87 outlet;
#X obj 153 87 outlet;
#X obj 211 23 inlet;
#X obj 253 22 inlet;
#X obj 298 21 inlet;
#X obj 340 20 inlet;
#X obj 205 88 outlet;
#X obj 251 88 outlet;
#X obj 300 87 outlet;
#X obj 346 87 outlet;
#X connect 0 0 4 0;
#X connect 1 0 5 0;
#X connect 2 0 6 0;
#X connect 3 0 7 0;
#X connect 8 0 12 0;
#X connect 9 0 13 0;
#X connect 10 0 14 0;
#X connect 11 0 15 0;
#X restore 87 447 pd route-uo;
#N canvas 498 238 421 140 route-down 0;
#X obj 18 23 inlet;
#X obj 60 22 inlet;
#X obj 105 21 inlet;
#X obj 147 20 inlet;
#X obj 12 88 outlet;
#X obj 58 88 outlet;
#X obj 107 87 outlet;
#X obj 153 87 outlet;
#X obj 211 23 inlet;
#X obj 253 22 inlet;
#X obj 298 21 inlet;
#X obj 340 20 inlet;
#X obj 205 88 outlet;
#X obj 251 88 outlet;
#X obj 300 87 outlet;
#X obj 346 87 outlet;
#X connect 0 0 4 0;
#X connect 1 0 5 0;
#X connect 2 0 6 0;
#X connect 3 0 7 0;
#X connect 8 0 12 0;
#X connect 9 0 13 0;
#X connect 10 0 14 0;
#X connect 11 0 15 0;
#X restore 102 335 pd route-down;
#N canvas 498 238 417 136 route-down 0;
#X obj 18 23 inlet;
#X obj 60 22 inlet;
#X obj 105 21 inlet;
#X obj 147 20 inlet;
#X obj 12 88 outlet;
#X obj 58 88 outlet;
#X obj 107 87 outlet;
#X obj 153 87 outlet;
#X obj 211 23 inlet;
#X obj 253 22 inlet;
#X obj 298 21 inlet;
#X obj 340 20 inlet;
#X obj 205 88 outlet;
#X obj 251 88 outlet;
#X obj 300 87 outlet;
#X obj 346 87 outlet;
#X connect 0 0 4 0;
#X connect 1 0 5 0;
#X connect 2 0 6 0;
#X connect 3 0 7 0;
#X connect 8 0 12 0;
#X connect 9 0 13 0;
#X connect 10 0 14 0;
#X connect 11 0 15 0;
#X restore 252 333 pd route-down;
#N canvas 498 238 417 136 route-up 0;
#X obj 18 23 inlet;
#X obj 60 22 inlet;
#X obj 105 21 inlet;
#X obj 147 20 inlet;
#X obj 12 88 outlet;
#X obj 58 88 outlet;
#X obj 107 87 outlet;
#X obj 153 87 outlet;
#X obj 211 23 inlet;
#X obj 253 22 inlet;
#X obj 298 21 inlet;
#X obj 340 20 inlet;
#X obj 205 88 outlet;
#X obj 251 88 outlet;
#X obj 300 87 outlet;
#X obj 346 87 outlet;
#X connect 0 0 4 0;
#X connect 1 0 5 0;
#X connect 2 0 6 0;
#X connect 3 0 7 0;
#X connect 8 0 12 0;
#X connect 9 0 13 0;
#X connect 10 0 14 0;
#X connect 11 0 15 0;
#X restore 268 450 pd route-up;
#X obj 178 564 s dt9.r;
#X obj 229 567 s dt10.r;
#X obj 285 566 s dt11.r;
#X obj 341 567 s dt12.r;
#X obj 398 567 s dt13.r;
#X obj 454 567 s dt14.r;
#X obj 510 566 s dt15.r;
#X obj 565 564 s dt16.r;
#X obj 148 145 r dt9;
#X obj 198 150 r dt10;
#X obj 255 146 r dt11;
#X obj 311 147 r dt12;
#X obj 368 148 r dt13;
#X obj 423 150 r dt14;
#X obj 480 146 r dt15;
#X obj 535 144 r dt16;
#X text 561 246 selection de l'index qui nous intéresse;
#X text 592 142 on reçoit les information inscrites dans l'interface
;
#X text 627 564 on envoit des informations à l'interface;
#X text 805 317 Remettre tout à zéro;
#X text -229 403 C'est ici que tout va se passer ->;
#X text -226 420 rendez-vous en ateliers pour en parler;
#X connect 1 0 26 0;
#X connect 1 1 26 1;
#X connect 1 2 26 2;
#X connect 1 3 26 3;
#X connect 1 4 26 4;
#X connect 1 5 26 5;
#X connect 1 6 26 6;
#X connect 1 7 26 7;
#X connect 1 8 29 0;
#X connect 1 9 29 1;
#X connect 1 10 29 2;
#X connect 1 11 29 3;
#X connect 1 12 29 4;
#X connect 1 13 29 5;
#X connect 1 14 29 6;
#X connect 1 15 29 7;
#X connect 2 0 3 0;
#X connect 3 0 4 0;
#X connect 3 1 5 0;
#X connect 3 2 6 0;
#X connect 3 3 7 0;
#X connect 4 0 1 16;
#X connect 4 0 0 0;
#X connect 5 0 1 16;
#X connect 5 0 0 0;
#X connect 6 0 1 16;
#X connect 6 0 0 0;
#X connect 7 0 1 16;
#X connect 7 0 0 0;
#X connect 8 0 10 0;
#X connect 8 0 12 0;
#X connect 8 0 13 0;
#X connect 8 0 14 0;
#X connect 8 0 15 0;
#X connect 8 0 16 0;
#X connect 8 0 17 0;
#X connect 8 0 18 0;
#X connect 8 0 30 0;
#X connect 8 0 31 0;
#X connect 8 0 32 0;
#X connect 8 0 33 0;
#X connect 8 0 34 0;
#X connect 8 0 35 0;
#X connect 8 0 36 0;
#X connect 8 0 37 0;
#X connect 9 0 8 0;
#X connect 11 0 27 0;
#X connect 19 0 27 1;
#X connect 20 0 27 2;
#X connect 21 0 27 3;
#X connect 22 0 27 4;
#X connect 23 0 27 5;
#X connect 24 0 27 6;
#X connect 25 0 27 7;
#X connect 26 0 10 0;
#X connect 26 1 12 0;
#X connect 26 2 13 0;
#X connect 26 3 14 0;
#X connect 26 4 15 0;
#X connect 26 5 16 0;
#X connect 26 6 17 0;
#X connect 26 7 18 0;
#X connect 27 0 1 0;
#X connect 27 1 1 1;
#X connect 27 2 1 2;
#X connect 27 3 1 3;
#X connect 27 4 1 4;
#X connect 27 5 1 5;
#X connect 27 6 1 6;
#X connect 27 7 1 7;
#X connect 28 0 1 8;
#X connect 28 1 1 9;
#X connect 28 2 1 10;
#X connect 28 3 1 11;
#X connect 28 4 1 12;
#X connect 28 5 1 13;
#X connect 28 6 1 14;
#X connect 28 7 1 15;
#X connect 29 0 30 0;
#X connect 29 1 31 0;
#X connect 29 2 32 0;
#X connect 29 3 33 0;
#X connect 29 4 34 0;
#X connect 29 5 35 0;
#X connect 29 6 36 0;
#X connect 29 7 37 0;
#X connect 38 0 28 0;
#X connect 39 0 28 1;
#X connect 40 0 28 2;
#X connect 41 0 28 3;
#X connect 42 0 28 4;
#X connect 43 0 28 5;
#X connect 44 0 28 6;
#X connect 45 0 28 7;
#X restore 36 22 pd drum-seq;
#X obj 36 41 sequencetable;
#N canvas 65 87 1301 684 drum-synths 0;
#X obj 217 -244 r channel3;
#X obj 295 -247 r channel4;
#X obj 53 -245 r channel1;
#X obj 136 -242 r channel2;
#N canvas 0 50 454 304 (subpatch) 0;
#X array Sample1 60378 float 0;
#X coords 0 1 60377 -1 50 50 1;
#X restore 78 -65 graph;
#N canvas 0 50 458 308 (subpatch) 0;
#X array Sample2 31010 float 0;
#X coords 0 1 31009 -1 50 50 1;
#X restore 184 -65 graph;
#N canvas 0 50 458 308 (subpatch) 0;
#X array Sample3 24346 float 0;
#X coords 0 1 24345 -1 50 50 1;
#X restore 297 -66 graph;
#N canvas 0 50 454 304 (subpatch) 0;
#X array Sample4 213831 float 0;
#X coords 0 1 213830 -1 50 50 1;
#X restore 408 -66 graph;
#X obj 277 -10 tabplay~ Sample3;
#X obj 387 -10 tabplay~ Sample4;
#X obj 57 -11 tabplay~ Sample1;
#X obj 165 -11 tabplay~ Sample2;
#N canvas 0 172 1366 596 ALD 0;
#X msg 404 143 bang;
#X text 481 35 "ALD" enveloppe;
#X obj 514 59 inlet;
#X obj 565 58 inlet;
#X obj 615 58 inlet;
#X obj 418 62 inlet;
#X obj 389 442 outlet~;
#X text 643 143 ENVELOPE SECTION;
#X obj 389 356 vline~;
#X msg 362 255 1;
#X obj 362 275 pack f f;
#X obj 362 296 unpack f f;
#X msg 466 256 0;
#X obj 466 277 pack f f f;
#X obj 466 298 unpack f f f;
#X obj 466 235 delay 5;
#X text 112 293 Attack : sends a 1 to get to in A msec;
#X text 539 234 wait the end of the attack;
#X text 548 264 Length+Decay : 0 to get to in D msec \, after L msec
;
#X connect 0 0 9 0;
#X connect 0 0 15 0;
#X connect 2 0 15 1;
#X connect 3 0 13 2;
#X connect 4 0 13 1;
#X connect 5 0 0 0;
#X connect 8 0 6 0;
#X connect 9 0 10 0;
#X connect 10 0 11 0;
#X connect 11 0 8 0;
#X connect 11 1 8 1;
#X connect 12 0 13 0;
#X connect 13 0 14 0;
#X connect 14 0 8 0;
#X connect 14 1 8 1;
#X connect 14 2 8 2;
#X connect 15 0 12 0;
#X restore 71 45 pd ALD;
#N canvas 0 50 1366 696 ALD 0;
#X msg 404 143 bang;
#X text 481 35 "ALD" enveloppe;
#X obj 514 59 inlet;
#X obj 565 58 inlet;
#X obj 615 58 inlet;
#X obj 418 62 inlet;
#X obj 389 442 outlet~;
#X text 643 143 ENVELOPE SECTION;
#X obj 389 356 vline~;
#X msg 362 255 1;
#X obj 362 275 pack f f;
#X obj 362 296 unpack f f;
#X msg 466 256 0;
#X obj 466 277 pack f f f;
#X obj 466 298 unpack f f f;
#X obj 466 235 delay 5;
#X text 112 293 Attack : sends a 1 to get to in A msec;
#X text 539 234 wait the end of the attack;
#X text 548 264 Length+Decay : 0 to get to in D msec \, after L msec
;
#X connect 0 0 9 0;
#X connect 0 0 15 0;
#X connect 2 0 15 1;
#X connect 3 0 13 2;
#X connect 4 0 13 1;
#X connect 5 0 0 0;
#X connect 8 0 6 0;
#X connect 9 0 10 0;
#X connect 10 0 11 0;
#X connect 11 0 8 0;
#X connect 11 1 8 1;
#X connect 12 0 13 0;
#X connect 13 0 14 0;
#X connect 14 0 8 0;
#X connect 14 1 8 1;
#X connect 14 2 8 2;
#X connect 15 0 12 0;
#X restore 179 48 pd ALD;
#N canvas 0 50 1366 696 ALD 0;
#X msg 404 143 bang;
#X text 480 -14 "ALD" enveloppe;
#X obj 513 10 inlet;
#X obj 564 9 inlet;
#X obj 614 9 inlet;
#X obj 418 62 inlet;
#X obj 389 442 outlet~;
#X text 643 143 ENVELOPE SECTION;
#X obj 389 356 vline~;
#X msg 362 255 1;
#X obj 362 275 pack f f;
#X obj 362 296 unpack f f;
#X msg 466 256 0;
#X obj 466 277 pack f f f;
#X obj 466 298 unpack f f f;
#X obj 466 235 delay 5;
#X text 112 293 Attack : sends a 1 to get to in A msec;
#X text 539 234 wait the end of the attack;
#X text 548 264 Length+Decay : 0 to get to in D msec \, after L msec
;
#X connect 0 0 9 0;
#X connect 0 0 15 0;
#X connect 2 0 15 1;
#X connect 3 0 13 2;
#X connect 4 0 13 1;
#X connect 5 0 0 0;
#X connect 8 0 6 0;
#X connect 9 0 10 0;
#X connect 10 0 11 0;
#X connect 11 0 8 0;
#X connect 11 1 8 1;
#X connect 12 0 13 0;
#X connect 13 0 14 0;
#X connect 14 0 8 0;
#X connect 14 1 8 1;
#X connect 14 2 8 2;
#X connect 15 0 12 0;
#X restore 292 46 pd ALD;
#N canvas 0 72 1366 696 ALD 0;
#X msg 404 143 bang;
#X text 481 35 "ALD" enveloppe;
#X obj 514 59 inlet;
#X obj 565 58 inlet;
#X obj 615 58 inlet;
#X obj 418 62 inlet;
#X obj 389 442 outlet~;
#X text 643 143 ENVELOPE SECTION;
#X obj 389 356 vline~;
#X msg 362 255 1;
#X obj 362 275 pack f f;
#X obj 362 296 unpack f f;
#X msg 466 256 0;
#X obj 466 277 pack f f f;
#X obj 466 298 unpack f f f;
#X obj 466 235 delay 5;
#X text 112 293 Attack : sends a 1 to get to in A msec;
#X text 539 234 wait the end of the attack;
#X text 548 264 Length+Decay : 0 to get to in D msec \, after L msec
;
#X connect 0 0 9 0;
#X connect 0 0 15 0;
#X connect 2 0 15 1;
#X connect 3 0 13 2;
#X connect 4 0 13 1;
#X connect 5 0 0 0;
#X connect 8 0 6 0;
#X connect 9 0 10 0;
#X connect 10 0 11 0;
#X connect 11 0 8 0;
#X connect 11 1 8 1;
#X connect 12 0 13 0;
#X connect 13 0 14 0;
#X connect 14 0 8 0;
#X connect 14 1 8 1;
#X connect 14 2 8 2;
#X connect 15 0 12 0;
#X restore 403 48 pd ALD;
#X obj 56 68 *~;
#X obj 164 69 *~;
#X obj 276 67 *~;
#X obj 388 66 *~;
#X obj 53 -222 t b b;
#X obj 136 -218 t b b;
#X obj 218 -218 t b b;
#X obj 301 -214 t b b;
#X obj 210 153 outlet~;
#X obj 581 -65 loadbang;
#X msg 647 -15 10;
#X msg 583 -16 2;
#X msg 616 -16 250;
#X obj 467 -241 r soundpack;
#X msg 467 -214 symbol \$1;
#X msg 465 -162 0;
#X msg 498 -162 1;
#X msg 530 -160 2;
#N canvas 2 50 1364 649 soundbanks 0;
#X obj 963 597 soundfiler;
#X obj -349 302 r init;
#X obj 126 -30 inlet;
#X obj 113 101 sel 0 1 2 3 4;
#X msg -290 398 read -resize 44855_stomachache_bd2.wav Sample1;
#X msg -266 423 read -resize 44859_stomachache_hihatbrushtight2.wav
Sample2;
#X msg -243 450 read -resize 44867_stomachache_snarebrushlighttap.wav
Sample3;
#X msg -231 492 read -resize 44857_stomachache_crashbrushtap.wav Sample4
;
#X msg 137 386 read -resize 14518_blaster78_quietglitch1.wav Sample1
;
#X msg 155 419 read -resize 14510_blaster78_clapchord1.wav Sample2
;
#X msg 164 443 read -resize 14515_blaster78_kickclapchord1.wav Sample3
;
#X msg 172 483 read -resize 14519_blaster78_revkickbuzz1.wav Sample4
;
#X msg 484 377 read -resize 5983_user_56891b_drum52.wav Sample1;
#X msg 501 410 read -resize 5987_user_56891b_drum70.wav Sample2;
#X msg 507 441 read -resize 5986_user_56891b_drum65.wav Sample3;
#X msg 518 475 read -resize 5976_user_56891b_drum42.wav Sample4;
#X msg 823 330 read -resize 22772_FranciscoPadilla_69_Cabasa.wav Sample1
;
#X msg 843 378 read -resize 22773_FranciscoPadilla_70_Maracas.wav Sample2
;
#X msg 855 425 read -resize 22778_FranciscoPadilla_75_Claves.wav Sample3
;
#X msg 864 459 read -resize 22784_FranciscoPadilla_81_Open_Triagle.wav
Sample4;
#X msg 1201 331 read -resize 22738_FranciscoPadilla_35_Bass_Drum_BasketBall.wav
Sample1;
#X msg 1221 379 read -resize 22740_FranciscoPadilla_37_Click_Finger.wav
Sample2;
#X msg 1233 425 read -resize 22745_FranciscoPadilla_42_Closed_High_Hat.wav
Sample3;
#X msg 1241 468 read -resize 22755_FranciscoPadilla_52_Chinese_Cymbal.wav
Sample4;
#X connect 1 0 4 0;
#X connect 1 0 5 0;
#X connect 1 0 6 0;
#X connect 1 0 7 0;
#X connect 2 0 3 0;
#X connect 3 0 4 0;
#X connect 3 0 5 0;
#X connect 3 0 6 0;
#X connect 3 0 7 0;
#X connect 3 1 8 0;
#X connect 3 1 9 0;
#X connect 3 1 10 0;
#X connect 3 1 11 0;
#X connect 3 2 12 0;
#X connect 3 2 13 0;
#X connect 3 2 14 0;
#X connect 3 2 15 0;
#X connect 3 3 16 0;
#X connect 3 3 17 0;
#X connect 3 3 18 0;
#X connect 3 3 19 0;
#X connect 3 4 20 0;
#X connect 3 4 21 0;
#X connect 3 4 22 0;
#X connect 3 4 23 0;
#X connect 4 0 0 0;
#X connect 5 0 0 0;
#X connect 6 0 0 0;
#X connect 7 0 0 0;
#X connect 8 0 0 0;
#X connect 9 0 0 0;
#X connect 10 0 0 0;
#X connect 11 0 0 0;
#X connect 12 0 0 0;
#X connect 13 0 0 0;
#X connect 14 0 0 0;
#X connect 15 0 0 0;
#X connect 16 0 0 0;
#X connect 17 0 0 0;
#X connect 18 0 0 0;
#X connect 19 0 0 0;
#X connect 20 0 0 0;
#X connect 21 0 0 0;
#X connect 22 0 0 0;
#X connect 23 0 0 0;
#X restore 498 -86 pd soundbanks;
#X msg 562 -160 3;
#X msg 595 -160 4;
#X obj 467 -188 sel SB1 SB2 SB3 SB4 SB5;
#X obj 210 125 tanh~;
#X obj 211 96 *~ 0.25;
#X text 707 -209 Utilisation de samples \, comme dans l'épisode 1...
probablement plus simple;
#X connect 0 0 22 0;
#X connect 1 0 23 0;
#X connect 2 0 20 0;
#X connect 3 0 21 0;
#X connect 8 0 18 0;
#X connect 9 0 19 0;
#X connect 10 0 16 0;
#X connect 11 0 17 0;
#X connect 12 0 16 1;
#X connect 13 0 17 1;
#X connect 14 0 18 1;
#X connect 15 0 19 1;
#X connect 16 0 39 0;
#X connect 17 0 39 0;
#X connect 18 0 39 0;
#X connect 19 0 39 0;
#X connect 20 0 10 0;
#X connect 20 1 12 0;
#X connect 21 0 11 0;
#X connect 21 1 13 0;
#X connect 22 0 8 0;
#X connect 22 1 14 0;
#X connect 23 0 9 0;
#X connect 23 1 15 0;
#X connect 25 0 27 0;
#X connect 25 0 28 0;
#X connect 25 0 26 0;
#X connect 26 0 12 3;
#X connect 26 0 15 3;
#X connect 26 0 14 3;
#X connect 26 0 13 3;
#X connect 27 0 12 1;
#X connect 27 0 15 1;
#X connect 27 0 14 1;
#X connect 27 0 13 1;
#X connect 28 0 12 2;
#X connect 28 0 14 2;
#X connect 28 0 13 2;
#X connect 29 0 30 0;
#X connect 30 0 37 0;
#X connect 31 0 34 0;
#X connect 32 0 34 0;
#X connect 33 0 34 0;
#X connect 35 0 34 0;
#X connect 36 0 34 0;
#X connect 37 0 31 0;
#X connect 37 1 32 0;
#X connect 37 2 33 0;
#X connect 37 3 35 0;
#X connect 37 4 36 0;
#X connect 38 0 24 0;
#X connect 39 0 38 0;
#X restore 36 61 pd drum-synths;
#X obj 256 -173 loadbang;
#X obj 261 -144 s nichts;
#X obj 268 -121 s null;
#N canvas 642 61 450 300 ringmod 0;
#X obj 211 40 inlet;
#X obj 46 34 inlet~;
#X text 253 40 stream of incoming data values (0 - 100);
#X text 95 34 audio input;
#X text 43 383 one inlet~: audio data for processing;
#X text 43 411 one outlet~: processed audio;
#X text 43 397 one inlet: values interpreted as MIDI pitches (0-100)
;
#X obj 46 311 outlet~;
#X obj 211 208 line~;
#X obj 211 189 pack;
#X msg 234 163 5;
#X obj 211 101 mtof;
#X obj 211 60 clip 0 100;
#X text 103 310 audio output;
#X text 42 353 ring modulate an input signal;
#X text 43 339 milo-sfx-ringmod~.pd;
#X obj 195 250 *~;
#X obj 211 230 osc~;
#X obj 211 122 t f b;
#X obj 211 79 t f f;
#X text 42 368 one user-specified value: on/off key assignment;
#X obj 245 101 s pitch-report;
#X obj 599 310 declare -path z_nrci_abs;
#N canvas 0 50 450 300 bypass~ 0;
#X obj 35 32 inlet~;
#X obj 251 35 inlet;
#X obj 35 279 outlet~;
#X obj 51 227 line~;
#X obj 35 252 *~;
#X msg 51 195 1 5;
#X msg 84 195 0 5;
#X text 84 32 audio input;
#X obj 252 278 outlet~;
#X obj 268 226 line~;
#X obj 252 251 *~;
#X msg 268 194 1 5;
#X msg 301 194 0 5;
#X text 290 36 toggle (0/1);
#X obj 251 58 sel 0;
#X obj 238 92 t b b;
#X obj 281 92 t b b;
#X text 90 279 outlet for bypass;
#X text 310 278 outlet for processing;
#X obj 172 92 loadbang;
#X connect 0 0 4 0;
#X connect 0 0 10 0;
#X connect 1 0 14 0;
#X connect 3 0 4 1;
#X connect 4 0 2 0;
#X connect 5 0 3 0;
#X connect 6 0 3 0;
#X connect 9 0 10 1;
#X connect 10 0 8 0;
#X connect 11 0 9 0;
#X connect 12 0 9 0;
#X connect 14 0 15 0;
#X connect 14 1 16 0;
#X connect 15 0 5 0;
#X connect 15 1 12 0;
#X connect 16 0 6 0;
#X connect 16 1 11 0;
#X connect 19 0 5 0;
#X connect 19 0 12 0;
#X restore 70 227 pd bypass~;
#X obj 123 155 r RMon;
#X connect 0 0 12 0;
#X connect 1 0 23 0;
#X connect 8 0 17 0;
#X connect 9 0 8 0;
#X connect 10 0 9 1;
#X connect 11 0 18 0;
#X connect 12 0 19 0;
#X connect 16 0 7 0;
#X connect 17 0 16 1;
#X connect 18 0 9 0;
#X connect 18 1 10 0;
#X connect 19 0 11 0;
#X connect 19 1 21 0;
#X connect 23 0 7 0;
#X connect 23 1 16 0;
#X connect 24 0 23 1;
#X restore 37 235 pd ringmod;
#X obj 192 183 * 100;
#X obj 256 -27 s \$0-loadbang;
#N canvas 0 50 450 300 Quantiz 0;
#X obj -64 53 inlet~;
#X obj 48 360 outlet~;
#X obj 48 253 *~;
#X obj 48 317 /~;
#X obj 100 224 pow;
#X msg 107 196 2;
#X obj 119 163 t b f;
#X obj 51 282 expr~ int($v1);
#X obj 269 30 inlet;
#X obj 266 76 clip 0 16;
#N canvas 0 50 450 300 bypass~ 0;
#X obj 35 32 inlet~;
#X obj 251 35 inlet;
#X obj 35 279 outlet~;
#X obj 51 227 line~;
#X obj 35 252 *~;
#X msg 51 195 1 5;
#X msg 84 195 0 5;
#X text 84 32 audio input;
#X obj 252 278 outlet~;
#X obj 268 226 line~;
#X obj 252 251 *~;
#X msg 268 194 1 5;
#X msg 301 194 0 5;
#X text 290 36 toggle (0/1);
#X obj 251 58 sel 0;
#X obj 238 92 t b b;
#X obj 281 92 t b b;
#X text 90 279 outlet for bypass;
#X text 310 278 outlet for processing;
#X obj 172 92 loadbang;
#X connect 0 0 4 0;
#X connect 0 0 10 0;
#X connect 1 0 14 0;
#X connect 3 0 4 1;
#X connect 4 0 2 0;
#X connect 5 0 3 0;
#X connect 6 0 3 0;
#X connect 9 0 10 1;
#X connect 10 0 8 0;
#X connect 11 0 9 0;
#X connect 12 0 9 0;
#X connect 14 0 15 0;
#X connect 14 1 16 0;
#X connect 15 0 5 0;
#X connect 15 1 12 0;
#X connect 16 0 6 0;
#X connect 16 1 11 0;
#X connect 19 0 5 0;
#X connect 19 0 12 0;
#X restore -45 170 pd bypass~;
#X obj 8 98 r Quantize;
#X connect 0 0 10 0;
#X connect 2 0 7 0;
#X connect 3 0 1 0;
#X connect 4 0 2 1;
#X connect 4 0 3 1;
#X connect 5 0 4 0;
#X connect 6 0 5 0;
#X connect 6 1 4 1;
#X connect 7 0 3 0;
#X connect 8 0 9 0;
#X connect 9 0 6 0;
#X connect 10 0 1 0;
#X connect 10 1 2 0;
#X connect 11 0 10 1;
#X restore 38 255 pd Quantiz;
#X obj 249 183 * 8;
#X obj 340 -166 r wordbutton-reset;
#X msg 340 -142 0;
#X obj 296 -107 s nothing;
#X obj 313 -83 s nada;
#X obj 328 -61 s rien;
#N canvas 642 61 450 300 ringmod 0;
#X obj 211 40 inlet;
#X obj 46 34 inlet~;
#X text 253 40 stream of incoming data values (0 - 100);
#X text 95 34 audio input;
#X text 43 383 one inlet~: audio data for processing;
#X text 43 411 one outlet~: processed audio;
#X text 43 397 one inlet: values interpreted as MIDI pitches (0-100)
;
#X obj 46 311 outlet~;
#X obj 211 208 line~;
#X obj 211 189 pack;
#X msg 234 163 5;
#X obj 211 101 mtof;
#X obj 211 60 clip 0 100;
#X text 103 310 audio output;
#X text 42 353 ring modulate an input signal;
#X text 43 339 milo-sfx-ringmod~.pd;
#X obj 195 250 *~;
#X obj 211 230 osc~;
#X obj 211 122 t f b;
#X obj 211 79 t f f;
#X text 42 368 one user-specified value: on/off key assignment;
#X obj 245 101 s pitch-report;
#X obj 599 310 declare -path z_nrci_abs;
#N canvas 0 50 450 300 bypass~ 0;
#X obj 35 32 inlet~;
#X obj 251 35 inlet;
#X obj 35 279 outlet~;
#X obj 51 227 line~;
#X obj 35 252 *~;
#X msg 51 195 1 5;
#X msg 84 195 0 5;
#X text 84 32 audio input;
#X obj 252 278 outlet~;
#X obj 268 226 line~;
#X obj 252 251 *~;
#X msg 268 194 1 5;
#X msg 301 194 0 5;
#X text 290 36 toggle (0/1);
#X obj 251 58 sel 0;
#X obj 238 92 t b b;
#X obj 281 92 t b b;
#X text 90 279 outlet for bypass;
#X text 310 278 outlet for processing;
#X obj 172 92 loadbang;
#X connect 0 0 4 0;
#X connect 0 0 10 0;
#X connect 1 0 14 0;
#X connect 3 0 4 1;
#X connect 4 0 2 0;
#X connect 5 0 3 0;
#X connect 6 0 3 0;
#X connect 9 0 10 1;
#X connect 10 0 8 0;
#X connect 11 0 9 0;
#X connect 12 0 9 0;
#X connect 14 0 15 0;
#X connect 14 1 16 0;
#X connect 15 0 5 0;
#X connect 15 1 12 0;
#X connect 16 0 6 0;
#X connect 16 1 11 0;
#X connect 19 0 5 0;
#X connect 19 0 12 0;
#X restore 70 227 pd bypass~;
#X obj 123 155 r RMon1;
#X connect 0 0 12 0;
#X connect 1 0 23 0;
#X connect 8 0 17 0;
#X connect 9 0 8 0;
#X connect 10 0 9 1;
#X connect 11 0 18 0;
#X connect 12 0 19 0;
#X connect 16 0 7 0;
#X connect 17 0 16 1;
#X connect 18 0 9 0;
#X connect 18 1 10 0;
#X connect 19 0 11 0;
#X connect 19 1 21 0;
#X connect 23 0 7 0;
#X connect 23 1 16 0;
#X connect 24 0 23 1;
#X restore 138 231 pd ringmod;
#N canvas 0 50 450 300 Quantiz 0;
#X obj -64 53 inlet~;
#X obj 48 360 outlet~;
#X obj 48 253 *~;
#X obj 48 317 /~;
#X obj 100 224 pow;
#X msg 107 196 2;
#X obj 119 163 t b f;
#X obj 51 282 expr~ int($v1);
#X obj 269 30 inlet;
#X obj 266 76 clip 0 16;
#N canvas 0 50 450 300 bypass~ 0;
#X obj 35 32 inlet~;
#X obj 251 35 inlet;
#X obj 35 279 outlet~;
#X obj 51 227 line~;
#X obj 35 252 *~;
#X msg 51 195 1 5;
#X msg 84 195 0 5;
#X text 84 32 audio input;
#X obj 252 278 outlet~;
#X obj 268 226 line~;
#X obj 252 251 *~;
#X msg 268 194 1 5;
#X msg 301 194 0 5;
#X text 290 36 toggle (0/1);
#X obj 251 58 sel 0;
#X obj 238 92 t b b;
#X obj 281 92 t b b;
#X text 90 279 outlet for bypass;
#X text 310 278 outlet for processing;
#X obj 172 92 loadbang;
#X connect 0 0 4 0;
#X connect 0 0 10 0;
#X connect 1 0 14 0;
#X connect 3 0 4 1;
#X connect 4 0 2 0;
#X connect 5 0 3 0;
#X connect 6 0 3 0;
#X connect 9 0 10 1;
#X connect 10 0 8 0;
#X connect 11 0 9 0;
#X connect 12 0 9 0;
#X connect 14 0 15 0;
#X connect 14 1 16 0;
#X connect 15 0 5 0;
#X connect 15 1 12 0;
#X connect 16 0 6 0;
#X connect 16 1 11 0;
#X connect 19 0 5 0;
#X connect 19 0 12 0;
#X restore -45 170 pd bypass~;
#X obj 8 98 r Quantize1;
#X connect 0 0 10 0;
#X connect 2 0 7 0;
#X connect 3 0 1 0;
#X connect 4 0 2 1;
#X connect 4 0 3 1;
#X connect 5 0 4 0;
#X connect 6 0 5 0;
#X connect 6 1 4 1;
#X connect 7 0 3 0;
#X connect 8 0 9 0;
#X connect 9 0 6 0;
#X connect 10 0 1 0;
#X connect 10 1 2 0;
#X connect 11 0 10 1;
#X restore 138 252 pd Quantiz;
#X obj 369 131 unpack f f;
#X obj 367 178 * 100;
#X obj 424 178 * 8;
#X obj 369 109 r fxcontrol1;
#X obj 95 313 tanh~;
#X text 188 90 controle des effets comme dans l'épisode 2;
#X text 370 -143 on envoit des zéros partout pour tout remettre à zéro.
;
#X text 45 1 BATTERIE;
#X text 152 18 SYNTHE;
#X obj 426 152 route 0;
#X obj 369 152 route 0;
#X obj 249 157 route 0;
#X obj 192 157 route 0;
#X connect 0 0 23 0;
#X connect 2 0 0 0;
#X connect 3 0 4 0;
#X connect 4 0 37 0;
#X connect 4 1 36 0;
#X connect 9 0 13 0;
#X connect 10 0 15 0;
#X connect 13 0 16 0;
#X connect 14 0 13 1;
#X connect 16 0 29 0;
#X connect 17 0 16 1;
#X connect 18 0 19 0;
#X connect 19 0 11 0;
#X connect 19 0 12 0;
#X connect 19 0 15 0;
#X connect 19 0 20 0;
#X connect 19 0 21 0;
#X connect 19 0 22 0;
#X connect 23 0 24 0;
#X connect 24 0 29 0;
#X connect 25 0 35 0;
#X connect 25 1 34 0;
#X connect 26 0 23 1;
#X connect 27 0 24 1;
#X connect 28 0 25 0;
#X connect 29 0 5 0;
#X connect 29 0 5 1;
#X connect 34 1 27 0;
#X connect 35 1 26 0;
#X connect 36 1 17 0;
#X connect 37 1 14 0;
#X restore 281 15 pd audio;
#X obj 67 46 tgl 20 0 dt1 dt1.r empty 17 7 0 10 -262144 -1 -1 0 1;
#X obj 8 46 taplist 50 20 nada drum-line Kick Snare RimShot Hihat;
#X obj 92 46 tgl 20 0 dt2 dt2.r empty 17 7 0 10 -262144 -1 -1 0 1;
#X obj 117 46 tgl 20 0 dt3 dt3.r empty 17 7 0 10 -262144 -1 -1 0 1
;
#X obj 142 46 tgl 20 0 dt4 dt4.r empty 17 7 0 10 -262144 -1 -1 0 1
;
#X obj 167 46 tgl 20 0 dt5 dt5.r empty 17 7 0 10 -262144 -1 -1 0 1
;
#X obj 192 46 tgl 20 0 dt6 dt6.r empty 17 7 0 10 -262144 -1 -1 0 1
;
#X obj 217 46 tgl 20 0 dt7 dt7.r empty 17 7 0 10 -262144 -1 -1 0 1
;
#X obj 242 46 tgl 20 0 dt8 dt8.r empty 17 7 0 10 -262144 -1 -1 0 1
;
#X obj 267 46 tgl 20 0 dt9 dt9.r empty 17 7 0 10 -262144 -1 -1 0 1
;
#X obj 292 46 tgl 20 0 dt10 dt10.r empty 17 7 0 10 -262144 -1 -1 0
1;
#X obj 317 46 tgl 20 0 dt11 dt11.r empty 17 7 0 10 -262144 -1 -1 0
1;
#X obj 342 46 tgl 20 0 dt12 dt12.r empty 17 7 0 10 -262144 -1 -1 0
1;
#X obj 367 46 tgl 20 0 dt13 dt13.r empty 17 7 0 10 -262144 -1 -1 0
1;
#X obj 392 46 tgl 20 0 dt14 dt14.r empty 17 7 0 10 -262144 -1 -1 0
1;
#X obj 417 46 tgl 20 0 dt15 dt15.r empty 17 7 0 10 -262144 -1 -1 0
1;
#X obj 442 46 tgl 20 0 dt16 dt16.r empty 17 7 0 10 -262144 -1 -1 0
1;
#X obj 67 71 taplist 20 20 nothing note1 Off C C# D Eb E F F# G G#
A Bb B;
#X obj 93 71 taplist 20 20 nothing note2 Off C C# D Eb E F F# G G#
A Bb B;
#X obj 117 71 taplist 20 20 nothing note3 Off C C# D Eb E F F# G G#
A Bb B;
#X obj 143 71 taplist 20 20 nothing note4 Off C C# D Eb E F F# G G#
A Bb B;
#X obj 168 71 taplist 20 20 nothing note5 Off C C# D Eb E F F# G G#
A Bb B;
#X obj 192 71 taplist 20 20 nothing note6 Off C C# D Eb E F F# G G#
A Bb B;
#X obj 218 71 taplist 20 20 nothing note7 Off C C# D Eb E F F# G G#
A Bb B;
#X obj 242 71 taplist 20 20 nothing note8 Off C C# D Eb E F F# G G#
A Bb B;
#X obj 267 71 taplist 20 20 nothing note9 Off C C# D Eb E F F# G G#
A Bb B;
#X obj 293 71 taplist 20 20 nothing note10 Off C C# D Eb E F F# G G#
A Bb B;
#X obj 343 71 taplist 20 20 nothing note12 Off C C# D Eb E F F# G G#
A Bb B;
#X obj 368 71 taplist 20 20 nothing note13 Off C C# D Eb E F F# G G#
A Bb B;
#X obj 318 71 taplist 20 20 nothing note11 Off C C# D Eb E F F# G G#
A Bb B;
#X obj 393 71 taplist 20 20 nothing note14 Off C C# D Eb E F F# G G#
A Bb B;
#X obj 417 71 taplist 20 20 nothing note15 Off C C# D Eb E F F# G G#
A Bb B;
#X obj 442 71 taplist 20 20 nothing note16 Off C C# D Eb E F F# G G#
A Bb B;
#X obj 67 139 tgl 20 0 accent1 nada empty 17 7 0 10 -262144 -1 -1 0
1;
#X obj 92 139 tgl 20 0 accent2 nada empty 17 7 0 10 -262144 -1 -1 0
1;
#X obj 117 139 tgl 20 0 accent3 nada empty 17 7 0 10 -262144 -1 -1
0 1;
#X obj 142 139 tgl 20 0 accent4 nada empty 17 7 0 10 -262144 -1 -1
0 1;
#X obj 167 139 tgl 20 0 accent5 nada empty 17 7 0 10 -262144 -1 -1
0 1;
#X obj 192 139 tgl 20 0 accent6 nada empty 17 7 0 10 -262144 -1 -1
0 1;
#X obj 217 139 tgl 20 0 accent7 nada empty 17 7 0 10 -262144 -1 -1
0 1;
#X obj 242 139 tgl 20 0 accent8 nada empty 17 7 0 10 -262144 -1 -1
0 1;
#X obj 267 139 tgl 20 0 accent9 nada empty 17 7 0 10 -262144 -1 -1
0 1;
#X obj 292 139 tgl 20 0 accent10 nada empty 17 7 0 10 -262144 -1 -1
0 1;
#X obj 317 139 tgl 20 0 accent11 nada empty 17 7 0 10 -262144 -1 -1
0 1;
#X obj 342 139 tgl 20 0 accent12 nada empty 17 7 0 10 -262144 -1 -1
0 1;
#X obj 367 139 tgl 20 0 accent13 nada empty 17 7 0 10 -262144 -1 -1
0 1;
#X obj 392 139 tgl 20 0 accent14 nada empty 17 7 0 10 -262144 -1 -1
0 1;
#X obj 417 139 tgl 20 0 accent15 nada empty 17 7 0 10 -262144 -1 -1
0 1;
#X obj 442 139 tgl 20 0 accent16 nada empty 17 7 0 10 -262144 -1 -1
0 1;
#X text 19 70 Note;
#X text 15 137 Accent;
#X text 14 93 Octave;
#X text 63 300 |;
#X text 167 201 >;
#X obj 67 163 tgl 20 0 glide1 rien empty 17 7 0 10 -262144 -1 -1 1
1;
#X obj 92 163 tgl 20 0 glide2 rien empty 17 7 0 10 -262144 -1 -1 0
1;
#X obj 117 163 tgl 20 0 glide3 rien empty 17 7 0 10 -262144 -1 -1 0
1;
#X obj 142 163 tgl 20 0 glide4 rien empty 17 7 0 10 -262144 -1 -1 0
1;
#X obj 167 163 tgl 20 0 glide5 rien empty 17 7 0 10 -262144 -1 -1 0
1;
#X obj 192 163 tgl 20 0 glide6 rien empty 17 7 0 10 -262144 -1 -1 0
1;
#X obj 217 163 tgl 20 0 glide7 rien empty 17 7 0 10 -262144 -1 -1 0
1;
#X obj 242 163 tgl 20 0 glide8 rien empty 17 7 0 10 -262144 -1 -1 0
1;
#X obj 267 163 tgl 20 0 glide9 rien empty 17 7 0 10 -262144 -1 -1 0
1;
#X obj 292 163 tgl 20 0 glide10 rien empty 17 7 0 10 -262144 -1 -1
1 1;
#X obj 317 163 tgl 20 0 glide11 rien empty 17 7 0 10 -262144 -1 -1
0 1;
#X obj 342 163 tgl 20 0 glide12 rien empty 17 7 0 10 -262144 -1 -1
0 1;
#X obj 367 163 tgl 20 0 glide13 rien empty 17 7 0 10 -262144 -1 -1
0 1;
#X obj 392 163 tgl 20 0 glide14 rien empty 17 7 0 10 -262144 -1 -1
0 1;
#X obj 417 163 tgl 20 0 glide15 rien empty 17 7 0 10 -262144 -1 -1
0 1;
#X obj 442 163 tgl 20 0 glide16 rien empty 17 7 0 10 -262144 -1 -1
0 1;
#X text 15 162 Glide;
#X text 8 116 Duration;
#X obj 385 228 hsl 80 15 0 1 0 0 fromattack toattack empty -2 -6 1
8 -258113 -1 -1 3000 1;
#X obj 385 261 hsl 80 15 0 1 0 0 fromdecay todecay empty -2 -6 1 8
-258113 -1 -1 4500 1;
#X obj 385 296 hsl 80 15 0 1 0 0 fromshape toshape empty -2 -6 1 8
-258113 -1 -1 3200 1;
#X obj 67 116 taplist 20 20 null half1 /1 /2 /3 /4;
#X obj 92 116 taplist 20 20 null half2 /1 /2 /3 /4;
#X obj 117 116 taplist 20 20 null half3 /1 /2 /3 /4;
#X obj 143 116 taplist 20 20 null half4 /1 /2 /3 /4;
#X obj 167 116 taplist 20 20 null half5 /1 /2 /3 /4;
#X obj 192 116 taplist 20 20 null half6 /1 /2 /3 /4;
#X obj 218 116 taplist 20 20 null half7 /1 /2 /3 /4;
#X obj 242 116 taplist 20 20 null half8 /1 /2 /3 /4;
#X obj 268 116 taplist 20 20 null half9 /1 /2 /3 /4;
#X obj 293 116 taplist 20 20 null half10 /1 /2 /3 /4;
#X obj 318 116 taplist 20 20 null half11 /1 /2 /3 /4;
#X obj 343 116 taplist 20 20 null half12 /1 /2 /3 /4;
#X obj 368 116 taplist 20 20 null half13 /1 /2 /3 /4;
#X obj 393 116 taplist 20 20 null half14 /1 /2 /3 /4;
#X obj 418 116 taplist 20 20 null half15 /1 /2 /3 /4;
#X obj 443 116 taplist 20 20 null half16 /1 /2 /3 /4;
#X text 380 210 Attack;
#X text 380 244 Decay;
#X text 381 276 Shape;
#X text 63 304 v;
#X obj 56 218 tgl 15 0 RMon empty empty 17 7 0 10 -262144 -1 -1 0 1
;
#X obj 56 236 tgl 15 0 Quantize empty empty 17 7 0 10 -262144 -1 -1
0 1;
#X text 3 215 Ring Mod;
#X text 110 200 Ring mod;
#X text 4 233 Quantize;
#X text 5 303 Quantizer;
#X obj 340 13 wordbutton 50 20 reset;
#X obj 411 13 taplist 50 20 blah soundpack SB1 SB2 SB3 SB4 SB5;
#X obj 442 94 taplist 20 20 nichts octave16 *0 *1 *2 *3;
#X obj 418 94 taplist 20 20 nichts octave15 *0 *1 *2 *3;
#X obj 393 94 taplist 20 20 nichts octave14 *0 *1 *2 *3;
#X obj 368 94 taplist 20 20 nichts octave13 *0 *1 *2 *3;
#X obj 343 94 taplist 20 20 nichts octave12 *0 *1 *2 *3;
#X obj 67 94 taplist 20 20 nichts octave1 *0 *1 *2 *3;
#X obj 92 94 taplist 20 20 nichts octave2 *0 *1 *2 *3;
#X obj 117 94 taplist 20 20 nichts octave3 *0 *1 *2 *3;
#X obj 143 94 taplist 20 20 nichts octave4 *0 *1 *2 *3;
#X obj 167 94 taplist 20 20 nichts octave5 *0 *1 *2 *3;
#X obj 192 94 taplist 20 20 nichts octave6 *0 *1 *2 *3;
#X obj 218 94 taplist 20 20 nichts octave7 *0 *1 *2 *3;
#X obj 242 94 taplist 20 20 nichts octave8 *0 *1 *2 *3;
#X obj 268 94 taplist 20 20 nichts octave9 *0 *1 *2 *3;
#X obj 293 94 taplist 20 20 nichts octave10 *0 *1 *2 *3;
#X obj 318 94 taplist 20 20 nichts octave11 *0 *1 *2 *3;
#X obj 74 218 touch 100 100 fxcontrol;
#X text 259 300 |;
#X text 363 201 >;
#X text 358 196 _;
#X text 259 304 v;
#X obj 252 218 tgl 15 0 RMon1 empty empty 17 7 0 10 -262144 -1 -1 0
1;
#X obj 252 236 tgl 15 0 Quantize1 empty empty 17 7 0 10 -262144 -1
-1 0 1;
#X text 199 215 Ring Mod;
#X text 306 200 Ring mod;
#X text 200 233 Quantize;
#X text 201 303 Quantizer;
#X obj 270 218 touch 100 100 fxcontrol1;
#X text 162 196 _;
#X obj 55 196 wordbutton 50 20 Drums;
#X obj 252 195 wordbutton 50 20 Bass;
