#N canvas 515 328 601 399 10;
#X obj 145 34 adc~;
#X obj 105 205 tabwrite~ monitor;
#N canvas 0 50 450 250 (subpatch) 0;
#X array monitor 44100 float 2;
#X coords 0 1 44100 -1 200 140 1;
#X restore 312 79 graph;
#X obj 189 58 loadbang;
#X obj 232 118 tgl 15 0 empty empty empty 17 7 0 10 -262144 -1 -1 1
1;
#X obj 189 80 metro 1100;
#X obj 111 118 clip~ -1 1;
#X obj 120 79 *~ 3;
#X connect 0 0 7 0;
#X connect 3 0 5 0;
#X connect 4 0 5 0;
#X connect 5 0 1 0;
#X connect 6 0 1 0;
#X connect 7 0 6 0;
