#N canvas 379 272 427 404 10;
#X obj 261 260 textfile;
#X msg 200 81 clear;
#X msg 276 236 print;
#X obj 261 184 list prepend add;
#X obj 261 210 list trim;
#X obj 113 179 s SSSAD_ADMIN;
#X obj 261 116 r SSSAD_ADMIN;
#X obj 261 160 route persist;
#X obj 261 138 list trim;
#X msg 113 113 save;
#X msg 157 152 set;
#X msg 96 228 write \$1;
#X obj 17 357 until;
#X obj 17 313 t b a;
#X msg 65 357 read \$1 \, rewind;
#X text 59 336 Avoid loops. A bang normally also works.;
#X obj 261 304 s SSSAD;
#X obj 333 321 s SSSAD_ADMIN;
#X msg 333 300 set;
#X obj 17 8 inlet load;
#X obj 96 8 inlet save;
#X obj 96 206 symbol;
#X obj 17 29 symbol;
#X obj 306 280 t b b;
#X msg 17 336 10000;
#X obj 96 35 t a b b b;
#X msg 150 113 presave;
#X connect 0 0 16 0;
#X connect 0 1 23 0;
#X connect 1 0 0 0;
#X connect 2 0 0 0;
#X connect 3 0 4 0;
#X connect 4 0 0 0;
#X connect 6 0 8 0;
#X connect 7 0 3 0;
#X connect 8 0 7 0;
#X connect 9 0 5 0;
#X connect 10 0 5 0;
#X connect 11 0 0 0;
#X connect 12 0 0 0;
#X connect 13 0 24 0;
#X connect 13 1 14 0;
#X connect 14 0 0 0;
#X connect 18 0 17 0;
#X connect 19 0 22 0;
#X connect 20 0 25 0;
#X connect 21 0 11 0;
#X connect 22 0 13 0;
#X connect 23 0 12 1;
#X connect 23 1 18 0;
#X connect 24 0 12 0;
#X connect 25 0 21 0;
#X connect 25 1 9 0;
#X connect 25 2 26 0;
#X connect 25 3 1 0;
#X connect 26 0 5 0;
#X coords 0 0 1 1 200 80 0;
