#N canvas 360 417 450 300 10;
#X obj 34 159 pack s s;
#X msg 34 210 \; \$2 read \$1;
#X obj 34 91 pack s s;
#X obj 287 11 loadbang;
#X obj 156 90 pack s s;
#X msg 156 209 \; \$2 write \$1;
#X obj 287 45 symbol \$2;
#X obj 34 34 r persist-load-\$1;
#X obj 156 33 r persist-save-\$1;
#X msg 34 123 symbol \$1-\$2;
#X obj 156 158 pack s s;
#X msg 155 122 symbol \$1-\$2;
#X connect 0 0 1 0;
#X connect 2 0 9 0;
#X connect 3 0 6 0;
#X connect 4 0 11 0;
#X connect 6 0 2 1;
#X connect 6 0 0 1;
#X connect 6 0 4 1;
#X connect 6 0 10 1;
#X connect 7 0 2 0;
#X connect 8 0 4 0;
#X connect 9 0 0 0;
#X connect 10 0 5 0;
#X connect 11 0 10 0;
