#N canvas 818 467 450 300 10;
#X obj 57 132 pack s f;
#X obj 57 68 symbol \$3;
#X obj 57 42 r persist-dump-\$1;
#X obj 102 107 r \$2;
#X obj 57 165 s persist-flow-\$1;
#X connect 0 0 4 0;
#X connect 1 0 0 0;
#X connect 2 0 1 0;
#X connect 3 0 0 1;
