#N canvas 244 296 937 382 10;
#X obj 88 28 inlet load;
#X obj 519 32 inlet save;
#X obj 568 352 textfile;
#X msg 537 234 write \$1;
#X msg 434 225 clear;
#X obj 724 209 list append;
#X obj 799 209 t l;
#X msg 787 178 list;
#X obj 727 242 list append;
#X obj 638 105 t b b;
#X obj 812 270 t l;
#X obj 727 271 list split 2;
#X msg 727 293 add \$1 \$2 \;;
#X obj 195 264 textfile;
#X msg 255 219 read \$1;
#X msg 196 216 rewind;
#X obj 201 298 t b b;
#X obj 185 337 spigot 0;
#X msg 241 304 0;
#X msg 144 170 1;
#X obj 123 86 t b s s s;
#X msg 104 321 \; \$1 \$2;
#X obj 104 295 list;
#X obj 582 142 s persist-dump-\$1;
#X obj 724 145 r persist-flow-\$1;
#X msg 419 288 write \$1;
#X obj 378 171 t s b b s;
#X obj 515 72 t s s b;
#X obj 352 102 s persist-save-\$1;
#X obj 13 119 s persist-load-\$1;
#X connect 0 0 20 0;
#X connect 0 0 29 0;
#X connect 1 0 27 0;
#X connect 3 0 2 0;
#X connect 4 0 2 0;
#X connect 5 0 6 0;
#X connect 5 0 8 1;
#X connect 6 0 5 1;
#X connect 7 0 5 1;
#X connect 8 0 11 0;
#X connect 9 0 23 0;
#X connect 9 1 7 0;
#X connect 10 0 11 0;
#X connect 11 0 12 0;
#X connect 11 1 10 0;
#X connect 12 0 2 0;
#X connect 13 0 16 0;
#X connect 13 0 22 0;
#X connect 13 1 18 0;
#X connect 14 0 13 0;
#X connect 15 0 13 0;
#X connect 16 0 17 0;
#X connect 17 0 13 0;
#X connect 18 0 17 1;
#X connect 19 0 17 1;
#X connect 20 0 13 0;
#X connect 20 1 19 0;
#X connect 20 2 15 0;
#X connect 20 3 14 0;
#X connect 22 0 21 0;
#X connect 24 0 5 0;
#X connect 25 0 2 0;
#X connect 26 0 25 0;
#X connect 26 1 8 0;
#X connect 26 2 4 0;
#X connect 26 3 3 0;
#X connect 27 0 28 0;
#X connect 27 1 26 0;
#X connect 27 2 9 0;
