#N canvas 612 235 535 452 10;
#X obj 185 195 f 0;
#X obj 219 195 + 1;
#X obj 184 342 bng 15 50 50 0 empty empty empty 17 7 0 10 -262144 -1
-1;
#X obj 184 303 select 0;
#X obj 303 89 select 0 1 2 3 4;
#X obj 185 260 mod 24;
#X obj 130 80 select 0;
#X obj 228 349 outlet;
#X obj 390 203 f 8;
#X obj 78 79 mod 48;
#X obj 279 152 f 12;
#X obj 314 176 f 6;
#X obj 350 190 f 24;
#X obj 185 145 inlet;
#X obj 303 68 *;
#X obj 303 46 random 3;
#X connect 0 0 1 0;
#X connect 0 0 5 0;
#X connect 0 0 9 0;
#X connect 1 0 0 1;
#X connect 3 0 2 0;
#X connect 3 0 7 0;
#X connect 4 0 10 0;
#X connect 4 1 11 0;
#X connect 4 2 12 0;
#X connect 4 3 8 0;
#X connect 5 0 3 0;
#X connect 6 0 15 0;
#X connect 8 0 5 1;
#X connect 9 0 6 0;
#X connect 10 0 5 1;
#X connect 11 0 5 1;
#X connect 12 0 5 1;
#X connect 13 0 0 0;
#X connect 14 0 4 0;
#X connect 15 0 14 0;
#X connect 15 0 14 1;
