#N canvas 714 421 450 300 10;
#X msg 172 94 start;
#X obj 127 27 select 0;
#X obj 106 138 bang;
#X obj 106 218 f 1;
#X obj 106 240 select 1;
#X obj 97 73 f 0;
#X obj 175 211 f 1;
#X msg 130 82 stop, f 5;
#X obj 32 274 outlet;
#X obj 127 5 inlet;
#X obj 106 186 delay \$1;
#X obj 106 262 outlet;
#X connect 0 0 2 0;
#X connect 0 0 8 0;
#X connect 1 0 5 0;
#X connect 1 0 7 0;
#X connect 1 1 0 0;
#X connect 2 0 6 0;
#X connect 2 0 10 0;
#X connect 3 0 4 0;
#X connect 4 0 11 0;
#X connect 5 0 4 1;
#X connect 6 0 4 1;
#X connect 7 0 8 0;
#X connect 9 0 1 0;
#X connect 10 0 3 0;
