#N canvas 303 286 726 383 10;
#X declare -path ../../../../pd-party/droidparty-abstractions;
#N canvas 417 107 879 659 core 0;
#X obj 84 81 adc~;
#X obj 315 301 + 1;
#X obj 315 275 random 2;
#X obj 360 228 r tracks.range.s;
#X obj 360 250 + 1;
#N canvas 0 50 450 250 (subpatch) 0;
#X array mutes 4 float 3;
#A 0 1 1 1 1;
#X coords 0 1 4 0 100 50 1 0 0;
#X restore 483 22 graph;
#X obj 393 336 spigot 1;
#X obj 699 130 select 0;
#X obj 699 76 r tracks.solo.s;
#X obj 650 163 i 1;
#X obj 743 156 bang;
#X obj 743 210 i 0;
#X obj 644 379 spigot;
#X obj 644 339 +;
#X obj 685 173 i 0;
#X obj 786 211 i 1;
#X obj 381 51 clock, f 7;
#X obj 17 13 declare -path ../../../../pd-party/droidparty-abstractions
;
#N canvas 66 88 450 440 player 0;
#X obj 174 30 inlet index;
#X obj 185 301 tabread4~;
#X obj 184 398 dac~;
#X obj 296 282 tabread mutes;
#X obj 296 217 - 1;
#X obj 185 342 *~;
#X obj 296 333 *;
#X obj 311 310 r volume.s;
#N canvas 432 160 361 608 envelop 0;
#X obj 80 536 line~;
#X obj 80 292 + 22050;
#X obj 80 89 random 44100;
#X obj 149 59 r pitch.delta.s;
#X obj 119 153 r pitch.base.s;
#X obj 119 241 +;
#X obj 137 183 r pitch.bend.s;
#X obj 137 205 t b f;
#X obj 80 13 inlet;
#X obj 80 558 outlet~;
#X obj 80 471 pack f f;
#X msg 80 505 \$2 \, \$1 1000;
#X obj 80 438 +;
#X obj 251 173 - 1;
#X obj 80 35 t b f, f 29;
#X obj 251 238 tabread offsets;
#X obj 251 281 * 22050;
#X connect 0 0 9 0;
#X connect 1 0 12 0;
#X connect 2 0 1 0;
#X connect 3 0 2 1;
#X connect 4 0 5 0;
#X connect 5 0 1 1;
#X connect 6 0 7 0;
#X connect 7 0 5 0;
#X connect 7 1 5 1;
#X connect 8 0 14 0;
#X connect 10 0 11 0;
#X connect 11 0 0 0;
#X connect 12 0 10 0;
#X connect 13 0 15 0;
#X connect 14 0 2 0;
#X connect 14 1 13 0;
#X connect 15 0 16 0;
#X connect 16 0 12 1;
#X connect 16 0 10 1;
#X restore 29 159 pd envelop;
#X msg 185 260 set smp\$1;
#X obj 174 73 t f f;
#X connect 0 0 10 0;
#X connect 1 0 5 0;
#X connect 3 0 6 0;
#X connect 4 0 3 0;
#X connect 5 0 2 0;
#X connect 5 0 2 1;
#X connect 6 0 5 1;
#X connect 7 0 6 1;
#X connect 8 0 1 0;
#X connect 9 0 1 0;
#X connect 10 0 8 0;
#X connect 10 1 9 0;
#X connect 10 1 4 0;
#X restore 393 590 pd player;
#N canvas 66 85 871 481 autorec 0;
#X obj 48 33 r autorec.s;
#X obj 48 55 f 0;
#X obj 77 54 + 1;
#X msg 48 194 \; rec.\$1.r 1;
#X obj 48 165 + 1;
#X obj 48 136 mod 2;
#X obj 75 92 r tracks.range.s;
#X obj 75 114 + 1;
#X msg 395 428 \; rec.\$1.r 0;
#X obj 353 308 f 0;
#X obj 356 404 moses 1;
#X obj 341 138 select 1;
#X msg 341 160 1;
#X obj 341 113 r rec.1.s;
#X obj 409 138 select 1;
#X obj 477 138 select 1;
#X obj 546 136 select 1;
#X msg 409 160 2;
#X msg 477 160 3;
#X msg 546 158 4;
#X obj 546 111 r rec.4.s;
#X obj 477 113 r rec.3.s;
#X obj 409 113 r rec.2.s;
#X obj 353 352 select;
#X obj 341 200 t f b f, f 8;
#X text 455 350 Stop previous rec if any and not same as current;
#X obj 254 284 r autostop.s;
#X obj 254 306 bang;
#X obj 326 352 f 0;
#X connect 0 0 1 0;
#X connect 1 0 2 0;
#X connect 1 0 5 0;
#X connect 2 0 1 1;
#X connect 4 0 3 0;
#X connect 5 0 4 0;
#X connect 6 0 7 0;
#X connect 7 0 5 1;
#X connect 9 0 23 0;
#X connect 10 1 8 0;
#X connect 11 0 12 0;
#X connect 12 0 24 0;
#X connect 13 0 11 0;
#X connect 14 0 17 0;
#X connect 15 0 18 0;
#X connect 16 0 19 0;
#X connect 17 0 24 0;
#X connect 18 0 24 0;
#X connect 19 0 24 0;
#X connect 20 0 16 0;
#X connect 21 0 15 0;
#X connect 22 0 14 0;
#X connect 23 1 10 0;
#X connect 24 0 9 1;
#X connect 24 0 28 1;
#X connect 24 1 9 0;
#X connect 24 2 23 1;
#X connect 26 0 27 0;
#X connect 27 0 28 0;
#X connect 28 0 10 0;
#X restore 597 24 pd autorec;
#N canvas 66 80 450 300 reset 0;
#X obj 74 28 r pitch.reset;
#X obj 35 87 s pitch.base.r;
#X obj 35 65 f 44100;
#X obj 138 63 f 0;
#X obj 138 85 s pitch.bend.r;
#X connect 0 0 2 0;
#X connect 0 0 3 0;
#X connect 2 0 1 0;
#X connect 3 0 4 0;
#X restore 597 53 pd reset;
#X obj 177 192 track~ 3;
#N canvas 66 80 502 523 sequencer 0;
#X obj 33 354 randrum;
#X obj 33 327 spigot 0;
#X obj 78 248 r seq.mode.s;
#X msg 78 292 1;
#X msg 123 292 0;
#X obj 149 11 inlet clock;
#X obj 176 489 outlet bang;
#X obj 170 332 spigot 0;
#X obj 287 186 r seq.mode.s;
#X obj 78 270 select 1;
#X obj 170 377 mod 24;
#X obj 170 399 select 0;
#X msg 215 297 0;
#X msg 254 298 1;
#X obj 287 208 - 2;
#X obj 215 275 moses 0;
#X msg 287 307 96;
#X msg 302 331 48;
#X msg 317 308 24;
#X msg 395 335 4;
#X msg 332 333 16;
#X msg 364 335 8;
#X msg 349 311 12;
#X msg 380 312 6;
#X msg 411 312 3;
#X msg 426 336 2;
#X msg 442 313 1;
#X obj 287 285 select 0 1 2 3 4 5 6 7 8 9 10;
#X connect 0 0 6 0;
#X connect 1 0 0 0;
#X connect 2 0 9 0;
#X connect 3 0 1 1;
#X connect 4 0 1 1;
#X connect 5 0 1 0;
#X connect 5 0 7 0;
#X connect 7 0 10 0;
#X connect 8 0 14 0;
#X connect 9 0 3 0;
#X connect 9 1 4 0;
#X connect 10 0 11 0;
#X connect 11 0 6 0;
#X connect 12 0 7 1;
#X connect 13 0 7 1;
#X connect 14 0 15 0;
#X connect 14 0 27 0;
#X connect 15 0 12 0;
#X connect 15 1 13 0;
#X connect 16 0 10 1;
#X connect 17 0 10 1;
#X connect 18 0 10 1;
#X connect 19 0 10 1;
#X connect 20 0 10 1;
#X connect 21 0 10 1;
#X connect 22 0 10 1;
#X connect 23 0 10 1;
#X connect 24 0 10 1;
#X connect 25 0 10 1;
#X connect 26 0 10 1;
#X connect 27 0 16 0;
#X connect 27 1 17 0;
#X connect 27 2 18 0;
#X connect 27 3 20 0;
#X connect 27 4 22 0;
#X connect 27 5 21 0;
#X connect 27 6 23 0;
#X connect 27 7 19 0;
#X connect 27 8 24 0;
#X connect 27 9 25 0;
#X connect 27 10 26 0;
#X restore 381 128 pd sequencer;
#X obj 483 81 table offsets 4;
#X obj 114 225 track~ 2;
#X obj 57 255 track~ 1;
#X obj 237 146 track~ 4;
#X connect 0 0 21 0;
#X connect 0 0 24 0;
#X connect 0 0 25 0;
#X connect 0 0 26 0;
#X connect 1 0 6 0;
#X connect 2 0 1 0;
#X connect 3 0 4 0;
#X connect 4 0 2 1;
#X connect 6 0 18 0;
#X connect 7 0 9 0;
#X connect 7 0 14 0;
#X connect 7 1 10 0;
#X connect 7 1 13 1;
#X connect 8 0 7 0;
#X connect 9 0 6 1;
#X connect 10 0 11 0;
#X connect 10 0 15 0;
#X connect 11 0 6 1;
#X connect 12 0 18 0;
#X connect 13 0 12 0;
#X connect 14 0 12 1;
#X connect 15 0 12 1;
#X connect 16 0 22 0;
#X connect 21 0 18 0;
#X connect 22 0 2 0;
#X connect 22 0 13 0;
#X connect 24 0 18 0;
#X connect 25 0 18 0;
#X connect 26 0 18 0;
#X restore 261 18 pd core;
#X obj 357 78 tgl 32 0 enable.1.s enable.1.r empty 17 7 0 10 -262144
-1 -1 0 1;
#X text 217 21 Record;
#X obj 237 305 bng 32 250 50 0 autorec.s empty Rec 0 -7 0 10 -262144
-1 -1;
#X obj 218 78 tgl 32 0 rec.1.s rec.1.r empty 17 7 0 10 -262144 -1 -1
0 1;
#X obj 315 78 bng 32 250 50 0 play.1.s empty empty 17 7 0 10 -262144
-1 -1;
#X obj 357 126 tgl 32 0 enable.2.s enable.2.r empty 17 7 0 10 -262144
-1 -1 0 1;
#X obj 218 126 tgl 32 0 rec.2.s rec.2.r empty 17 7 0 10 -262144 -1
-1 0 1;
#X obj 315 126 bng 32 250 50 0 play.2.s empty empty 17 7 0 10 -262144
-1 -1;
#X obj 25 315 hsl 128 15 0 44100 0 0 pitch.delta.s pitch.delta.r Pitch_Mod.
-2 -8 0 10 -262144 -1 -1 0 1;
#X obj 357 174 tgl 32 0 enable.3.s enable.3.r empty 17 7 0 10 -262144
-1 -1 0 1;
#X obj 218 174 tgl 32 0 rec.3.s rec.3.r empty 17 7 0 10 -262144 -1
-1 0 1;
#X obj 315 174 bng 32 250 50 0 play.3.s empty empty 17 7 0 10 -262144
-1 -1;
#X obj 357 222 tgl 32 0 enable.4.s enable.4.r empty 17 7 0 10 -262144
-1 -1 0 1;
#X obj 218 222 tgl 32 0 rec.4.s rec.4.r empty 17 7 0 10 -262144 -1
-1 0 1;
#X obj 315 222 bng 32 250 50 0 play.4.s empty empty 17 7 0 10 -262144
-1 -1;
#X obj 520 18 clock-gui;
#X text 25 5 Solo;
#X text 153 48 Range;
#X text 235 350 AutoRecCycle;
#X obj 21 280 cnv 15 600 1 empty empty empty 20 12 0 14 -233017 -66577
0;
#X obj 598 52 cnv 15 1 220 empty empty empty 20 12 0 14 -228856 -66577
0;
#X obj 25 347 hsl 128 15 22050 66150 0 1 pitch.base.s pitch.base.r
Pitch -2 -8 0 10 -262144 -1 -1 6350 1;
#X obj 163 329 bng 32 250 50 0 pitch.reset empty empty 17 7 0 10 -262144
-1 -1;
#X text 160 308 Reset;
#N canvas 0 50 450 250 (subpatch) 0;
#X array smp2 44100 float 0;
#X coords 0 1 44099 -1 32 32 1 0 0;
#X restore 265 126 graph;
#N canvas 0 50 450 250 (subpatch) 0;
#X array smp3 44100 float 0;
#X coords 0 1 44099 -1 32 32 1 0 0;
#X restore 265 174 graph;
#N canvas 0 50 450 250 (subpatch) 0;
#X array smp4 44100 float 0;
#X coords 0 1 44099 -1 32 32 1 0 0;
#X restore 265 222 graph;
#N canvas 0 50 450 250 (subpatch) 0;
#X array smp1 44100 float 0;
#X coords 0 1 44099 -1 32 32 1 0 0;
#X restore 265 78 graph;
#X obj 334 302 hsl 200 48 0 1 0 0 volume.s volume.r Volume -2 -8 0
10 -262144 -1 -1 19900 1;
#X obj 284 305 bng 32 250 50 0 autostop.s empty Stop 0 -7 0 10 -262144
-1 -1;
#X obj 404 126 hsl 180 32 0 1 0 0 latency.2.s latency.2.r Latency2
-2 -8 0 10 -262144 -1 -1 0 1;
#X obj 679 15 vradio 32 1 0 11 seq.mode.s seq.mode.r Mode 0 -8 0 10
-262144 -1 -1 0;
#X text 634 57 Random;
#X text 649 20 Off;
#X text 658 282 4x;
#X text 656 250 3x;
#X text 658 215 2x;
#X text 646 184 1.5x;
#X text 658 156 1x;
#X text 647 121 1/2x;
#X text 646 89 1/4x;
#X text 655 314 6x;
#X text 657 346 8x;
#X obj 148 70 vradio 48 1 0 4 tracks.range.s tracks.range.r empty 0
-8 0 10 -262144 -1 -1 3;
#X obj 16 22 vradio 48 1 0 5 tracks.solo.s tracks.solo.r empty 0 -8
0 10 -262144 -1 -1 0;
#X obj 82 72 vsl 48 187 -22050 22050 0 0 pitch.bend.s pitch.bend.r
Bend 0 -9 0 10 -262144 -1 -1 9300 1;
#X obj 404 174 hsl 180 32 0 1 0 0 latency.3.s latency.3.r Latency3
-2 -8 0 10 -262144 -1 -1 0 1;
#X obj 404 222 hsl 180 32 0 1 0 0 latency.4.s latency.4.r Latency4
-2 -8 0 10 -262144 -1 -1 0 1;
#X obj 404 78 hsl 180 32 0 1 0 0 latency.1.s latency.1.r Latency1 -2
-8 0 10 -262144 -1 -1 0 1;
#X obj 207 36 cnv 15 390 1 empty empty empty 20 12 0 14 -233017 -66577
0;
#X text 67 23 Random;
#X text 314 22 Play;
#X text 357 22 Mute;
#X text 464 21 Offset;
#X obj 207 53 cnv 15 1 220 empty empty empty 20 12 0 14 -228856 -66577
0;
#N canvas 66 425 235 164 presets 0;
#X obj 38 27 loadsave storage;
#N canvas 709 294 426 412 loadsave-interface 0;
#X obj 65 170 s cb-save;
#X obj 65 149 r storage-save;
#X obj 165 149 r storage-load;
#X obj 165 170 s cb-load;
#X msg 213 69 \; storage load savefiles cbs;
#X msg 33 69 \; storage save savefiles cbs;
#X obj 33 47 r save.s;
#X obj 213 44 r load.s;
#X obj 208 230 r cb-save;
#X obj 47 208 r cb-load;
#X obj 74 261 persist-load global;
#X obj 208 257 persist-save global;
#X obj 47 232 t b a;
#X obj 82 305 s smp1.change;
#X obj 82 324 s smp2.change;
#X obj 82 345 s smp3.change;
#X obj 82 364 s smp4.change;
#X connect 1 0 0 0;
#X connect 2 0 3 0;
#X connect 6 0 5 0;
#X connect 7 0 4 0;
#X connect 8 0 11 0;
#X connect 9 0 12 0;
#X connect 12 0 13 0;
#X connect 12 0 14 0;
#X connect 12 0 15 0;
#X connect 12 0 16 0;
#X connect 12 1 10 0;
#X restore 38 50 pd loadsave-interface;
#N canvas 639 198 655 352 loadsave 0;
#X obj 24 22 persist-table global smp1;
#X obj 25 69 persist-table global smp3;
#X obj 24 92 persist-table global smp4;
#X obj 24 45 persist-table global smp2;
#X obj 24 124 persist-map global enable.1.s enable.1.r;
#X obj 23 148 persist-map global enable.2.s enable.2.r;
#X obj 21 168 persist-map global enable.3.s enable.3.r;
#X obj 22 192 persist-map global enable.4.s enable.4.r;
#X obj 19 227 persist-map global latency.1.s latency.1.r;
#X obj 19 247 persist-map global latency.2.s latency.2.r;
#X obj 19 269 persist-map global latency.3.s latency.3.r;
#X obj 20 288 persist-map global latency.4.s latency.4.r;
#X obj 314 32 persist-map global tracks.range.s tracks.range.r;
#X obj 313 62 persist-map global tracks.solo.s tracks.solo.r;
#X obj 315 92 persist-map global pitch.delta.s pitch.delta.r;
#X obj 316 121 persist-map global pitch.base.s pitch.base.r;
#X obj 317 150 persist-map global volume.s volume.r;
#X obj 317 180 persist-map global seq.mode.s seq.mode.r;
#X restore 38 72 pd loadsave;
#N canvas 220 374 450 300 init 0;
#X obj 158 43 loadbang;
#X msg 158 65 \; pitch.bend.r 0 \; pitch.base.r 44100 \; tracks.range.r
3 \; volume.r 1 \;;
#X connect 0 0 1 0;
#X restore 41 108 pd init;
#X restore 393 18 pd presets;
#X obj 560 333 bng 32 250 50 0 save.s empty Save 34 16 0 10 -262144
-1 -1;
#X obj 560 291 bng 32 250 50 0 load.s empty Load 34 16 0 10 -262144
-1 -1;
