#N canvas 515 191 643 408 10;
#X declare -path ../../../../pd-party/droidparty-abstractions;
#N canvas 433 99 879 659 core 1;
#X obj 84 81 adc~;
#X obj 315 301 + 1;
#X obj 315 275 random 2;
#X obj 360 228 r tracks.range.s;
#X obj 360 250 + 1;
#N canvas 0 50 450 250 (subpatch) 0;
#X array mutes 4 float 3;
#A 0 1 1 1 1;
#X coords 0 1 4 0 100 50 1 0 0;
#X restore 483 22 graph;
#X obj 393 336 spigot 1;
#X obj 699 130 select 0;
#X obj 699 76 r tracks.solo.s;
#X obj 650 163 i 1;
#X obj 743 156 bang;
#X obj 743 210 i 0;
#X obj 644 379 spigot;
#X obj 644 339 +;
#X obj 685 173 i 0;
#X obj 786 211 i 1;
#X obj 364 51 clock, f 12;
#X obj 17 13 declare -path ../../../../pd-party/droidparty-abstractions
;
#N canvas 66 84 450 440 player 0;
#X obj 174 30 inlet index;
#X obj 185 301 tabread4~;
#X obj 174 73 t b f;
#X obj 184 398 dac~;
#X obj 296 282 tabread mutes;
#X obj 296 217 - 1;
#X obj 185 342 *~;
#X obj 296 333 *;
#X obj 311 310 r volume.s;
#N canvas 66 194 361 476 envelop 0;
#X obj 80 423 line~;
#X obj 80 292 + 22050;
#X obj 80 89 random 44100;
#X obj 149 59 r pitch.delta.s;
#X obj 119 153 r pitch.base.s;
#X obj 119 241 +;
#X obj 137 183 r pitch.bend.s;
#X obj 137 205 t b f;
#X obj 80 13 inlet;
#X obj 80 445 outlet~;
#X obj 80 358 pack f f;
#X obj 161 292 r latency.s;
#X msg 80 392 \$2 \, \$1 1000;
#X obj 80 325 +;
#X connect 0 0 9 0;
#X connect 1 0 13 0;
#X connect 2 0 1 0;
#X connect 3 0 2 1;
#X connect 4 0 5 0;
#X connect 5 0 1 1;
#X connect 6 0 7 0;
#X connect 7 0 5 0;
#X connect 7 1 5 1;
#X connect 8 0 2 0;
#X connect 10 0 12 0;
#X connect 11 0 10 1;
#X connect 11 0 13 1;
#X connect 12 0 0 0;
#X connect 13 0 10 0;
#X restore 29 159 pd envelop;
#X msg 185 260 set smp\$1;
#X connect 0 0 2 0;
#X connect 1 0 6 0;
#X connect 2 0 9 0;
#X connect 2 1 10 0;
#X connect 2 1 5 0;
#X connect 4 0 7 0;
#X connect 5 0 4 0;
#X connect 6 0 3 0;
#X connect 6 0 3 1;
#X connect 7 0 6 1;
#X connect 8 0 7 1;
#X connect 9 0 1 0;
#X connect 10 0 1 0;
#X restore 393 590 pd player;
#N canvas 66 85 871 481 autorec 0;
#X obj 48 33 r autorec.s;
#X obj 48 55 f 0;
#X obj 77 54 + 1;
#X msg 48 194 \; rec.\$1.r 1;
#X obj 48 165 + 1;
#X obj 48 136 mod 2;
#X obj 75 92 r tracks.range.s;
#X obj 75 114 + 1;
#X msg 395 428 \; rec.\$1.r 0;
#X obj 353 308 f 0;
#X obj 356 404 moses 1;
#X obj 341 138 select 1;
#X msg 341 160 1;
#X obj 341 113 r rec.1.s;
#X obj 409 138 select 1;
#X obj 477 138 select 1;
#X obj 546 136 select 1;
#X msg 409 160 2;
#X msg 477 160 3;
#X msg 546 158 4;
#X obj 546 111 r rec.4.s;
#X obj 477 113 r rec.3.s;
#X obj 409 113 r rec.2.s;
#X obj 353 352 select;
#X obj 341 200 t f b f, f 8;
#X text 455 350 Stop previous rec if any and not same as current;
#X obj 254 284 r autostop.s;
#X obj 254 306 bang;
#X obj 326 352 f 0;
#X connect 0 0 1 0;
#X connect 1 0 2 0;
#X connect 1 0 5 0;
#X connect 2 0 1 1;
#X connect 4 0 3 0;
#X connect 5 0 4 0;
#X connect 6 0 7 0;
#X connect 7 0 5 1;
#X connect 9 0 23 0;
#X connect 10 1 8 0;
#X connect 11 0 12 0;
#X connect 12 0 24 0;
#X connect 13 0 11 0;
#X connect 14 0 17 0;
#X connect 15 0 18 0;
#X connect 16 0 19 0;
#X connect 17 0 24 0;
#X connect 18 0 24 0;
#X connect 19 0 24 0;
#X connect 20 0 16 0;
#X connect 21 0 15 0;
#X connect 22 0 14 0;
#X connect 23 1 10 0;
#X connect 24 0 9 1;
#X connect 24 0 28 1;
#X connect 24 1 9 0;
#X connect 24 2 23 1;
#X connect 26 0 27 0;
#X connect 27 0 28 0;
#X connect 28 0 10 0;
#X restore 597 24 pd autorec;
#N canvas 66 79 450 300 reset 0;
#X obj 74 28 r pitch.reset;
#X obj 35 87 s pitch.base.r;
#X obj 35 65 f 44100;
#X obj 138 63 f 0;
#X obj 138 85 s pitch.bend.r;
#X connect 0 0 2 0;
#X connect 0 0 3 0;
#X connect 2 0 1 0;
#X connect 3 0 4 0;
#X restore 597 53 pd reset;
#X obj 114 225 track~ 2;
#X obj 57 255 track~ 1;
#X obj 237 146 track~ 4;
#X obj 177 192 track~ 3;
#N canvas 66 78 502 523 sequencer 1;
#X obj 33 354 randrum;
#X obj 33 327 spigot 0;
#X obj 78 248 r seq.mode.s;
#X msg 78 292 1;
#X msg 123 292 0;
#X obj 149 11 inlet clock;
#X obj 176 489 outlet bang;
#X obj 170 332 spigot 0;
#X obj 287 186 r seq.mode.s;
#X obj 78 270 select 1;
#X obj 170 377 mod 24;
#X obj 170 399 select 0;
#X msg 215 297 0;
#X msg 254 298 1;
#X obj 287 208 - 2;
#X obj 215 275 moses 0;
#X msg 287 307 96;
#X msg 302 331 48;
#X msg 317 308 24;
#X msg 395 335 4;
#X msg 332 333 16;
#X msg 364 335 8;
#X msg 349 311 12;
#X msg 380 312 6;
#X msg 411 312 3;
#X msg 426 336 2;
#X msg 442 313 1;
#X obj 287 285 select 0 1 2 3 4 5 6 7 8 9 10;
#X connect 0 0 6 0;
#X connect 1 0 0 0;
#X connect 2 0 9 0;
#X connect 3 0 1 1;
#X connect 4 0 1 1;
#X connect 5 0 1 0;
#X connect 5 0 7 0;
#X connect 7 0 10 0;
#X connect 8 0 14 0;
#X connect 9 0 3 0;
#X connect 9 1 4 0;
#X connect 10 0 11 0;
#X connect 11 0 6 0;
#X connect 12 0 7 1;
#X connect 13 0 7 1;
#X connect 14 0 15 0;
#X connect 14 0 27 0;
#X connect 15 0 12 0;
#X connect 15 1 13 0;
#X connect 16 0 10 1;
#X connect 17 0 10 1;
#X connect 18 0 10 1;
#X connect 19 0 10 1;
#X connect 20 0 10 1;
#X connect 21 0 10 1;
#X connect 22 0 10 1;
#X connect 23 0 10 1;
#X connect 24 0 10 1;
#X connect 25 0 10 1;
#X connect 26 0 10 1;
#X connect 27 0 16 0;
#X connect 27 1 17 0;
#X connect 27 2 18 0;
#X connect 27 3 20 0;
#X connect 27 4 22 0;
#X connect 27 5 21 0;
#X connect 27 6 23 0;
#X connect 27 7 19 0;
#X connect 27 8 24 0;
#X connect 27 9 25 0;
#X connect 27 10 26 0;
#X restore 381 128 pd sequencer;
#X connect 0 0 21 0;
#X connect 0 0 22 0;
#X connect 0 0 23 0;
#X connect 0 0 24 0;
#X connect 1 0 6 0;
#X connect 2 0 1 0;
#X connect 3 0 4 0;
#X connect 4 0 2 1;
#X connect 6 0 18 0;
#X connect 7 0 9 0;
#X connect 7 0 14 0;
#X connect 7 1 10 0;
#X connect 7 1 13 1;
#X connect 8 0 7 0;
#X connect 9 0 6 1;
#X connect 10 0 11 0;
#X connect 10 0 15 0;
#X connect 11 0 6 1;
#X connect 12 0 18 0;
#X connect 13 0 12 0;
#X connect 14 0 12 1;
#X connect 15 0 12 1;
#X connect 16 1 25 0;
#X connect 21 0 18 0;
#X connect 22 0 18 0;
#X connect 23 0 18 0;
#X connect 24 0 18 0;
#X connect 25 0 2 0;
#X connect 25 0 13 0;
#X restore 17 7 pd core;
#X obj 74 205 tgl 32 0 enable.1.s empty empty 17 7 0 10 -262144 -1
-1 0 1;
#X text 14 115 Record;
#X obj 257 107 bng 32 250 50 0 autorec.s empty Rec 0 -7 0 10 -262144
-1 -1;
#X obj 73 107 tgl 32 0 rec.1.s rec.1.r empty 17 7 0 10 -262144 -1 -1
0 1;
#X obj 73 155 bng 32 250 50 0 play.1.s empty empty 17 7 0 10 -262144
-1 -1;
#X obj 117 205 tgl 32 0 enable.2.s empty empty 17 7 0 10 -262144 -1
-1 0 1;
#X obj 116 107 tgl 32 0 rec.2.s rec.2.r empty 17 7 0 10 -262144 -1
-1 0 1;
#X obj 116 155 bng 32 250 50 0 play.2.s empty empty 17 7 0 10 -262144
-1 -1;
#X text 24 163 Shot;
#X text 424 255 Sequencer;
#X obj 268 374 hsl 128 15 -22050 22050 0 1 pitch.bend.s pitch.bend.r
Bend -2 -8 0 10 -262144 -1 -1 6350 1;
#X obj 264 286 hsl 128 15 0 44100 0 1 pitch.delta.s empty Pitch_Mod.
-2 -8 0 10 -262144 -1 -1 2200 1;
#X obj 48 327 hradio 36 1 1 5 tracks.solo.s empty empty 0 -8 0 10 -262144
-1 -1 0;
#X obj 159 205 tgl 32 0 enable.3.s empty empty 17 7 0 10 -262144 -1
-1 0 1;
#X obj 158 107 tgl 32 0 rec.3.s rec.3.r empty 17 7 0 10 -262144 -1
-1 0 1;
#X obj 158 155 bng 32 250 50 0 play.3.s empty empty 17 7 0 10 -262144
-1 -1;
#X obj 202 205 tgl 32 0 enable.4.s empty empty 17 7 0 10 -262144 -1
-1 0 1;
#X obj 201 107 tgl 32 0 rec.4.s rec.4.r empty 17 7 0 10 -262144 -1
-1 0 1;
#X obj 201 155 bng 32 250 50 0 play.4.s empty empty 17 7 0 10 -262144
-1 -1;
#X obj 83 282 hradio 36 1 1 4 tracks.range.s empty empty 0 -8 0 10
-262144 -1 -1 3;
#X obj 76 7 clock-gui;
#X text 8 337 Solo;
#X text 53 367 Off;
#X text 18 287 Range;
#X text 333 114 AutoRecCycle;
#X obj 15 262 cnv 15 400 1 empty empty empty 20 12 0 14 -233017 -66577
0;
#X obj 16 30 cnv 15 400 1 empty empty empty 20 12 0 14 -233017 -66577
0;
#X text 425 23 Recorder;
#X text 15 210 Mutes;
#X obj 267 337 hsl 128 15 22050 66150 0 1 pitch.base.s pitch.base.r
Pitch -2 -8 0 10 -262144 -1 -1 6350 1;
#X obj 442 347 bng 32 250 50 0 pitch.reset empty empty 17 7 0 10 -262144
-1 -1;
#X text 439 328 Reset;
#N canvas 0 50 450 250 (subpatch) 0;
#X array smp2 44100 float 0;
#X coords 0 1 44099 -1 32 32 1 0 0;
#X restore 116 67 graph;
#N canvas 0 50 450 250 (subpatch) 0;
#X array smp3 44100 float 0;
#X coords 0 1 44099 -1 32 32 1 0 0;
#X restore 158 67 graph;
#N canvas 0 50 450 250 (subpatch) 0;
#X array smp4 44100 float 0;
#X coords 0 1 44099 -1 32 32 1 0 0;
#X restore 201 67 graph;
#N canvas 0 50 450 250 (subpatch) 0;
#X array smp1 44100 float 0;
#X coords 0 1 44099 -1 32 32 1 0 0;
#X restore 73 67 graph;
#X obj 265 217 hsl 128 15 0 1 0 1 volume.s volume.r Volume -2 -8 0
10 -262144 -1 -1 12700 1;
#X obj 295 107 bng 32 250 50 0 autostop.s empty Stop 0 -7 0 10 -262144
-1 -1;
#X obj 259 67 hsl 128 15 0 10000 0 0 latency.s empty Latency -2 -8
0 10 -262144 -1 -1 5800 1;
#X obj 527 32 vradio 32 1 0 11 seq.mode.s seq.mode.r Mode 0 -8 0 10
-262144 -1 -1 4;
#X text 566 74 Random;
#X text 566 37 Off;
#X text 566 299 4x;
#X text 564 267 3x;
#X text 566 232 2x;
#X text 565 202 1.5x;
#X text 566 173 1x;
#X text 564 138 1/2x;
#X text 563 106 1/4x;
#X text 563 331 6x;
#X text 565 363 8x;
