#N canvas 305 254 450 362 10;
#X obj 119 24 inlet~;
#X obj 180 53 rec 1000;
#X obj 180 16 r rec.\$1.s;
#X obj 331 6 loadbang;
#X msg 332 71 set sample\$1;
#X obj 332 32 f \$1;
#X obj 183 164 tabwrite~;
#X obj 225 83 f \$1;
#X msg 225 110 \; rec.\$1.r 0;
#X obj 62 242 outlet;
#X obj 62 188 r play.\$1.s;
#X obj 62 213 f \$1;
#N canvas 0 50 450 250 (subpatch) 0;
#X array sample\$1 200000 float 2;
#X coords 0 1 200000 -1 20 20 1 0 0;
#X restore 350 166 graph;
#X obj 193 216 r enable.\$1.s;
#X obj 190 310 tabwrite mutes;
#X obj 298 182 - 1;
#X obj 204 240 swap 1;
#X obj 204 262 -;
#X connect 0 0 6 0;
#X connect 1 0 6 0;
#X connect 1 1 7 0;
#X connect 2 0 1 0;
#X connect 3 0 5 0;
#X connect 4 0 6 0;
#X connect 5 0 4 0;
#X connect 5 0 15 0;
#X connect 7 0 8 0;
#X connect 10 0 11 0;
#X connect 11 0 9 0;
#X connect 13 0 16 0;
#X connect 15 0 14 1;
#X connect 16 0 17 0;
#X connect 16 1 17 1;
#X connect 17 0 14 0;
