#N canvas 416 281 450 362 10;
#X obj 119 24 inlet~;
#X obj 180 53 rec 1000;
#X obj 180 16 r rec.\$1.s;
#X obj 331 6 loadbang;
#X obj 332 32 f \$1;
#X obj 183 164 tabwrite~;
#X obj 225 83 f \$1;
#X msg 225 110 \; rec.\$1.r 0;
#X obj 62 242 outlet;
#X obj 62 188 r play.\$1.s;
#X obj 62 213 f \$1;
#X obj 193 216 r enable.\$1.s;
#X obj 190 310 tabwrite mutes;
#X obj 298 182 - 1;
#X obj 204 240 swap 1;
#X obj 204 262 -;
#X msg 332 71 set smp\$1;
#X connect 0 0 5 0;
#X connect 1 0 5 0;
#X connect 1 1 6 0;
#X connect 2 0 1 0;
#X connect 3 0 4 0;
#X connect 4 0 16 0;
#X connect 4 0 13 0;
#X connect 6 0 7 0;
#X connect 9 0 10 0;
#X connect 10 0 8 0;
#X connect 11 0 14 0;
#X connect 13 0 12 1;
#X connect 14 0 15 0;
#X connect 14 1 15 1;
#X connect 15 0 12 0;
#X connect 16 0 5 0;
