#N canvas 376 150 989 617 10;
#X floatatom 749 41 5 0 0 0 - - -, f 5;
#X obj 655 38 midirealtimein;
#X text 820 57 // 248 == beat;
#N canvas 66 104 760 415 audio_feedback 0;
#X obj 322 298 *~;
#X obj 322 354 dac~;
#X obj 386 196 line~;
#X obj 386 121 t b b;
#X msg 386 145 1 5;
#X obj 429 146 del 5;
#X msg 432 169 0 5;
#X obj 265 249 osc~ 880;
#X obj 340 49 spigot;
#X obj 373 25 inlet;
#X obj 340 3 inlet;
#X obj 231 135 sel 0;
#X msg 231 163 1600;
#X msg 265 163 880;
#X obj 231 114 % 4;
#X connect 0 0 1 0;
#X connect 0 0 1 1;
#X connect 2 0 0 1;
#X connect 3 0 4 0;
#X connect 3 1 5 0;
#X connect 4 0 2 0;
#X connect 5 0 6 0;
#X connect 6 0 2 0;
#X connect 7 0 0 0;
#X connect 8 0 14 0;
#X connect 8 0 3 0;
#X connect 9 0 8 1;
#X connect 10 0 8 0;
#X connect 11 0 12 0;
#X connect 11 1 13 0;
#X connect 12 0 7 0;
#X connect 13 0 7 0;
#X connect 14 0 11 0;
#X restore 286 872 pd audio_feedback;
#X text 818 82 // 252 == stop;
#X text 817 95 // 251 == resume;
#X obj 594 855 outlet bpm;
#X obj 716 856 outlet dt;
#X obj 26 47 r localbpm.s;
#X obj 26 103 /, f 9;
#X text 819 69 // 250 == start;
#X obj 110 874 outlet bang;
#X obj 385 842 r audioon.s;
#X obj 655 61 route 248 250 251 252;
#X obj 71 127 r clockmode.s;
#X obj 71 146 swap 1;
#X obj 71 165 -;
#X obj 700 247 r clockmode.s;
#X obj 311 760 outlet rawmidi;
#X obj 817 823 r \$0-reset;
#X obj 816 855 outlet reset;
#N canvas 915 176 450 578 mapping_buttons_clockspeed 0;
#X obj 26 17 r 1x.s;
#X obj 26 60 s netclockspeed.s;
#X obj 27 132 s netclockspeed.s;
#X obj 27 89 r 2x.s;
#X obj 26 202 s netclockspeed.s;
#X obj 26 159 r 3x.s;
#X obj 24 270 s netclockspeed.s;
#X obj 24 227 r 4x.s;
#X obj 20 344 s netclockspeed.s;
#X obj 20 301 r 6x.s;
#X obj 20 416 s netclockspeed.s;
#X obj 20 373 r 8x.s;
#X obj 248 58 s netclockspeed.s;
#X obj 248 15 r halfx.s;
#X obj 251 138 s netclockspeed.s;
#X obj 251 95 r quarterx.s;
#X msg 26 37 1;
#X msg 27 109 2;
#X msg 26 179 3;
#X msg 24 247 4;
#X msg 20 321 6;
#X msg 20 393 8;
#X msg 248 35 0.5;
#X msg 251 115 0.25;
#X connect 0 0 16 0;
#X connect 3 0 17 0;
#X connect 5 0 18 0;
#X connect 7 0 19 0;
#X connect 9 0 20 0;
#X connect 11 0 21 0;
#X connect 13 0 22 0;
#X connect 15 0 23 0;
#X connect 16 0 1 0;
#X connect 17 0 2 0;
#X connect 18 0 4 0;
#X connect 19 0 6 0;
#X connect 20 0 8 0;
#X connect 21 0 10 0;
#X connect 22 0 12 0;
#X connect 23 0 14 0;
#X restore 261 165 pd mapping_buttons_clockspeed;
#X obj 842 365 loadbang;
#N canvas 716 214 573 499 average 0;
#X obj 248 65 f 0;
#X obj 280 65 + 1;
#X obj 425 218 + 1;
#X obj 131 212 f 0;
#X obj 31 425 /;
#X obj 31 16 inlet value;
#X obj 129 14 inlet reset;
#X obj 31 468 outlet ave;
#X obj 248 115 mod 100;
#X obj 425 189 moses 100;
#X obj 248 144 t f f;
#X obj 275 194 tabread clocksmoothing;
#X obj 31 249 f 0;
#X obj 31 383 +;
#X obj 31 44 t b f b, f 28;
#N canvas 0 50 450 250 (subpatch) 0;
#X array clocksmoothing 100 float 2;
#X coords 0 100 100 0 200 140 1 0 0;
#X restore 302 327 graph;
#X obj 113 173 tabwrite clocksmoothing;
#X obj 276 253 spigot;
#X msg 476 219 1;
#X obj 31 329 -;
#X obj 248 88 t f f;
#X obj 129 107 bang;
#X connect 0 0 1 0;
#X connect 0 0 20 0;
#X connect 1 0 0 1;
#X connect 2 0 4 1;
#X connect 3 0 12 1;
#X connect 3 0 17 1;
#X connect 3 0 19 1;
#X connect 3 0 0 1;
#X connect 4 0 7 0;
#X connect 5 0 14 0;
#X connect 6 0 21 0;
#X connect 8 0 10 0;
#X connect 9 0 2 0;
#X connect 9 1 18 0;
#X connect 10 0 16 1;
#X connect 10 1 11 0;
#X connect 11 0 17 0;
#X connect 12 0 19 0;
#X connect 13 0 12 1;
#X connect 13 0 4 0;
#X connect 14 0 12 0;
#X connect 14 1 13 1;
#X connect 14 1 16 0;
#X connect 14 2 0 0;
#X connect 17 0 19 1;
#X connect 18 0 17 1;
#X connect 19 0 13 0;
#X connect 20 0 8 0;
#X connect 20 1 9 0;
#X connect 21 0 3 0;
#X restore 620 186 pd average;
#X obj 287 319 *, f 5;
#X obj 287 202 r netclockspeed.s;
#X obj 287 271 t b f;
#X obj 287 224 swap 1;
#X obj 287 246 /, f 6;
#X obj 190 594 delay;
#X obj 190 621 spigot;
#X obj 190 689 f 0;
#X obj 223 690 + 1;
#X obj 594 717 * 24;
#X obj 594 803 swap 60000;
#X obj 594 825 /, f 10;
#X obj 190 716 / 24;
#X obj 189 777 change;
#X obj 26 79 swap 2500;
#X obj 190 655 bang;
#X msg 65 496 0;
#X obj 190 744 i;
#X text 630 9 Midi clock reception;
#X text 27 26 local control pd only;
#X text 267 120 Tempo Divider / Multiplyer;
#X obj 287 348 max 1;
#X obj 179 200 loadbang;
#X obj 179 222 f 25;
#N canvas 210 223 520 449 midimock 0;
#X obj 74 22 hsl 300 15 60 180 0 0 empty empty empty -2 -8 0 10 -262144
-1 -1 0 1;
#X floatatom 71 42 5 0 0 0 - - -, f 5;
#X msg 117 170 1;
#X obj 71 68 swap 2500;
#X obj 71 90 /, f 9;
#X msg 70 322 248;
#X obj 70 357 outlet midi;
#X obj 193 45 bng 15 250 50 0 empty empty Start 17 7 0 10 -262144 -1
-1;
#X msg 195 103 250;
#X obj 298 52 bng 15 250 50 0 empty empty Stop 17 7 0 10 -262144 -1
-1;
#X msg 277 128 252;
#X msg 308 100 0;
#X obj 367 46 bng 15 250 50 0 empty empty Resume 17 7 0 10 -262144
-1 -1;
#X msg 369 107 251;
#X obj 177 80 t b b;
#X obj 367 70 t b b;
#X obj 298 72 t b b;
#X obj 61 215 delay;
#X obj 64 277 bang;
#X obj 62 245 spigot;
#X connect 0 0 1 0;
#X connect 1 0 3 0;
#X connect 2 0 19 1;
#X connect 2 0 18 0;
#X connect 3 0 4 0;
#X connect 3 1 4 1;
#X connect 4 0 17 1;
#X connect 5 0 6 0;
#X connect 7 0 14 0;
#X connect 8 0 6 0;
#X connect 9 0 16 0;
#X connect 10 0 6 0;
#X connect 11 0 19 1;
#X connect 12 0 15 0;
#X connect 13 0 6 0;
#X connect 14 0 2 0;
#X connect 14 1 8 0;
#X connect 15 0 2 0;
#X connect 15 1 13 0;
#X connect 16 0 10 0;
#X connect 16 1 11 0;
#X connect 17 0 19 0;
#X connect 18 0 17 0;
#X connect 18 0 5 0;
#X connect 19 0 18 0;
#X restore 534 13 pd midimock;
#N canvas 454 354 450 300 timer 0;
#X obj 122 78 t b b;
#X obj 122 100 timer;
#X obj 122 197 spigot 0;
#X msg 167 56 0;
#X obj 131 129 t b f;
#X msg 131 151 1;
#X obj 122 5 inlet bang;
#X obj 167 28 inlet reset;
#X obj 122 219 outlet;
#X connect 0 0 1 0;
#X connect 0 1 1 1;
#X connect 1 0 2 0;
#X connect 1 0 4 0;
#X connect 2 0 8 0;
#X connect 3 0 2 1;
#X connect 4 0 5 0;
#X connect 4 1 2 0;
#X connect 5 0 2 1;
#X connect 6 0 0 0;
#X connect 7 0 3 0;
#X restore 620 156 pd timer;
#X obj 699 181 s midistart;
#X obj 778 130 s midistop;
#X obj 716 153 s midiresume;
#X obj 38 416 r midistart;
#X obj 155 449 r midiresume;
#X msg 155 484 1;
#X obj 272 496 r midistop;
#X msg 272 518 0;
#X obj 155 506 t b f;
#X obj 38 441 t b b;
#X obj 426 34 r startstop.s;
#X obj 426 56 route 0 1;
#X obj 426 100 s midistop;
#X obj 451 79 s midistart;
#X obj 655 272 spigot 1;
#X obj 26 186 spigot 0;
#X msg 842 394 \; localbpm.r 120 \; audioon.r 0 \; clockmode.r 1 \;
1x.s 0 \;;
#X connect 1 0 13 0;
#X connect 1 1 0 0;
#X connect 8 0 38 0;
#X connect 9 0 65 0;
#X connect 12 0 3 1;
#X connect 13 0 49 0;
#X connect 13 1 23 1;
#X connect 13 1 49 1;
#X connect 13 1 50 0;
#X connect 13 2 49 1;
#X connect 13 2 52 0;
#X connect 13 3 51 0;
#X connect 14 0 15 0;
#X connect 15 0 16 0;
#X connect 15 1 16 1;
#X connect 16 0 65 1;
#X connect 17 0 64 1;
#X connect 19 0 20 0;
#X connect 22 0 66 0;
#X connect 23 0 64 0;
#X connect 24 0 45 0;
#X connect 25 0 27 0;
#X connect 26 0 24 0;
#X connect 26 1 24 1;
#X connect 27 0 28 0;
#X connect 27 1 28 1;
#X connect 28 0 26 0;
#X connect 29 0 30 0;
#X connect 30 0 39 0;
#X connect 31 0 32 0;
#X connect 31 0 18 0;
#X connect 31 0 36 0;
#X connect 32 0 31 1;
#X connect 33 0 7 0;
#X connect 33 0 34 0;
#X connect 34 0 35 0;
#X connect 34 1 35 1;
#X connect 35 0 6 0;
#X connect 36 0 41 0;
#X connect 37 0 3 0;
#X connect 37 0 11 0;
#X connect 38 0 9 0;
#X connect 38 1 9 1;
#X connect 39 0 31 0;
#X connect 39 0 29 0;
#X connect 40 0 31 1;
#X connect 41 0 37 0;
#X connect 45 0 29 1;
#X connect 45 0 33 0;
#X connect 46 0 47 0;
#X connect 47 0 24 0;
#X connect 48 0 13 0;
#X connect 49 0 23 0;
#X connect 53 0 59 0;
#X connect 54 0 55 0;
#X connect 55 0 58 0;
#X connect 56 0 57 0;
#X connect 57 0 30 1;
#X connect 58 0 39 0;
#X connect 58 1 30 1;
#X connect 59 0 55 0;
#X connect 59 1 40 0;
#X connect 60 0 61 0;
#X connect 61 0 62 0;
#X connect 61 1 63 0;
#X connect 64 0 24 0;
#X connect 65 0 24 0;
