#N canvas 657 95 626 672 10;
#N canvas 66 138 364 537 audio_feedback 0;
#X obj 132 400 *~;
#X obj 132 456 dac~;
#X obj 196 298 line~;
#X obj 196 223 t b b;
#X msg 196 247 1 5;
#X obj 239 248 del 5;
#X msg 242 271 0 5;
#X obj 75 351 osc~ 880;
#X obj 297 124 inlet;
#X obj 150 33 inlet;
#X obj 41 237 sel 0;
#X msg 41 265 1600;
#X msg 75 265 880;
#X obj 41 216 % 4;
#X obj 150 59 / 24;
#X obj 150 116 change;
#X obj 150 87 i;
#X obj 150 151 spigot 0, f 25;
#X connect 0 0 1 0;
#X connect 0 0 1 1;
#X connect 2 0 0 1;
#X connect 3 0 4 0;
#X connect 3 1 5 0;
#X connect 4 0 2 0;
#X connect 5 0 6 0;
#X connect 6 0 2 0;
#X connect 7 0 0 0;
#X connect 8 0 17 1;
#X connect 9 0 14 0;
#X connect 10 0 11 0;
#X connect 10 1 12 0;
#X connect 11 0 7 0;
#X connect 12 0 7 0;
#X connect 13 0 10 0;
#X connect 14 0 16 0;
#X connect 15 0 17 0;
#X connect 16 0 15 0;
#X connect 17 0 13 0;
#X connect 17 0 3 0;
#X restore 117 633 pd audio_feedback;
#X obj 180 461 outlet dt;
#X obj 130 603 outlet rawmidi;
#X obj 117 146 spigot 1;
#N canvas 644 227 671 526 midiclockin 0;
#X text 524 63 // 248 == beat;
#X text 522 91 // 251 == resume;
#X text 523 77 // 250 == start;
#N canvas 449 360 450 300 timer 0;
#X obj 122 78 t b b;
#X obj 122 100 timer;
#X obj 122 197 spigot 0;
#X msg 167 56 0;
#X obj 131 129 t b f;
#X msg 131 151 1;
#X obj 122 5 inlet bang;
#X obj 167 28 inlet reset;
#X obj 122 219 outlet;
#X connect 0 0 1 0;
#X connect 0 1 1 1;
#X connect 1 0 4 0;
#X connect 2 0 8 0;
#X connect 3 0 2 1;
#X connect 4 0 5 0;
#X connect 4 1 2 0;
#X connect 5 0 2 1;
#X connect 6 0 0 0;
#X connect 7 0 3 0;
#X restore 175 306 pd timer;
#X obj 175 12 inlet midi;
#X msg 238 196 start;
#X msg 364 181 stop;
#X msg 301 234 resume;
#X obj 364 438 outlet messages;
#X obj 22 438 outlet counter;
#X obj 175 435 outlet time, f 29;
#X obj 175 87 route 248 250 251 252 242, f 53;
#X text 521 105 // 252 == stop;
#X text 523 122 // 242 == spp;
#N canvas 115 377 450 300 spp 0;
#X obj 152 41 inlet;
#X obj 152 220 outlet;
#X obj 152 90 unpack f f;
#X obj 152 181 +;
#X obj 209 122 << 7;
#X connect 0 0 2 0;
#X connect 2 0 3 0;
#X connect 2 1 4 0;
#X connect 3 0 1 0;
#X connect 4 0 3 1;
#X restore 427 340 pd spp;
#X obj 427 362 * 6;
#X connect 3 0 10 0;
#X connect 4 0 11 0;
#X connect 5 0 3 1;
#X connect 5 0 8 0;
#X connect 6 0 8 0;
#X connect 7 0 3 1;
#X connect 7 0 8 0;
#X connect 11 0 3 0;
#X connect 11 1 5 0;
#X connect 11 2 7 0;
#X connect 11 3 6 0;
#X connect 11 4 14 0;
#X connect 14 0 15 0;
#X connect 15 0 9 0;
#X restore 117 263 pd midiclockin;
#N canvas 137 119 909 648 internalclock 0;
#X obj 285 262 spigot, f 9;
#X obj 238 332 f 0;
#X obj 310 330 + 1;
#X obj 254 293 bang;
#X msg 369 262 0;
#X msg 235 152 1;
#X msg 449 154 0;
#X obj 235 180 t b f, f 16;
#X obj 342 92 t b b;
#X obj 235 23 inlet messages;
#X obj 235 45 route resume start stop, f 54;
#X obj 136 158 inlet time;
#X obj 277 429 outlet counter;
#X obj 27 33 inlet counter, f 29;
#X obj 277 231 delay 10, f 29;
#X obj 27 233 t b b a b;
#X obj 238 380 change;
#X connect 0 0 3 0;
#X connect 1 0 2 0;
#X connect 1 0 16 0;
#X connect 2 0 1 1;
#X connect 3 0 1 0;
#X connect 3 0 14 0;
#X connect 4 0 1 1;
#X connect 5 0 7 0;
#X connect 6 0 0 1;
#X connect 7 0 3 0;
#X connect 7 1 0 1;
#X connect 8 0 5 0;
#X connect 8 1 4 0;
#X connect 9 0 10 0;
#X connect 10 0 5 0;
#X connect 10 1 8 0;
#X connect 10 2 6 0;
#X connect 11 0 14 1;
#X connect 13 0 15 0;
#X connect 14 0 0 0;
#X connect 15 1 5 0;
#X connect 15 2 1 1;
#X connect 15 3 6 0;
#X connect 16 0 12 0;
#X restore 117 501 pd internalclock;
#X obj 444 500 outlet stop;
#X obj 444 348 route stop;
#N canvas 308 217 679 468 timeadjust 0;
#X obj 46 103 t b f;
#X obj 46 56 swap 1;
#X obj 46 78 /, f 6;
#X obj 165 35 inlet time;
#X obj 46 237 outlet time;
#X obj 46 151 * 1, f 5;
#X obj 46 34 r clock.speed;
#X obj 46 180 max 1;
#X connect 0 0 5 0;
#X connect 0 1 5 1;
#X connect 1 0 2 0;
#X connect 1 1 2 1;
#X connect 2 0 0 0;
#X connect 3 0 5 0;
#X connect 5 0 7 0;
#X connect 6 0 1 0;
#X connect 7 0 4 0;
#X restore 163 350 pd timeadjust;
#X obj 307 465 r internalclock;
#X obj 231 314 r clock.time;
#X obj 162 120 r midiclock.enable;
#X obj 264 608 r clock.audio;
#N canvas 712 216 573 499 average 0;
#X obj 248 65 f 0;
#X obj 280 65 + 1;
#X obj 425 218 + 1;
#X obj 131 212 f 0;
#X obj 31 425 /;
#X obj 31 16 inlet value;
#X obj 129 14 inlet reset;
#X obj 31 468 outlet ave;
#X obj 248 115 mod 100;
#X obj 425 189 moses 100;
#X obj 248 144 t f f;
#X obj 275 194 tabread clocksmoothing;
#X obj 31 249 f 0;
#X obj 31 383 +;
#X obj 31 44 t b f b, f 28;
#N canvas 0 50 450 250 (subpatch) 0;
#X array clocksmoothing 100 float 2;
#X coords 0 100 100 0 200 140 1 0 0;
#X restore 302 327 graph;
#X obj 113 173 tabwrite clocksmoothing;
#X obj 276 253 spigot;
#X msg 476 219 1;
#X obj 31 329 -;
#X obj 248 88 t f f;
#X obj 129 107 bang;
#X connect 0 0 1 0;
#X connect 0 0 20 0;
#X connect 1 0 0 1;
#X connect 2 0 4 1;
#X connect 3 0 12 1;
#X connect 3 0 17 1;
#X connect 3 0 19 1;
#X connect 3 0 0 1;
#X connect 4 0 7 0;
#X connect 5 0 14 0;
#X connect 6 0 21 0;
#X connect 8 0 10 0;
#X connect 9 0 2 0;
#X connect 9 1 18 0;
#X connect 10 0 16 1;
#X connect 10 1 11 0;
#X connect 11 0 17 0;
#X connect 12 0 19 0;
#X connect 13 0 12 1;
#X connect 13 0 4 0;
#X connect 14 0 12 0;
#X connect 14 1 13 1;
#X connect 14 1 16 0;
#X connect 14 2 0 0;
#X connect 17 0 19 1;
#X connect 18 0 17 1;
#X connect 19 0 13 0;
#X connect 20 0 8 0;
#X connect 20 1 9 0;
#X connect 21 0 3 0;
#X restore 157 303 pd average;
#X obj 117 562 pipe 0;
#X obj 150 532 r midiclock.delay;
#X obj 117 71 midirealtimein;
#X obj 46 35 r midiin;
#X text 228 72 Used in Android to send Midi Realtime in LibPD;
#X text 121 33 Used in Android to send Midi message blocks (SPP in
one message), f 67;
#X connect 3 0 4 0;
#X connect 4 0 5 0;
#X connect 4 1 13 0;
#X connect 4 2 7 0;
#X connect 4 2 5 2;
#X connect 5 0 14 0;
#X connect 7 0 6 0;
#X connect 8 0 5 1;
#X connect 8 0 1 0;
#X connect 9 0 5 2;
#X connect 10 0 8 0;
#X connect 11 0 3 1;
#X connect 12 0 0 1;
#X connect 13 0 8 0;
#X connect 14 0 0 0;
#X connect 14 0 2 0;
#X connect 15 0 14 1;
#X connect 16 0 3 0;
#X connect 17 0 3 0;
