#N canvas 609 223 435 184 10;
#N canvas 816 140 450 300 movingcanvas 0;
#X obj 125 -31 r clockmode.s;
#X obj 58 46 * 30;
#X msg 216 126 \; clocktag label \$1;
#X obj 220 37 sel 0 1;
#X msg 59 96 \; clocktag pos 15 \$1;
#X obj 58 74 + 45;
#X obj 219 81 symbol master;
#X obj 243 105 symbol slave;
#X connect 0 0 1 0;
#X connect 0 0 3 0;
#X connect 1 0 5 0;
#X connect 3 0 6 0;
#X connect 3 1 7 0;
#X connect 5 0 4 0;
#X connect 6 0 2 0;
#X connect 7 0 2 0;
#X restore 167 107 pd movingcanvas;
#X obj 12 2 cnv 15 320 100 empty empty empty 20 12 0 14 -232576 -66577
0;
#X obj 16 11 tgl 25 0 clockmode.s clockmode.r Switch_clocks 30 10 0
12 -262144 -1 -1 0 1;
#X obj 82 45 nbx 5 20 0 800 0 0 localbpm.s localbpm.r empty 0 -8 0
10 -262144 -1 -1 0 256;
#X obj 144 72 bng 25 250 50 0 1x.s 1x.r 1x 6 12 0 12 -262144 -1 -1
;
#X obj 174 72 bng 25 250 50 0 2x.s 2x.r 2x 6 12 0 12 -262144 -1 -1
;
#X obj 204 72 bng 25 250 50 0 3x.s 3x.r 3x 6 12 0 12 -262144 -1 -1
;
#X obj 234 72 bng 25 250 50 0 4x.s 4x.r 4x 6 12 0 12 -262144 -1 -1
;
#X obj 264 72 bng 25 250 50 0 6x.s 6x.r 6x 6 12 0 12 -262144 -1 -1
;
#X obj 294 72 bng 25 250 50 0 8x.s 8x.r 8x 6 12 0 12 -262144 -1 -1
;
#X obj 15 45 cnv 15 60 25 clocktag clocktag master 2 12 0 14 -233017
-66577 0;
#X obj 264 11 tgl 25 0 audioon.s audioon.r bip 30 10 0 12 -262144 -1
-1 0 1;
#X obj 83 72 bng 25 250 50 0 halfx.s halfx.r 1/2x 3 14 0 9 -262144
-1 -1;
#X obj 115 72 bng 25 250 50 0 quarterx.s quarterx.r 3/4x 3 14 0 9 -262144
-1 -1;
#X obj 160 10 tgl 25 0 startstop.s startstop.r startstop 30 10 0 12
-262144 -1 -1 0 1;
#X coords 0 184 1 183 250 100 0;
