#N canvas 806 102 489 665 10;
#X msg 137 160 1;
#X obj 345 193 /, f 9;
#X obj 161 509 outlet midi;
#X msg 294 171 0;
#X obj 267 117 t b b;
#X obj 33 211 delay;
#X obj 33 350 bang;
#X obj 33 312 spigot, f 15;
#X obj 137 31 inlet messages;
#X obj 137 53 route start resume stop, f 33;
#X obj 93 260 t b f;
#X obj 345 33 inlet bpm;
#X obj 377 100 loadbang;
#X obj 377 122 f 120;
#X obj 33 380 i 248;
#X obj 267 426 i 252;
#X obj 229 360 i 251;
#X obj 161 358 i 250;
#X obj 345 171 swap 2500;
#N canvas 259 116 450 651 spp 1;
#X obj 89 29 inlet counter;
#X obj 262 26 inlet reset;
#X obj 170 620 outlet message;
#X obj 170 127 f 0;
#X obj 198 128 + 1;
#X obj 170 94 bang;
#X obj 170 149 / 6;
#X obj 170 171 i;
#X obj 170 193 change;
#X msg 246 78 0;
#X obj 213 466 & 127;
#X obj 257 466 >> 7;
#X obj 170 338 & 16383;
#X msg 170 461 242;
#X obj 170 360 t b a, f 7;
#X obj 170 534 pack f f f, f 15;
#X obj 170 253 i;
#X obj 170 275 change;
#X text 236 260 Send only 1 SPP every 96 ticks;
#X obj 170 231 / 16;
#X obj 170 297 * 16;
#X connect 0 0 5 0;
#X connect 1 0 9 0;
#X connect 3 0 4 0;
#X connect 3 0 6 0;
#X connect 4 0 3 1;
#X connect 5 0 3 0;
#X connect 6 0 7 0;
#X connect 7 0 8 0;
#X connect 8 0 19 0;
#X connect 9 0 3 1;
#X connect 10 0 15 1;
#X connect 11 0 15 2;
#X connect 12 0 14 0;
#X connect 13 0 15 0;
#X connect 14 0 13 0;
#X connect 14 1 11 0;
#X connect 14 1 10 0;
#X connect 15 0 2 0;
#X connect 16 0 17 0;
#X connect 17 0 20 0;
#X connect 19 0 16 0;
#X connect 20 0 12 0;
#X restore 91 413 pd spp;
#X obj 137 125 t b b b, f 9;
#X obj 202 143 t b b;
#X connect 0 0 10 0;
#X connect 1 0 5 1;
#X connect 3 0 7 1;
#X connect 4 0 15 0;
#X connect 4 1 3 0;
#X connect 5 0 7 0;
#X connect 6 0 5 0;
#X connect 6 0 14 0;
#X connect 7 0 6 0;
#X connect 8 0 9 0;
#X connect 9 0 20 0;
#X connect 9 1 21 0;
#X connect 9 2 4 0;
#X connect 10 0 6 0;
#X connect 10 1 7 1;
#X connect 11 0 18 0;
#X connect 12 0 13 0;
#X connect 13 0 18 0;
#X connect 14 0 19 0;
#X connect 14 0 2 0;
#X connect 15 0 2 0;
#X connect 16 0 2 0;
#X connect 17 0 2 0;
#X connect 18 0 1 0;
#X connect 18 1 1 1;
#X connect 19 0 2 0;
#X connect 20 0 0 0;
#X connect 20 1 17 0;
#X connect 20 2 19 1;
#X connect 21 0 0 0;
#X connect 21 1 16 0;
