#N canvas 241 194 450 476 10;
#X msg 137 160 1;
#X obj 345 193 /, f 9;
#X obj 164 423 outlet midi;
#X msg 294 171 0;
#X obj 137 125 t b b;
#X obj 202 143 t b b;
#X obj 267 117 t b b;
#X obj 33 211 delay;
#X obj 33 350 bang;
#X obj 33 312 spigot, f 15;
#X obj 137 31 inlet messages;
#X obj 137 53 route start resume stop, f 33;
#X obj 93 260 t b f;
#X obj 345 33 inlet bpm;
#X obj 377 100 loadbang;
#X obj 377 122 f 120;
#X obj 33 380 i 248;
#X obj 268 383 i 252;
#X obj 229 360 i 251;
#X obj 164 358 i 250;
#X obj 345 237 print;
#X obj 345 171 swap 2500;
#X connect 0 0 12 0;
#X connect 1 0 7 1;
#X connect 3 0 9 1;
#X connect 4 0 0 0;
#X connect 4 1 19 0;
#X connect 5 0 0 0;
#X connect 5 1 18 0;
#X connect 6 0 17 0;
#X connect 6 1 3 0;
#X connect 7 0 9 0;
#X connect 8 0 7 0;
#X connect 8 0 16 0;
#X connect 9 0 8 0;
#X connect 10 0 11 0;
#X connect 11 0 4 0;
#X connect 11 1 5 0;
#X connect 11 2 6 0;
#X connect 12 0 8 0;
#X connect 12 1 9 1;
#X connect 13 0 21 0;
#X connect 14 0 15 0;
#X connect 15 0 21 0;
#X connect 16 0 2 0;
#X connect 17 0 2 0;
#X connect 18 0 2 0;
#X connect 19 0 2 0;
#X connect 21 0 1 0;
#X connect 21 1 1 1;
