#N canvas 66 78 450 571 10;
#X obj 172 44 inlet load;
#X obj 172 262 textfile, f 9;
#X msg 325 217 read \$1;
#X msg 274 199 rewind;
#X obj 172 336 spigot 0, f 9;
#X msg 223 302 0;
#X msg 223 173 1;
#X obj 172 85 t b s s s, f 26;
#X obj 36 316 list;
#X obj 38 86 s persist-load-\$1;
#X obj 36 360 list trim;
#X msg 158 451 addsemi;
#X msg 36 503 \; float-test.r 0 \;, f 34;
#X msg 219 458 set;
#X obj 36 338 list prepend add;
#X obj 36 398 t b a b b, f 31;
#X obj 172 297 t b;
#X connect 0 0 7 0;
#X connect 0 0 9 0;
#X connect 1 0 8 0;
#X connect 1 0 16 0;
#X connect 1 1 5 0;
#X connect 2 0 1 0;
#X connect 3 0 1 0;
#X connect 4 0 1 0;
#X connect 5 0 4 1;
#X connect 6 0 4 1;
#X connect 7 0 1 0;
#X connect 7 1 6 0;
#X connect 7 2 3 0;
#X connect 7 3 2 0;
#X connect 8 0 14 0;
#X connect 10 0 15 0;
#X connect 11 0 12 0;
#X connect 13 0 12 0;
#X connect 14 0 10 0;
#X connect 15 0 12 0;
#X connect 15 1 12 0;
#X connect 15 2 11 0;
#X connect 15 3 13 0;
#X connect 16 0 4 0;
