#N canvas 66 78 638 433 10;
#X obj 143 28 inlet save;
#X obj 335 372 textfile;
#X msg 506 244 write \$1;
#X msg 385 245 clear;
#X obj 264 111 s persist-dump-\$1;
#X msg 143 248 write \$1;
#X obj 143 75 t s b b s, f 61;
#X obj 19 75 s persist-save-\$1;
#X obj 264 173 r persist-flow-\$1;
#X obj 264 204 list prepend add;
#X obj 264 245 list trim;
#X connect 0 0 6 0;
#X connect 0 0 7 0;
#X connect 2 0 1 0;
#X connect 3 0 1 0;
#X connect 5 0 1 0;
#X connect 6 0 5 0;
#X connect 6 1 4 0;
#X connect 6 2 3 0;
#X connect 6 3 2 0;
#X connect 8 0 9 0;
#X connect 9 0 10 0;
#X connect 10 0 1 0;
