#N canvas 259 124 1008 552 10;
#X obj 172 44 inlet load;
#X obj 564 51 inlet save;
#X obj 756 395 textfile;
#X msg 927 267 write \$1;
#X msg 806 268 clear;
#X obj 172 262 textfile, f 9;
#X msg 325 217 read \$1;
#X msg 274 199 rewind;
#X obj 172 336 spigot 0, f 9;
#X msg 223 302 0;
#X msg 223 173 1;
#X obj 172 85 t b s s s, f 26;
#X obj 36 316 list;
#X obj 685 134 s persist-dump-\$1;
#X msg 564 271 write \$1;
#X obj 564 98 t s b b s, f 61;
#X obj 440 98 s persist-save-\$1;
#X obj 38 86 s persist-load-\$1;
#X obj 685 196 r persist-flow-\$1;
#X obj 685 227 list prepend add;
#X obj 685 268 list trim;
#X obj 36 360 list trim;
#X msg 158 451 addsemi;
#X msg 36 503 \; float-test.r 0 \;, f 34;
#X msg 219 458 set;
#X obj 36 338 list prepend add;
#X obj 36 398 t b a b b, f 31;
#X obj 172 297 t b;
#X connect 0 0 11 0;
#X connect 0 0 17 0;
#X connect 1 0 15 0;
#X connect 1 0 16 0;
#X connect 3 0 2 0;
#X connect 4 0 2 0;
#X connect 5 0 12 0;
#X connect 5 0 27 0;
#X connect 5 1 9 0;
#X connect 6 0 5 0;
#X connect 7 0 5 0;
#X connect 8 0 5 0;
#X connect 9 0 8 1;
#X connect 10 0 8 1;
#X connect 11 0 5 0;
#X connect 11 1 10 0;
#X connect 11 2 7 0;
#X connect 11 3 6 0;
#X connect 12 0 25 0;
#X connect 14 0 2 0;
#X connect 15 0 14 0;
#X connect 15 1 13 0;
#X connect 15 2 4 0;
#X connect 15 3 3 0;
#X connect 18 0 19 0;
#X connect 19 0 20 0;
#X connect 20 0 2 0;
#X connect 21 0 26 0;
#X connect 22 0 23 0;
#X connect 24 0 23 0;
#X connect 25 0 21 0;
#X connect 26 0 23 0;
#X connect 26 1 23 0;
#X connect 26 2 22 0;
#X connect 26 3 24 0;
#X connect 27 0 8 0;
