#N canvas 347 396 238 251 10;
#X obj 57 68 symbol \$3;
#X obj 57 42 r persist-dump-\$1;
#X obj 78 108 r \$2;
#X obj 57 165 s persist-flow-\$1;
#X obj 57 135 list;
#X connect 0 0 4 0;
#X connect 1 0 0 0;
#X connect 2 0 4 1;
#X connect 4 0 3 0;
