#N canvas 100 106 655 598 10;
#X obj 12 342 loadbang;
#X msg 12 384 bang;
#X obj 12 458 pack \$0 \$1 \$2;
#X msg 53 384 bang;
#X obj 329 172 list;
#X obj 329 21 r \$0/tap;
#X obj 329 101 mod;
#X obj 329 80 f;
#X obj 359 80 + 1;
#X obj 396 80 list length;
#X obj 329 192 list split 1;
#X obj 363 213 list split 1;
#X obj 363 348 s \$4;
#X obj -1 171 namecanvas pd-\$0-self;
#X obj 363 234 t a a;
#X obj 402 278 s \$0/setsymbol;
#N canvas 65 82 450 300 filter-zeros 0;
#X obj 8 8 inlet;
#X obj 148 71 t l;
#X obj 35 92 list trim;
#X obj 35 71 list split 1;
#X obj 35 119 route 0;
#X obj 160 140 t l;
#X obj 21 169 list;
#X obj 74 140 list append;
#X obj 8 29 t b a b b;
#X obj 21 190 outlet;
#X connect 0 0 8 0;
#X connect 1 0 3 0;
#X connect 2 0 4 0;
#X connect 3 0 2 0;
#X connect 3 1 1 0;
#X connect 4 1 7 0;
#X connect 5 0 7 1;
#X connect 6 0 9 0;
#X connect 7 0 5 0;
#X connect 7 0 6 1;
#X connect 8 0 6 0;
#X connect 8 1 3 0;
#X connect 8 2 6 1;
#X connect 8 3 7 1;
#X restore 103 458 pd filter-zeros;
#X obj 396 11 r \$3-list;
#X obj 103 478 s \$3-list;
#X obj 396 32 t b a a;
#X msg 336 61 0;
#X obj 471 256 makefilename %d;
#X obj 402 234 route symbol;
#X obj 411 192 s \$4/idx;
#X obj 329 122 t b f f;
#X obj 237 31 route set;
#X obj 363 327 spigot 1;
#X msg 276 75 0;
#X obj 237 53 t b f b;
#X msg 237 75 1;
#X obj 237 97 s \$0/block;
#X obj 408 305 r \$0/block;
#X obj 411 168 spigot 1;
#X obj 456 146 r \$0/block;
#X obj 150 217 r \$0/setsymbol;
#X obj 150 239 list prepend \$0;
#X msg 150 261 \; \$1/display label \$2;
#X obj 2 1 bng 11 250 50 0 \$0/tap \$0/tap.r C 17 7 0 10 -262144 -262144
-262144;
#X msg 176 165 _;
#X msg 12 507 \; pd-\$1-self donecanvasdialog 1 1 2 0 0 1 1 \$2 \$3
0 0 1 1 1 \; pd-\$1-self dirty 0 \; \$1/display vis_size \$2 \$3;
#X obj 1 1 cnv 12 100 16 empty \$0/display D 0 6 0 8 -262144 -1 0;
#X obj 103 425 list append \$6 \$7 \$8 \$9 \$10 \$11 \$12 \$13 \$14
\$15 \$16 \$17 \$18 \$19 \$20 \$21 \$22 \$23 \$24 \$25 \$26 \$27 \$28
\$29 \$30;
#X text -2 -37 args: width height receivename sendname label item1
item2 ...;
#X symbolatom 513 426 10 0 0 0 - - -, f 10;
#X obj 497 447 list prepend \$0;
#X msg 497 469 \; \$1/tap.r label \$2;
#X obj 497 402 symbol \$5;
#X msg 497 381 bang;
#X obj 12 363 t b b b;
#X obj 237 9 r \$3/idx;
#N canvas 65 82 450 300 list-find 0;
#X obj 91 359 f;
#X obj 91 51 inlet;
#X obj 183 47 inlet;
#X obj 91 396 outlet;
#X text 60 27 value to find;
#X obj 91 210 t a b;
#X obj 91 158 list;
#X text 180 27 list to search in;
#X text 208 103 [list-find] Find positions of a value (symbol or float)
in a list.;
#X obj 91 317 select 1;
#N canvas 0 50 450 300 count 0;
#X obj 120 148 f 0;
#X obj 148 149 + 1;
#X obj 163 100 0;
#X obj 117 24 inlet;
#X obj 119 176 outlet;
#X obj 181 25 inlet;
#X obj 114 47 b;
#X connect 0 0 1 0;
#X connect 0 0 4 0;
#X connect 1 0 0 1;
#X connect 2 0 0 1;
#X connect 3 0 6 0;
#X connect 5 0 2 0;
#X connect 6 0 0 0;
#X restore 121 245 pd count;
#X obj 91 80 t b a b b;
#X obj 176 395 outlet;
#X obj 248 351 + 1;
#X obj 176 375 f;
#X obj 219 350 f 1;
#X msg 235 317 1;
#X msg 199 318 0;
#N canvas 65 82 450 300 list-drip 0;
#X obj 63 84 t a a;
#X obj 63 241 spigot;
#X obj 102 149 bang;
#X obj 102 168 1;
#X obj 223 149 route bang;
#X obj 183 150 bang;
#X obj 183 169 0;
#X obj 102 114 list split 2;
#X obj 232 379 list split;
#X obj 299 328 list length;
#X obj 299 350 >> 1;
#X obj 63 260 t a a a a;
#X obj 63 446 list split;
#X obj 130 398 list length;
#X obj 130 423 >> 1;
#X obj 31 19 inlet;
#X obj 290 175 outlet;
#X text 73 19 Copyright 2009 by Mathieu Bouchard;
#X obj 31 53 t b a;
#X obj 465 119 outlet;
#X text 520 121 signal end of list;
#X text 381 23 made compatible with [list-drip]: fbar 2009;
#X connect 0 0 1 0;
#X connect 0 1 7 0;
#X connect 1 0 11 0;
#X connect 2 0 3 0;
#X connect 3 0 1 1;
#X connect 4 1 16 0;
#X connect 5 0 6 0;
#X connect 6 0 1 1;
#X connect 7 0 2 0;
#X connect 7 2 4 0;
#X connect 7 2 5 0;
#X connect 8 0 0 0;
#X connect 9 0 10 0;
#X connect 10 0 8 1;
#X connect 11 0 12 0;
#X connect 11 1 13 0;
#X connect 11 2 8 0;
#X connect 11 3 9 0;
#X connect 12 1 0 0;
#X connect 13 0 14 0;
#X connect 14 0 12 1;
#X connect 15 0 18 0;
#X connect 18 0 19 0;
#X connect 18 1 0 0;
#X restore 91 180 pd list-drip;
#N canvas 65 82 450 300 compare-any 0;
#X obj 118 28 inlet;
#X obj 118 451 outlet;
#X obj 118 336 ==;
#X obj 118 358 select 1;
#N canvas 272 259 450 300 demux 0;
#X obj 76 87 inlet;
#X obj 169 86 inlet;
#X obj 76 145 list prepend 0;
#X obj 76 186 route 0 1;
#X obj 76 242 outlet;
#X obj 105 213 outlet;
#X connect 0 0 2 0;
#X connect 1 0 2 1;
#X connect 2 0 3 0;
#X connect 3 0 4 0;
#X connect 3 1 5 0;
#X restore 118 230 pd demux;
#X msg 169 207 0;
#X msg 200 206 1;
#X obj 118 295 route float;
#X obj 219 293 route symbol;
#X obj 359 199 print HUH?;
#X obj 219 272 list;
#X obj 238 164 route float symbol;
#X obj 238 136 list;
#X msg 118 423 1;
#X msg 190 418 0;
#X obj 238 28 inlet;
#X obj 219 356 select [DUMMY-SYMBOL];
#X connect 0 0 4 0;
#X connect 2 0 3 0;
#X connect 3 0 13 0;
#X connect 3 1 14 0;
#X connect 4 0 7 0;
#X connect 4 1 10 0;
#X connect 5 0 4 1;
#X connect 6 0 4 1;
#X connect 7 0 2 0;
#X connect 7 1 14 0;
#X connect 8 0 16 0;
#X connect 8 1 14 0;
#X connect 10 0 8 0;
#X connect 11 0 2 1;
#X connect 11 0 5 0;
#X connect 11 1 6 0;
#X connect 11 1 16 1;
#X connect 11 2 9 0;
#X connect 12 0 11 0;
#X connect 13 0 1 0;
#X connect 14 0 1 0;
#X connect 15 0 12 0;
#X connect 16 0 13 0;
#X connect 16 1 14 0;
#X restore 91 293 pd compare-any;
#X connect 0 0 3 0;
#X connect 1 0 11 0;
#X connect 2 0 6 1;
#X connect 5 0 19 0;
#X connect 5 1 10 0;
#X connect 6 0 18 0;
#X connect 9 0 0 0;
#X connect 9 0 15 0;
#X connect 10 0 0 1;
#X connect 11 0 6 0;
#X connect 11 1 19 1;
#X connect 11 2 10 1;
#X connect 11 3 16 0;
#X connect 11 3 17 0;
#X connect 13 0 15 1;
#X connect 14 0 12 0;
#X connect 15 0 14 1;
#X connect 15 0 13 0;
#X connect 16 0 15 1;
#X connect 17 0 14 1;
#X connect 18 0 5 0;
#X connect 18 1 14 0;
#X connect 19 0 9 0;
#X restore 490 44 pd list-find;
#X obj 491 23 r \$3;
#X connect 0 0 48 0;
#X connect 1 0 2 0;
#X connect 2 0 39 0;
#X connect 3 0 41 0;
#X connect 4 0 10 0;
#X connect 5 0 7 0;
#X connect 6 0 24 0;
#X connect 7 0 8 0;
#X connect 7 0 6 0;
#X connect 8 0 7 1;
#X connect 9 0 6 1;
#X connect 10 1 11 0;
#X connect 11 0 14 0;
#X connect 14 0 26 0;
#X connect 14 1 22 0;
#X connect 16 0 18 0;
#X connect 17 0 19 0;
#X connect 17 0 50 1;
#X connect 19 0 20 0;
#X connect 19 1 9 0;
#X connect 19 2 4 1;
#X connect 20 0 7 0;
#X connect 21 0 15 0;
#X connect 22 0 15 0;
#X connect 22 1 21 0;
#X connect 24 0 4 0;
#X connect 24 1 10 1;
#X connect 24 2 32 0;
#X connect 25 0 28 0;
#X connect 25 1 7 0;
#X connect 26 0 12 0;
#X connect 27 0 30 0;
#X connect 28 0 29 0;
#X connect 28 1 7 0;
#X connect 28 2 27 0;
#X connect 29 0 30 0;
#X connect 31 0 26 1;
#X connect 32 0 23 0;
#X connect 33 0 32 1;
#X connect 34 0 35 0;
#X connect 35 0 36 0;
#X connect 38 0 35 0;
#X connect 41 0 16 0;
#X connect 44 0 45 0;
#X connect 46 0 43 0;
#X connect 46 0 44 0;
#X connect 47 0 46 0;
#X connect 48 0 1 0;
#X connect 48 1 3 0;
#X connect 48 2 47 0;
#X connect 49 0 25 0;
#X connect 50 0 7 0;
#X connect 51 0 50 0;
#X coords 0 0 1 1 100 16 2 0 0;
