#N canvas 688 107 655 598 10;
#X obj 133 342 loadbang;
#X msg 133 384 bang;
#X obj 133 458 pack \$0 \$1 \$2;
#X msg 174 384 bang;
#X obj 221 211 list;
#X obj 221 60 r \$0/tap;
#X obj 221 140 mod;
#X obj 221 119 f;
#X obj 251 119 + 1;
#X obj 288 119 list length;
#X obj 221 231 list split 1;
#X obj 255 252 list split 1;
#X obj 255 387 s \$4;
#X obj 374 27 namecanvas pd-\$0-self;
#X obj 255 273 t a a;
#X obj 294 317 s \$0/setsymbol;
#N canvas 65 82 450 300 filter-zeros 0;
#X obj 8 8 inlet;
#X obj 148 71 t l;
#X obj 35 92 list trim;
#X obj 35 71 list split 1;
#X obj 35 119 route 0;
#X obj 160 140 t l;
#X obj 21 169 list;
#X obj 74 140 list append;
#X obj 8 29 t b a b b;
#X obj 21 190 outlet;
#X connect 0 0 8 0;
#X connect 1 0 3 0;
#X connect 2 0 4 0;
#X connect 3 0 2 0;
#X connect 3 1 1 0;
#X connect 4 1 7 0;
#X connect 5 0 7 1;
#X connect 6 0 9 0;
#X connect 7 0 5 0;
#X connect 7 0 6 1;
#X connect 8 0 6 0;
#X connect 8 1 3 0;
#X connect 8 2 6 1;
#X connect 8 3 7 1;
#X restore 224 458 pd filter-zeros;
#X obj 129 48 r \$3;
#X obj 288 50 r \$3-list;
#X obj 224 478 s \$3-list;
#X obj 288 71 t b a a;
#X msg 228 100 0;
#X obj 363 295 makefilename %d;
#X obj 294 273 route symbol;
#X obj 303 231 s \$4/idx;
#X obj 221 161 t b f f;
#X obj 129 70 route set;
#X obj 255 366 spigot 1;
#X msg 168 114 0;
#X obj 129 92 t b f b;
#X msg 129 114 1;
#X obj 129 136 s \$0/block;
#X obj 300 344 r \$0/block;
#X obj 303 207 spigot 1;
#X obj 348 185 r \$0/block;
#X obj 10 205 r \$0/setsymbol;
#X obj 10 227 list prepend \$0;
#X msg 10 249 \; \$1/display label \$2;
#X obj 2 1 bng 11 250 50 0 \$0/tap \$0/tap.r custom-taplist 17 7 0
10 -262144 -262144 -262144;
#X msg 36 153 _;
#X msg 133 507 \; pd-\$1-self donecanvasdialog 1 1 2 0 0 1 1 \$2 \$3
0 0 1 1 1 \; pd-\$1-self dirty 0 \; \$1/display vis_size \$2 \$3;
#X obj 1 1 cnv 12 32 32 empty \$0/display A 0 6 0 8 -262144 -1 0;
#X obj 224 425 list append \$6 \$7 \$8 \$9 \$10 \$11 \$12 \$13 \$14
\$15 \$16 \$17 \$18 \$19 \$20 \$21 \$22 \$23 \$24 \$25 \$26 \$27 \$28
\$29 \$30;
#X text -16 33 args: width height receivename sendname label item1
item2 ...;
#X symbolatom 37 412 10 0 0 0 - - -, f 10;
#X obj 1 443 list prepend \$0;
#X msg 1 465 \; \$1/tap.r label \$2;
#X obj 10 385 symbol \$5;
#X msg 24 352 bang;
#X obj 133 363 t b b b;
#X connect 0 0 49 0;
#X connect 1 0 2 0;
#X connect 2 0 40 0;
#X connect 3 0 42 0;
#X connect 4 0 10 0;
#X connect 5 0 7 0;
#X connect 6 0 25 0;
#X connect 7 0 8 0;
#X connect 7 0 6 0;
#X connect 8 0 7 1;
#X connect 9 0 6 1;
#X connect 10 1 11 0;
#X connect 11 0 14 0;
#X connect 14 0 27 0;
#X connect 14 1 23 0;
#X connect 16 0 19 0;
#X connect 17 0 26 0;
#X connect 18 0 20 0;
#X connect 20 0 21 0;
#X connect 20 1 9 0;
#X connect 20 2 4 1;
#X connect 21 0 7 0;
#X connect 22 0 15 0;
#X connect 23 0 15 0;
#X connect 23 1 22 0;
#X connect 25 0 4 0;
#X connect 25 1 10 1;
#X connect 25 2 33 0;
#X connect 26 0 29 0;
#X connect 26 1 7 0;
#X connect 27 0 12 0;
#X connect 28 0 31 0;
#X connect 29 0 30 0;
#X connect 29 1 7 0;
#X connect 29 2 28 0;
#X connect 30 0 31 0;
#X connect 32 0 27 1;
#X connect 33 0 24 0;
#X connect 34 0 33 1;
#X connect 35 0 36 0;
#X connect 36 0 37 0;
#X connect 39 0 36 0;
#X connect 42 0 16 0;
#X connect 45 0 46 0;
#X connect 47 0 44 0;
#X connect 47 0 45 0;
#X connect 48 0 47 0;
#X connect 49 0 1 0;
#X connect 49 1 3 0;
#X connect 49 2 48 0;
#X coords 0 0 1 1 32 32 2 0 0;
