#N struct 1145template-marker float a float b;
#N struct 1148template-marker float a float b;
#N canvas 138 247 355 401 10;
#X obj 28 177 r onesie;
#X text 136 70 <- "touch 100 100 onesie";
#X obj 152 161 r twosie;
#X obj 28 70 touch 100 100 onesie;
#X text 211 102 <- 50x50;
#X text 26 43 touch - 2d touch surface in PdDroidParty;
#X text 8 4 special GUIs emulated by PdDroidParty;
#X obj 28 198 unpack f f;
#X floatatom 28 220 5 0 0 0 - - -, f 5;
#X floatatom 85 220 5 0 0 0 - - -, f 5;
#X obj 152 182 unpack f f;
#X floatatom 152 204 5 0 0 0 - - -, f 5;
#X floatatom 209 204 5 0 0 0 - - -, f 5;
#X obj 152 104 touch 50 50 twosie;
#X connect 0 0 7 0;
#X connect 2 0 10 0;
#X connect 7 0 8 0;
#X connect 7 1 9 0;
#X connect 10 0 11 0;
#X connect 10 1 12 0;
