#N canvas 839 250 400 446 10;
#X obj 170 312 list;
#X obj 262 56 inlet length;
#X obj 187 109 \$2;
#X obj 187 130 until;
#X obj 187 151 f;
#X obj 217 151 + 1;
#X msg 228 130 0;
#X obj 187 172 tabread \$1;
#X msg 170 224 bang;
#X obj 276 255 t l;
#X obj 170 77 t b b b b;
#X obj 188 255 list prepend;
#X obj 70 379 outlet;
#X obj 29 355 t a a;
#X text 23 -17 does a sssad load/save of a table. args: tablename length
savename;
#X obj 29 334 sssad/sssad \$1-tabledata;
#X obj 29 379 s \$1;
#X obj 169 30 r SSSAD_ADMIN;
#X obj 169 51 route save;
#X obj 130 365 print \$1;
#X connect 0 0 15 1;
#X connect 1 0 2 1;
#X connect 2 0 3 0;
#X connect 3 0 4 0;
#X connect 4 0 5 0;
#X connect 4 0 7 0;
#X connect 5 0 4 1;
#X connect 6 0 4 1;
#X connect 6 0 11 0;
#X connect 7 0 11 0;
#X connect 8 0 0 0;
#X connect 9 0 11 1;
#X connect 10 0 8 0;
#X connect 10 1 2 0;
#X connect 10 2 6 0;
#X connect 10 3 11 1;
#X connect 11 0 9 0;
#X connect 11 0 0 1;
#X connect 13 0 16 0;
#X connect 13 1 12 0;
#X connect 15 0 13 0;
#X connect 15 0 19 0;
#X connect 17 0 18 0;
#X connect 18 0 10 0;
