#N canvas 844 118 400 446 10;
#X obj 170 282 list;
#X obj 262 27 inlet length;
#X obj 187 79 \$2;
#X obj 187 100 until;
#X obj 187 121 f;
#X obj 217 121 + 1;
#X msg 228 100 0;
#X obj 187 142 tabread \$1;
#X msg 170 194 bang;
#X obj 276 225 t l;
#X obj 170 47 t b b b b;
#X obj 188 225 list prepend;
#X obj 29 379 s \$3;
#X obj 70 379 outlet;
#X obj 29 355 t a a;
#X obj 170 6 r SSSAD_ADMIN;
#X obj 170 303 list trim;
#X obj 170 27 route presave;
#X text 23 -17 does a sssad load/save of a table. args: tablename length
sendname;
#X obj 28 334 sssad \$3-tabledata;
#X connect 0 0 16 0;
#X connect 1 0 2 1;
#X connect 2 0 3 0;
#X connect 3 0 4 0;
#X connect 4 0 5 0;
#X connect 4 0 7 0;
#X connect 5 0 4 1;
#X connect 6 0 4 1;
#X connect 6 0 11 0;
#X connect 7 0 11 0;
#X connect 8 0 0 0;
#X connect 9 0 11 1;
#X connect 10 0 8 0;
#X connect 10 1 2 0;
#X connect 10 2 6 0;
#X connect 10 3 11 1;
#X connect 11 0 9 0;
#X connect 11 0 0 1;
#X connect 14 0 12 0;
#X connect 14 1 13 0;
#X connect 15 0 17 0;
#X connect 16 0 19 1;
#X connect 17 0 10 0;
#X connect 19 0 14 0;
