#N struct 1058template-marker float a float b;
#N canvas 543 177 388 218 10;
#X declare -path ../../../../pd-party/droidparty-abstractions;
#N canvas 475 415 601 325 core 0;
#X obj 43 21 declare -path ../../../../pd-party/droidparty-abstractions
;
#X obj 76 261 persist store;
#X obj 122 153 loadsave store;
#X obj 151 232 r store-save;
#X obj 76 210 r store-load;
#X obj 33 69 r load;
#X msg 33 91 \; store load presets cbs;
#X obj 203 69 r save;
#X msg 203 91 \; store save presets cbs;
#N canvas 550 327 391 393 mapping 0;
#X obj 81 28 persist-symbol store nb.s nb.r;
#X obj 81 239 persist-table store array1;
#X obj 81 53 persist-symbol store sb.s sb.r;
#X obj 81 76 persist-symbol store tgl.s tgl.r;
#X obj 81 101 persist-symbol store nb2.s nb2.r;
#X obj 82 130 persist-symbol store vsl.s vsl.r;
#X obj 82 155 persist-symbol store hsl.s hsl.r;
#X obj 84 179 persist-symbol store vsr.s vsr.r;
#X obj 82 203 persist-symbol store hsr.s hsr.r;
#X obj 83 272 persist-symbol store tap.s tap.r;
#X obj 81 295 persist-symbol store touch.x touch.x;
#X obj 81 319 persist-symbol store touch.y touch.y;
#X restore 349 60 pd mapping;
#X obj 318 152 r touch.s;
#X obj 318 174 unpack f f;
#X obj 351 241 s touch.x;
#X obj 408 265 s touch.y;
#X obj 437 62 r clear;
#X msg 437 84 \; nb.r 0 \; sb.r symbol nothing \; tgl.r 0 \; nb2.r
0 \; vsl.r 0 \; hsl.r 0 \; vsr.r 0 \; hsr.r 0 \; tap.r A \; touch.x
0 \; touch.y 0 \;;
#X obj 318 206 sel -1;
#X obj 375 204 sel -1;
#X connect 3 0 1 1;
#X connect 4 0 1 0;
#X connect 5 0 6 0;
#X connect 7 0 8 0;
#X connect 10 0 11 0;
#X connect 11 0 16 0;
#X connect 11 1 17 0;
#X connect 14 0 15 0;
#X connect 16 1 12 0;
#X connect 17 1 13 0;
#X restore 17 149 pd core;
#X floatatom 26 22 5 0 0 0 - nb.r nb.s, f 5;
#X symbolatom 77 22 10 0 0 0 - sb.r sb.s, f 10;
#X obj 161 21 tgl 15 0 tgl.s tgl.r empty 17 7 0 10 -262144 -1 -1 0
1;
#X obj 197 23 nbx 5 14 -1e+37 1e+37 0 0 nb2.s nb2.r empty 0 -8 0 10
-262144 -1 -1 0 256;
#X obj 291 64 vsl 15 128 0 127 0 0 vsl.s vsl.r empty 0 -9 0 10 -262144
-1 -1 0 1;
#X obj 21 174 hsl 128 15 0 127 0 0 hsl.s hsl.r empty -2 -8 0 10 -262144
-1 -1 0 1;
#X obj 326 69 vradio 15 1 0 8 vsr.s vsr.r empty 0 -8 0 10 -262144 -1
-1 3;
#X obj 160 175 hradio 15 1 0 8 hsr.s hsr.r empty 0 -8 0 10 -262144
-1 -1 5;
#N canvas 0 50 450 250 (subpatch) 0;
#X array array1 10 float 0;
#X coords 0 1 10 -1 100 100 1 0 0;
#X restore 176 58 graph;
#X obj 281 28 bng 15 250 50 0 save empty empty 17 7 0 10 -262144 -1
-1;
#X obj 314 28 bng 15 250 50 0 load empty empty 17 7 0 10 -262144 -1
-1;
#X text 276 10 Save;
#X text 305 10 Load;
#X obj 15 75 taplist 32 32 tap.r tap.s tap A 7 12.345 a/b/c Lambda
;
#X obj 78 52 touch 64 64 touch.s;
#X floatatom 78 125 5 0 0 0 - touch.x -, f 5;
#X floatatom 114 125 5 0 0 0 - touch.y -, f 5;
#X obj 345 28 bng 15 250 50 0 clear empty empty 17 7 0 10 -262144 -1
-1;
#X text 336 10 Clear;
