#N canvas 634 133 439 271 10;
#X obj 21 27 hsl 150 35 0.1 1 0 0 fromattack toattack empty -2 -6 1
8 -258113 -1 -1 0 1;
#X obj 21 87 hsl 150 35 0 1 0 0 fromdecay todecay empty -2 -6 1 8 -258113
-1 -1 0 1;
#X obj 21 145 hsl 150 35 0 1 0 0 fromshape toshape empty -2 -6 1 8
-258113 -1 -1 0 1;
#X text 17 11 Attack;
#X text 16 72 Decay;
#X text 17 130 Shape;
#X obj 142 210 hsl 150 35 0 127 0 0 fromVolume toVolume empty -2 -6
1 8 -258113 -1 -1 0 1;
#X text 138 193 Volume;
#X obj 194 27 bng 30 250 50 0 load_synth empty Load 2 -7 0 10 -262144
-1 -1;
#X obj 194 91 bng 30 250 50 0 save_synth empty Save 2 -7 0 10 -262144
-1 -1;
#X obj 194 148 bng 30 250 50 0 reset_synth empty Reset 1 -7 0 10 -262144
-1 -1;
#X obj 252 88 hsl 150 35 2 50 0 0 drive.s drive.r empty -2 -6 1 8 -258113
-1 -1 0 1;
#X obj 252 147 hsl 150 35 0.25 1 0 0 dry.s dry.r empty -2 -6 1 8 -258113
-1 -1 0 1;
#X text 248 71 Drive;
#X obj 252 28 hsl 150 35 0 100 0 0 reverbfeedback.s reverbfeedback.r
empty -2 -6 1 8 -258113 -1 -1 0 1;
#X text 248 12 Reverb Feedback;
#X text 248 131 Drive Wet/Dry;
