#N canvas 87 97 823 523 10;
#X declare -path ../../../../pd-party/droidparty-abstractions;
#X obj 1 503 declare -path ../../../../pd-party/droidparty-abstractions
;
#X obj 2 -1 cnv 15 800 500 empty empty empty 0 -4 0 10 -261682 -66577
0;
#X obj 354 0 cnv 15 43 500 empty acidbass_cursor empty 20 12 0 14 -258113
-66577 0;
#X obj 95 370 tgl 36 0 accent1.s accent1.r empty 17 7 0 10 -262144
-1 -1 0 1;
#X obj 138 370 tgl 36 0 accent2.s accent2.r empty 17 7 0 10 -262144
-1 -1 0 1;
#X obj 182 370 tgl 36 0 accent3.s accent3.r empty 17 7 0 10 -262144
-1 -1 0 1;
#X obj 225 370 tgl 36 0 accent4.s accent4.r empty 17 7 0 10 -262144
-1 -1 0 1;
#X obj 270 370 tgl 36 0 accent5.s accent5.r empty 17 7 0 10 -262144
-1 -1 0 1;
#X obj 313 370 tgl 36 0 accent6.s accent6.r empty 17 7 0 10 -262144
-1 -1 0 1;
#X obj 357 370 tgl 36 0 accent7.s accent7.r empty 17 7 0 10 -262144
-1 -1 0 1;
#X obj 401 370 tgl 36 0 accent8.s accent8.r empty 17 7 0 10 -262144
-1 -1 0 1;
#X obj 445 370 tgl 36 0 accent9.s accent9.r empty 17 7 0 10 -262144
-1 -1 0 1;
#X obj 488 370 tgl 36 0 accent10.s accent10.r empty 17 7 0 10 -262144
-1 -1 0 1;
#X obj 532 370 tgl 36 0 accent11.s accent11.r empty 17 7 0 10 -262144
-1 -1 0 1;
#X obj 576 370 tgl 36 0 accent12.s accent12.r empty 17 7 0 10 -262144
-1 -1 0 1;
#X obj 620 370 tgl 36 0 accent13.s accent13.r empty 17 7 0 10 -262144
-1 -1 0 1;
#X obj 663 370 tgl 36 0 accent14.s accent14.r empty 17 7 0 10 -262144
-1 -1 0 1;
#X obj 707 370 tgl 36 0 accent15.s accent15.r empty 17 7 0 10 -262144
-1 -1 0 1;
#X obj 751 370 tgl 36 0 accent16.s accent16.r empty 17 7 0 10 -262144
-1 -1 0 1;
#X text 17 381 Accent;
#X text 19 335 Octave;
#X text 14 293 Duration;
#X obj 95 282 taplist 35 35 half1.r half1.s half1 *16 *8 *4 *3 *2 M
/1 /2 /3 /4;
#X obj 10 61 bng 30 250 50 0 load_pattern empty Load_Patt 0 -7 0 10
-262144 -1 -1;
#X obj 9 111 bng 30 250 50 0 save_pattern empty Save_Patt 0 -7 0 10
-262144 -1 -1;
#X obj 9 163 bng 30 250 50 0 reset_pattern empty Rst_Patt 0 -7 0 10
-262144 -1 -1;
#N canvas 65 92 450 250 (subpatch) 0;
#X array Notes 16 float 3;
#A 0 12 12 12 12 12 12 12 12 12 12 12 12 12 12 12 12;
#X coords 0 0 16 12 700 260 2 0 0;
#X restore 92 13 graph;
#X obj 76 230 cnv 15 715 1 empty empty +2 0 8 0 12 -162280 -66577 0
;
#X obj 76 187 cnv 15 715 1 empty empty +4 0 8 0 12 -162280 -66577 0
;
#X obj 76 165 cnv 15 715 1 empty empty +5 0 8 0 12 -162280 -66577 0
;
#X obj 76 122 cnv 15 715 1 empty empty +7 0 8 0 12 -162280 -66577 0
;
#X obj 76 79 cnv 15 715 1 empty empty +9 0 8 0 12 -162280 -66577 0
;
#X obj 76 35 cnv 15 715 1 empty empty +11 2 8 0 12 -162280 -66577 0
;
#X obj 76 252 cnv 15 715 1 empty empty empty -10 0 0 14 -228856 -66577
0;
#X obj 76 209 cnv 15 715 1 empty empty empty -10 0 0 14 -228856 -66577
0;
#X obj 76 143 cnv 15 715 1 empty empty empty -10 0 0 14 -228856 -66577
0;
#X obj 76 100 cnv 15 715 1 empty empty empty -10 0 0 14 -228856 -66577
0;
#X obj 76 57 cnv 15 715 1 empty empty empty -10 0 0 14 -228856 -66577
0;
#X obj 76 13 cnv 15 715 1 empty empty +12 2 8 0 12 -162280 -66577 0
;
#X obj 77 274 cnv 15 715 1 empty empty +0 0 0 0 12 -162280 -66577 0
;
#X obj 9 13 nbx 4 25 0 127 0 0 basenote.s basenote.r Base_Note 0 -8
0 10 -262144 -1 -1 24 256;
#X obj 95 414 taplist 35 35 glide1.r glide1.s glide1 -12 -11 -10 -9
-8 -7 -6 -5 -4 -3 -2 -1 N 1 2 3 4 5 6 7 8 9 10 11 12;
#X obj 138 414 taplist 35 35 glide2.r glide2.s glide2 -12 -11 -10 -9
-8 -7 -6 -5 -4 -3 -2 -1 N 1 2 3 4 5 6 7 8 9 10 11 12;
#X obj 182 414 taplist 35 35 glide3.r glide3.s glide3 -12 -11 -10 -9
-8 -7 -6 -5 -4 -3 -2 -1 N 1 2 3 4 5 6 7 8 9 10 11 12;
#X obj 225 414 taplist 35 35 glide4.r glide4.s glide4 -12 -11 -10 -9
-8 -7 -6 -5 -4 -3 -2 -1 N 1 2 3 4 5 6 7 8 9 10 11 12;
#X obj 270 414 taplist 35 35 glide5.r glide5.s glide5 -12 -11 -10 -9
-8 -7 -6 -5 -4 -3 -2 -1 N 1 2 3 4 5 6 7 8 9 10 11 12;
#X obj 313 414 taplist 35 35 glide6.r glide6.s glide6 -12 -11 -10 -9
-8 -7 -6 -5 -4 -3 -2 -1 N 1 2 3 4 5 6 7 8 9 10 11 12;
#X obj 357 414 taplist 35 35 glide7.r glide7.s glide7 -12 -11 -10 -9
-8 -7 -6 -5 -4 -3 -2 -1 N 1 2 3 4 5 6 7 8 9 10 11 12;
#X obj 401 414 taplist 35 35 glide8.r glide8.s glide8 -12 -11 -10 -9
-8 -7 -6 -5 -4 -3 -2 -1 N 1 2 3 4 5 6 7 8 9 10 11 12;
#X obj 445 414 taplist 35 35 glide9.r glide9.s glide9 -12 -11 -10 -9
-8 -7 -6 -5 -4 -3 -2 -1 N 1 2 3 4 5 6 7 8 9 10 11 12;
#X obj 488 414 taplist 35 35 glide10.r glide10.s glide10 -12 -11 -10
-9 -8 -7 -6 -5 -4 -3 -2 -1 N 1 2 3 4 5 6 7 8 9 10 11 12;
#X obj 532 414 taplist 35 35 glide11.r glide11.s glide11 -12 -11 -10
-9 -8 -7 -6 -5 -4 -3 -2 -1 N 1 2 3 4 5 6 7 8 9 10 11 12;
#X obj 576 414 taplist 35 35 glide12.r glide12.s glide12 -12 -11 -10
-9 -8 -7 -6 -5 -4 -3 -2 -1 N 1 2 3 4 5 6 7 8 9 10 11 12;
#X obj 620 414 taplist 35 35 glide13.r glide13.s glide13 -12 -11 -10
-9 -8 -7 -6 -5 -4 -3 -2 -1 N 1 2 3 4 5 6 7 8 9 10 11 12;
#X obj 663 414 taplist 35 35 glide14.r glide14.s glide14 -12 -11 -10
-9 -8 -7 -6 -5 -4 -3 -2 -1 N 1 2 3 4 5 6 7 8 9 10 11 12;
#X obj 707 414 taplist 35 35 glide15.r glide15.s glide15 -12 -11 -10
-9 -8 -7 -6 -5 -4 -3 -2 -1 N 1 2 3 4 5 6 7 8 9 10 11 12;
#X obj 751 414 taplist 35 35 glide16.r glide16.s glide16 -12 -11 -10
-9 -8 -7 -6 -5 -4 -3 -2 -1 N 1 2 3 4 5 6 7 8 9 10 11 12;
#X obj 138 282 taplist 35 35 half2.r half2.s half2 *16 *8 *4 *3 *2
M /1 /2 /3 /4;
#X obj 182 282 taplist 35 35 half3.r half3.s half3 *16 *8 *4 *3 *2
M /1 /2 /3 /4;
#X obj 225 282 taplist 35 35 half4.r half4.s half4 *16 *8 *4 *3 *2
M /1 /2 /3 /4;
#X obj 270 282 taplist 35 35 half5.r half5.s half5 *16 *8 *4 *3 *2
M /1 /2 /3 /4;
#X obj 313 282 taplist 35 35 half6.r half6.s half6 *16 *8 *4 *3 *2
M /1 /2 /3 /4;
#X obj 357 282 taplist 35 35 half7.r half7.s half7 *16 *8 *4 *3 *2
M /1 /2 /3 /4;
#X obj 401 282 taplist 35 35 half8.r half8.s half8 *16 *8 *4 *3 *2
M /1 /2 /3 /4;
#X obj 445 282 taplist 35 35 half9.r half9.s half9 *16 *8 *4 *3 *2
M /1 /2 /3 /4;
#X obj 488 282 taplist 35 35 half10.r half10.s half10 *16 *8 *4 *3
*2 M /1 /2 /3 /4;
#X obj 532 282 taplist 35 35 half11.r half11.s half11 *16 *8 *4 *3
*2 M /1 /2 /3 /4;
#X obj 576 282 taplist 35 35 half12.r half12.s half12 *16 *8 *4 *3
*2 M /1 /2 /3 /4;
#X obj 620 282 taplist 35 35 half13.r half13.s half13 *16 *8 *4 *3
*2 M /1 /2 /3 /4;
#X obj 663 282 taplist 35 35 half14.r half14.s half14 *16 *8 *4 *3
*2 M /1 /2 /3 /4;
#X obj 707 282 taplist 35 35 half15.r half15.s half15 *16 *8 *4 *3
*2 M /1 /2 /3 /4;
#X obj 751 282 taplist 35 35 half16.r half16.s half16 *16 *8 *4 *3
*2 M /1 /2 /3 /4;
#X obj 751 326 taplist 35 35 octave16.r octave16.s octave16 *0 *1 *2
*3 *4 *5 *6;
#X obj 707 326 taplist 35 35 octave15.r octave15.s octave15 *0 *1 *2
*3 *4 *5 *6;
#X obj 663 326 taplist 35 35 octave14.r octave14.s octave14 *0 *1 *2
*3 *4 *5 *6;
#X obj 620 326 taplist 35 35 octave13.r octave13.s octave13 *0 *1 *2
*3 *4 *5 *6;
#X obj 576 326 taplist 35 35 octave12.r octave12.s octave12 *0 *1 *2
*3 *4 *5 *6;
#X obj 95 326 taplist 35 35 octave1.r octave1.s octave1 *0 *1 *2 *3
*4 *5 *6;
#X obj 138 325 taplist 35 35 octave2.r octave2.s octave2 *0 *1 *2 *3
*4 *5 *6;
#X obj 182 326 taplist 35 35 octave3.r octave3.s octave3 *0 *1 *2 *3
*4 *5 *6;
#X obj 225 326 taplist 35 35 octave4.r octave4.s octave4 *0 *1 *2 *3
*4 *5 *6;
#X obj 270 326 taplist 35 35 octave5.r octave5.s octave5 *0 *1 *2 *3
*4 *5 *6;
#X obj 313 326 taplist 35 35 octave6.r octave6.s octave6 *0 *1 *2 *3
*4 *5 *6;
#X obj 357 326 taplist 35 35 octave7.r octave7.s octave7 *0 *1 *2 *3
*4 *5 *6;
#X obj 401 326 taplist 35 35 octave8.r octave8.s octave8 *0 *1 *2 *3
*4 *5 *6;
#X obj 445 326 taplist 35 35 octave9.r octave9.s octave9 *0 *1 *2 *3
*4 *5 *6;
#X obj 488 326 taplist 35 35 octave10.r octave10.s octave10 *0 *1 *2
*3 *4 *5 *6;
#X obj 532 326 taplist 35 35 octave11.r octave11.s octave11 *0 *1 *2
*3 *4 *5 *6;
#X text 10 418 Glide from;
#X text 28 432 note;
#X obj 95 459 taplist 35 35 gldur1.r gldur1.s gldur1 *16 *8 *4 *3 *2
*1 /2 /3 /4;
#X obj 138 459 taplist 35 35 gldur2.r gldur2.s gldur2 *16 *8 *4 *3
*2 *1 /2 /3 /4;
#X obj 182 459 taplist 35 35 gldur3.r gldur3.s gldur3 *16 *8 *4 *3
*2 *1 /2 /3 /4;
#X obj 225 459 taplist 35 35 gldur4.r gldur4.s gldur4 *16 *8 *4 *3
*2 *1 /2 /3 /4;
#X obj 270 459 taplist 35 35 gldur5.r gldur5.s gldur5 *16 *8 *4 *3
*2 *1 /2 /3 /4;
#X obj 313 459 taplist 35 35 gldur6.r gldur6.s gldur6 *16 *8 *4 *3
*2 *1 /2 /3 /4;
#X obj 357 459 taplist 35 35 gldur7.r gldur7.s gldur7 *16 *8 *4 *3
*2 *1 /2 /3 /4;
#X obj 401 459 taplist 35 35 gldur8.r gldur8.s gldur8 *16 *8 *4 *3
*2 *1 /2 /3 /4;
#X obj 445 459 taplist 35 35 gldur9.r gldur9.s gldur9 *16 *8 *4 *3
*2 *1 /2 /3 /4;
#X obj 488 459 taplist 35 35 gldur10.r gldur10.s gldur10 *16 *8 *4
*3 *2 *1 /2 /3 /4;
#X obj 532 459 taplist 35 35 gldur11.r gldur11.s gldur11 *16 *8 *4
*3 *2 *1 /2 /3 /4;
#X obj 576 459 taplist 35 35 gldur12.r gldur12.s gldur12 *16 *8 *4
*3 *2 *1 /2 /3 /4;
#X obj 620 459 taplist 35 35 gldur13.r gldur13.s gldur13 *16 *8 *4
*3 *2 *1 /2 /3 /4;
#X obj 663 459 taplist 35 35 gldur14.r gldur14.s gldur14 *16 *8 *4
*3 *2 *1 /2 /3 /4;
#X obj 707 459 taplist 35 35 gldur15.r gldur15.s gldur15 *16 *8 *4
*3 *2 *1 /2 /3 /4;
#X obj 751 459 taplist 35 35 gldur16.r gldur16.s gldur16 *16 *8 *4
*3 *2 *1 /2 /3 /4;
#X text 3 472 Glide duration;
