#N canvas 141 90 890 589 10;
#X declare -path ../../../../pd-party/droidparty-abstractions;
#X declare -path z_nrci_abs;
#X obj 203 73 cnv 15 50 468 empty acidbass_cursor empty 20 12 0 14
-258113 -66577 0;
#X obj 60 454 tgl 36 0 accent1.s accent1.r empty 17 7 0 10 -262144
-1 -1 0 1;
#X obj 110 454 tgl 36 0 accent2.s accent2.r empty 17 7 0 10 -262144
-1 -1 0 1;
#X obj 160 454 tgl 36 0 accent3.s accent3.r empty 17 7 0 10 -262144
-1 -1 0 1;
#X obj 209 454 tgl 36 0 accent4.s accent4.r empty 17 7 0 10 -262144
-1 -1 0 1;
#X obj 259 454 tgl 36 0 accent5.s accent5.r empty 17 7 0 10 -262144
-1 -1 0 1;
#X obj 310 454 tgl 36 0 accent6.s accent6.r empty 17 7 0 10 -262144
-1 -1 0 1;
#X obj 360 454 tgl 36 0 accent7.s accent7.r empty 17 7 0 10 -262144
-1 -1 0 1;
#X obj 410 454 tgl 36 0 accent8.s accent8.r empty 17 7 0 10 -262144
-1 -1 0 1;
#X obj 459 454 tgl 36 0 accent9.s accent9.r empty 17 7 0 10 -262144
-1 -1 0 1;
#X obj 509 454 tgl 36 0 accent10.s accent10.r empty 17 7 0 10 -262144
-1 -1 0 1;
#X obj 559 454 tgl 36 0 accent11.s accent11.r empty 17 7 0 10 -262144
-1 -1 0 1;
#X obj 609 454 tgl 36 0 accent12.s accent12.r empty 17 7 0 10 -262144
-1 -1 0 1;
#X obj 659 454 tgl 36 0 accent13.s accent13.r empty 17 7 0 10 -262144
-1 -1 0 1;
#X obj 709 454 tgl 36 0 accent14.s accent14.r empty 17 7 0 10 -262144
-1 -1 0 1;
#X obj 759 454 tgl 36 0 accent15.s accent15.r empty 17 7 0 10 -262144
-1 -1 0 1;
#X obj 810 454 tgl 36 0 accent16.s accent16.r empty 17 7 0 10 -262144
-1 -1 0 1;
#X text 6 465 Accent;
#X text 5 370 Octave;
#X obj 60 500 tgl 36 0 glide1.s glide1.r empty 17 7 0 10 -262144 -1
-1 0 1;
#X obj 110 500 tgl 36 0 glide2.s glide2.r empty 17 7 0 10 -262144 -1
-1 0 1;
#X obj 160 500 tgl 36 0 glide3.s glide3.r empty 17 7 0 10 -262144 -1
-1 0 1;
#X obj 209 500 tgl 36 0 glide4.s glide4.r empty 17 7 0 10 -262144 -1
-1 0 1;
#X obj 259 500 tgl 36 0 glide5.s glide5.r empty 17 7 0 10 -262144 -1
-1 0 1;
#X obj 310 500 tgl 36 0 glide6.s glide6.r empty 17 7 0 10 -262144 -1
-1 0 1;
#X obj 360 500 tgl 36 0 glide7.s glide7.r empty 17 7 0 10 -262144 -1
-1 0 1;
#X obj 410 500 tgl 36 0 glide8.s glide8.r empty 17 7 0 10 -262144 -1
-1 0 1;
#X obj 459 500 tgl 36 0 glide9.s glide9.r empty 17 7 0 10 -262144 -1
-1 0 1;
#X obj 509 500 tgl 36 0 glide10.s glide10.r empty 17 7 0 10 -262144
-1 -1 0 1;
#X obj 559 500 tgl 36 0 glide11.s glide11.r empty 17 7 0 10 -262144
-1 -1 0 1;
#X obj 609 500 tgl 36 0 glide12.s glide12.r empty 17 7 0 10 -262144
-1 -1 0 1;
#X obj 659 500 tgl 36 0 glide13.s glide13.r empty 17 7 0 10 -262144
-1 -1 0 1;
#X obj 709 500 tgl 36 0 glide14.s glide14.r empty 17 7 0 10 -262144
-1 -1 0 1;
#X obj 759 500 tgl 36 0 glide15.s glide15.r empty 17 7 0 10 -262144
-1 -1 0 1;
#X obj 810 500 tgl 36 0 glide16.s glide16.r empty 17 7 0 10 -262144
-1 -1 0 1;
#X text 8 511 Glide;
#X text -1 412 Duration;
#X obj 60 406 taplist 35 35 half1.r half1.s half1 /1 /2 /3 /4;
#X obj 110 406 taplist 35 35 half2.r half2.s half2 /1 /2 /3 /4;
#X obj 160 406 taplist 35 35 half3.r half3.s half3 /1 /2 /3 /4;
#X obj 209 406 taplist 35 35 half4.r half4.s half4 /1 /2 /3 /4;
#X obj 259 406 taplist 35 35 half5.r half5.s half5 /1 /2 /3 /4;
#X obj 310 406 taplist 35 35 half6.r half6.s half6 /1 /2 /3 /4;
#X obj 360 406 taplist 35 35 half7.r half7.s half7 /1 /2 /3 /4;
#X obj 410 406 taplist 35 35 half8.r half8.s half8 /1 /2 /3 /4;
#X obj 459 406 taplist 35 35 half9.r half9.s half9 /1 /2 /3 /4;
#X obj 509 406 taplist 35 35 half10.r half10.s half10 /1 /2 /3 /4;
#X obj 559 406 taplist 35 35 half11.r half11.s half11 /1 /2 /3 /4;
#X obj 609 406 taplist 35 35 half12.r half12.s half12 /1 /2 /3 /4;
#X obj 659 406 taplist 35 35 half13.r half13.s half13 /1 /2 /3 /4;
#X obj 709 406 taplist 35 35 half14.r half14.s half14 /1 /2 /3 /4;
#X obj 759 406 taplist 35 35 half15.r half15.s half15 /1 /2 /3 /4;
#X obj 810 406 taplist 35 35 half16.r half16.s half16 /1 /2 /3 /4;
#X obj 810 360 taplist 35 35 octave16.r octave16.s octave16 *0 *1 *2
*3;
#X obj 759 360 taplist 35 35 octave15.r octave15.s octave15 *0 *1 *2
*3;
#X obj 709 360 taplist 35 35 octave14.r octave14.s octave14 *0 *1 *2
*3;
#X obj 659 360 taplist 35 35 octave13.r octave13.s octave13 *0 *1 *2
*3;
#X obj 609 360 taplist 35 35 octave12.r octave12.s octave12 *0 *1 *2
*3;
#X obj 60 360 taplist 35 35 octave1.r octave1.s octave1 *0 *1 *2 *3
;
#X obj 110 360 taplist 35 35 octave2.r octave2.s octave2 *0 *1 *2 *3
;
#X obj 160 360 taplist 35 35 octave3.r octave3.s octave3 *0 *1 *2 *3
;
#X obj 209 360 taplist 35 35 octave4.r octave4.s octave4 *0 *1 *2 *3
;
#X obj 259 360 taplist 35 35 octave5.r octave5.s octave5 *0 *1 *2 *3
;
#X obj 310 360 taplist 35 35 octave6.r octave6.s octave6 *0 *1 *2 *3
;
#X obj 360 360 taplist 35 35 octave7.r octave7.s octave7 *0 *1 *2 *3
;
#X obj 410 360 taplist 35 35 octave8.r octave8.s octave8 *0 *1 *2 *3
;
#X obj 459 360 taplist 35 35 octave9.r octave9.s octave9 *0 *1 *2 *3
;
#X obj 509 360 taplist 35 35 octave10.r octave10.s octave10 *0 *1 *2
*3;
#X obj 559 360 taplist 35 35 octave11.r octave11.s octave11 *0 *1 *2
*3;
#X obj 795 40 clock-gui;
#X obj 55 597 declare -path ../../../../pd-party/droidparty-abstractions
;
#X obj 150 26 bng 30 250 50 0 empty empty Load 0 -7 0 10 -262144 -1
-1;
#X obj 231 26 bng 30 250 50 0 save empty Save 0 -7 0 10 -262144 -1
-1;
#X obj 313 26 bng 30 250 50 0 reset empty Reset 0 -7 0 10 -262144 -1
-1;
#X obj 740 21 AcidBass_audiocore;
#X obj 409 597 loadsave pattern;
#X obj 511 597 loadsave synth;
#N canvas 720 299 613 463 loadsave-maping 0;
#N canvas 65 54 1301 714 loadsave 0;
#X obj 536 134 sssad/auto accent1.s accent1.r;
#X obj 536 73 sssad/auto accent2.s accent2.r;
#X obj 536 93 sssad/auto accent3.s accent3.r;
#X obj 536 114 sssad/auto accent4.s accent4.r;
#X obj 537 215 sssad/auto accent5.s accent5.r;
#X obj 537 154 sssad/auto accent6.s accent6.r;
#X obj 537 174 sssad/auto accent7.s accent7.r;
#X obj 537 195 sssad/auto accent8.s accent8.r;
#X obj 537 295 sssad/auto accent9.s accent9.r;
#X obj 537 234 sssad/auto accent10.s accent10.r;
#X obj 537 254 sssad/auto accent11.s accent11.r;
#X obj 537 275 sssad/auto accent12.s accent12.r;
#X obj 538 376 sssad/auto accent13.s accent13.r;
#X obj 538 315 sssad/auto accent14.s accent14.r;
#X obj 538 335 sssad/auto accent15.s accent15.r;
#X obj 538 356 sssad/auto accent16 accent16.r;
#X obj 745 73 sssad/auto glide1.s glide1.r;
#X obj 745 93 sssad/auto glide2.s glide2.r;
#X obj 745 113 sssad/auto glide3.s glide3.r;
#X obj 745 133 sssad/auto glide4.s glide4.r;
#X obj 745 153 sssad/auto glide5.s glide5.r;
#X obj 745 173 sssad/auto glide6.s glide6.r;
#X obj 745 193 sssad/auto glide7.s glide7.r;
#X obj 745 213 sssad/auto glide8.s glide8.r;
#X obj 745 233 sssad/auto glide9.s glide9.r;
#X obj 745 253 sssad/auto glide10.s glide10.r;
#X obj 745 273 sssad/auto glide11.s glide11.r;
#X obj 745 293 sssad/auto glide12.s glide12.r;
#X obj 745 313 sssad/auto glide13.s glide13.r;
#X obj 745 333 sssad/auto glide14.s glide14.r;
#X obj 745 353 sssad/auto glide15.s glide15.r;
#X obj 745 373 sssad/auto glide16.s glide16.r;
#X obj 371 73 sssad/auto half1.s half1.r;
#X obj 371 93 sssad/auto half2.s half2.r;
#X obj 181 93 sssad/auto octave2.s octave2.r;
#X obj 15 93 sssad/auto note2.s note2.r;
#X obj 371 114 sssad/auto half3.s half3.r;
#X obj 181 114 sssad/auto octave3.s octave3.r;
#X obj 15 114 sssad/auto note3.s note3.r;
#X obj 724 -86 sssad/auto fromattack toattack;
#X obj 724 -67 sssad/auto fromdecay todecay;
#X obj 724 -48 sssad/auto fromshape toshape;
#X obj 371 134 sssad/auto half4.s half4.r;
#X obj 371 155 sssad/auto half5.s half5.r;
#X obj 371 175 sssad/auto half6.s half6.r;
#X obj 724 41 sssad/auto bass_mix bass_mix.r;
#X obj 181 134 sssad/auto octave4.s octave4.r;
#X obj 181 155 sssad/auto octave5.s octave5.r;
#X obj 181 175 sssad/auto octave6.s octave6.r;
#X obj 181 196 sssad/auto octave7.s octave7.r;
#X obj 181 216 sssad/auto octave8.s octave8.r;
#X obj 181 236 sssad/auto octave9.s octave9.r;
#X obj 181 256 sssad/auto octave10.s octave10.r;
#X obj 181 277 sssad/auto octave11.s octave11.r;
#X obj 181 297 sssad/auto octave12.s octave12.r;
#X obj 181 318 sssad/auto octave13.s octave13.r;
#X obj 181 338 sssad/auto octave14.s octave14.r;
#X obj 181 359 sssad/auto octave15.s octave15.r;
#X obj 181 379 sssad/auto octave16.s octave16.r;
#X obj 15 134 sssad/auto note4.s note4.r;
#X obj 15 155 sssad/auto note5.s note5.r;
#X obj 15 175 sssad/auto note6.s note6.r;
#X obj 15 196 sssad/auto note7.s note7.r;
#X obj 15 216 sssad/auto note8.s note8.r;
#X obj 15 236 sssad/auto note9.s note9.r;
#X obj 15 256 sssad/auto note10.s note10.r;
#X obj 15 277 sssad/auto note11.s note11.r;
#X obj 15 297 sssad/auto note12.s note12.r;
#X obj 15 318 sssad/auto note13.s note13.r;
#X obj 15 338 sssad/auto note14.s note14.r;
#X obj 15 359 sssad/auto note15.s note15.r;
#X obj 15 379 sssad/auto note16.s note16.r;
#X obj 371 196 sssad/auto half7.s half7.r;
#X obj 371 216 sssad/auto half8.s half8.r;
#X obj 371 236 sssad/auto half9.s half9.r;
#X obj 371 256 sssad/auto half10.s half10.r;
#X obj 371 277 sssad/auto half11.s half11.r;
#X obj 371 297 sssad/auto half12.s half12.r;
#X obj 371 318 sssad/auto half13.s half13.r;
#X obj 371 338 sssad/auto half14.s half14.r;
#X obj 371 359 sssad/auto half15.s half15.r;
#X obj 371 379 sssad/auto half16.s half16.r;
#X obj 14 73 sssad/auto note1.s note1.r;
#X obj 181 73 sssad/auto octave1.s octave1.r;
#X restore 459 26 pd loadsave;
#X restore 602 597 pd loadsave-maping;
#N canvas 65 87 450 250 (subpatch) 0;
#X array Notes 16 float 3;
#A 0 3 11 10 9 8 7 6 5 4 3 2 1 0 1 2 3;
#X coords 0 0 16 12 800 260 2 0 0;
#X restore 54 74 graph;
#X obj 38 290 cnv 15 815 1 empty empty +2 -20 0 0 14 -162280 -66577
0;
#X obj 38 247 cnv 15 815 1 empty empty +4 -20 0 0 14 -162280 -66577
0;
#X obj 38 225 cnv 15 815 1 empty empty +5 -20 0 0 14 -162280 -66577
0;
#X obj 38 182 cnv 15 815 1 empty empty +7 -20 0 0 14 -162280 -66577
0;
#X obj 38 139 cnv 15 815 1 empty empty +9 -20 0 0 14 -162280 -66577
0;
#X obj 38 95 cnv 15 815 1 empty empty +11 -25 0 0 14 -162280 -66577
0;
#X obj 38 312 cnv 15 815 1 empty empty empty -10 0 0 14 -228856 -66577
0;
#X obj 38 269 cnv 15 815 1 empty empty empty -10 0 0 14 -228856 -66577
0;
#X obj 38 203 cnv 15 815 1 empty empty empty -10 0 0 14 -228856 -66577
0;
#X obj 38 160 cnv 15 815 1 empty empty empty -10 0 0 14 -228856 -66577
0;
#X obj 38 117 cnv 15 815 1 empty empty empty -10 0 0 14 -228856 -66577
0;
#X obj 38 73 cnv 15 815 1 empty empty +12 -25 0 0 14 -162280 -66577
0;
#X obj 39 334 cnv 15 815 1 empty empty +0 -20 0 0 14 -162280 -66577
0;
#X obj 52 28 nbx 5 25 0 127 0 0 basenote.s basenote.r Base_Note 0 -8
0 10 -262144 -1 -1 0 256;
#N canvas 559 125 754 524 tablelookup 1;
#X obj 333 -2 table_set_from_gui Notes 0 notes_0.s 11;
#X obj 16 97 table_note_rd_lookup Notes 5 notes_5.r 11;
#X obj 333 17 table_set_from_gui Notes 1 notes_1.s 11;
#X obj 333 37 table_set_from_gui Notes 2 notes_2.s 11;
#X obj 333 56 table_set_from_gui Notes 3 notes_3.s 11;
#X obj 333 76 table_set_from_gui Notes 4 notes_4.s 11;
#X obj 333 95 table_set_from_gui Notes 5 notes_5.s 11;
#X obj 333 115 table_set_from_gui Notes 6 notes_6.s 11;
#X obj 333 134 table_set_from_gui Notes 7 notes_7.s 11;
#X floatatom 575 0 7 0 0 0 - notes_0.r notes_0.s, f 7;
#X floatatom 576 18 7 0 0 0 - notes_1.r notes_1.s, f 7;
#X floatatom 577 36 7 0 0 0 - notes_2.r notes_2.s, f 7;
#X floatatom 575 59 7 0 0 0 - notes_3.r notes_3.s, f 7;
#X floatatom 577 79 7 0 0 0 - notes_4.r notes_4.s, f 7;
#X floatatom 576 99 7 0 0 0 - notes_5.r notes_5.s, f 7;
#X floatatom 577 119 7 0 0 0 - notes_6.r notes_6.s, f 7;
#X floatatom 576 139 7 0 0 0 - notes_7.r notes_7.s, f 7;
#X obj 16 0 table_note_rd_lookup Notes 0 notes_0.r 11;
#X obj 16 58 table_note_rd_lookup Notes 3 notes_3.r 11;
#X obj 16 78 table_note_rd_lookup Notes 4 notes_4.r 11;
#X obj 16 117 table_note_rd_lookup Notes 6 notes_6.r 11;
#X obj 16 136 table_note_rd_lookup Notes 7 notes_7.r 11;
#X floatatom 577 162 7 0 0 0 - notes_8.r notes_8.s, f 7;
#X floatatom 578 180 7 0 0 0 - notes_9.r notes_9.s, f 7;
#X floatatom 591 198 7 0 0 0 - notes_10.r notes_10.s, f 7;
#X floatatom 589 221 7 0 0 0 - notes_11.r notes_11.s, f 7;
#X floatatom 591 241 7 0 0 0 - notes_12.r notes_12.s, f 7;
#X floatatom 590 261 7 0 0 0 - notes_13.r notes_13.s, f 7;
#X floatatom 591 281 7 0 0 0 - notes_14.r notes_14.s, f 7;
#X floatatom 590 301 7 0 0 0 - notes_15.r notes_15.s, f 7;
#X obj 17 156 table_note_rd_lookup Notes 8 notes_8.r 11;
#X obj 17 176 table_note_rd_lookup Notes 9 notes_9.r 11;
#X obj 17 195 table_note_rd_lookup Notes 10 notes_10.r 11;
#X obj 17 215 table_note_rd_lookup Notes 11 notes_11.r 11;
#X obj 17 235 table_note_rd_lookup Notes 12 notes_12.r 11;
#X obj 17 254 table_note_rd_lookup Notes 13 notes_13.r 11;
#X obj 18 275 table_note_rd_lookup Notes 14 notes_14.r 11;
#X obj 16 19 table_note_rd_lookup Notes 1 notes_1.r 11;
#X obj 17 38 table_note_rd_lookup Notes 2 notes_2.r 11;
#X obj 18 295 table_note_rd_lookup Notes 15 notes_15.r 11;
#X obj 335 160 table_set_from_gui Notes 8 notes_8.s 11;
#X obj 335 179 table_set_from_gui Notes 9 notes_9.s 11;
#X obj 335 199 table_set_from_gui Notes 10 notes_10.s 11;
#X obj 335 218 table_set_from_gui Notes 11 notes_11.s 11;
#X obj 335 238 table_set_from_gui Notes 12 notes_12.s 11;
#X obj 335 257 table_set_from_gui Notes 13 notes_13.s 11;
#X obj 335 277 table_set_from_gui Notes 14 notes_14.s 11;
#X obj 335 296 table_set_from_gui Notes 15 notes_15.s 11;
#X restore 630 21 pd tablelookup;
