#N canvas 65 87 802 369 10;
#X declare -path ../../../../pd-party/droidparty-abstractions;
#X obj 571 43 hsl 200 45 0 1 0 0 fromattack toattack empty -2 -6 1
8 -258113 -1 -1 4100 1;
#X obj 572 106 hsl 200 45 0 1 0 0 fromdecay todecay empty -2 -6 1 8
-258113 -1 -1 4700 1;
#X obj 571 172 hsl 200 45 0 1 0 0 fromshape toshape empty -2 -6 1 8
-258113 -1 -1 17900 1;
#X text 573 27 Attack;
#X text 567 91 Decay;
#X text 567 157 Shape;
#X obj 571 237 hsl 200 45 0 127 0 0 fromVolume toVolume empty -2 -6
1 8 -258113 -1 -1 13000 1;
#X text 567 222 Volume;
#X obj 122 -8 declare -path ../../../../pd-party/droidparty-abstractions
;
#X obj 77 62 hsl 200 45 0 127 0 0 freq.s freq.r freq -2 -6 1 8 -258113
-1 -1 0 1;
#X obj 79 135 hsl 200 45 0 150 0 0 res.s res.r res -2 -6 1 8 -258113
-1 -1 0 1;
#X obj 85 203 hsl 200 45 0 500 0 0 sat.s sat.r sat -2 -6 1 8 -258113
-1 -1 0 1;
