#N canvas 733 88 667 680 10;
#X obj 318 206 * 12;
#X obj 8 223 +;
#X obj 150 -32 inlet bang;
#X obj 260 580 f;
#X obj 318 185 f;
#X obj 150 -9 t b b b b b;
#X obj 144 623 outlet;
#X obj 23 13 r \$1;
#X obj 378 -5 r \$2;
#X obj 275 531 r \$3;
#X obj 196 298 r \$4;
#X msg 345 125 0;
#X msg 362 145 1;
#X msg 379 168 2;
#X msg 396 188 3;
#X msg 420 134 4;
#X obj 345 46 symbol;
#X msg 378 22 symbol \$1;
#X obj 318 8 t b b;
#X obj 372 311 r \$5;
#X obj 339 363 symbol;
#X msg 372 339 symbol \$1;
#X obj 339 388 select /1 /2 /3 /4;
#X obj 339 471 f;
#X obj 339 493 / 1;
#X obj 373 471 f;
#X obj 373 493 / 2;
#X obj 405 471 f;
#X obj 439 471 f;
#X obj 405 493 / 3;
#X obj 439 493 / 4;
#X obj 181 343 sel 0 1;
#X obj 181 319 f;
#X obj 275 553 t f;
#X obj 228 556 t f b;
#X obj -7 247 f;
#X obj 146 600 pack f f f;
#X obj 345 71 select *0 *1 *2 *3;
#X msg 181 366 60;
#X obj 8 34 f;
#X floatatom 19 60 5 0 0 0 - - -, f 5;
#X obj 8 105 +;
#X obj 23 84 r basenote.s;
#X msg 211 367 100;
#X obj 144 510 makenote;
#X obj 496 394 + 50;
#X obj 497 369 r notetime;
#X connect 0 0 1 1;
#X connect 1 0 35 1;
#X connect 2 0 5 0;
#X connect 3 0 36 2;
#X connect 4 0 0 0;
#X connect 5 0 35 0;
#X connect 5 1 39 0;
#X connect 5 2 32 0;
#X connect 5 3 20 0;
#X connect 5 4 18 0;
#X connect 7 0 39 1;
#X connect 8 0 17 0;
#X connect 9 0 33 0;
#X connect 10 0 32 1;
#X connect 11 0 4 1;
#X connect 12 0 4 1;
#X connect 13 0 4 1;
#X connect 14 0 4 1;
#X connect 15 0 4 1;
#X connect 16 0 37 0;
#X connect 17 0 16 1;
#X connect 18 0 4 0;
#X connect 18 1 16 0;
#X connect 19 0 21 0;
#X connect 20 0 22 0;
#X connect 21 0 20 1;
#X connect 22 0 23 0;
#X connect 22 1 25 0;
#X connect 22 2 27 0;
#X connect 22 3 28 0;
#X connect 23 0 24 0;
#X connect 24 0 44 2;
#X connect 25 0 26 0;
#X connect 26 0 44 2;
#X connect 27 0 29 0;
#X connect 28 0 30 0;
#X connect 29 0 44 2;
#X connect 30 0 44 2;
#X connect 31 0 38 0;
#X connect 31 1 43 0;
#X connect 32 0 31 0;
#X connect 33 0 3 1;
#X connect 34 0 36 1;
#X connect 34 1 3 0;
#X connect 35 0 44 0;
#X connect 36 0 6 0;
#X connect 37 0 11 0;
#X connect 37 1 12 0;
#X connect 37 2 13 0;
#X connect 37 3 14 0;
#X connect 38 0 44 1;
#X connect 39 0 40 0;
#X connect 39 0 41 0;
#X connect 41 0 1 0;
#X connect 42 0 41 1;
#X connect 43 0 44 1;
#X connect 44 0 36 0;
#X connect 44 1 34 0;
#X connect 45 0 23 1;
#X connect 45 0 25 1;
#X connect 45 0 27 1;
#X connect 45 0 28 1;
#X connect 46 0 45 0;
