#N canvas 65 54 1301 714 10;
#X obj -228 205 * 12;
#X obj 8 223 +;
#X obj 178 -35 inlet bang;
#X obj -228 184 f;
#X obj -7 997 outlet;
#X obj 23 -2 r \$1;
#X obj -168 -12 r \$2;
#X obj 39 482 r \$4;
#X msg -201 67 0;
#X msg -184 87 1;
#X msg -167 110 2;
#X msg -150 130 3;
#X msg -137 154 4;
#X obj -201 27 symbol;
#X msg -168 8 symbol \$1;
#X obj -228 7 t b b;
#X obj 400 453 r \$5;
#X obj 367 497 symbol;
#X msg 400 473 symbol \$1;
#X obj 576 565 f;
#X obj 610 565 f;
#X obj 610 587 / 2;
#X obj 642 565 f;
#X obj 676 565 f;
#X obj 642 587 / 3;
#X obj 676 587 / 4;
#X obj 24 527 sel 0 1;
#X obj 24 503 f;
#X obj -7 247 f;
#X msg 24 550 60;
#X obj 8 34 f;
#X floatatom 19 60 5 0 0 0 - - -, f 5;
#X obj 8 105 +;
#X obj 23 84 r basenote.s;
#X obj 691 498 r notetime;
#X obj 691 524 + 0;
#X obj 367 565 f;
#X obj 401 565 f;
#X obj 433 565 f;
#X obj 467 565 f;
#X obj 367 587 * 16;
#X obj 401 587 * 8;
#X obj 433 587 * 4;
#X obj 467 587 * 3;
#X obj 501 566 f;
#X obj 501 589 * 2;
#X obj 541 564 f;
#X obj 350 646 f;
#X obj 9 577 f;
#X obj -7 971 spigot 1;
#X obj -7 712 makenote;
#X obj -201 47 select *0 *1 *2 *3 *4 *5 *6;
#X msg -122 175 5;
#X msg -106 198 6;
#X obj 352 389 f;
#X obj 178 -12 t b b b b b b;
#X obj 367 23 r \$3/idx;
#X msg 367 75 -12;
#X obj 367 48 select 0 1 2 3 4 5 6 7 8 9 10 11 12 13 14 15 16 17 18
19 20 21 22 23 24, f 72;
#X msg 658 72 5;
#X msg 675 95 6;
#X msg 692 115 7;
#X msg 705 139 8;
#X msg 720 160 9;
#X msg 736 183 10;
#X msg 399 138 -9;
#X msg 416 161 -8;
#X msg 433 181 -7;
#X msg 446 205 -6;
#X msg 461 226 -5;
#X msg 504 79 -4;
#X msg 521 101 -3;
#X msg 538 121 -2;
#X msg 555 144 -1;
#X msg 572 164 0;
#X msg 585 188 1;
#X msg 600 209 2;
#X msg 616 232 3;
#X msg 631 254 4;
#X msg 377 96 -11;
#X msg 387 116 -10;
#X msg 750 207 11;
#X msg 767 231 12;
#X text 11 -32 NOTE;
#X text -211 -24 OCTAVE;
#X text 38 462 VEL;
#X msg 54 551 127;
#X text 388 -12 GLIDE FROM NOTE;
#X text 383 427 DURATION;
#X obj 366 752 symbol;
#X msg 399 728 symbol \$1;
#X obj 575 820 f;
#X obj 575 842 / 1;
#X obj 609 820 f;
#X obj 609 842 / 2;
#X obj 641 820 f;
#X obj 675 820 f;
#X obj 641 842 / 3;
#X obj 675 842 / 4;
#X obj 690 753 r notetime;
#X obj 690 779 + 0;
#X obj 366 777 select *16 *8 *4 *3 *2 M /1 /2 /3 /4;
#X obj 366 820 f;
#X obj 400 820 f;
#X obj 432 820 f;
#X obj 466 820 f;
#X obj 366 842 * 16;
#X obj 400 842 * 8;
#X obj 432 842 * 4;
#X obj 466 842 * 3;
#X obj 500 821 f;
#X obj 500 844 * 2;
#X obj 540 819 f;
#X obj 540 842 * 0;
#X obj 349 901 f;
#X obj -7 949 pack f f f f f;
#X text 118 953 note / vel / glide from note / note dur / glide duration
;
#X obj 399 708 r \$6;
#X obj -7 266 t f b b b b;
#X text 382 682 Glide Duration;
#X obj 367 522 select *16 *8 *4 *3 *2 *1 M /2 /3 /4;
#X obj 541 587 * 1;
#X obj 576 587 * 0;
#X connect 0 0 1 1;
#X connect 1 0 28 1;
#X connect 2 0 55 0;
#X connect 3 0 0 0;
#X connect 5 0 30 1;
#X connect 6 0 14 0;
#X connect 7 0 27 1;
#X connect 8 0 3 1;
#X connect 9 0 3 1;
#X connect 10 0 3 1;
#X connect 11 0 3 1;
#X connect 12 0 3 1;
#X connect 13 0 51 0;
#X connect 14 0 13 1;
#X connect 15 0 3 0;
#X connect 15 1 13 0;
#X connect 16 0 18 0;
#X connect 17 0 120 0;
#X connect 18 0 17 1;
#X connect 19 0 122 0;
#X connect 20 0 21 0;
#X connect 21 0 47 1;
#X connect 22 0 24 0;
#X connect 23 0 25 0;
#X connect 24 0 47 1;
#X connect 25 0 47 1;
#X connect 26 0 29 0;
#X connect 26 1 86 0;
#X connect 27 0 26 0;
#X connect 28 0 118 0;
#X connect 29 0 48 1;
#X connect 30 0 31 0;
#X connect 30 0 32 0;
#X connect 32 0 1 0;
#X connect 33 0 32 1;
#X connect 34 0 35 0;
#X connect 35 0 19 1;
#X connect 35 0 20 1;
#X connect 35 0 22 1;
#X connect 35 0 23 1;
#X connect 35 0 46 1;
#X connect 35 0 44 1;
#X connect 35 0 38 1;
#X connect 35 0 39 1;
#X connect 35 0 37 1;
#X connect 35 0 36 1;
#X connect 36 0 40 0;
#X connect 37 0 41 0;
#X connect 38 0 42 0;
#X connect 39 0 43 0;
#X connect 40 0 47 1;
#X connect 41 0 47 1;
#X connect 42 0 47 1;
#X connect 43 0 47 1;
#X connect 44 0 45 0;
#X connect 45 0 47 1;
#X connect 46 0 121 0;
#X connect 47 0 50 2;
#X connect 47 0 115 3;
#X connect 48 0 50 1;
#X connect 49 0 4 0;
#X connect 50 0 115 0;
#X connect 50 1 115 1;
#X connect 51 0 8 0;
#X connect 51 1 9 0;
#X connect 51 2 10 0;
#X connect 51 3 11 0;
#X connect 51 4 12 0;
#X connect 51 5 52 0;
#X connect 51 6 53 0;
#X connect 52 0 3 1;
#X connect 53 0 3 1;
#X connect 54 0 115 2;
#X connect 55 0 28 0;
#X connect 55 1 30 0;
#X connect 55 2 27 0;
#X connect 55 3 17 0;
#X connect 55 4 15 0;
#X connect 55 5 89 0;
#X connect 56 0 58 0;
#X connect 57 0 54 1;
#X connect 58 0 57 0;
#X connect 58 1 79 0;
#X connect 58 2 80 0;
#X connect 58 3 65 0;
#X connect 58 4 66 0;
#X connect 58 5 67 0;
#X connect 58 6 68 0;
#X connect 58 7 69 0;
#X connect 58 8 70 0;
#X connect 58 9 71 0;
#X connect 58 10 72 0;
#X connect 58 11 73 0;
#X connect 58 12 74 0;
#X connect 58 13 75 0;
#X connect 58 14 76 0;
#X connect 58 15 77 0;
#X connect 58 16 78 0;
#X connect 58 17 59 0;
#X connect 58 18 60 0;
#X connect 58 19 61 0;
#X connect 58 20 62 0;
#X connect 58 21 63 0;
#X connect 58 22 64 0;
#X connect 58 23 81 0;
#X connect 58 24 82 0;
#X connect 59 0 54 1;
#X connect 60 0 54 1;
#X connect 61 0 54 1;
#X connect 62 0 54 1;
#X connect 63 0 54 1;
#X connect 64 0 54 1;
#X connect 65 0 54 1;
#X connect 66 0 54 1;
#X connect 67 0 54 1;
#X connect 68 0 54 1;
#X connect 69 0 54 1;
#X connect 70 0 54 1;
#X connect 71 0 54 1;
#X connect 72 0 54 1;
#X connect 73 0 54 1;
#X connect 74 0 54 1;
#X connect 75 0 54 1;
#X connect 76 0 54 1;
#X connect 77 0 54 1;
#X connect 78 0 54 1;
#X connect 79 0 54 1;
#X connect 80 0 54 1;
#X connect 81 0 54 1;
#X connect 82 0 54 1;
#X connect 86 0 48 1;
#X connect 89 0 101 0;
#X connect 90 0 89 1;
#X connect 91 0 92 0;
#X connect 92 0 114 1;
#X connect 93 0 94 0;
#X connect 94 0 114 1;
#X connect 95 0 97 0;
#X connect 96 0 98 0;
#X connect 97 0 114 1;
#X connect 98 0 114 1;
#X connect 99 0 100 0;
#X connect 100 0 91 1;
#X connect 100 0 93 1;
#X connect 100 0 95 1;
#X connect 100 0 96 1;
#X connect 100 0 112 1;
#X connect 100 0 110 1;
#X connect 100 0 104 1;
#X connect 100 0 105 1;
#X connect 100 0 103 1;
#X connect 100 0 102 1;
#X connect 101 0 102 0;
#X connect 101 1 103 0;
#X connect 101 2 104 0;
#X connect 101 3 105 0;
#X connect 101 4 110 0;
#X connect 101 5 112 0;
#X connect 101 6 91 0;
#X connect 101 7 93 0;
#X connect 101 8 95 0;
#X connect 101 9 96 0;
#X connect 102 0 106 0;
#X connect 103 0 107 0;
#X connect 104 0 108 0;
#X connect 105 0 109 0;
#X connect 106 0 114 1;
#X connect 107 0 114 1;
#X connect 108 0 114 1;
#X connect 109 0 114 1;
#X connect 110 0 111 0;
#X connect 111 0 114 1;
#X connect 112 0 113 0;
#X connect 113 0 114 1;
#X connect 114 0 115 4;
#X connect 115 0 49 0;
#X connect 117 0 90 0;
#X connect 118 0 50 0;
#X connect 118 1 48 0;
#X connect 118 2 54 0;
#X connect 118 3 47 0;
#X connect 118 4 114 0;
#X connect 120 0 36 0;
#X connect 120 1 37 0;
#X connect 120 2 38 0;
#X connect 120 3 39 0;
#X connect 120 4 44 0;
#X connect 120 5 46 0;
#X connect 120 6 19 0;
#X connect 120 7 20 0;
#X connect 120 8 22 0;
#X connect 120 9 23 0;
#X connect 121 0 47 1;
#X connect 122 0 47 1;
