#N canvas 65 100 1128 686 10;
#X obj 55 560 cnv 15 100 130 empty cursorAccents empty 20 12 0 14 -261234
-66577 0;
#X obj 755 420 cnv 15 100 140 empty cursorOctaves empty 20 12 0 14
-261234 -66577 0;
#X obj 55 190 cnv 15 100 235 empty cursorNotes empty 20 12 0 14 -261234
-66577 0;
#N canvas 65 87 450 250 (subpatch) 0;
#X array Notes 8 float 3;
#A 0 12 7 12 7 12 5 12 5;
#X coords 0 0 8 12 800 200 2 0 0;
#X restore 54 205 graph;
#N canvas 65 102 1301 686 guts 0;
#X obj 257 636 pack f f;
#N canvas 65 54 1301 714 gui-lookup 0;
#X obj 16 0 table_note_rd_lookup Notes 0 notes_0.r 11;
#X obj 333 -2 table_set_from_gui Notes 0 notes_0.s 11;
#X obj 16 19 table_note_rd_lookup Notes 1 notes_1.r 11;
#X obj 16 39 table_note_rd_lookup Notes 2 notes_2.r 11;
#X obj 16 58 table_note_rd_lookup Notes 3 notes_3.r 11;
#X obj 16 78 table_note_rd_lookup Notes 4 notes_4.r 11;
#X obj 16 97 table_note_rd_lookup Notes 5 notes_5.r 11;
#X obj 16 117 table_note_rd_lookup Notes 6 notes_6.r 11;
#X obj 16 136 table_note_rd_lookup Notes 7 notes_7.r 11;
#X obj 16 184 table_note_rd_lookup Octaves 0 octaves_0.r 5;
#X obj 16 203 table_note_rd_lookup Octaves 1 octaves_1.r 5;
#X obj 16 223 table_note_rd_lookup Octaves 2 octaves_2.r 5;
#X obj 16 242 table_note_rd_lookup Octaves 3 octaves_3.r 5;
#X obj 16 262 table_note_rd_lookup Octaves 4 octaves_4.r 5;
#X obj 16 281 table_note_rd_lookup Octaves 5 octaves_5.r 5;
#X obj 16 301 table_note_rd_lookup Octaves 6 octaves_6.r 5;
#X obj 16 320 table_note_rd_lookup Octaves 7 octaves_7.r 5;
#X obj 17 369 table_note_rd_lookup Accents 0 accents_0.r 3;
#X obj 17 388 table_note_rd_lookup Accents 1 accents_1.r 3;
#X obj 17 408 table_note_rd_lookup Accents 2 accents_2.r 3;
#X obj 17 427 table_note_rd_lookup Accents 3 accents_3.r 3;
#X obj 17 447 table_note_rd_lookup Accents 4 accents_4.r 3;
#X obj 17 466 table_note_rd_lookup Accents 5 accents_5.r 3;
#X obj 17 486 table_note_rd_lookup Accents 6 accents_6.r 3;
#X obj 17 505 table_note_rd_lookup Accents 7 accents_7.r 3;
#X obj 333 17 table_set_from_gui Notes 1 notes_1.s 11;
#X obj 333 37 table_set_from_gui Notes 2 notes_2.s 11;
#X obj 333 56 table_set_from_gui Notes 3 notes_3.s 11;
#X obj 333 76 table_set_from_gui Notes 4 notes_4.s 11;
#X obj 333 95 table_set_from_gui Notes 5 notes_5.s 11;
#X obj 333 115 table_set_from_gui Notes 6 notes_6.s 11;
#X obj 333 134 table_set_from_gui Notes 7 notes_7.s 11;
#X obj 333 184 table_set_from_gui Octaves 0 octaves_0.s 5;
#X obj 333 203 table_set_from_gui Octaves 1 octaves_1.s 5;
#X obj 333 223 table_set_from_gui Octaves 2 octaves_2.s 5;
#X obj 333 242 table_set_from_gui Octaves 3 octaves_3.s 5;
#X obj 333 261 table_set_from_gui Octaves 4 octaves_4.s 5;
#X obj 333 280 table_set_from_gui Octaves 5 octaves_5.s 5;
#X obj 333 300 table_set_from_gui Octaves 6 octaves_6.s 5;
#X obj 333 319 table_set_from_gui Octaves 7 octaves_7.s 5;
#X obj 333 366 table_set_from_gui Accents 0 accents_0.s 3;
#X obj 333 386 table_set_from_gui Accents 1 accents_1.s 3;
#X obj 333 406 table_set_from_gui Accents 2 accents_2.s 3;
#X obj 333 426 table_set_from_gui Accents 3 accents_3.s 3;
#X obj 333 445 table_set_from_gui Accents 4 accents_4.s 3;
#X obj 333 465 table_set_from_gui Accents 5 accents_5.s 3;
#X obj 333 485 table_set_from_gui Accents 6 accents_6.s 3;
#X obj 333 505 table_set_from_gui Accents 7 accents_7.s 3;
#X obj 16 539 table_note_rd_lookup Synth-Data 0 synthdata_0.r 3;
#X obj 16 559 table_note_rd_lookup Synth-Data 1 synthdata_1.r 3;
#X obj 17 580 table_note_rd_lookup Synth-Data 2 synthdata_2.r 3;
#X obj 17 600 table_note_rd_lookup Synth-Data 3 synthdata_3.r 3;
#X obj 17 620 table_note_rd_lookup Synth-Data 4 synthdata_4.r 3;
#X obj 17 640 table_note_rd_lookup Synth-Data 5 synthdata_5.r 3;
#X obj 18 662 table_note_rd_lookup Synth-Data 6 synthdata_6.r 3;
#X obj 18 683 table_note_rd_lookup Synth-Data 7 synthdata_7.r 3;
#X obj 333 539 table_set_from_gui Synth-Data 0 synthdata_0.s 3;
#X obj 333 558 table_set_from_gui Synth-Data 1 synthdata_1.s 3;
#X obj 333 578 table_set_from_gui Synth-Data 2 synthdata_2.s 3;
#X obj 333 597 table_set_from_gui Synth-Data 3 synthdata_3.s 3;
#X obj 333 617 table_set_from_gui Synth-Data 4 synthdata_4.s 3;
#X obj 333 636 table_set_from_gui Synth-Data 5 synthdata_5.s 3;
#X obj 333 656 table_set_from_gui Synth-Data 6 synthdata_6.s 3;
#X obj 333 675 table_set_from_gui Synth-Data 7 synthdata_7.s 3;
#X floatatom 625 540 5 0 0 0 - synthdata_0.r synthdata_0.s, f 5;
#X floatatom 626 558 5 0 0 0 - synthdata_1.r synthdata_1.s, f 5;
#X floatatom 626 580 5 0 0 0 - synthdata_2.r synthdata_2.s, f 5;
#X floatatom 627 599 5 0 0 0 - synthdata_3.r synthdata_3.s, f 5;
#X floatatom 627 619 5 0 0 0 - synthdata_4.r synthdata_4.s, f 5;
#X floatatom 629 638 5 0 0 0 - synthdata_5.r synthdata_5.s, f 5;
#X floatatom 629 660 5 0 0 0 - synthdata_6.r synthdata_6.s, f 5;
#X floatatom 630 681 5 0 0 0 - synthdata_7.r synthdata_7.s, f 5;
#X floatatom 598 366 7 0 0 0 - accents_0.r accents_0.s, f 7;
#X floatatom 598 386 7 0 0 0 - accents_1.r accents_1.s, f 7;
#X floatatom 599 409 7 0 0 0 - accents_2.r accents_2.s, f 7;
#X floatatom 599 428 7 0 0 0 - accents_3.r accents_3.s, f 7;
#X floatatom 597 448 7 0 0 0 - accents_4.r accents_4.s, f 7;
#X floatatom 599 464 7 0 0 0 - accents_5.r accents_5.s, f 7;
#X floatatom 599 488 7 0 0 0 - accents_6.r accents_6.s, f 7;
#X floatatom 601 509 7 0 0 0 - accents_7.r accents_7.s, f 7;
#X floatatom 600 185 7 0 0 0 - octaves_0.r octaves_0.s, f 7;
#X floatatom 602 205 7 0 0 0 - octaves_1.r octaves_1.s, f 7;
#X floatatom 602 223 7 0 0 0 - octaves_2.r octaves_2.s, f 7;
#X floatatom 602 243 7 0 0 0 - octaves_3.r octaves_3.s, f 7;
#X floatatom 605 263 7 0 0 0 - octaves_4.r octaves_4.s, f 7;
#X floatatom 606 285 7 0 0 0 - octaves_5.r octaves_5.s, f 7;
#X floatatom 600 302 7 0 0 0 - octaves_6.r octaves_6.s, f 7;
#X floatatom 597 319 7 0 0 0 - octaves_7.r octaves_7.s, f 7;
#X floatatom 575 0 7 0 0 0 - notes_0.r notes_0.s, f 7;
#X floatatom 576 18 7 0 0 0 - notes_1.r notes_1.s, f 7;
#X floatatom 577 36 7 0 0 0 - notes_2.r notes_2.s, f 7;
#X floatatom 575 59 7 0 0 0 - notes_3.r notes_3.s, f 7;
#X floatatom 577 79 7 0 0 0 - notes_4.r notes_4.s, f 7;
#X floatatom 576 99 7 0 0 0 - notes_5.r notes_5.s, f 7;
#X floatatom 577 119 7 0 0 0 - notes_6.r notes_6.s, f 7;
#X floatatom 576 139 7 0 0 0 - notes_7.r notes_7.s, f 7;
#X restore 71 -25 pd gui-lookup;
#X msg 332 75 retrograde;
#X msg 332 15 bang;
#X msg 332 115 rotate \$1;
#X obj 332 293 rj/c_patternchange;
#X obj 257 350 rj/u_listloop;
#X obj 257 204 r tick;
#X msg 546 80 retrograde;
#X msg 546 18 bang;
#X msg 546 120 rotate \$1;
#X obj 546 297 rj/c_patternchange;
#X msg 758 75 retrograde;
#X msg 758 16 bang;
#X msg 758 118 rotate \$1;
#X obj 758 295 rj/c_patternchange;
#X obj 471 351 rj/u_listloop;
#X obj 683 351 rj/u_listloop;
#X msg 863 221 0 1 2 3 4 5 6 7;
#X obj 257 472 tabread Notes;
#X obj 471 472 tabread Octaves;
#X obj 683 472 tabread Accents;
#X obj 257 497 swap 12, f 8;
#X obj 257 524 -;
#X obj 471 527 -;
#X obj 471 495 swap 6, f 8;
#X obj 471 553 * 12;
#X obj 257 581 +;
#X obj 683 525 -;
#X obj 683 493 swap 4, f 8;
#X obj 863 200 loadbang;
#X obj 257 228 t b b b;
#X obj 683 559 / 4;
#X obj 257 396 %;
#X obj 471 394 %;
#X obj 683 395 %;
#X obj 870 630 * 100;
#X obj 870 655 + 55;
#X obj 868 539 * 100;
#X obj 868 564 + 55;
#X obj 868 450 * 100;
#X obj 868 475 + 55;
#X obj 683 582 * 100;
#X obj 257 605 +;
#X obj 323 582 r basenote.s;
#X obj 257 656 unpack;
#X obj 257 709 poly 4 1;
#X obj 257 754 route 1 2 3 4;
#X obj 257 732 pack f f f;
#X obj 257 686 makenote 50 100 100;
#X msg 496 1280 delr \$1;
#X obj 272 376 r modulonotes.s;
#X obj 486 374 r modulooctaves.s;
#X obj 698 375 r moduloaccents.s;
#X obj 257 98 r dephasenotes.s;
#X obj 174 413 s notestep;
#N canvas 935 97 422 686 pingpong 0;
#X obj 127 59 spigot;
#X obj 127 -6 r notestep;
#X obj 131 314 outlet;
#X obj 195 319 outlet;
#X obj 139 185 sel 0 7;
#X obj 160 15 inlet;
#X connect 0 0 4 0;
#X connect 1 0 0 0;
#X connect 4 0 2 0;
#X connect 4 1 3 0;
#X connect 5 0 0 1;
#X restore 332 -4 pd pingpong;
#N canvas 65 157 532 300 pingpong 0;
#X obj 127 59 spigot;
#X obj 128 84 sel 0 7;
#X obj 132 225 outlet;
#X obj 196 230 outlet;
#X obj 127 14 r octavesstep;
#X obj 158 35 inlet;
#X connect 0 0 1 0;
#X connect 1 0 2 0;
#X connect 1 1 3 0;
#X connect 4 0 0 0;
#X connect 5 0 0 1;
#X restore 546 -1 pd pingpong;
#X obj 380 411 s octavesstep;
#X obj 591 412 s accentsstep;
#X obj 459 103 r dephaseoctaves.s;
#N canvas 65 147 532 300 pingpong 0;
#X obj 127 59 spigot;
#X obj 128 84 sel 0 7;
#X obj 132 225 outlet;
#X obj 196 230 outlet;
#X obj 127 14 r accentsstep;
#X obj 158 35 inlet;
#X connect 0 0 1 0;
#X connect 1 0 2 0;
#X connect 1 1 3 0;
#X connect 4 0 0 0;
#X connect 5 0 0 1;
#X restore 758 -3 pd pingpong;
#X obj 674 101 r dephaseaccents.s;
#X text 216 -104 Read Modes;
#X text 157 469 Read Data;
#X text 159 666 create notes;
#X text 144 784 polyphonic synth;
#X text 868 421 Move canvases on parent gui;
#X msg 965 218 \; moduloaccents.r 8 \; modulonotes.r 8 \; modulooctaves.r
8 \; forwardaccents.s 1 \; forwardoctaves.s 1 \; forwardnotes.s 1 \;
basenote.r 24 \; notedur.r 25 \;;
#X text 168 1098 Effects;
#X obj 91 42 clock;
#X obj 109 89 s tick;
#X obj 118 66 s reset;
#X obj 267 316 r reset;
#X obj 691 316 r reset;
#X obj 486 315 r reset;
#X obj 265 1253 dac~;
#X msg 870 682 \; cursorNotes pos \$1 190;
#X msg 868 591 \; cursorOctaves pos \$1 420;
#X msg 868 502 \; cursorAccents pos \$1 560;
#X obj 298 -106 r modenotes.s;
#X obj 298 -84 sel 0 1 2;
#X obj 512 -85 sel 0 1 2;
#X obj 512 -107 r modeoctaves.s;
#X obj 724 -87 sel 0 1 2;
#X obj 724 -109 r modeaccents.s;
#X msg 332 -40 0;
#X msg 364 -40 1;
#X msg 546 -42 0;
#X msg 578 -42 1;
#X msg 758 -45 0;
#X msg 790 -45 1;
#X connect 0 0 45 0;
#X connect 2 0 5 0;
#X connect 3 0 5 0;
#X connect 4 0 5 0;
#X connect 5 0 6 1;
#X connect 6 0 33 0;
#X connect 7 0 31 0;
#X connect 8 0 11 0;
#X connect 9 0 11 0;
#X connect 10 0 11 0;
#X connect 11 0 16 1;
#X connect 12 0 15 0;
#X connect 13 0 15 0;
#X connect 14 0 15 0;
#X connect 15 0 17 1;
#X connect 16 0 34 0;
#X connect 17 0 35 0;
#X connect 18 0 5 1;
#X connect 18 0 11 1;
#X connect 18 0 15 1;
#X connect 19 0 22 0;
#X connect 20 0 25 0;
#X connect 21 0 29 0;
#X connect 22 0 23 0;
#X connect 22 1 23 1;
#X connect 23 0 27 0;
#X connect 24 0 26 0;
#X connect 25 0 24 0;
#X connect 25 1 24 1;
#X connect 26 0 27 1;
#X connect 27 0 43 0;
#X connect 28 0 32 0;
#X connect 29 0 28 0;
#X connect 29 1 28 1;
#X connect 30 0 18 0;
#X connect 30 0 68 0;
#X connect 31 0 6 0;
#X connect 31 1 16 0;
#X connect 31 2 17 0;
#X connect 32 0 42 0;
#X connect 33 0 19 0;
#X connect 33 0 36 0;
#X connect 33 0 55 0;
#X connect 34 0 20 0;
#X connect 34 0 38 0;
#X connect 34 0 58 0;
#X connect 35 0 21 0;
#X connect 35 0 40 0;
#X connect 35 0 59 0;
#X connect 36 0 37 0;
#X connect 37 0 77 0;
#X connect 38 0 39 0;
#X connect 39 0 78 0;
#X connect 40 0 41 0;
#X connect 41 0 79 0;
#X connect 42 0 0 1;
#X connect 43 0 0 0;
#X connect 44 0 43 1;
#X connect 45 0 49 0;
#X connect 45 1 49 1;
#X connect 46 0 48 0;
#X connect 46 1 48 1;
#X connect 46 2 48 2;
#X connect 48 0 47 0;
#X connect 49 0 46 0;
#X connect 49 1 46 1;
#X connect 51 0 33 1;
#X connect 52 0 34 1;
#X connect 53 0 35 1;
#X connect 54 0 4 0;
#X connect 56 0 3 0;
#X connect 56 1 2 0;
#X connect 57 0 9 0;
#X connect 57 1 8 0;
#X connect 60 0 10 0;
#X connect 61 0 13 0;
#X connect 61 1 12 0;
#X connect 62 0 14 0;
#X connect 70 2 71 0;
#X connect 70 3 72 0;
#X connect 73 0 6 0;
#X connect 74 0 17 0;
#X connect 75 0 16 0;
#X connect 80 0 81 0;
#X connect 81 0 3 0;
#X connect 81 0 86 0;
#X connect 81 1 2 0;
#X connect 81 1 86 0;
#X connect 81 2 87 0;
#X connect 82 0 9 0;
#X connect 82 0 88 0;
#X connect 82 1 8 0;
#X connect 82 1 88 0;
#X connect 82 2 89 0;
#X connect 83 0 82 0;
#X connect 84 0 13 0;
#X connect 84 0 90 0;
#X connect 84 1 12 0;
#X connect 84 1 90 0;
#X connect 84 2 91 0;
#X connect 85 0 84 0;
#X connect 86 0 56 0;
#X connect 87 0 56 0;
#X connect 88 0 57 0;
#X connect 89 0 57 0;
#X connect 90 0 61 0;
#X connect 91 0 61 0;
#X restore 791 153 pd guts;
#N canvas 0 50 450 250 (subpatch) 0;
#X array Octaves 8 float 3;
#A 0 6 3 6 6 6 4 6 3;
#X coords 0 0 8 6 800 100 1 0 0;
#X restore 54 433 graph;
#N canvas 65 82 450 250 (subpatch) 0;
#X array Accents 8 float 3;
#A 0 3 1 2 0 3 1 2 3;
#X coords 0 0 8 4 800 100 1 0 0;
#X restore 55 564 graph;
#X obj 38 370 cnv 15 815 1 empty empty +2 -20 0 0 14 -162280 -66577
0;
#X obj 38 338 cnv 15 815 1 empty empty +4 -20 0 0 14 -162280 -66577
0;
#X obj 38 321 cnv 15 815 1 empty empty +5 -20 0 0 14 -162280 -66577
0;
#X obj 38 287 cnv 15 815 1 empty empty +7 -20 0 0 14 -162280 -66577
0;
#X obj 38 255 cnv 15 815 1 empty empty +9 -20 0 0 14 -162280 -66577
0;
#X obj 38 221 cnv 15 815 1 empty empty +11 -25 0 0 14 -162280 -66577
0;
#X obj 38 387 cnv 15 815 1 empty empty empty -10 0 0 14 -228856 -66577
0;
#X obj 38 354 cnv 15 815 1 empty empty empty -10 0 0 14 -228856 -66577
0;
#X obj 38 305 cnv 15 815 1 empty empty empty -10 0 0 14 -228856 -66577
0;
#X obj 38 271 cnv 15 815 1 empty empty empty -10 0 0 14 -228856 -66577
0;
#X obj 38 238 cnv 15 815 1 empty empty empty -10 0 0 14 -228856 -66577
0;
#X obj 753 190 cnv 15 1 220 empty empty empty 20 12 0 14 -261234 -66577
0;
#X obj 653 190 cnv 15 1 220 empty empty empty 20 12 0 14 -261234 -66577
0;
#X obj 553 190 cnv 15 1 220 empty empty empty 20 12 0 14 -261234 -66577
0;
#X obj 454 190 cnv 15 1 220 empty empty empty 20 12 0 14 -261234 -66577
0;
#X obj 353 190 cnv 15 1 220 empty empty empty 20 12 0 14 -261234 -66577
0;
#X obj 254 190 cnv 15 1 220 empty empty empty 20 12 0 14 -261234 -66577
0;
#X obj 153 190 cnv 15 1 220 empty empty empty 20 12 0 14 -261234 -66577
0;
#X obj 653 418 cnv 15 1 120 empty empty empty 20 12 0 14 -261234 -66577
0;
#X obj 553 418 cnv 15 1 120 empty empty empty 20 12 0 14 -261234 -66577
0;
#X obj 454 418 cnv 15 1 120 empty empty empty 20 12 0 14 -261234 -66577
0;
#X obj 353 418 cnv 15 1 120 empty empty empty 20 12 0 14 -261234 -66577
0;
#X obj 254 418 cnv 15 1 120 empty empty empty 20 12 0 14 -261234 -66577
0;
#X obj 153 418 cnv 15 1 120 empty empty empty 20 12 0 14 -261234 -66577
0;
#X obj 753 549 cnv 15 1 120 empty empty empty 20 12 0 14 -261234 -66577
0;
#X obj 652 549 cnv 15 1 120 empty empty empty 20 12 0 14 -261234 -66577
0;
#X obj 553 549 cnv 15 1 120 empty empty empty 20 12 0 14 -261234 -66577
0;
#X obj 454 549 cnv 15 1 120 empty empty empty 20 12 0 14 -261234 -66577
0;
#X obj 353 549 cnv 15 1 120 empty empty empty 20 12 0 14 -261234 -66577
0;
#X obj 254 549 cnv 15 1 120 empty empty empty 20 12 0 14 -261234 -66577
0;
#X obj 152 549 cnv 15 1 120 empty empty empty 20 12 0 14 -261234 -66577
0;
#X obj 39 532 cnv 15 815 1 empty empty 0 -10 0 0 14 -162280 -66577
0;
#X obj 38 516 cnv 15 815 1 empty empty empty -10 0 0 14 -228856 -66577
0;
#X obj 38 499 cnv 15 815 1 empty empty 2 -10 0 0 14 -162280 -66577
0;
#X obj 38 483 cnv 15 815 1 empty empty empty -10 0 0 14 -228856 -66577
0;
#X obj 38 466 cnv 15 815 1 empty empty 4 -10 0 0 14 -162280 -66577
0;
#X obj 38 449 cnv 15 815 1 empty empty empty -10 0 0 14 -228856 -66577
0;
#X obj 38 204 cnv 15 815 1 empty empty +12 -25 0 0 14 -162280 -66577
0;
#X obj 39 432 cnv 15 815 1 empty empty 6 -10 0 0 14 -162280 -66577
0;
#X obj 39 404 cnv 15 815 1 empty empty +0 -20 0 0 14 -162280 -66577
0;
#X obj 40 663 cnv 15 815 1 empty empty mute -35 0 0 14 -162280 -66577
0;
#X obj 39 639 cnv 15 815 1 empty empty empty -10 0 0 14 -228856 -66577
0;
#X obj 39 614 cnv 15 815 1 empty empty soft -35 0 0 14 -162280 -66577
0;
#X obj 39 589 cnv 15 815 1 empty empty empty -10 0 0 14 -228856 -66577
0;
#X obj 39 564 cnv 15 815 1 empty empty hard -35 0 0 14 -162280 -66577
0;
#X obj 753 417 cnv 15 1 120 empty empty empty 20 12 0 14 -261234 -66577
0;
#N canvas 711 286 613 463 loadsave-interface 0;
#X obj 44 15 s cb-save;
#X obj 44 -6 r storage-save;
#X obj 194 -6 r storage-load;
#X obj 194 15 s cb-load;
#X obj 132 71 r cb-save;
#X obj 51 71 r cb-load;
#X obj 51 96 sssad/loadsave;
#X msg 12 -86 \; storage save savefiles cbs;
#X msg 198 -86 \; storage load savefiles cbs;
#X obj 198 -111 r load;
#X obj 13 -108 r save;
#X connect 1 0 0 0;
#X connect 2 0 3 0;
#X connect 4 0 6 1;
#X connect 5 0 6 0;
#X connect 9 0 8 0;
#X connect 10 0 7 0;
#X restore 867 134 pd loadsave-interface;
#N canvas 65 54 1301 714 loadsave 0;
#X obj 97 58 sssad/tablesave Synth-Data 8 Synth-Data;
#X obj 97 78 sssad/tablesave Synth-Pitch 8 Synth-Pitch;
#X obj 97 105 sssad/tablesave Notes 8 Notes;
#X obj 97 126 sssad/tablesave Accents 8 Accents;
#X obj 97 146 sssad/tablesave Octaves 8 Octaves;
#X obj 98 189 sssad/auto basenote.s basenote.r;
#X obj 98 209 sssad/auto notedur.s notedur.r;
#X obj 98 229 sssad/auto dry.s dry.r;
#X obj 98 248 sssad/auto feedback.s feedback.r;
#X obj 98 267 sssad/auto dell.s dell.r;
#X obj 98 286 sssad/auto delr.s delr.r;
#X obj 97 344 sssad/auto modulonotes.s modulonotes.r;
#X obj 97 383 sssad/auto forwardnotes.s forwardnotes.r;
#X obj 97 422 sssad/auto pingpongnotes.s pingpongnotes.r;
#X obj 94 457 sssad/auto modulooctaves.s modulooctaves.r;
#X obj 94 496 sssad/auto forwardoctaves.s forwardoctaves.r;
#X obj 94 515 sssad/auto backwardsoctaves.s backwardsoctaves.r;
#X obj 97 402 sssad/auto backwardsnotes.s backwardsnotes.r;
#X obj 94 535 sssad/auto pingpongoctaves.s pingpongoctaves.r;
#X obj 99 567 sssad/auto moduloaccents.s moduloaccents.r;
#X obj 99 606 sssad/auto forwardaccents.s forwardaccents.r;
#X obj 99 625 sssad/auto backwardsaccents.s backwardsaccents.r;
#X obj 99 645 sssad/auto pingpongaccents.s pingpongaccents.r;
#X obj 97 364 sssad/auto dephasenotes.s dephasenotes.r;
#X obj 94 477 sssad/auto dephaseoctaves.s dephaseoctaves.r;
#X obj 99 587 sssad/auto dephaseaccents.s dephaseaccents.r;
#X obj 335 267 sssad/auto bppitch.s bppitch.r;
#X obj 335 286 sssad/auto bpq.s bpq.r;
#X restore 867 154 pd loadsave;
#X obj 942 154 loadsave storage;
#X obj 791 133 clock-gui;
#X obj 323 141 nbx 5 25 0 127 0 0 basnote.r basenote.s Base_Note 0
-8 0 10 -262144 -1 -1 0 256;
#X obj 439 141 nbx 5 25 0 200 0 0 notedur.s notedur.r Note_Duration
0 -8 0 10 -262144 -1 -1 25 256;
#X obj 55 140 bng 25 250 50 0 load empty Load 0 -10 0 10 -262144 -1
-1;
#X obj 153 140 bng 25 250 50 0 save empty Save 0 -10 0 10 -262144 -1
-1;
#X obj 596 141 nbx 5 25 0 12 0 0 dell.s dell.r Left_Del 0 -8 0 10 -262144
-1 -1 0 256;
#X obj 703 142 nbx 5 25 0 12 0 0 delr.s delr.r Right_Del 0 -8 0 10
-262144 -1 -1 0 256;
#X obj 957 273 nbx 5 25 0 12 0 0 modulonotes.s modulonotes.r Modulo
0 -8 0 10 -262144 -1 -1 8 256;
#X obj 957 318 nbx 5 25 0 12 0 0 dephasenotes.s dephasenotes.r Dephase
0 -8 0 10 -262144 -1 -1 0 256;
#X obj 959 448 nbx 5 25 0 12 0 0 modulooctaves.s modulooctaves.r Modulo
0 -8 0 10 -262144 -1 -1 8 256;
#X obj 959 493 nbx 5 25 0 12 0 0 dephaseoctaves.s dephaseoctaves.r
Dephase 0 -8 0 10 -262144 -1 -1 0 256;
#X obj 962 581 nbx 5 25 0 12 0 0 moduloaccents.s moduloaccents.r Modulo
0 -8 0 10 -262144 -1 -1 8 256;
#X obj 962 626 nbx 5 25 0 12 0 0 dephasenotes.s dephasenotes.r Dephase
0 -8 0 10 -262144 -1 -1 0 256;
#X obj 874 258 vradio 35 1 0 3 modenotes.s modenotes.r empty 0 -8 0
10 -262144 -1 -1 0;
#X text 914 263 >>;
#X text 913 302 <<;
#X text 913 339 ><;
#X obj 874 429 vradio 35 1 0 3 modeoctaves.s modeoctaves.r empty 0
-8 0 10 -262144 -1 -1 0;
#X text 914 434 >>;
#X text 913 473 <<;
#X text 913 510 ><;
#X obj 874 560 vradio 35 1 0 3 modeaccents.s modeaccents.r empty 0
-8 0 10 -262144 -1 -1 2;
#X text 914 565 >>;
#X text 913 604 <<;
#X text 913 641 ><;
#X text 111 16 replace accent by duration ?;
#X text 109 44 set new synth;
#X text 113 67 use taplist for synth preset ? base note and octave
?;
#X text 117 87 remove sssad for persist;
#X text 101 2 patch structure complient with guidelines;
