#N canvas 252 104 1092 664 10;
#X obj 257 636 pack f f;
#X msg 332 75 retrograde;
#X msg 332 15 bang;
#X msg 332 115 rotate \$1;
#X obj 332 293 rj/c_patternchange;
#X obj 257 350 rj/u_listloop;
#X obj 257 204 r tick;
#X msg 546 80 retrograde;
#X msg 546 18 bang;
#X msg 546 120 rotate \$1;
#X obj 546 297 rj/c_patternchange;
#X msg 758 75 retrograde;
#X msg 758 16 bang;
#X msg 758 118 rotate \$1;
#X obj 758 295 rj/c_patternchange;
#X obj 471 351 rj/u_listloop;
#X obj 683 351 rj/u_listloop;
#X msg 863 221 0 1 2 3 4 5 6 7;
#X obj 257 472 tabread Notes;
#X obj 471 472 tabread Octaves;
#X obj 683 472 tabread Accents;
#X obj 257 497 swap 12, f 8;
#X obj 257 524 -;
#X obj 471 527 -;
#X obj 471 495 swap 6, f 8;
#X obj 471 553 * 12;
#X obj 257 581 +;
#X obj 683 525 -;
#X obj 683 493 swap 4, f 8;
#X obj 863 200 loadbang;
#X obj 257 228 t b b b;
#X obj 683 559 / 4;
#X obj 257 396 %;
#X obj 471 394 %;
#X obj 683 395 %;
#X obj 870 630 * 100;
#X obj 870 655 + 55;
#X obj 868 539 * 100;
#X obj 868 564 + 55;
#X obj 868 450 * 100;
#X obj 868 475 + 55;
#X obj 683 582 * 100;
#X obj 258 1178 rj/e_dubdel mydubdel;
#X obj 256 603 +;
#X obj 323 582 r basenote.s;
#X obj 257 656 unpack;
#X obj 350 765 r notedur.s;
#X obj 257 709 poly 4 1;
#X obj 257 754 route 1 2 3 4;
#X obj 257 732 pack f f f;
#X obj 405 796 r notedur.s;
#X obj 462 826 r notedur.s;
#X obj 506 853 r notedur.s;
#X obj 257 686 makenote 50 100 100;
#X obj 496 1044 loadbang;
#X msg 496 1065 dry 1 \, bq 2 \, basedur 500 \, bpitch 83 \, feedback
0.99 \, dell 2 \, delr 3 \,;
#X obj 497 1180 r dry.s;
#X msg 497 1200 dry \$1;
#X msg 497 1120 basedur \$1;
#X obj 496 1220 r dell.s;
#X msg 496 1239 dell \$1;
#X obj 496 1261 r delr.s;
#X msg 496 1280 delr \$1;
#X obj 497 1141 r feedback.s;
#X msg 497 1161 feedback \$1;
#X msg 496 1099 250;
#X obj 272 376 r modulonotes.s;
#X obj 486 374 r modulooctaves.s;
#X obj 698 375 r moduloaccents.s;
#X obj 257 98 r dephasenotes.s;
#X obj 174 413 s notestep;
#N canvas 935 97 422 686 pingpong 0;
#X obj 127 59 spigot;
#X obj 127 -6 r notestep;
#X obj 131 314 outlet;
#X obj 195 319 outlet;
#X obj 139 185 sel 0 7;
#X obj 160 15 inlet;
#X connect 0 0 4 0;
#X connect 1 0 0 0;
#X connect 4 0 2 0;
#X connect 4 1 3 0;
#X connect 5 0 0 1;
#X restore 332 -4 pd pingpong;
#N canvas 65 157 532 300 pingpong 0;
#X obj 127 59 spigot;
#X obj 128 84 sel 0 7;
#X obj 132 225 outlet;
#X obj 196 230 outlet;
#X obj 127 14 r octavesstep;
#X obj 158 35 inlet;
#X connect 0 0 1 0;
#X connect 1 0 2 0;
#X connect 1 1 3 0;
#X connect 4 0 0 0;
#X connect 5 0 0 1;
#X restore 546 -1 pd pingpong;
#X obj 380 411 s octavesstep;
#X obj 591 412 s accentsstep;
#X obj 459 103 r dephaseoctaves.s;
#N canvas 65 147 532 300 pingpong 0;
#X obj 127 59 spigot;
#X obj 128 84 sel 0 7;
#X obj 132 225 outlet;
#X obj 196 230 outlet;
#X obj 127 14 r accentsstep;
#X obj 158 35 inlet;
#X connect 0 0 1 0;
#X connect 1 0 2 0;
#X connect 1 1 3 0;
#X connect 4 0 0 0;
#X connect 5 0 0 1;
#X restore 758 -3 pd pingpong;
#X obj 674 101 r dephaseaccents.s;
#X text 216 -104 Read Modes;
#X text 157 469 Read Data;
#X text 159 666 create notes;
#X text 144 784 polyphonic synth;
#X text 868 421 Move canvases on parent gui;
#X obj 312 815 s_chipwave_voice;
#X msg 495 959 bpitch \$1;
#X obj 495 939 r bppitch.s;
#X msg 495 1001 bq \$1;
#X obj 495 981 r bpq.s;
#X obj 267 1049 mtof;
#X obj 257 1075 vcf~;
#X obj 258 965 +~;
#X text 168 1098 Effects;
#X obj 56 46 clock;
#X obj 56 187 s tick;
#X obj 149 131 s reset;
#X obj 267 316 r reset;
#X obj 691 316 r reset;
#X obj 486 315 r reset;
#X obj 265 1253 dac~;
#X obj 298 -106 r modenotes.s;
#X obj 298 -84 sel 0 1 2;
#X obj 512 -85 sel 0 1 2;
#X obj 512 -107 r modeoctaves.s;
#X obj 724 -87 sel 0 1 2;
#X obj 724 -109 r modeaccents.s;
#X msg 332 -40 0;
#X msg 364 -40 1;
#X msg 546 -42 0;
#X msg 578 -42 1;
#X msg 758 -45 0;
#X msg 790 -45 1;
#X obj 56 69 / 24;
#X obj 56 94 i;
#X obj 56 118 change;
#X obj 56 142 b;
#X obj 56 165 f 0;
#X obj 84 165 + 1;
#X msg 149 112 set 0;
#X obj 30 148 bng 15 250 50 0 empty empty empty 17 7 0 10 -262144 -1
-1;
#X obj 257 784 s_chipwave_voice;
#X obj 413 872 s_chipwave_voice;
#X obj 369 845 s_chipwave_voice;
#X msg 870 682 \; cursorNotes pos \$1 62;
#X msg 868 590 \; cursorOctaves pos \$1 348;
#X msg 868 499 \; cursorAccents pos \$1 462;
#X connect 0 0 45 0;
#X connect 1 0 4 0;
#X connect 2 0 4 0;
#X connect 3 0 4 0;
#X connect 4 0 5 1;
#X connect 5 0 32 0;
#X connect 6 0 30 0;
#X connect 7 0 10 0;
#X connect 8 0 10 0;
#X connect 9 0 10 0;
#X connect 10 0 15 1;
#X connect 11 0 14 0;
#X connect 12 0 14 0;
#X connect 13 0 14 0;
#X connect 14 0 16 1;
#X connect 15 0 33 0;
#X connect 16 0 34 0;
#X connect 17 0 4 1;
#X connect 17 0 10 1;
#X connect 17 0 14 1;
#X connect 18 0 21 0;
#X connect 19 0 24 0;
#X connect 20 0 28 0;
#X connect 21 0 22 0;
#X connect 21 1 22 1;
#X connect 22 0 26 0;
#X connect 23 0 25 0;
#X connect 24 0 23 0;
#X connect 24 1 23 1;
#X connect 25 0 26 1;
#X connect 26 0 43 0;
#X connect 27 0 31 0;
#X connect 28 0 27 0;
#X connect 28 1 27 1;
#X connect 29 0 17 0;
#X connect 30 0 5 0;
#X connect 30 1 15 0;
#X connect 30 2 16 0;
#X connect 31 0 41 0;
#X connect 32 0 18 0;
#X connect 32 0 35 0;
#X connect 32 0 70 0;
#X connect 33 0 19 0;
#X connect 33 0 37 0;
#X connect 33 0 73 0;
#X connect 34 0 20 0;
#X connect 34 0 39 0;
#X connect 34 0 74 0;
#X connect 35 0 36 0;
#X connect 36 0 122 0;
#X connect 37 0 38 0;
#X connect 38 0 123 0;
#X connect 39 0 40 0;
#X connect 40 0 124 0;
#X connect 41 0 0 1;
#X connect 42 0 98 0;
#X connect 42 1 98 1;
#X connect 43 0 0 0;
#X connect 44 0 43 1;
#X connect 45 0 53 0;
#X connect 45 1 53 1;
#X connect 46 0 119 1;
#X connect 47 0 49 0;
#X connect 47 1 49 1;
#X connect 47 2 49 2;
#X connect 48 0 119 0;
#X connect 48 1 83 0;
#X connect 48 2 121 0;
#X connect 48 3 120 0;
#X connect 49 0 48 0;
#X connect 50 0 83 1;
#X connect 51 0 121 1;
#X connect 52 0 120 1;
#X connect 53 0 47 0;
#X connect 53 1 47 1;
#X connect 54 0 55 0;
#X connect 54 0 65 0;
#X connect 55 0 42 2;
#X connect 56 0 57 0;
#X connect 57 0 42 2;
#X connect 58 0 42 2;
#X connect 59 0 60 0;
#X connect 60 0 42 2;
#X connect 61 0 62 0;
#X connect 62 0 42 2;
#X connect 63 0 64 0;
#X connect 64 0 42 2;
#X connect 65 0 58 0;
#X connect 66 0 32 1;
#X connect 67 0 33 1;
#X connect 68 0 34 1;
#X connect 69 0 3 0;
#X connect 71 0 2 0;
#X connect 71 1 1 0;
#X connect 72 0 8 0;
#X connect 72 1 7 0;
#X connect 75 0 9 0;
#X connect 76 0 12 0;
#X connect 76 1 11 0;
#X connect 77 0 13 0;
#X connect 83 0 90 0;
#X connect 85 0 84 0;
#X connect 85 0 88 0;
#X connect 87 0 86 0;
#X connect 87 0 89 2;
#X connect 88 0 89 1;
#X connect 89 0 42 0;
#X connect 89 0 42 1;
#X connect 89 1 42 0;
#X connect 89 1 42 1;
#X connect 90 0 89 0;
#X connect 92 0 111 0;
#X connect 92 2 117 0;
#X connect 95 0 5 0;
#X connect 96 0 16 0;
#X connect 97 0 15 0;
#X connect 99 0 100 0;
#X connect 100 0 2 0;
#X connect 100 0 105 0;
#X connect 100 1 1 0;
#X connect 100 1 105 0;
#X connect 100 2 106 0;
#X connect 101 0 8 0;
#X connect 101 0 107 0;
#X connect 101 1 7 0;
#X connect 101 1 107 0;
#X connect 101 2 108 0;
#X connect 102 0 101 0;
#X connect 103 0 12 0;
#X connect 103 0 109 0;
#X connect 103 1 11 0;
#X connect 103 1 109 0;
#X connect 103 2 110 0;
#X connect 104 0 103 0;
#X connect 105 0 71 0;
#X connect 106 0 71 0;
#X connect 107 0 72 0;
#X connect 108 0 72 0;
#X connect 109 0 76 0;
#X connect 110 0 76 0;
#X connect 111 0 112 0;
#X connect 112 0 113 0;
#X connect 113 0 114 0;
#X connect 114 0 115 0;
#X connect 114 0 118 0;
#X connect 115 0 116 0;
#X connect 115 0 93 0;
#X connect 116 0 115 1;
#X connect 117 0 94 0;
#X connect 119 0 90 0;
#X connect 120 0 90 0;
#X connect 121 0 90 0;
