#N canvas 65 87 1301 686 10;
#X obj 94 442 phasor~;
#X obj 93 498 /~;
#X obj 107 469 -~;
#X obj 94 519 clip~ -1 1;
#X obj 169 519 samphold~;
#X obj 170 460 noise~;
#X obj 220 494 phasor~ 50;
#X obj 219 469 sig~;
#X obj 17 411 sig~;
#X obj 16 513 -~;
#X obj 16 438 phasor~;
#X obj 57 490 *~ 1;
#X obj 16 489 *~ 2;
#X obj 16 462 clip~ 0 0.5;
#X obj 16 535 *~ 2;
#X obj 219 444 * 10;
#X obj 570 761 hip~ 40;
#X obj 305 223 f;
#X obj 318 247 + 1;
#X msg 222 189 stop;
#X obj 362 224 sel 0;
#X msg 404 160 0;
#X obj 345 131 bng 15 250 50 0 empty empty empty 0 -6 0 8 -262144 -1
-1;
#X text 400 222 counts to 8;
#X text 400 234 resets metro;
#X text 357 194 1/25th sec;
#X obj 16 364 +;
#X obj 16 387 mtof;
#X text 64 294 midi root pitch;
#X text 551 854 audio out;
#X obj 17 559 send~ \$0-ti;
#X obj 94 545 send~ \$0-sq;
#X obj 170 551 send~ \$0-ns;
#X obj 20 630 send~ \$0-bk;
#X obj 144 420 r \$0-pwm;
#X text 202 418 PWM;
#X text 27 578 sine;
#X text 106 566 square;
#X text 177 572 noise;
#X text 93 630 blank;
#X text 625 738 needed send to avoid errors;
#X obj 555 837 outlet~;
#X obj 20 610 sig~ 0;
#X obj 555 815 *~;
#X obj 589 257 t f b;
#X text 388 129 internal dirty clock;
#X obj 305 269 s \$0-internal-step;
#X obj 16 240 r \$0-internal-step;
#X obj 589 212 r \$0-internal-step;
#X obj 607 70 loadbang;
#X obj 607 91 f \$0;
#X obj 677 62 bng 15 250 50 0 empty empty empty 17 7 0 10 -262144 -1
-1;
#X obj 313 359 / 100;
#X obj 571 789 *~ 0.9;
#X obj 589 286 i;
#X obj 16 323 tabread Synth-Pitch;
#X obj 589 236 tabread Synth-Data;
#X obj 698 297 nbx 5 14 -1e+37 1e+37 0 0 empty empty empty 0 -8 0 10
-262144 -1 -1 0 256;
#X obj 307 199 metro 25;
#X obj 345 162 delay 25;
#X obj 352 66 inlet;
#X obj 75 93 unpack;
#X obj 75 71 inlet;
#X obj 75 114 t f b;
#X obj 561 540 r~ \$0-ti;
#X obj 562 622 *~;
#X obj 636 619 *~;
#X obj 635 539 r~ \$0-sq;
#X obj 716 619 *~;
#X obj 715 539 r~ \$0-ns;
#X obj 468 620 *~;
#X obj 467 540 r~ \$0-bk;
#X obj 490 344 sel 1;
#X msg 491 371 1;
#X msg 517 371 0;
#X msg 431 368 1;
#X msg 457 368 0;
#X obj 430 341 sel 0;
#X msg 590 371 1;
#X msg 616 371 0;
#X obj 589 344 sel 2;
#X msg 681 374 1;
#X msg 707 374 0;
#X obj 680 347 sel 3;
#X obj 570 735 *~ 1;
#X obj 314 576 lop~ 20;
#X obj 486 597 lop~ 20;
#X obj 580 599 lop~ 20;
#X obj 654 596 lop~ 20;
#X obj 734 595 lop~ 20;
#X msg 607 111 \; \$1-pwm 0.5 \;;
#X floatatom 104 172 5 0 0 0 - - -, f 5;
#X obj 329 224 % 16;
#X obj 174 488 *~ 0.2;
#X connect 0 0 1 0;
#X connect 0 0 2 0;
#X connect 1 0 3 0;
#X connect 2 0 1 1;
#X connect 3 0 31 0;
#X connect 4 0 32 0;
#X connect 5 0 93 0;
#X connect 6 0 4 1;
#X connect 7 0 6 0;
#X connect 8 0 10 0;
#X connect 8 0 0 0;
#X connect 9 0 14 0;
#X connect 10 0 11 0;
#X connect 10 0 13 0;
#X connect 11 0 9 1;
#X connect 12 0 9 0;
#X connect 13 0 12 0;
#X connect 14 0 30 0;
#X connect 15 0 7 0;
#X connect 16 0 53 0;
#X connect 17 0 18 0;
#X connect 17 0 46 0;
#X connect 18 0 92 0;
#X connect 19 0 58 0;
#X connect 20 0 19 0;
#X connect 21 0 17 0;
#X connect 22 0 21 0;
#X connect 22 0 59 0;
#X connect 26 0 27 0;
#X connect 27 0 15 0;
#X connect 27 0 8 0;
#X connect 34 0 2 1;
#X connect 42 0 33 0;
#X connect 43 0 41 0;
#X connect 44 0 54 0;
#X connect 47 0 55 0;
#X connect 48 0 56 0;
#X connect 49 0 50 0;
#X connect 50 0 90 0;
#X connect 51 0 50 0;
#X connect 52 0 85 0;
#X connect 53 0 43 1;
#X connect 54 0 57 0;
#X connect 54 0 72 0;
#X connect 54 0 77 0;
#X connect 54 0 80 0;
#X connect 54 0 83 0;
#X connect 55 0 26 0;
#X connect 56 0 44 0;
#X connect 58 0 17 0;
#X connect 59 0 58 0;
#X connect 60 0 59 1;
#X connect 60 0 58 1;
#X connect 61 0 63 0;
#X connect 61 1 52 0;
#X connect 62 0 61 0;
#X connect 63 0 26 1;
#X connect 63 0 91 0;
#X connect 63 1 22 0;
#X connect 64 0 65 0;
#X connect 65 0 84 0;
#X connect 66 0 84 0;
#X connect 67 0 66 0;
#X connect 68 0 84 0;
#X connect 69 0 68 0;
#X connect 70 0 84 0;
#X connect 71 0 70 0;
#X connect 72 0 73 0;
#X connect 72 1 74 0;
#X connect 73 0 87 0;
#X connect 74 0 87 0;
#X connect 75 0 86 0;
#X connect 76 0 86 0;
#X connect 77 0 75 0;
#X connect 77 1 76 0;
#X connect 78 0 88 0;
#X connect 79 0 88 0;
#X connect 80 0 78 0;
#X connect 80 1 79 0;
#X connect 81 0 89 0;
#X connect 82 0 89 0;
#X connect 83 0 81 0;
#X connect 83 1 82 0;
#X connect 84 0 16 0;
#X connect 85 0 43 0;
#X connect 86 0 70 1;
#X connect 87 0 65 1;
#X connect 88 0 66 1;
#X connect 89 0 68 1;
#X connect 92 0 17 1;
#X connect 92 0 20 0;
#X connect 93 0 4 0;
