#N canvas 455 242 579 400 10;
#X obj 181 365 dac~;
#X obj 206 252 osc~ 440;
#N canvas 305 285 966 315 (subpatch) 0;
#X array wave 100 float 0;
#X coords 0 -1 99 1 100 140 1 0 0;
#X restore 17 20 graph;
#X obj 226 320 tabwrite~ wave;
#X obj 283 180 loadbang;
#X obj 192 328 /~ 4;
#X obj 283 241 metro 100;
#X obj 19 184 hsl 128 15 200 2000 0 0 freq empty Freq -2 -8 0 10 -262144
-1 -1 1600 1;
#X obj 206 183 r freq;
#N canvas 0 50 450 250 (subpatch) 0;
#X array large 1000 float 0;
#X coords 0 1 999 -1 100 140 1 0 0;
#X restore 140 21 graph;
#X obj 320 320 tabwrite~ large;
#X obj 418 320 tabwrite~ small;
#N canvas 0 50 450 250 (subpatch) 0;
#X array small 10 float 0;
#X coords 0 1 10 -1 100 140 1 0 0;
#X restore 258 21 graph;
#N canvas 0 50 450 250 (subpatch) 0;
#X array manual 10 float 1;
#A 0 -0.0857142 -0.0999999 -0.114286 -0.128571 0.785714 -0.5 -0.128571
-0.128571 -0.128571 -0.114286;
#X coords 0 1 10 -1 100 140 1 0 0;
#X restore 369 23 graph;
#X msg 283 211 1;
#X obj 42 291 tabread4~ manual;
#X obj 42 229 phasor~ 0.1;
#X obj 42 251 *~ 10;
#X obj 42 313 *~ 100;
#X obj 206 206 sig~;
#X obj 206 228 +~;
#X connect 1 0 3 0;
#X connect 1 0 5 0;
#X connect 1 0 10 0;
#X connect 1 0 11 0;
#X connect 4 0 14 0;
#X connect 5 0 0 0;
#X connect 5 0 0 1;
#X connect 6 0 3 0;
#X connect 6 0 10 0;
#X connect 6 0 11 0;
#X connect 8 0 19 0;
#X connect 14 0 6 0;
#X connect 15 0 18 0;
#X connect 16 0 17 0;
#X connect 17 0 15 0;
#X connect 18 0 20 1;
#X connect 19 0 20 0;
#X connect 20 0 1 0;
