#N canvas 323 195 450 300 10;
#X text 274 94 Musical Box wrapper;
#X text 274 109 Nitendo like wrapper;
#X text 274 124 Brass sound toy;
#X text 274 140 Backwards ?;
#X obj 254 48 vradio 15 1 0 8 empty empty empty 0 -8 0 10 -262144 -1
-1 6;
#X text 274 46 Hollow Strings;
#X text 274 63 Bass sound wrapper;
#X text 274 79 Pluckstring wrapper;
#N canvas 65 92 809 686 MultiPurpose3cosSynth 0;
#N canvas 65 92 589 531 3cossynth 0;
#X obj 146 195 osc~;
#X obj 145 220 *~ 0.09;
#X obj 202 195 osc~;
#X obj 265 195 osc~;
#X obj 202 220 *~ 0.05;
#X obj 266 222 *~ 0.02;
#X obj 202 170 *;
#X obj 265 171 *;
#X obj 218 141 * 4;
#X obj 281 141 * 8;
#X obj 201 259 clip~ -0.1 0.1;
#X obj 93 348 *~;
#X obj 46 121 mtof;
#X obj 93 317 line;
#X obj 93 396 outlet~;
#X obj 46 228 pack 1 1;
#X obj 93 289 pack 0 1;
#X obj 93 262 del 1;
#X obj 93 370 *~;
#X obj 147 63 unpack 1 2 3 4 5 6 7 8 9;
#X obj 97 196 t f f;
#X obj 46 176 t b b;
#X obj 147 30 inlet parameters;
#X text 141 -1 3 oscillator and clip synth;
#X obj -69 50 inlet note;
#X obj 43 32 inlet note;
#X obj 43 54 lop~ 5;
#X connect 0 0 1 0;
#X connect 1 0 10 0;
#X connect 2 0 4 0;
#X connect 3 0 5 0;
#X connect 4 0 10 0;
#X connect 5 0 10 0;
#X connect 6 0 2 0;
#X connect 7 0 3 0;
#X connect 8 0 6 1;
#X connect 9 0 7 1;
#X connect 10 0 11 1;
#X connect 11 0 18 0;
#X connect 12 0 0 0;
#X connect 12 0 6 0;
#X connect 12 0 7 0;
#X connect 12 0 21 0;
#X connect 13 0 11 0;
#X connect 15 0 13 0;
#X connect 16 0 13 0;
#X connect 17 0 16 0;
#X connect 18 0 14 0;
#X connect 19 1 1 1;
#X connect 19 2 4 1;
#X connect 19 3 5 1;
#X connect 19 4 8 0;
#X connect 19 5 9 0;
#X connect 19 6 20 0;
#X connect 19 7 16 1;
#X connect 20 0 15 1;
#X connect 20 1 17 1;
#X connect 21 0 15 0;
#X connect 21 1 17 0;
#X connect 22 0 19 0;
#X connect 24 0 12 0;
#X connect 25 0 26 0;
#X connect 26 0 18 1;
#X restore 217 554 pd 3cossynth;
#X text 299 555 (note \, l0 \, l1 \, l2 \, f1 \, f2 \, A \, D \, Amp)
;
#N canvas 65 82 753 576 HollowString 0;
#X obj 191 374 random 2;
#X obj 154 395 spigot;
#X obj 370 217 * 0.02;
#X obj 370 240 + 0.69;
#X obj 293 177 random 100;
#X obj 293 196 / 100;
#X obj 293 241 + 0.369;
#X obj 293 218 * 0.001;
#X obj 370 177 random 100;
#X obj 370 196 / 100;
#X obj 454 177 random 100;
#X obj 454 196 / 100;
#X obj 454 217 * 100;
#X obj 454 240 + 50;
#X obj 531 176 random 100;
#X obj 531 195 / 100;
#X obj 154 315 pack f f f f f;
#X obj 531 216 * 800;
#X obj 531 239 + 120;
#X text 186 25 stringy resonances;
#X text 399 150 randomised synth parameters;
#X text 287 322 fixed synth parameters;
#X obj 155 431 outlet;
#X obj 39 54 inlet;
#X obj 77 91 bng 15 250 50 0 empty empty empty 17 7 0 10 -262144 -1
-1;
#X msg 154 339 0 0.298 0.2 0.2 \$2 \$3 \$4 \$5 0.6;
#X connect 0 0 1 1;
#X connect 2 0 3 0;
#X connect 3 0 16 2;
#X connect 4 0 5 0;
#X connect 5 0 7 0;
#X connect 6 0 16 1;
#X connect 7 0 6 0;
#X connect 8 0 9 0;
#X connect 9 0 2 0;
#X connect 10 0 11 0;
#X connect 11 0 12 0;
#X connect 12 0 13 0;
#X connect 13 0 16 3;
#X connect 14 0 15 0;
#X connect 15 0 17 0;
#X connect 16 0 25 0;
#X connect 17 0 18 0;
#X connect 18 0 16 4;
#X connect 23 0 24 0;
#X connect 23 0 16 0;
#X connect 24 0 4 0;
#X connect 24 0 8 0;
#X connect 24 0 10 0;
#X connect 24 0 14 0;
#X connect 24 0 0 0;
#X connect 25 0 22 0;
#X restore 224 134 pd HollowString;
#X floatatom 313 3 5 0 0 0 - - -, f 5;
#X obj 317 -37 inlet;
#X obj 214 -35 inlet;
#X obj 217 576 outlet~;
#X obj 224 83 sel 0 1 2 3 4 5 6;
#X msg 242 176 0 0.298 0.353 0.172 0.122 0.251 20 1000 0.9;
#X msg 264 210 0 0.298 0.353 0.172 0.122 0.502 10 100 0.4;
#X msg 280 243 0 0 0 0.25 1 1 0 500;
#X msg 298 279 0 1 0 0 0 0.354 7.99 450;
#X msg 319 311 0 1 0 1 1 0 52.91 720;
#X msg 333 345 0 1 0 1 1 1 150 0;
#X obj 218 388 unpack;
#X obj 559 91 inlet;
#X connect 0 0 6 0;
#X connect 2 0 0 2;
#X connect 4 0 3 0;
#X connect 4 0 7 0;
#X connect 5 0 14 0;
#X connect 7 0 2 0;
#X connect 7 1 8 0;
#X connect 7 2 9 0;
#X connect 7 3 10 0;
#X connect 7 4 11 0;
#X connect 7 5 12 0;
#X connect 7 6 13 0;
#X connect 8 0 0 2;
#X connect 9 0 0 2;
#X connect 10 0 0 2;
#X connect 11 0 0 2;
#X connect 12 0 0 2;
#X connect 13 0 0 2;
#X connect 14 0 0 0;
#X connect 14 1 0 1;
#X connect 15 0 0 2;
#X restore 108 192 pd MultiPurpose3cosSynth;
#X obj 109 214 *~ 0.75;
#X obj 89 42 inlet;
#X obj 255 19 inlet;
#X obj 112 243 outlet~;
#X connect 4 0 8 1;
#X connect 8 0 9 0;
#X connect 9 0 12 0;
#X connect 10 0 8 0;
#X connect 11 0 4 0;
