#N canvas 0 0 667 679 10;
#X obj 299 257 phasor~;
#X obj 299 280 *~ 8192;
#X floatatom 298 182 5 0 0 0 midi_note - -;
#X obj 298 205 mtof~;
#X obj 298 304 tabread~ waveshape;
#X obj 152 362 *~;
#X obj 454 193 osc~;
#X obj 299 233 +~;
#X obj 384 213 *~;
#X floatatom 454 129 5 0 0 0 vibrato_freq - -;
#X floatatom 384 154 5 0 0 0 vibrato_depth - -;
#X obj -48 195 line~;
#X obj -48 107 t b b;
#X obj 98 151 delay;
#X obj -11 139 pack 100 f;
#X obj -49 235 dbtorms~;
#X obj 98 175 pack 10 f;
#X msg -48 138 1;
#X obj 152 388 outlet~;
#X obj -48 19 inlet;
#X obj 158 -11 loadbang;
#X obj 56 115 f \$1;
#X obj 130 126 f \$2;
#X obj 158 150 f \$3;
#X obj -48 48 t b b f;
#X text -102 -43 attack / sustain / release;
#X obj 380 5 inlet;
#X obj 380 32 unpack f f;
#X connect 0 0 1 0;
#X connect 1 0 4 0;
#X connect 2 0 3 0;
#X connect 3 0 7 0;
#X connect 4 0 5 1;
#X connect 5 0 18 0;
#X connect 6 0 8 1;
#X connect 7 0 0 0;
#X connect 8 0 7 1;
#X connect 9 0 6 0;
#X connect 10 0 8 0;
#X connect 11 0 15 0;
#X connect 12 0 14 0;
#X connect 12 1 17 0;
#X connect 13 0 16 0;
#X connect 14 0 11 0;
#X connect 15 0 5 0;
#X connect 16 0 11 0;
#X connect 17 0 11 0;
#X connect 19 0 24 0;
#X connect 20 0 21 0;
#X connect 20 0 22 0;
#X connect 20 0 23 0;
#X connect 21 0 14 1;
#X connect 22 0 13 1;
#X connect 23 0 16 1;
#X connect 24 0 12 0;
#X connect 24 1 13 0;
#X connect 24 2 3 0;
#X connect 26 0 27 0;
#X connect 27 0 6 0;
#X connect 27 1 8 0;
