#N canvas 868 172 455 477 10;
#X declare -path ./rj;
#X obj 18 277 hsl 250 25 0 1 0 0 wobble.s wobble.r WOBBLE 40 7 1 10
-262144 -1 -1 0 1;
#X obj 18 200 hsl 250 25 0 1 0 0 glide.s glide.r GLIDE 40 7 1 10 -262144
-1 -1 0 1;
#X obj 18 239 hsl 250 25 0 1 0 0 tone.s tone.r TONE 40 7 1 10 -262144
-1 -1 0 1;
#X obj 61 20 tgl 25 0 autoplay.s autoplay.r AUTOPLAY 0 -10 1 10 -262144
-1 -1 0 1;
#X obj 16 21 tgl 25 0 bass.s bass.r BASS 0 -10 1 10 -262144 -1 -1 0
1;
#X obj 21 332 nbx 5 25 -1e+37 1e+37 0 0 note1.s note1.r Note_1 0 -8
0 10 -262144 -1 -1 0 256;
#X obj 83 332 nbx 5 25 -1e+37 1e+37 0 0 note2.s note2.r Note_2 0 -8
0 10 -262144 -1 -1 0 256;
#X obj 145 332 nbx 5 25 -1e+37 1e+37 0 0 note3.s note3.r Note_3 0 -8
0 10 -262144 -1 -1 0 256;
#X obj 207 332 nbx 5 25 -1e+37 1e+37 0 0 note4.s note4.r Note_4 0 -8
0 10 -262144 -1 -1 0 256;
#N canvas 65 132 450 300 guts 0;
#N canvas 65 54 1301 714 BASS 0;
#X obj 19 271 osc~;
#X obj 51 226 *~;
#X obj 443 210 lop~ 1;
#X obj 19 252 +~;
#X obj 19 -53 mtof;
#X obj 19 28 / 2;
#X obj 160 478 *;
#X obj 413 457 f;
#X msg 798 422 4;
#X obj 160 448 / 60;
#X obj 160 427 f;
#X msg 720 422 2;
#X msg 772 422 3;
#X obj 19 -13 line;
#X obj 19 -33 pack f 100;
#X obj 86 -53 * 1000;
#X msg 662 422 1.5;
#X obj 56 468 f;
#X obj 27 406 spigot 1;
#X obj 160 498 change -100;
#X obj 160 519 t f b;
#X msg 128 406 1;
#X msg 96 406 0;
#X obj 27 322 mod 8;
#X obj 27 343 / 2;
#X obj 27 364 int;
#X obj 27 386 * 0.25;
#N canvas 65 54 1301 714 fm-osc 0;
#X obj 20 144 osc~;
#X obj 70 144 osc~;
#X obj 140 144 osc~;
#X obj 180 144 osc~;
#X obj 220 144 osc~;
#X obj 290 144 osc~;
#X obj 340 144 osc~;
#X obj 410 144 osc~;
#X obj 480 144 osc~;
#X obj 155 32 inlet;
#X obj 220 267 outlet~;
#X obj 340 174 *~ 1;
#X obj 290 174 *~ 1;
#X obj 140 174 *~ 1;
#X obj 180 174 *~ 1;
#X obj 70 174 *~ 2;
#X obj 20 174 *~ 2;
#X obj 220 174 *~ 1;
#X obj 155 53 t f f f f f f f f f;
#X obj 480 174 *~ 0.2;
#X obj 410 174 *~ 0.2;
#X obj 20 114 * 0.5;
#X obj 70 114 * 1.4983;
#X obj 140 114 * 1;
#X obj 180 114 * 2;
#X obj 220 114 * 2.9966;
#X obj 290 114 * 4;
#X obj 340 114 * 5.0397;
#X obj 410 114 * 5.9932;
#X obj 480 114 * 8;
#X obj 219 224 *~ 0.1;
#X connect 0 0 16 0;
#X connect 1 0 15 0;
#X connect 2 0 13 0;
#X connect 3 0 14 0;
#X connect 4 0 17 0;
#X connect 5 0 12 0;
#X connect 6 0 11 0;
#X connect 7 0 20 0;
#X connect 8 0 19 0;
#X connect 9 0 18 0;
#X connect 11 0 30 0;
#X connect 12 0 30 0;
#X connect 13 0 30 0;
#X connect 14 0 30 0;
#X connect 15 0 30 0;
#X connect 16 0 30 0;
#X connect 17 0 30 0;
#X connect 18 0 21 0;
#X connect 18 1 22 0;
#X connect 18 2 23 0;
#X connect 18 3 24 0;
#X connect 18 4 25 0;
#X connect 18 5 26 0;
#X connect 18 6 27 0;
#X connect 18 7 28 0;
#X connect 18 8 29 0;
#X connect 19 0 30 0;
#X connect 20 0 30 0;
#X connect 21 0 0 0;
#X connect 22 0 1 0;
#X connect 23 0 2 0;
#X connect 24 0 3 0;
#X connect 25 0 4 0;
#X connect 26 0 5 0;
#X connect 27 0 6 0;
#X connect 28 0 7 0;
#X connect 29 0 8 0;
#X connect 30 0 10 0;
#X restore 51 48 pd fm-osc;
#X obj 413 477 t b b b f;
#X obj 443 169 * 10000;
#X obj 443 190 + 100;
#X obj 19 -73 inlet;
#X obj 19 793 throw~ LEFT;
#X obj 109 793 throw~ RIGHT;
#X obj 19 733 *~;
#X text 325 775 Joe White 2010;
#X obj 37 713 lop~ 10;
#X obj 56 489 phasor~;
#X obj 56 510 *~ 2;
#X obj 56 540 max~ 1;
#X obj 106 541 min~ 1;
#X obj 38 446 sig~ 1;
#X obj 38 567 -~;
#X obj 38 588 *~ 2;
#X obj 38 609 -~ 1;
#X obj 38 630 *~ 490;
#X obj 38 651 +~ 490;
#X obj 27 426 t b b;
#X obj 443 148 r Tone;
#X obj 160 406 r bpm;
#X obj 27 301 r tick;
#X obj 37 692 r bass;
#X obj 86 -74 r Glide;
#X msg 343 422 0.125;
#X obj 19 672 vcf~ 2;
#X msg 572 422 1;
#X obj 438 331 int;
#X obj 438 291 r Wobble;
#X msg 746 422 2.5;
#X msg 688 422 1.75;
#X msg 598 422 1.25;
#X msg 630 422 1.33;
#X msg 507 422 0.66;
#X msg 540 422 0.75;
#X msg 481 422 0.5;
#X msg 449 422 0.33;
#X msg 417 422 0.25;
#X msg 824 422 5;
#X msg 379 422 0.165;
#X obj 438 371 sel 0 1 2 3 4 5 6 7 8 9 10 11 12 13 14 15 16;
#X obj 438 311 * 15.99;
#X obj 438 351 change -16;
#X obj 66 153 *~;
#N canvas 65 127 882 492 fm-phazor 0;
#X obj 20 48 * 0.5;
#X obj 140 48 * 1;
#X obj 180 48 * 2;
#X obj 290 48 * 4;
#X obj 480 48 * 8;
#X obj 70 48 * 1.4983;
#X obj 410 48 * 5.9932;
#X obj 340 48 * 5.0397;
#X obj 220 48 * 2.9966;
#X obj 155 -34 inlet;
#X obj 220 267 outlet~;
#X obj 340 174 *~ 1;
#X obj 290 174 *~ 1;
#X obj 140 174 *~ 1;
#X obj 180 174 *~ 1;
#X obj 70 174 *~ 2;
#X obj 20 174 *~ 2;
#X obj 220 174 *~ 1;
#X obj 480 174 *~ 0.2;
#X obj 410 174 *~ 0.2;
#X obj 20 78 phasor~;
#X obj 70 78 phasor~;
#X obj 140 78 phasor~;
#X obj 180 78 phasor~;
#X obj 220 78 phasor~;
#X obj 290 78 phasor~;
#X obj 340 78 phasor~;
#X obj 410 78 phasor~;
#X obj 480 78 phasor~;
#X obj 19 109 *~ 2;
#X obj 20 137 -~ 1;
#X obj 69 110 *~ 2;
#X obj 70 138 -~ 1;
#X obj 140 110 *~ 2;
#X obj 141 138 -~ 1;
#X obj 187 110 *~ 2;
#X obj 188 138 -~ 1;
#X obj 227 108 *~ 2;
#X obj 228 136 -~ 1;
#X obj 288 110 *~ 2;
#X obj 289 138 -~ 1;
#X obj 345 105 *~ 2;
#X obj 346 133 -~ 1;
#X obj 414 110 *~ 2;
#X obj 415 138 -~ 1;
#X obj 479 112 *~ 2;
#X obj 480 140 -~ 1;
#X obj 155 -13 t f f f f f f f f f f;
#X obj 220 224 *~ 0.1;
#X connect 0 0 20 0;
#X connect 1 0 22 0;
#X connect 2 0 23 0;
#X connect 3 0 25 0;
#X connect 4 0 28 0;
#X connect 5 0 21 0;
#X connect 6 0 27 0;
#X connect 7 0 26 0;
#X connect 8 0 24 0;
#X connect 9 0 47 0;
#X connect 11 0 48 0;
#X connect 12 0 48 0;
#X connect 13 0 48 0;
#X connect 14 0 48 0;
#X connect 15 0 48 0;
#X connect 16 0 48 0;
#X connect 17 0 48 0;
#X connect 18 0 48 0;
#X connect 19 0 48 0;
#X connect 20 0 29 0;
#X connect 21 0 31 0;
#X connect 22 0 33 0;
#X connect 23 0 35 0;
#X connect 24 0 37 0;
#X connect 25 0 39 0;
#X connect 26 0 41 0;
#X connect 27 0 43 0;
#X connect 28 0 45 0;
#X connect 29 0 30 0;
#X connect 30 0 16 0;
#X connect 31 0 32 0;
#X connect 32 0 15 0;
#X connect 33 0 34 0;
#X connect 34 0 13 0;
#X connect 35 0 36 0;
#X connect 36 0 14 0;
#X connect 37 0 38 0;
#X connect 38 0 17 0;
#X connect 39 0 40 0;
#X connect 40 0 12 0;
#X connect 41 0 42 0;
#X connect 42 0 11 0;
#X connect 43 0 44 0;
#X connect 44 0 19 0;
#X connect 45 0 46 0;
#X connect 46 0 18 0;
#X connect 47 0 0 0;
#X connect 47 1 5 0;
#X connect 47 2 1 0;
#X connect 47 3 2 0;
#X connect 47 4 8 0;
#X connect 47 5 3 0;
#X connect 47 6 7 0;
#X connect 47 7 6 0;
#X connect 47 8 4 0;
#X connect 48 0 10 0;
#X restore 133 36 pd fm-phazor;
#X obj 128 159 *~;
#N canvas 261 155 747 311 fm-noiz 0;
#X obj 75 57 * 0.5;
#X obj 214 56 * 1;
#X obj 281 56 * 2;
#X obj 424 56 * 4;
#X obj 632 55 * 8;
#X obj 144 56 * 1.4983;
#X obj 562 55 * 5.9932;
#X obj 492 55 * 5.0397;
#X obj 354 56 * 2.9966;
#X obj 229 -26 inlet;
#X obj 294 252 outlet~;
#X obj 492 158 *~ 1;
#X obj 424 159 *~ 1;
#X obj 214 159 *~ 1;
#X obj 281 159 *~ 1;
#X obj 144 159 *~ 2;
#X obj 75 160 *~ 2;
#X obj 354 159 *~ 1;
#X obj 229 -5 t f f f f f f f f f;
#X obj 294 209 *~ 0.1;
#X obj 632 158 *~ 0.2;
#X obj 562 158 *~ 0.2;
#X obj 75 130 bp~ 100 5;
#X obj 144 129 bp~ 100 5;
#X obj 214 129 bp~ 100 5;
#X obj 281 129 bp~ 100 5;
#X obj 354 129 bp~ 100 5;
#X obj 424 129 bp~ 100 5;
#X obj 492 128 bp~ 100 5;
#X obj 562 128 bp~ 100 5;
#X obj 632 128 bp~ 100 5;
#X obj 7 63 noise~;
#X obj 589 -20 inlet;
#X obj 589 5 t f f f f f f f f f;
#X connect 0 0 22 1;
#X connect 1 0 24 1;
#X connect 2 0 25 1;
#X connect 3 0 27 1;
#X connect 4 0 30 1;
#X connect 5 0 23 1;
#X connect 6 0 29 1;
#X connect 7 0 28 1;
#X connect 8 0 26 1;
#X connect 9 0 18 0;
#X connect 11 0 19 0;
#X connect 12 0 19 0;
#X connect 13 0 19 0;
#X connect 14 0 19 0;
#X connect 15 0 19 0;
#X connect 16 0 19 0;
#X connect 17 0 19 0;
#X connect 18 0 0 0;
#X connect 18 1 5 0;
#X connect 18 2 1 0;
#X connect 18 3 2 0;
#X connect 18 4 8 0;
#X connect 18 5 3 0;
#X connect 18 6 7 0;
#X connect 18 7 6 0;
#X connect 18 8 4 0;
#X connect 19 0 10 0;
#X connect 20 0 19 0;
#X connect 21 0 19 0;
#X connect 22 0 16 0;
#X connect 23 0 15 0;
#X connect 24 0 13 0;
#X connect 25 0 14 0;
#X connect 26 0 17 0;
#X connect 27 0 12 0;
#X connect 28 0 11 0;
#X connect 29 0 21 0;
#X connect 30 0 20 0;
#X connect 31 0 22 0;
#X connect 31 0 23 0;
#X connect 31 0 24 0;
#X connect 31 0 25 0;
#X connect 31 0 26 0;
#X connect 31 0 27 0;
#X connect 31 0 28 0;
#X connect 31 0 29 0;
#X connect 31 0 30 0;
#X connect 32 0 33 0;
#X connect 33 0 22 2;
#X connect 33 1 23 2;
#X connect 33 2 24 2;
#X connect 33 3 25 2;
#X connect 33 4 26 2;
#X connect 33 5 27 2;
#X connect 33 6 28 2;
#X connect 33 7 29 2;
#X connect 33 8 30 2;
#X restore 236 72 pd fm-noiz;
#X obj 19 8 t f f f f;
#X obj 228 175 *~;
#X obj 73 82 r osclvl.s;
#X obj 156 108 r phalvl.s;
#X obj 269 131 r noilvl.s;
#X obj 293 42 r noiq.s;
#X obj 107 734 *~;
#X obj 125 714 lop~ 10;
#X obj 125 693 r bass;
#X connect 0 0 54 0;
#X connect 1 0 3 1;
#X connect 2 0 1 1;
#X connect 3 0 0 0;
#X connect 4 0 14 0;
#X connect 5 0 3 0;
#X connect 6 0 19 0;
#X connect 7 0 28 0;
#X connect 8 0 7 0;
#X connect 9 0 6 0;
#X connect 10 0 9 0;
#X connect 11 0 7 0;
#X connect 12 0 7 0;
#X connect 13 0 76 0;
#X connect 14 0 13 0;
#X connect 15 0 14 1;
#X connect 16 0 7 0;
#X connect 17 0 37 0;
#X connect 18 0 47 0;
#X connect 19 0 20 0;
#X connect 20 0 17 1;
#X connect 20 1 21 0;
#X connect 21 0 18 1;
#X connect 22 0 18 1;
#X connect 23 0 24 0;
#X connect 24 0 25 0;
#X connect 25 0 26 0;
#X connect 26 0 18 0;
#X connect 27 0 72 0;
#X connect 28 2 6 0;
#X connect 28 3 6 1;
#X connect 29 0 30 0;
#X connect 30 0 2 0;
#X connect 31 0 4 0;
#X connect 34 0 32 0;
#X connect 34 0 33 0;
#X connect 36 0 34 1;
#X connect 37 0 38 0;
#X connect 38 0 39 0;
#X connect 38 0 40 0;
#X connect 39 0 42 1;
#X connect 40 0 43 0;
#X connect 41 0 42 0;
#X connect 42 0 43 0;
#X connect 43 0 44 0;
#X connect 44 0 45 0;
#X connect 45 0 46 0;
#X connect 46 0 54 1;
#X connect 47 0 22 0;
#X connect 47 1 17 0;
#X connect 48 0 29 0;
#X connect 49 0 10 0;
#X connect 50 0 23 0;
#X connect 51 0 36 0;
#X connect 52 0 15 0;
#X connect 53 0 7 0;
#X connect 54 0 34 0;
#X connect 54 1 82 0;
#X connect 55 0 7 0;
#X connect 56 0 71 0;
#X connect 57 0 70 0;
#X connect 58 0 7 0;
#X connect 59 0 7 0;
#X connect 60 0 7 0;
#X connect 61 0 7 0;
#X connect 62 0 7 0;
#X connect 63 0 7 0;
#X connect 64 0 7 0;
#X connect 65 0 7 0;
#X connect 66 0 7 0;
#X connect 67 0 7 0;
#X connect 68 0 7 0;
#X connect 69 0 53 0;
#X connect 69 1 68 0;
#X connect 69 2 66 0;
#X connect 69 3 65 0;
#X connect 69 4 64 0;
#X connect 69 5 62 0;
#X connect 69 6 63 0;
#X connect 69 7 55 0;
#X connect 69 8 60 0;
#X connect 69 9 61 0;
#X connect 69 10 16 0;
#X connect 69 11 59 0;
#X connect 69 12 11 0;
#X connect 69 13 58 0;
#X connect 69 14 12 0;
#X connect 69 15 8 0;
#X connect 69 16 67 0;
#X connect 70 0 56 0;
#X connect 71 0 69 0;
#X connect 72 0 1 0;
#X connect 73 0 74 0;
#X connect 74 0 1 0;
#X connect 75 0 77 0;
#X connect 76 0 5 0;
#X connect 76 1 27 0;
#X connect 76 2 73 0;
#X connect 76 3 75 0;
#X connect 77 0 1 0;
#X connect 78 0 72 1;
#X connect 79 0 74 1;
#X connect 80 0 77 1;
#X connect 81 0 75 1;
#X connect 82 0 32 0;
#X connect 82 0 33 0;
#X connect 83 0 82 1;
#X connect 84 0 83 0;
#X restore 36 78 pd BASS;
#N canvas 384 149 450 300 TIMEBASE 0;
#X obj 121 109 + 1;
#X obj 23 15 declare -path ./rj;
#X obj 87 61 clock;
#X obj 92 109 f 0;
#X obj 10 116 s bpm;
#X obj 92 130 s tick;
#X connect 0 0 3 1;
#X connect 2 0 4 0;
#X connect 2 2 3 0;
#X connect 2 3 3 1;
#X connect 3 0 0 0;
#X connect 3 0 5 0;
#X restore 36 38 pd TIMEBASE;
#N canvas 65 152 450 300 PATTERN 0;
#X obj 127 277 outlet;
#X obj 127 48 spigot;
#X obj 127 68 mod 16;
#X obj 127 88 sel 0 4 8 12;
#X obj 127 172 f;
#X obj 170 196 f;
#X obj 215 220 f;
#X obj 259 244 f;
#X obj 166 28 r autoplay;
#X obj 127 7 r tick;
#X obj 275 116 r note1.s;
#X obj 297 142 r note2.s;
#X obj 324 166 r note3.s;
#X obj 346 192 r note4.s;
#X connect 1 0 2 0;
#X connect 2 0 3 0;
#X connect 3 0 4 0;
#X connect 3 1 5 0;
#X connect 3 2 6 0;
#X connect 3 3 7 0;
#X connect 4 0 0 0;
#X connect 5 0 0 0;
#X connect 6 0 0 0;
#X connect 7 0 0 0;
#X connect 8 0 1 1;
#X connect 9 0 1 0;
#X connect 10 0 4 1;
#X connect 11 0 5 1;
#X connect 12 0 6 1;
#X connect 13 0 7 1;
#X restore 36 58 pd PATTERN;
#N canvas 65 209 154 125 IO 0;
#X obj 44 46 catch~ RIGHT;
#X obj 19 25 catch~ LEFT;
#X obj 19 86 dac~;
#X connect 0 0 2 1;
#X connect 1 0 2 0;
#X restore 36 139 pd IO;
#N canvas 729 186 450 300 msg_fwd 0;
#X obj 28 42 r glide.s;
#X obj 88 72 r tone.s;
#X obj 157 100 r wobble.s;
#X obj 249 133 r bass.s;
#X obj 343 132 r autoplay.s;
#X obj 18 185 s Glide;
#X obj 92 187 s Tone;
#X obj 159 178 s Wobble;
#X obj 251 177 s bass;
#X obj 345 177 s autoplay;
#X connect 0 0 5 0;
#X connect 1 0 6 0;
#X connect 2 0 7 0;
#X connect 3 0 8 0;
#X connect 4 0 9 0;
#X restore 36 118 pd msg_fwd;
#X text 43 156 based on dubstep_bass pd patch by Joe White;
#X text 34 235 + de vitesse dans les pattern lfo;
#X text 33 260 3 synthés noise;
#X connect 2 0 0 0;
#X restore 288 260 pd guts;
#X obj 288 340 clock-gui;
#N canvas 714 281 613 463 loadsave-interface 0;
#X obj 44 15 s cb-save;
#X obj 44 -6 r storage-save;
#X obj 194 -6 r storage-load;
#X obj 194 15 s cb-load;
#X obj 132 71 r cb-save;
#X obj 51 71 r cb-load;
#X obj 51 96 sssad/loadsave;
#X obj 13 -108 r wordbutton-save;
#X obj 198 -111 r wordbutton-load;
#X msg 12 -86 \; storage save savefiles cbs;
#X msg 198 -86 \; storage load savefiles cbs;
#X connect 1 0 0 0;
#X connect 2 0 3 0;
#X connect 4 0 6 1;
#X connect 5 0 6 0;
#X connect 7 0 9 0;
#X connect 8 0 10 0;
#X restore 288 301 pd loadsave-interface;
#N canvas 218 89 651 686 loadsave 0;
#X obj 98 189 sssad/auto bass.s bass.r;
#X obj 97 212 sssad/auto autoplay.s autoplay.r;
#X obj 99 234 sssad/auto glide.s glide.r;
#X obj 101 256 sssad/auto tone.s tone.r;
#X obj 101 282 sssad/auto wobble.s wobble.r;
#X obj 104 309 sssad/auto note1.s note1.r;
#X obj 103 330 sssad/auto note2.s note2.r;
#X obj 106 372 sssad/auto note4.s note4.r;
#X obj 107 351 sssad/auto note3.s note3.r;
#X obj 108 413 sssad/auto osclvl.s osclvl.r;
#X obj 110 441 sssad/auto phalvl.s phalvl.r;
#X obj 115 470 sssad/auto noilvl.s noilvl.r;
#X obj 121 500 sssad/auto noiq.r noiq.r;
#X restore 288 321 pd loadsave;
#X obj 288 282 loadsave storage;
#X obj 19 129 hsl 250 25 0 1 0 0 noilvl.s noilvl.r NOISE_LEVEL 40 7
1 10 -262144 -1 -1 0 1;
#X obj 19 52 hsl 250 25 0 1 0 0 osclvl.s osclvl.r OSC_LEVEL 40 7 1
10 -262144 -1 -1 0 1;
#X obj 19 91 hsl 250 25 0 1 0 0 phalvl.s phalvl.r PHASOR_LEVEL 40 7
1 10 -262144 -1 -1 0 1;
#X obj 19 163 hsl 250 25 5 100 0 0 noiq.s noiq.r NOISE_RESONANCE 40
7 1 10 -262144 -1 -1 0 1;
#X obj 220 24 wordbutton 50 20 save;
#X obj 134 24 wordbutton 50 20 load;
