#N canvas 370 204 532 510 10;
#X declare -path ./rj;
#X declare -path ../../../../pd-party/droidparty-abstractions;
#X obj 32 187 hsl 250 25 0 1 0 1 glide.s glide.r GLIDE 0 -6 1 10 -262144
-1 -4160 0 1;
#X obj 33 229 hsl 250 50 0 1 0 1 tone.s tone.r TONE 0 -6 1 10 -262144
-1 -4160 18600 1;
#X obj 74 24 tgl 25 1 autoplay.s autoplay.r AUTOPLAY 0 -10 1 10 -262144
-1 -4160 1 1;
#X obj 29 24 tgl 25 1 bass.s bass.r BASS 0 -10 1 10 -262144 -1 -4160
1 1;
#N canvas 670 391 450 300 guts 0;
#N canvas 66 131 1301 554 BASS 0;
#X obj 19 271 osc~;
#X obj 19 252 +~;
#X obj 19 -53 mtof;
#X obj 19 28 / 2;
#X obj 160 478 *;
#X obj 570 312 f;
#X obj 160 448 / 60;
#X obj 160 427 f;
#X obj 19 -13 line;
#X obj 19 -33 pack f 100;
#X obj 86 -53 * 1000;
#X obj 56 468 f;
#X obj 27 406 spigot 1;
#X obj 160 498 change -100;
#X obj 160 519 t f b;
#X msg 128 406 1;
#X msg 94 408 0;
#X obj 27 322 mod 8;
#X obj 27 343 / 2;
#X obj 27 364 int;
#X obj 27 386 * 0.25;
#N canvas 65 54 1301 714 fm-osc 0;
#X obj 20 144 osc~;
#X obj 70 144 osc~;
#X obj 140 144 osc~;
#X obj 180 144 osc~;
#X obj 220 144 osc~;
#X obj 290 144 osc~;
#X obj 340 144 osc~;
#X obj 410 144 osc~;
#X obj 480 144 osc~;
#X obj 155 32 inlet;
#X obj 220 267 outlet~;
#X obj 340 174 *~ 1;
#X obj 290 174 *~ 1;
#X obj 140 174 *~ 1;
#X obj 180 174 *~ 1;
#X obj 70 174 *~ 2;
#X obj 20 174 *~ 2;
#X obj 220 174 *~ 1;
#X obj 155 53 t f f f f f f f f f;
#X obj 480 174 *~ 0.2;
#X obj 410 174 *~ 0.2;
#X obj 20 114 * 0.5;
#X obj 70 114 * 1.4983;
#X obj 140 114 * 1;
#X obj 180 114 * 2;
#X obj 220 114 * 2.9966;
#X obj 290 114 * 4;
#X obj 340 114 * 5.0397;
#X obj 410 114 * 5.9932;
#X obj 480 114 * 8;
#X obj 219 224 *~ 0.1;
#X connect 0 0 16 0;
#X connect 1 0 15 0;
#X connect 2 0 13 0;
#X connect 3 0 14 0;
#X connect 4 0 17 0;
#X connect 5 0 12 0;
#X connect 6 0 11 0;
#X connect 7 0 20 0;
#X connect 8 0 19 0;
#X connect 9 0 18 0;
#X connect 11 0 30 0;
#X connect 12 0 30 0;
#X connect 13 0 30 0;
#X connect 14 0 30 0;
#X connect 15 0 30 0;
#X connect 16 0 30 0;
#X connect 17 0 30 0;
#X connect 18 0 21 0;
#X connect 18 1 22 0;
#X connect 18 2 23 0;
#X connect 18 3 24 0;
#X connect 18 4 25 0;
#X connect 18 5 26 0;
#X connect 18 6 27 0;
#X connect 18 7 28 0;
#X connect 18 8 29 0;
#X connect 19 0 30 0;
#X connect 20 0 30 0;
#X connect 21 0 0 0;
#X connect 22 0 1 0;
#X connect 23 0 2 0;
#X connect 24 0 3 0;
#X connect 25 0 4 0;
#X connect 26 0 5 0;
#X connect 27 0 6 0;
#X connect 28 0 7 0;
#X connect 29 0 8 0;
#X connect 30 0 10 0;
#X restore 51 48 pd fm-osc;
#X obj 570 332 t b b b f;
#X obj 19 -73 inlet;
#X obj 19 793 throw~ LEFT;
#X obj 108 793 throw~ RIGHT;
#X obj 19 733 *~;
#X text 325 775 Joe White 2010;
#X obj 37 713 lop~ 10;
#X obj 56 489 phasor~;
#X obj 56 510 *~ 2;
#X obj 56 540 max~ 1;
#X obj 106 541 min~ 1;
#X obj 38 447 sig~ 1;
#X obj 38 567 -~;
#X obj 38 588 *~ 2;
#X obj 38 609 -~ 1;
#X obj 38 630 *~ 490;
#X obj 38 651 +~ 490;
#X obj 27 426 t b b;
#X obj 160 406 r bpm;
#X obj 27 298 r tick;
#X obj 37 692 r bass;
#X obj 86 -74 r Glide;
#X obj 54 140 *~;
#N canvas 65 127 882 492 fm-phazor 0;
#X obj 20 48 * 0.5;
#X obj 140 48 * 1;
#X obj 180 48 * 2;
#X obj 290 48 * 4;
#X obj 480 48 * 8;
#X obj 70 48 * 1.4983;
#X obj 410 48 * 5.9932;
#X obj 340 48 * 5.0397;
#X obj 220 48 * 2.9966;
#X obj 155 -34 inlet;
#X obj 220 267 outlet~;
#X obj 340 174 *~ 1;
#X obj 290 174 *~ 1;
#X obj 140 174 *~ 1;
#X obj 180 174 *~ 1;
#X obj 70 174 *~ 2;
#X obj 20 174 *~ 2;
#X obj 220 174 *~ 1;
#X obj 480 174 *~ 0.2;
#X obj 410 174 *~ 0.2;
#X obj 20 78 phasor~;
#X obj 70 78 phasor~;
#X obj 140 78 phasor~;
#X obj 180 78 phasor~;
#X obj 220 78 phasor~;
#X obj 290 78 phasor~;
#X obj 340 78 phasor~;
#X obj 410 78 phasor~;
#X obj 480 78 phasor~;
#X obj 19 109 *~ 2;
#X obj 20 137 -~ 1;
#X obj 69 110 *~ 2;
#X obj 70 138 -~ 1;
#X obj 140 110 *~ 2;
#X obj 141 138 -~ 1;
#X obj 187 110 *~ 2;
#X obj 188 138 -~ 1;
#X obj 227 108 *~ 2;
#X obj 228 136 -~ 1;
#X obj 288 110 *~ 2;
#X obj 289 138 -~ 1;
#X obj 345 105 *~ 2;
#X obj 346 133 -~ 1;
#X obj 414 110 *~ 2;
#X obj 415 138 -~ 1;
#X obj 479 112 *~ 2;
#X obj 480 140 -~ 1;
#X obj 155 -13 t f f f f f f f f f f;
#X obj 220 224 *~ 0.1;
#X connect 0 0 20 0;
#X connect 1 0 22 0;
#X connect 2 0 23 0;
#X connect 3 0 25 0;
#X connect 4 0 28 0;
#X connect 5 0 21 0;
#X connect 6 0 27 0;
#X connect 7 0 26 0;
#X connect 8 0 24 0;
#X connect 9 0 47 0;
#X connect 11 0 48 0;
#X connect 12 0 48 0;
#X connect 13 0 48 0;
#X connect 14 0 48 0;
#X connect 15 0 48 0;
#X connect 16 0 48 0;
#X connect 17 0 48 0;
#X connect 18 0 48 0;
#X connect 19 0 48 0;
#X connect 20 0 29 0;
#X connect 21 0 31 0;
#X connect 22 0 33 0;
#X connect 23 0 35 0;
#X connect 24 0 37 0;
#X connect 25 0 39 0;
#X connect 26 0 41 0;
#X connect 27 0 43 0;
#X connect 28 0 45 0;
#X connect 29 0 30 0;
#X connect 30 0 16 0;
#X connect 31 0 32 0;
#X connect 32 0 15 0;
#X connect 33 0 34 0;
#X connect 34 0 13 0;
#X connect 35 0 36 0;
#X connect 36 0 14 0;
#X connect 37 0 38 0;
#X connect 38 0 17 0;
#X connect 39 0 40 0;
#X connect 40 0 12 0;
#X connect 41 0 42 0;
#X connect 42 0 11 0;
#X connect 43 0 44 0;
#X connect 44 0 19 0;
#X connect 45 0 46 0;
#X connect 46 0 18 0;
#X connect 47 0 0 0;
#X connect 47 1 5 0;
#X connect 47 2 1 0;
#X connect 47 3 2 0;
#X connect 47 4 8 0;
#X connect 47 5 3 0;
#X connect 47 6 7 0;
#X connect 47 7 6 0;
#X connect 47 8 4 0;
#X connect 48 0 10 0;
#X restore 133 36 pd fm-phazor;
#X obj 128 159 *~;
#N canvas 259 156 747 311 fm-noiz 0;
#X obj 75 57 * 0.5;
#X obj 214 56 * 1;
#X obj 281 56 * 2;
#X obj 424 56 * 4;
#X obj 632 55 * 8;
#X obj 144 56 * 1.4983;
#X obj 562 55 * 5.9932;
#X obj 492 55 * 5.0397;
#X obj 354 56 * 2.9966;
#X obj 229 -26 inlet;
#X obj 294 252 outlet~;
#X obj 492 158 *~ 1;
#X obj 424 159 *~ 1;
#X obj 214 159 *~ 1;
#X obj 281 159 *~ 1;
#X obj 144 159 *~ 2;
#X obj 75 160 *~ 2;
#X obj 354 159 *~ 1;
#X obj 229 -5 t f f f f f f f f f;
#X obj 294 209 *~ 0.1;
#X obj 632 158 *~ 0.2;
#X obj 562 158 *~ 0.2;
#X obj 75 130 bp~ 100 5;
#X obj 144 129 bp~ 100 5;
#X obj 214 129 bp~ 100 5;
#X obj 281 129 bp~ 100 5;
#X obj 354 129 bp~ 100 5;
#X obj 424 129 bp~ 100 5;
#X obj 492 128 bp~ 100 5;
#X obj 562 128 bp~ 100 5;
#X obj 632 128 bp~ 100 5;
#X obj 7 63 noise~;
#X obj 589 -20 inlet;
#X obj 589 5 t f f f f f f f f f;
#X connect 0 0 22 1;
#X connect 1 0 24 1;
#X connect 2 0 25 1;
#X connect 3 0 27 1;
#X connect 4 0 30 1;
#X connect 5 0 23 1;
#X connect 6 0 29 1;
#X connect 7 0 28 1;
#X connect 8 0 26 1;
#X connect 9 0 18 0;
#X connect 11 0 19 0;
#X connect 12 0 19 0;
#X connect 13 0 19 0;
#X connect 14 0 19 0;
#X connect 15 0 19 0;
#X connect 16 0 19 0;
#X connect 17 0 19 0;
#X connect 18 0 0 0;
#X connect 18 1 5 0;
#X connect 18 2 1 0;
#X connect 18 3 2 0;
#X connect 18 4 8 0;
#X connect 18 5 3 0;
#X connect 18 6 7 0;
#X connect 18 7 6 0;
#X connect 18 8 4 0;
#X connect 19 0 10 0;
#X connect 20 0 19 0;
#X connect 21 0 19 0;
#X connect 22 0 16 0;
#X connect 23 0 15 0;
#X connect 24 0 13 0;
#X connect 25 0 14 0;
#X connect 26 0 17 0;
#X connect 27 0 12 0;
#X connect 28 0 11 0;
#X connect 29 0 21 0;
#X connect 30 0 20 0;
#X connect 31 0 22 0;
#X connect 31 0 23 0;
#X connect 31 0 24 0;
#X connect 31 0 25 0;
#X connect 31 0 26 0;
#X connect 31 0 27 0;
#X connect 31 0 28 0;
#X connect 31 0 29 0;
#X connect 31 0 30 0;
#X connect 32 0 33 0;
#X connect 33 0 22 2;
#X connect 33 1 23 2;
#X connect 33 2 24 2;
#X connect 33 3 25 2;
#X connect 33 4 26 2;
#X connect 33 5 27 2;
#X connect 33 6 28 2;
#X connect 33 7 29 2;
#X connect 33 8 30 2;
#X restore 236 72 pd fm-noiz;
#X obj 19 8 t f f f f;
#X obj 233 160 *~;
#X obj 269 131 r noilvl.s;
#X obj 293 42 r noiq.s;
#X obj 107 734 *~;
#X obj 125 714 lop~ 10;
#X obj 125 693 r bass;
#X obj 51 202 *~ 0.5;
#X obj 147 59 r oscmix.s;
#X obj 80 86 swap 1;
#X obj 80 112 -, f 6;
#X obj 19 672 vcf~ 2;
#X obj 385 140 r Tone;
#X obj 385 162 * 10000;
#X obj 385 184 + 100;
#X obj 385 206 lop~ 10;
#X obj 51 224 *~;
#X msg 574 277 0.25;
#X msg 638 277 0.5;
#X msg 697 277 1;
#X msg 755 277 2;
#X msg 819 277 4;
#X msg 877 277 8;
#X msg 729 277 1.5;
#X msg 787 277 3;
#X msg 845 277 6;
#X msg 664 277 0.66;
#X msg 606 277 0.33;
#X msg 500 277 0.125;
#X msg 536 277 0.16;
#N canvas 377 133 788 532 wobble-control 0;
#X obj 133 68 int;
#X obj 133 23 r Wobble;
#X obj 133 89 change -16;
#X msg 29 460 set \$1;
#X obj 29 482 s wobble.binary.select.r;
#X obj 29 405 / 2;
#X msg 256 458 set \$1;
#X obj 256 482 s wobble.ternary.select.r;
#X obj 256 410 / 2;
#X obj 256 387 - 1;
#X obj 133 272 mod 2;
#X msg 419 425 set \$1;
#X obj 419 447 s wobble.r;
#X obj 419 372 + 0.5;
#X obj 419 75 r wobble.binary.select.s;
#X msg 503 425 set \$1;
#X obj 503 447 s wobble.r;
#X obj 503 372 + 0.5;
#X obj 504 138 r wobble.ternary.select.s;
#X obj 419 115 * 2;
#X obj 504 164 * 2;
#X obj 503 184 + 1;
#X obj 419 402 / 13;
#X obj 503 402 / 13;
#X obj 273 278 outlet;
#X obj 133 302 pack f f;
#X text 580 408 update slider;
#X text 117 418 update selectors;
#X text 616 97 get selectors;
#X text 206 50 get slider;
#X obj 133 324 route 0 1;
#X obj 133 242 t f f, f 8;
#X obj 133 48 * 12.99;
#X connect 0 0 2 0;
#X connect 1 0 32 0;
#X connect 2 0 24 0;
#X connect 2 0 31 0;
#X connect 3 0 4 0;
#X connect 5 0 3 0;
#X connect 6 0 7 0;
#X connect 8 0 6 0;
#X connect 9 0 8 0;
#X connect 10 0 25 0;
#X connect 11 0 12 0;
#X connect 13 0 22 0;
#X connect 14 0 19 0;
#X connect 15 0 16 0;
#X connect 17 0 23 0;
#X connect 18 0 20 0;
#X connect 19 0 13 0;
#X connect 19 0 24 0;
#X connect 20 0 21 0;
#X connect 21 0 17 0;
#X connect 21 0 24 0;
#X connect 22 0 11 0;
#X connect 23 0 15 0;
#X connect 25 0 30 0;
#X connect 30 0 5 0;
#X connect 30 1 9 0;
#X connect 31 0 10 0;
#X connect 31 1 25 1;
#X connect 32 0 0 0;
#X restore 595 164 pd wobble-control;
#X obj 595 226 sel 0 1 2 3 4 5 6 7 8 9 10 11 12;
#X connect 0 0 59 0;
#X connect 1 0 0 0;
#X connect 2 0 9 0;
#X connect 3 0 1 0;
#X connect 4 0 13 0;
#X connect 5 0 22 0;
#X connect 6 0 4 0;
#X connect 7 0 6 0;
#X connect 8 0 48 0;
#X connect 9 0 8 0;
#X connect 10 0 9 1;
#X connect 11 0 29 0;
#X connect 12 0 39 0;
#X connect 13 0 14 0;
#X connect 14 0 11 1;
#X connect 14 1 15 0;
#X connect 15 0 12 1;
#X connect 16 0 12 1;
#X connect 17 0 18 0;
#X connect 18 0 19 0;
#X connect 19 0 20 0;
#X connect 20 0 12 0;
#X connect 21 0 44 0;
#X connect 22 2 4 0;
#X connect 22 3 4 1;
#X connect 23 0 2 0;
#X connect 26 0 24 0;
#X connect 26 0 25 0;
#X connect 28 0 26 1;
#X connect 29 0 30 0;
#X connect 30 0 31 0;
#X connect 30 0 32 0;
#X connect 31 0 34 1;
#X connect 32 0 35 0;
#X connect 33 0 34 0;
#X connect 34 0 35 0;
#X connect 35 0 36 0;
#X connect 36 0 37 0;
#X connect 37 0 38 0;
#X connect 38 0 59 1;
#X connect 39 0 16 0;
#X connect 39 1 11 0;
#X connect 40 0 7 0;
#X connect 41 0 17 0;
#X connect 42 0 28 0;
#X connect 43 0 10 0;
#X connect 44 0 55 0;
#X connect 45 0 46 0;
#X connect 46 0 55 0;
#X connect 47 0 49 0;
#X connect 48 0 3 0;
#X connect 48 1 21 0;
#X connect 48 2 45 0;
#X connect 48 3 47 0;
#X connect 49 0 55 0;
#X connect 50 0 49 1;
#X connect 51 0 47 1;
#X connect 52 0 24 0;
#X connect 52 0 25 0;
#X connect 53 0 52 1;
#X connect 54 0 53 0;
#X connect 55 0 64 0;
#X connect 56 0 46 1;
#X connect 56 0 57 0;
#X connect 57 0 58 0;
#X connect 57 1 58 1;
#X connect 58 0 44 1;
#X connect 59 0 26 0;
#X connect 59 1 52 0;
#X connect 60 0 61 0;
#X connect 61 0 62 0;
#X connect 62 0 63 0;
#X connect 63 0 64 1;
#X connect 64 0 1 1;
#X connect 65 0 5 0;
#X connect 66 0 5 0;
#X connect 67 0 5 0;
#X connect 68 0 5 0;
#X connect 69 0 5 0;
#X connect 70 0 5 0;
#X connect 71 0 5 0;
#X connect 72 0 5 0;
#X connect 73 0 5 0;
#X connect 74 0 5 0;
#X connect 75 0 5 0;
#X connect 76 0 5 0;
#X connect 77 0 5 0;
#X connect 78 0 79 0;
#X connect 79 0 76 0;
#X connect 79 1 77 0;
#X connect 79 2 65 0;
#X connect 79 3 75 0;
#X connect 79 4 66 0;
#X connect 79 5 74 0;
#X connect 79 6 67 0;
#X connect 79 7 71 0;
#X connect 79 8 68 0;
#X connect 79 9 72 0;
#X connect 79 10 69 0;
#X connect 79 11 73 0;
#X connect 79 12 70 0;
#X restore 37 119 pd BASS;
#N canvas 485 214 450 300 TIMEBASE 0;
#X obj 23 15 declare -path ./rj;
#X obj 10 116 s bpm;
#X obj 69 176 s tick;
#X obj 15 39 r localbpm.s;
#X obj 65 63 clock, f 10;
#X obj 123 233 swap 60000;
#X obj 123 255 /, f 10;
#X obj 93 89 * 24;
#X obj 61 95 / 24;
#X obj 61 117 i;
#X obj 61 139 change;
#X obj 144 126 s stop;
#X connect 3 0 1 0;
#X connect 4 0 8 0;
#X connect 4 1 7 0;
#X connect 4 2 11 0;
#X connect 5 0 6 0;
#X connect 5 1 6 1;
#X connect 6 0 1 0;
#X connect 7 0 5 0;
#X connect 8 0 9 0;
#X connect 9 0 10 0;
#X connect 10 0 2 0;
#X restore 37 51 pd TIMEBASE;
#N canvas 563 287 706 430 PATTERN 0;
#X obj 127 389 outlet;
#X obj 127 48 spigot;
#X obj 127 68 mod 16;
#X obj 127 88 sel 0 4 8 12;
#X obj 127 172 f;
#X obj 170 196 f;
#X obj 215 220 f;
#X obj 259 244 f;
#X obj 166 28 r autoplay;
#X obj 127 7 r tick;
#X obj 275 116 r note1.s;
#X obj 297 142 r note2.s;
#X obj 324 166 r note3.s;
#X obj 346 192 r note4.s;
#N canvas 523 315 450 300 MONITOR 0;
#X obj 127 47 inlet;
#X obj 127 69 / 4;
#X obj 127 91 int;
#X obj 127 118 change;
#X obj 145 159 s pattern.led;
#X connect 0 0 1 0;
#X connect 1 0 2 0;
#X connect 2 0 3 0;
#X connect 3 0 4 0;
#X restore 36 115 pd MONITOR;
#X obj 443 78 * 12;
#X obj 443 56 + 2;
#X obj 129 332 +;
#X obj 443 247 +, f 8;
#X obj 443 34 r octavia.s;
#X obj 461 195 t b f;
#X obj 461 160 r tune.s/idx;
#X connect 1 0 2 0;
#X connect 2 0 3 0;
#X connect 2 0 14 0;
#X connect 3 0 4 0;
#X connect 3 1 5 0;
#X connect 3 2 6 0;
#X connect 3 3 7 0;
#X connect 4 0 17 0;
#X connect 5 0 17 0;
#X connect 6 0 17 0;
#X connect 7 0 17 0;
#X connect 8 0 1 1;
#X connect 9 0 1 0;
#X connect 10 0 4 1;
#X connect 11 0 5 1;
#X connect 12 0 6 1;
#X connect 13 0 7 1;
#X connect 15 0 18 0;
#X connect 16 0 15 0;
#X connect 17 0 0 0;
#X connect 18 0 17 1;
#X connect 19 0 16 0;
#X connect 20 0 18 0;
#X connect 20 1 18 1;
#X connect 21 0 20 0;
#X restore 37 71 pd PATTERN;
#N canvas 148 343 316 271 IO 0;
#X obj 44 46 catch~ RIGHT;
#X obj 6 25 catch~ LEFT;
#X obj 30 245 dac~;
#X obj 46 77 tanh~;
#X obj 5 75 tanh~;
#X obj 237 83 r master.s;
#X obj 180 94 line~;
#X obj 180 38 r stop;
#X obj 180 134 *~;
#X obj 63 192 *~;
#X obj 6 192 *~;
#X msg 131 66 1 50;
#X obj 131 38 r tick;
#X msg 180 70 0 50;
#X connect 0 0 3 0;
#X connect 1 0 4 0;
#X connect 3 0 9 0;
#X connect 4 0 10 0;
#X connect 5 0 8 1;
#X connect 6 0 8 0;
#X connect 7 0 13 0;
#X connect 8 0 9 1;
#X connect 8 0 10 1;
#X connect 9 0 2 1;
#X connect 10 0 2 0;
#X connect 11 0 6 0;
#X connect 12 0 11 0;
#X connect 13 0 6 0;
#X restore 37 180 pd IO;
#N canvas 518 132 610 482 msg_fwd 0;
#X obj 28 42 r glide.s;
#X obj 88 72 r tone.s;
#X obj 157 100 r wobble.s;
#X obj 249 133 r bass.s;
#X obj 343 132 r autoplay.s;
#X obj 18 185 s Glide;
#X obj 92 187 s Tone;
#X obj 159 178 s Wobble;
#X obj 251 177 s bass;
#X obj 345 177 s autoplay;
#X obj 219 248 r sel1.s;
#X obj 219 389 s note1.s;
#X obj 219 335 -;
#X obj 219 283 t b f;
#X obj 219 307 12;
#X obj 293 336 -;
#X obj 293 284 t b f;
#X obj 293 308 12;
#X obj 360 337 -;
#X obj 360 285 t b f;
#X obj 360 309 12;
#X obj 432 336 -;
#X obj 432 284 t b f;
#X obj 432 308 12;
#X obj 293 249 r sel2.s;
#X obj 360 250 r sel3.s;
#X obj 432 249 r sel4.s;
#X obj 293 390 s note2.s;
#X obj 360 391 s note3.s;
#X obj 432 390 s note4.s;
#X connect 0 0 5 0;
#X connect 1 0 6 0;
#X connect 2 0 7 0;
#X connect 3 0 8 0;
#X connect 4 0 9 0;
#X connect 10 0 13 0;
#X connect 12 0 11 0;
#X connect 13 0 14 0;
#X connect 13 1 12 1;
#X connect 14 0 12 0;
#X connect 15 0 27 0;
#X connect 16 0 17 0;
#X connect 16 1 15 1;
#X connect 17 0 15 0;
#X connect 18 0 28 0;
#X connect 19 0 20 0;
#X connect 19 1 18 1;
#X connect 20 0 18 0;
#X connect 21 0 29 0;
#X connect 22 0 23 0;
#X connect 22 1 21 1;
#X connect 23 0 21 0;
#X connect 24 0 16 0;
#X connect 25 0 19 0;
#X connect 26 0 22 0;
#X restore 37 159 pd msg_fwd;
#X text 44 197 based on dubstep_bass pd patch by Joe White;
#X text 40 229 + de vitesse dans les pattern lfo;
#X text 39 254 3 synthés noise;
#X obj 34 15 declare -path ../../../../pd-party/droidparty-abstractions
;
#X connect 2 0 0 0;
#X restore 620 37 pd guts;
#X obj 620 116 clock-gui;
#N canvas 699 292 613 463 loadsave-interface 0;
#X obj 44 15 s cb-save;
#X obj 44 -6 r storage-save;
#X obj 194 -6 r storage-load;
#X obj 194 15 s cb-load;
#X obj 212 71 r cb-save;
#X obj 51 71 r cb-load;
#X msg 12 -86 \; storage save savefiles cbs;
#X msg 198 -86 \; storage load savefiles cbs;
#X obj 12 -108 r save;
#X obj 198 -111 r load;
#X obj 51 96 persist-load storage;
#X obj 212 93 persist-save storage;
#X connect 1 0 0 0;
#X connect 2 0 3 0;
#X connect 4 0 11 0;
#X connect 5 0 10 0;
#X connect 8 0 6 0;
#X connect 9 0 7 0;
#X restore 620 77 pd loadsave-interface;
#N canvas 770 81 651 686 loadsave 0;
#X obj 98 189 persist-map storage bass.s bass.r;
#X obj 97 212 persist-map storage autoplay.s autoplay.r;
#X obj 99 234 persist-map storage glide.s glide.r;
#X obj 101 256 persist-map storage tone.s tone.r;
#X obj 101 282 persist-map storage wobble.s wobble.r;
#X obj 105 309 persist-map storage sel1.s sel1.r;
#X obj 103 330 persist-map storage sel2.s sel2.r;
#X obj 107 351 persist-map storage sel3.s sel3.r;
#X obj 106 372 persist-map storage sel4.s sel4.r;
#X obj 108 413 persist-map storage oscmix.s oscmix.r;
#X obj 115 470 persist-map storage noilvl.s noilvl.r;
#X obj 121 500 persist-map storage noiq.s noiq.r;
#X obj 107 539 persist-map storage tune.s/idx tune.r/idx;
#X obj 106 569 persist-map storage octavia.s octavia.r;
#X obj 133 34 loadbang;
#X msg 133 56 \; master.r 0.5;
#X connect 14 0 15 0;
#X restore 620 97 pd loadsave;
#X obj 620 58 loadsave storage;
#X obj 32 107 hsl 250 25 0 1 0 1 noilvl.s noilvl.r NOISE_LEVEL 0 -6
1 10 -262144 -1 -4160 6200 1;
#X obj 32 66 hsl 250 25 0 1 0 1 oscmix.s oscmix.r OSC_MIX 0 -6 1 10
-262144 -1 -4160 2100 1;
#X obj 32 147 hsl 250 25 1 100 1 1 noiq.s noiq.r NOISE_RESONANCE 0
-6 1 10 -262144 -1 -4160 11400 1;
#X obj 359 71 vradio 28 1 1 13 sel2.s sel2.r empty 0 -8 0 10 -262144
-1 -1 8;
#X obj 393 71 vradio 28 1 1 13 sel3.s sel3.r empty 0 -8 0 10 -262144
-1 -1 7;
#X obj 428 71 vradio 28 1 1 13 sel4.s sel4.r empty 0 -8 0 10 -262144
-1 -1 6;
#X obj 325 71 vradio 28 1 1 13 sel1.s sel1.r empty 0 -8 0 10 -262144
-1 -1 9;
#X obj 34 298 hsl 250 50 0 1 0 1 wobble.s wobble.r WOBBLE 0 -6 1 10
-262144 -1 -4160 12450 1;
#X text 2 61 SIN;
#X text 285 61 TRI;
#X obj 322 446 hradio 34 1 0 4 empty pattern.led TrackLeds 0 40 0 10
-262144 -1 -1 0;
#X obj 325 14 hradio 26 1 1 5 octavia.s octavia.r empty 0 -8 0 10 -262144
-1 -1 1;
#X text 363 40 Octavia;
#X obj 32 382 hradio 36 1 0 7 wobble.binary.select.s wobble.binary.select.r
WobbleBinary 0 -16 0 10 -262144 -1 -1 3;
#X obj 51 444 hradio 36 1 0 6 wobble.ternary.select.s wobble.ternary.select.r
WobbleTernary 0 -16 0 10 -262144 -1 -1 5;
#X text 77 367 1;
#X text 152 367 4;
#X text 117 367 2;
#X text 36 367 1/2;
#X text 186 367 8;
#X text 221 367 16;
#X text 258 367 32;
#X text 171 429 6;
#X text 133 429 3;
#X text 202 429 12;
#X text 241 429 24;
#X text 56 428 1/3;
#X text 93 429 1.5;
#X obj 155 14 bng 24 250 50 0 load empty empty 17 7 0 10 -262144 -1
-1;
#X text 183 17 Load;
#X obj 222 14 bng 24 250 50 0 save empty empty 17 7 0 10 -262144 -1
-1;
#X text 250 17 Save;
#X obj 480 12 taplist 32 32 tune.r tune.s TuneTaplist C C# D D# E F
F# G G# A A# B;
#X text 480 43 Tune;
#X obj 481 73 vsl 32 390 0 1 0 0 master.s master.r Master 0 400 0 10
-262144 -1 -1 19450 1;
