#N canvas 452 311 659 356 10;
#X declare -path ../../../../pd-party/droidparty-abstractions;
#N canvas 66 278 625 392 core 0;
#X obj 34 15 declare -path ../../../../pd-party/droidparty-abstractions
;
#X obj 403 16 clock-gui;
#N canvas 66 84 450 300 clock 0;
#X obj 74 60 clock, f 10;
#X obj 74 148 / 24;
#X obj 74 170 i;
#X obj 74 192 change;
#X floatatom 74 235 5 0 0 0 - - -, f 5;
#X obj 243 16 r subdiv;
#X msg 243 105 24;
#X msg 279 106 12;
#X msg 312 106 6;
#X msg 259 138 16;
#X msg 292 139 8;
#X msg 326 140 4;
#X obj 243 77 select 0 1 2 3 4 5;
#X obj 148 248 outlet;
#X obj 241 254 outlet, f 15;
#X obj 244 191 f, f 5;
#X obj 308 214 s subdiv-scale;
#X connect 0 0 1 0;
#X connect 0 1 14 0;
#X connect 1 0 2 0;
#X connect 2 0 3 0;
#X connect 3 0 4 0;
#X connect 3 0 13 0;
#X connect 5 0 12 0;
#X connect 6 0 15 0;
#X connect 7 0 15 0;
#X connect 8 0 15 0;
#X connect 9 0 15 0;
#X connect 10 0 15 0;
#X connect 11 0 15 0;
#X connect 12 0 6 0;
#X connect 12 1 9 0;
#X connect 12 2 7 0;
#X connect 12 3 10 0;
#X connect 12 4 8 0;
#X connect 12 5 11 0;
#X connect 15 0 1 1;
#X connect 15 0 16 0;
#X restore 98 72 pd clock;
#N canvas 154 284 390 420 arpeggio 0;
#X obj 41 26 inlet;
#X obj 41 304 outlet;
#X obj 41 275 +;
#X obj 56 250 r offset;
#X obj 41 171 +, f 8;
#X obj 41 213 +, f 15;
#N canvas 66 79 450 300 arp3 0;
#X obj 146 41 inlet;
#X obj 145 212 outlet;
#X obj 154 155 *;
#X obj 154 121 % 8;
#X obj 205 94 + 1;
#X obj 205 69 r length3;
#X obj 190 126 r scale3;
#X obj 59 150 s position3, f 8;
#X connect 0 0 3 0;
#X connect 2 0 1 0;
#X connect 3 0 7 0;
#X connect 3 0 2 0;
#X connect 4 0 3 1;
#X connect 5 0 4 0;
#X connect 6 0 2 1;
#X restore 131 173 pd arp3;
#N canvas 66 80 450 300 arp2 0;
#X obj 160 28 inlet;
#X obj 170 262 outlet;
#X obj 317 251 outlet;
#X obj 215 221 *;
#X obj 188 142 % 8;
#X obj 309 86 + 1;
#X obj 309 64 r length2;
#X obj 251 192 r scale2;
#X obj 288 153 /;
#X obj 170 103 t f f;
#X obj 134 182 s position2, f 8;
#X connect 0 0 9 0;
#X connect 3 0 1 0;
#X connect 4 0 3 0;
#X connect 4 0 10 0;
#X connect 5 0 4 1;
#X connect 5 0 8 1;
#X connect 6 0 5 0;
#X connect 7 0 3 1;
#X connect 8 0 2 0;
#X connect 9 0 4 0;
#X connect 9 1 8 0;
#X restore 86 135 pd arp2;
#N canvas 66 115 462 545 arp1 0;
#X obj 252 20 inlet;
#X obj 99 426 outlet;
#X obj 310 424 outlet;
#X obj 99 298 *;
#X obj 114 275 r scale1;
#X obj 60 219 s position1;
#X obj 177 311 moses;
#X obj 99 377 spigot 1;
#X msg 177 333 1;
#X msg 204 345 0;
#X obj 204 268 r limit1;
#X obj 204 290 + 1;
#X obj 155 176 f;
#N canvas 288 203 679 522 wrapper 0;
#X obj 56 32 inlet;
#X obj 56 110 %;
#X obj 337 7 r length1;
#X obj 198 59 + 1;
#X obj 184 461 outlet;
#X obj 183 195 abs;
#X obj 313 95 * 2;
#X obj 322 172 -;
#X obj 322 198 abs;
#X obj 298 132 %;
#X obj 79 244 r mode;
#X obj 79 266 select 1;
#X msg 124 297 0;
#X msg 79 296 1;
#X obj 56 332 spigot 0;
#X obj 207 246 r mode;
#X msg 252 299 0;
#X msg 207 298 1;
#X obj 184 334 spigot 0;
#X obj 350 246 r mode;
#X msg 395 299 0;
#X msg 350 298 1;
#X obj 327 334 spigot 0;
#X obj 207 268 select 2;
#X obj 350 268 select 3;
#X obj 183 169 -;
#X obj 456 457 outlet;
#X obj 56 59 t f f;
#X obj 466 266 /;
#X obj 436 106 + 1;
#X obj 537 253 r mode;
#X msg 582 306 0;
#X msg 537 305 1;
#X obj 514 341 spigot 0;
#X obj 537 275 select 3;
#X msg 619 367 0;
#X msg 574 366 1;
#X obj 507 394 spigot 0;
#X obj 496 103 * 2;
#X obj 485 178 /;
#X obj 496 145 max 1, f 8;
#X connect 0 0 27 0;
#X connect 1 0 14 0;
#X connect 1 0 25 0;
#X connect 2 0 3 0;
#X connect 2 0 6 0;
#X connect 2 0 7 1;
#X connect 2 0 25 1;
#X connect 2 0 29 0;
#X connect 2 0 38 0;
#X connect 3 0 1 1;
#X connect 5 0 18 0;
#X connect 6 0 9 1;
#X connect 7 0 8 0;
#X connect 8 0 22 0;
#X connect 9 0 7 0;
#X connect 10 0 11 0;
#X connect 11 0 13 0;
#X connect 11 1 12 0;
#X connect 12 0 14 1;
#X connect 13 0 14 1;
#X connect 14 0 4 0;
#X connect 15 0 23 0;
#X connect 16 0 18 1;
#X connect 17 0 18 1;
#X connect 18 0 4 0;
#X connect 19 0 24 0;
#X connect 20 0 22 1;
#X connect 21 0 22 1;
#X connect 22 0 4 0;
#X connect 23 0 17 0;
#X connect 23 1 16 0;
#X connect 24 0 21 0;
#X connect 24 1 20 0;
#X connect 25 0 5 0;
#X connect 27 0 1 0;
#X connect 27 0 9 0;
#X connect 27 1 28 0;
#X connect 27 1 39 0;
#X connect 28 0 37 0;
#X connect 29 0 28 1;
#X connect 30 0 34 0;
#X connect 31 0 33 1;
#X connect 32 0 33 1;
#X connect 33 0 26 0;
#X connect 34 0 32 0;
#X connect 34 0 35 0;
#X connect 34 1 31 0;
#X connect 34 1 36 0;
#X connect 35 0 37 1;
#X connect 36 0 37 1;
#X connect 37 0 26 0;
#X connect 38 0 40 0;
#X connect 39 0 33 0;
#X connect 40 0 39 1;
#X restore 252 89 pd wrapper;
#X connect 0 0 13 0;
#X connect 3 0 7 0;
#X connect 4 0 3 1;
#X connect 6 0 8 0;
#X connect 6 1 9 0;
#X connect 7 0 1 0;
#X connect 8 0 7 1;
#X connect 9 0 7 1;
#X connect 10 0 11 0;
#X connect 11 0 6 1;
#X connect 12 0 5 0;
#X connect 12 0 3 0;
#X connect 12 0 6 0;
#X connect 13 0 12 0;
#X connect 13 1 2 0;
#X restore 41 98 pd arp1;
#N canvas 365 157 651 521 modulus 0;
#X obj 32 10 inlet;
#X obj 116 463 outlet;
#X obj 500 389 mod;
#X obj 368 7 r modulus;
#X msg 382 86 4;
#X msg 417 88 8;
#X msg 451 87 16;
#X msg 489 89 32;
#X obj 368 29 select 0 1 2 3 4 5 6 7;
#X obj 409 163 i;
#X obj 35 373 spigot 1;
#X obj 333 344 spigot 0;
#X obj 549 205 t b;
#X msg 93 334 1;
#X msg 428 314 0;
#X msg 390 313 1;
#X msg 59 335 0;
#X obj 409 185 t b f;
#X msg 371 126 3;
#X msg 403 129 6;
#X msg 435 127 12;
#X msg 468 129 24;
#X connect 0 0 10 0;
#X connect 0 0 11 0;
#X connect 2 0 1 0;
#X connect 3 0 8 0;
#X connect 4 0 9 0;
#X connect 5 0 9 0;
#X connect 6 0 9 0;
#X connect 7 0 9 0;
#X connect 8 0 18 0;
#X connect 8 1 4 0;
#X connect 8 2 19 0;
#X connect 8 3 5 0;
#X connect 8 4 20 0;
#X connect 8 5 6 0;
#X connect 8 6 21 0;
#X connect 8 7 7 0;
#X connect 8 8 12 0;
#X connect 9 0 17 0;
#X connect 10 0 1 0;
#X connect 11 0 2 0;
#X connect 12 0 13 0;
#X connect 12 0 14 0;
#X connect 13 0 10 1;
#X connect 14 0 11 1;
#X connect 15 0 11 1;
#X connect 16 0 10 1;
#X connect 17 0 16 0;
#X connect 17 0 15 0;
#X connect 17 1 2 1;
#X connect 18 0 9 0;
#X connect 19 0 9 0;
#X connect 20 0 9 0;
#X connect 21 0 9 0;
#X restore 41 62 pd modulus;
#X connect 0 0 9 0;
#X connect 2 0 1 0;
#X connect 3 0 2 1;
#X connect 4 0 5 0;
#X connect 5 0 2 0;
#X connect 6 0 5 1;
#X connect 7 0 4 1;
#X connect 7 1 6 0;
#X connect 8 0 4 0;
#X connect 8 1 7 0;
#X connect 9 0 8 0;
#X restore 98 128 pd arpeggio;
#N canvas 791 197 450 512 synth 0;
#X obj 80 8 inlet;
#X obj 79 466 outlet~;
#X obj 266 152 mtof;
#X obj 80 30 t b f;
#X obj 172 266 osc~;
#X msg 80 107 1 10 \, 0 100 10;
#X obj 80 184 vline~;
#X obj 75 402 *~;
#X obj 172 310 clip~ -1 1;
#X obj 172 218 *~;
#X obj 172 240 +~;
#X obj 290 89 mtof;
#X obj 290 45 r fm;
#X obj 191 112 osc~ 440;
#X obj 215 71 + 12;
#X obj 215 93 mtof;
#X obj 258 8 r fmo;
#X obj 237 206 clip~ -1 1;
#X obj 237 184 *~ 1;
#X obj 172 288 *~ 1;
#X msg 160 18 0;
#X obj 243 56 * 12;
#X obj 258 30 - 2;
#X obj 172 372 lop~ 1000;
#X obj 264 390 osc~;
#X obj 265 280 mtof;
#X obj 178 409 *~;
#X obj 265 258 + 0;
#X obj 341 179 r am;
#X obj 341 201 - 3;
#X obj 341 223 * 12;
#X connect 0 0 3 0;
#X connect 2 0 10 1;
#X connect 3 0 5 0;
#X connect 3 1 2 0;
#X connect 3 1 14 0;
#X connect 3 1 27 0;
#X connect 4 0 19 0;
#X connect 5 0 6 0;
#X connect 6 0 7 0;
#X connect 7 0 1 0;
#X connect 8 0 23 0;
#X connect 9 0 10 0;
#X connect 10 0 4 0;
#X connect 11 0 9 1;
#X connect 12 0 11 0;
#X connect 13 0 18 0;
#X connect 14 0 15 0;
#X connect 15 0 13 0;
#X connect 16 0 22 0;
#X connect 17 0 9 0;
#X connect 18 0 17 0;
#X connect 19 0 8 0;
#X connect 20 0 14 1;
#X connect 21 0 14 1;
#X connect 22 0 21 0;
#X connect 23 0 26 0;
#X connect 24 0 26 1;
#X connect 25 0 24 0;
#X connect 26 0 7 1;
#X connect 27 0 25 0;
#X connect 28 0 29 0;
#X connect 29 0 30 0;
#X connect 30 0 27 1;
#X restore 98 197 pd synth;
#X obj 98 247 *~;
#X obj 113 222 r master;
#N canvas 66 81 450 300 mapping 0;
#X obj 226 83 r octavia;
#X obj 116 82 r note;
#X obj 226 105 t b f;
#X obj 226 157 * 12;
#X obj 154 198 +;
#X obj 154 220 s offset;
#X connect 0 0 2 0;
#X connect 1 0 4 0;
#X connect 2 0 4 0;
#X connect 2 1 3 0;
#X connect 3 0 4 1;
#X connect 4 0 5 0;
#X restore 233 64 pd mapping;
#N canvas 238 174 588 524 delay 0;
#X obj 173 269 inlet~;
#X obj 186 319 delwrite~ delay 2000;
#X obj 246 459 outlet~;
#X obj 108 466 outlet~;
#X obj 303 426 *~ 0.5;
#X obj 239 413 *~ 0.25;
#X obj 75 407 *~ 0.5;
#X obj 138 410 *~ 0.25;
#X obj 319 341 clip~ -1 1;
#X obj 319 383 *~ 0.5;
#X obj 348 362 r feedback;
#X obj 292 64 inlet;
#X obj 347 280 vd~ delay;
#X obj 348 137 *;
#X obj 349 36 r delay-scale;
#X obj 349 101 t b f;
#X obj 348 229 sig~;
#X obj 348 251 lop~ 2, f 15;
#X obj 412 121 r subdiv-scale;
#X obj 372 163 t b f;
#X obj 348 192 *;
#X obj 349 79 + 1;
#X obj 349 58 / 2;
#X connect 0 0 1 0;
#X connect 0 0 7 0;
#X connect 0 0 6 0;
#X connect 4 0 2 0;
#X connect 5 0 3 0;
#X connect 6 0 3 0;
#X connect 7 0 2 0;
#X connect 8 0 9 0;
#X connect 9 0 1 0;
#X connect 9 0 4 0;
#X connect 9 0 5 0;
#X connect 10 0 9 1;
#X connect 11 0 13 0;
#X connect 12 0 8 0;
#X connect 13 0 20 0;
#X connect 14 0 22 0;
#X connect 15 0 13 0;
#X connect 15 1 13 1;
#X connect 16 0 17 0;
#X connect 17 0 12 0;
#X connect 18 0 19 0;
#X connect 19 0 20 0;
#X connect 19 1 20 1;
#X connect 20 0 16 0;
#X connect 21 0 15 0;
#X connect 22 0 21 0;
#X restore 99 295 pd delay;
#X obj 99 361 dac~, f 15;
#X obj 233 111 loadbang;
#N canvas 409 267 450 300 load-save 0;
#X obj 38 70 r load;
#X obj 40 140 r preset-load;
#X obj 40 162 persist-load preset;
#X obj 166 10 loadsave preset;
#X msg 38 92 \; preset load presets cbs;
#X obj 244 70 r save;
#X msg 244 92 \; preset save presets cbs;
#X obj 247 142 r preset-save;
#X obj 247 164 persist-save preset;
#X connect 0 0 4 0;
#X connect 1 0 2 0;
#X connect 5 0 6 0;
#X connect 7 0 8 0;
#X restore 400 65 pd load-save;
#N canvas 706 252 608 393 preset-mapping 0;
#X obj 54 37 persist-map preset octavia octavia.r;
#X obj 54 64 persist-map preset note note.r;
#X obj 54 91 persist-map preset subdiv subdiv.r;
#X obj 48 181 persist-map preset fm fm.r;
#X obj 48 335 persist-map preset feedback feedback.r;
#X obj 317 31 persist-map preset scale1 scale1.r;
#X obj 317 58 persist-map preset length1 length1.r;
#X obj 318 82 persist-map preset limit1 limit1.r;
#X obj 320 139 persist-map preset scale2 scale2.r;
#X obj 320 166 persist-map preset length2 length2.r;
#X obj 322 219 persist-map preset scale3 scale3.r;
#X obj 322 246 persist-map preset length3 length3.r;
#X obj 54 118 persist-map preset mode mode.r;
#X obj 52 148 persist-map preset modulus modulus.r;
#X obj 48 208 persist-map preset fmo fmo.r;
#X obj 47 240 persist-map preset am am.r;
#X obj 48 284 persist-map preset delay-scale delay-scale.r;
#X restore 403 118 pd preset-mapping;
#X msg 233 133 \; octavia.r 3 \; note.r 0 \; subdiv.r 4 \; mode.r 3
\; scale1.r 7 \; length1.r 2 \; limit1.r 7 \; scale2.r 1 \; length2.r
1 \; scale3.r 3 \; length3.r 1 \; fm.r 100 \; fmo.r 3 \; am.r 3 \;
delay-scale.r 2 \; feedback.r 0.2 \; master.r 0.5 \; modulus.r 5 \;
;
#X connect 2 0 3 0;
#X connect 2 1 8 1;
#X connect 3 0 4 0;
#X connect 4 0 5 0;
#X connect 5 0 8 0;
#X connect 6 0 5 1;
#X connect 8 0 9 0;
#X connect 8 1 9 1;
#X connect 10 0 13 0;
#X restore 323 94 pd core;
#X obj 450 19 hradio 32 1 0 6 subdiv subdiv.r empty 0 -8 0 10 -262144
-1 -1 4;
#X text 459 3 4;
#X text 491 3 6;
#X text 524 3 8;
#X text 553 3 12;
#X text 585 3 16;
#X text 618 2 24;
#X obj 619 206 vsl 15 128 0 1 0 0 master master.r Master -10 -9 0 10
-262144 -1 -1 6350 1;
#X obj 12 16 hradio 32 1 0 13 note note.r Note 0 -8 0 10 -262144 -1
-1 0;
#X obj 9 119 hradio 15 1 0 8 octavia octavia.r Octavia 0 -8 0 10 -262144
-1 -1 3;
#X obj 234 158 hradio 15 1 0 16 limit1 limit1.r empty 0 -8 0 10 -262144
-1 -1 7;
#X obj 11 158 hradio 15 1 0 13 scale1 scale1.r Scale 0 -8 0 10 -262144
-1 -1 7;
#X obj 234 228 hradio 15 1 0 16 length2 length2.r Length 0 -8 0 10
-262144 -1 -1 1;
#X obj 11 228 hradio 15 1 0 13 scale2 scale2.r Scale 0 -8 0 10 -262144
-1 -1 1;
#X obj 233 295 hradio 15 1 0 16 length3 length3.r Length 0 -8 0 10
-262144 -1 -1 1;
#X obj 234 246 hradio 15 1 0 16 empty position2 led -20 6 0 10 -228856
-1 -1 0;
#X obj 11 295 hradio 15 1 0 13 scale3 scale3.r Scale 0 -8 0 10 -262144
-1 -1 3;
#X obj 234 175 hradio 15 1 0 16 empty position1 led -20 6 0 10 -228856
-1 -1 2;
#X obj 233 313 hradio 15 1 0 16 empty position3 led -20 6 0 10 -228856
-1 -1 0;
#X obj 234 123 hradio 15 1 0 16 length1 length1.r Length 0 -8 0 10
-262144 -1 -1 2;
#X obj 12 185 cnv 12 12 16 empty empty empty 20 12 0 14 -228856 -66577
0;
#X obj 27 175 cnv 12 12 16 empty empty empty 20 12 0 14 -99865 -66577
0;
#X obj 235 141 cnv 12 12 12 empty empty empty 20 12 0 14 -191407 -66577
0;
#X obj 574 274 vsl 15 64 0 0.99 0 0 feedback feedback.r FB 0 -9 0 10
-262144 -1 -1 1273 1;
#X obj 488 212 vsl 15 128 0 127 0 0 fm fm.r FM 0 -9 0 10 -262144 -1
-1 10000 1;
#X text 502 123 Off;
#X obj 42 185 cnv 12 12 16 empty empty empty 20 12 0 14 -228856 -66577
0;
#X obj 57 175 cnv 12 12 16 empty empty empty 20 12 0 14 -99865 -66577
0;
#X obj 72 185 cnv 12 12 16 empty empty empty 20 12 0 14 -228856 -66577
0;
#X obj 87 185 cnv 12 12 16 empty empty empty 20 12 0 14 -228856 -66577
0;
#X obj 102 175 cnv 12 12 16 empty empty empty 20 12 0 14 -99865 -66577
0;
#X obj 117 185 cnv 12 12 16 empty empty empty 20 12 0 14 -228856 -66577
0;
#X obj 132 175 cnv 12 12 16 empty empty empty 20 12 0 14 -99865 -66577
0;
#X obj 147 185 cnv 12 12 16 empty empty empty 20 12 0 14 -228856 -66577
0;
#X obj 163 175 cnv 12 12 16 empty empty empty 20 12 0 14 -99865 -66577
0;
#X obj 178 185 cnv 12 12 16 empty empty empty 20 12 0 14 -228856 -66577
0;
#X obj 193 185 cnv 12 12 16 empty empty empty 20 12 0 14 -228856 -66577
0;
#X obj 12 255 cnv 12 12 16 empty empty empty 20 12 0 14 -228856 -66577
0;
#X obj 27 245 cnv 12 12 16 empty empty empty 20 12 0 14 -99865 -66577
0;
#X obj 42 255 cnv 12 12 16 empty empty empty 20 12 0 14 -228856 -66577
0;
#X obj 57 245 cnv 12 12 16 empty empty empty 20 12 0 14 -99865 -66577
0;
#X obj 72 255 cnv 12 12 16 empty empty empty 20 12 0 14 -228856 -66577
0;
#X obj 87 255 cnv 12 12 16 empty empty empty 20 12 0 14 -228856 -66577
0;
#X obj 102 245 cnv 12 12 16 empty empty empty 20 12 0 14 -99865 -66577
0;
#X obj 117 255 cnv 12 12 16 empty empty empty 20 12 0 14 -228856 -66577
0;
#X obj 132 245 cnv 12 12 16 empty empty empty 20 12 0 14 -99865 -66577
0;
#X obj 147 255 cnv 12 12 16 empty empty empty 20 12 0 14 -228856 -66577
0;
#X obj 163 245 cnv 12 12 16 empty empty empty 20 12 0 14 -99865 -66577
0;
#X obj 178 255 cnv 12 12 16 empty empty empty 20 12 0 14 -228856 -66577
0;
#X obj 193 255 cnv 12 12 16 empty empty empty 20 12 0 14 -228856 -66577
0;
#X obj 12 322 cnv 12 12 16 empty empty empty 20 12 0 14 -228856 -66577
0;
#X obj 27 312 cnv 12 12 16 empty empty empty 20 12 0 14 -99865 -66577
0;
#X obj 42 322 cnv 12 12 16 empty empty empty 20 12 0 14 -228856 -66577
0;
#X obj 57 312 cnv 12 12 16 empty empty empty 20 12 0 14 -99865 -66577
0;
#X obj 72 322 cnv 12 12 16 empty empty empty 20 12 0 14 -228856 -66577
0;
#X obj 87 322 cnv 12 12 16 empty empty empty 20 12 0 14 -228856 -66577
0;
#X obj 102 312 cnv 12 12 16 empty empty empty 20 12 0 14 -99865 -66577
0;
#X obj 117 322 cnv 12 12 16 empty empty empty 20 12 0 14 -228856 -66577
0;
#X obj 132 312 cnv 12 12 16 empty empty empty 20 12 0 14 -99865 -66577
0;
#X obj 147 322 cnv 12 12 16 empty empty empty 20 12 0 14 -228856 -66577
0;
#X obj 163 312 cnv 12 12 16 empty empty empty 20 12 0 14 -99865 -66577
0;
#X obj 178 322 cnv 12 12 16 empty empty empty 20 12 0 14 -228856 -66577
0;
#X obj 193 322 cnv 12 12 16 empty empty empty 20 12 0 14 -228856 -66577
0;
#X obj 265 141 cnv 12 12 12 empty empty empty 20 12 0 14 -191407 -66577
0;
#X obj 295 141 cnv 12 12 12 empty empty empty 20 12 0 14 -191407 -66577
0;
#X obj 325 141 cnv 12 12 12 empty empty empty 20 12 0 14 -191407 -66577
0;
#X obj 355 141 cnv 12 12 12 empty empty empty 20 12 0 14 -191407 -66577
0;
#X obj 385 141 cnv 12 12 12 empty empty empty 20 12 0 14 -191407 -66577
0;
#X obj 415 141 cnv 12 12 12 empty empty empty 20 12 0 14 -191407 -66577
0;
#X obj 445 141 cnv 12 12 12 empty empty empty 20 12 0 14 -191407 -66577
0;
#X obj 20 58 cnv 16 16 24 empty empty empty 20 12 0 14 -228856 -66577
0;
#X obj 52 49 cnv 16 16 24 empty empty empty 20 12 0 14 -99865 -66577
0;
#X obj 84 58 cnv 16 16 24 empty empty empty 20 12 0 14 -228856 -66577
0;
#X obj 116 49 cnv 16 16 24 empty empty empty 20 12 0 14 -99865 -66577
0;
#X obj 148 58 cnv 16 16 24 empty empty empty 20 12 0 14 -228856 -66577
0;
#X obj 180 58 cnv 16 16 24 empty empty empty 20 12 0 14 -228856 -66577
0;
#X obj 212 49 cnv 16 16 24 empty empty empty 20 12 0 14 -99865 -66577
0;
#X obj 244 58 cnv 16 16 24 empty empty empty 20 12 0 14 -228856 -66577
0;
#X obj 276 49 cnv 16 16 24 empty empty empty 20 12 0 14 -99865 -66577
0;
#X obj 308 58 cnv 16 16 24 empty empty empty 20 12 0 14 -228856 -66577
0;
#X obj 340 49 cnv 16 16 24 empty empty empty 20 12 0 14 -99865 -66577
0;
#X obj 372 58 cnv 16 16 24 empty empty empty 20 12 0 14 -228856 -66577
0;
#X obj 404 58 cnv 16 16 24 empty empty empty 20 12 0 14 -228856 -66577
0;
#X obj 185 108 bng 24 250 50 0 load empty Load 0 -7 0 10 -262144 -1
-1;
#X obj 146 108 bng 24 250 50 0 save empty Save 0 -7 0 10 -262144 -1
-1;
#X obj 515 216 vradio 15 1 0 8 fmo fmo.r FMO 0 -8 0 10 -262144 -1 -1
3;
#X obj 573 194 vradio 15 1 0 4 delay-scale delay-scale.r Delay 0 -8
0 10 -262144 -1 -1 2;
#X obj 539 215 vradio 15 1 0 8 am am.r AM 0 -8 0 10 -262144 -1 -1 3
;
#X obj 498 138 hradio 32 1 0 4 mode mode.r empty 0 -8 0 10 -262144
-1 -1 3;
#X text 537 123 =>;
#X text 569 123 <=;
#X text 596 124 <=>;
#X obj 462 77 hradio 20 1 0 9 modulus modulus.r empty 0 -8 0 10 -262144
-1 -1 5;
#X text 465 62 3;
#X text 485 62 4;
#X text 505 62 6;
#X text 526 62 8;
#X text 543 62 12;
#X text 563 62 16;
#X text 584 62 24;
#X text 602 62 32;
#X text 626 62 *;
#X text 449 79 %;
