#N canvas 343 111 707 615 10;
#X declare -path ../../pd-party/droidparty-abstractions;
#X obj 168 286 netreceive -u -b;
#X msg 228 224 listen 0;
#X msg 128 223 listen 21929;
#X obj 379 496 mod 100;
#N canvas 0 50 450 250 (subpatch) 0;
#X array smooth 100 float 0;
#X coords 0 100 100 0 200 140 1 0 0;
#X restore 22 34 graph;
#X obj 292 522 tabwrite smooth;
#X msg 529 197 connect 192.168.0.12 21928;
#X msg 529 253 disconnect;
#X obj 389 278 netsend -u -b;
#X obj 269 15 declare -path ../../pd-party/droidparty-abstractions
;
#X floatatom 608 161 5 0 0 0 - - -, f 5;
#X obj 389 157 midiclockout, f 34;
#X obj 608 27 vsl 15 128 10 180 0 1 empty empty BPM 0 -9 0 10 -262144
-1 -1 4600 1;
#X msg 336 58 start;
#X msg 389 58 stop;
#X msg 433 58 resume;
#X obj 264 355 clock, f 25;
#X obj 252 57 clock-gui;
#X floatatom 264 556 9 0 0 0 - - -, f 9;
#X obj 379 474 f 0;
#X obj 412 473 + 1;
#X obj 379 452 bang;
#X obj 292 400 t b b, f 15;
#X obj 292 431 f 0, f 8;
#X obj 389 300 tgl 15 0 empty empty empty 17 7 0 10 -262144 -1 -1 0
1;
#X obj 389 205 list prepend send;
#X obj 389 232 list trim;
#X msg 530 225 connect 127.0.0.1 21928;
#X obj 168 334 s midiin;
#X obj 315 205 s midiin;
#X connect 0 0 28 0;
#X connect 1 0 0 0;
#X connect 2 0 0 0;
#X connect 3 0 5 1;
#X connect 6 0 8 0;
#X connect 7 0 8 0;
#X connect 8 0 24 0;
#X connect 10 0 11 1;
#X connect 11 0 25 0;
#X connect 11 0 29 0;
#X connect 12 0 10 0;
#X connect 13 0 11 0;
#X connect 14 0 11 0;
#X connect 15 0 11 0;
#X connect 16 0 18 0;
#X connect 16 0 22 0;
#X connect 16 1 23 1;
#X connect 19 0 20 0;
#X connect 19 0 3 0;
#X connect 20 0 19 1;
#X connect 21 0 19 0;
#X connect 22 0 23 0;
#X connect 22 1 21 0;
#X connect 23 0 5 0;
#X connect 25 0 26 0;
#X connect 26 0 8 0;
#X connect 27 0 8 0;
