#N canvas 85 150 1250 559 10;
#X declare -path ../../../pd-party/droidparty-abstractions;
#X obj 103 34 declare -path ../../../pd-party/droidparty-abstractions
;
#X msg 155 120 foo bar dog cat;
#X obj 47 123 f 123.456;
#X obj 47 79 bng 15 250 50 0 empty empty empty 17 7 0 10 -262144 -1
-1;
#X floatatom 440 100 5 0 0 0 - - -, f 5;
#X symbolatom 305 302 10 0 0 0 - - -, f 10;
#X obj 552 86 tgl 15 0 empty empty empty 17 7 0 10 -262144 -1 -1 0
1;
#X obj 611 95 nbx 5 14 -1e+37 1e+37 0 0 empty empty empty 0 -8 0 10
-262144 -1 -1 0 256;
#X obj 735 95 vsl 15 128 0 6 0 0 empty empty empty 0 -9 0 10 -262144
-1 -1 0 1;
#X obj 676 30 hsl 128 15 0 6 0 0 empty empty empty -2 -8 0 10 -262144
-1 -1 0 1;
#X obj 771 100 vradio 15 1 0 8 empty empty empty 0 -8 0 10 -262144
-1 -1 0;
#X obj 694 63 hradio 15 1 0 8 empty empty empty 0 -8 0 10 -262144 -1
-1 3;
#N canvas 0 50 450 250 (subpatch) 0;
#X array array2 10 float 0;
#X coords 0 1 10 -1 100 140 1 0 0;
#X restore 1073 74 graph;
#X obj 915 350 bng 15 250 50 0 empty empty empty 17 7 0 10 -262144
-1 -1;
#X obj 1070 349 bng 15 250 50 0 empty empty empty 17 7 0 10 -262144
-1 -1;
#X obj 1063 455 r slot1-load;
#X obj 960 454 r slot1-save;
#X obj 997 486 print save;
#X obj 1116 488 print load;
#X obj 960 410 loadsave slot1;
#X msg 915 370 \; slot1 save preset1 pst1;
#X msg 1070 369 \; slot1 load preset1 pst1;
#X msg 27 387 symbol data/none;
#X msg 144 388 symbol data/none;
#X obj 997 316 cnv 15 1 1 empty empty Dialogs 20 12 0 14 -233017 -66577
0;
#X obj 40 344 cnv 15 1 1 empty empty Not_Found 20 12 0 14 -233017 -66577
0;
#X obj 291 348 cnv 15 1 1 empty empty Nominal 20 12 0 14 -233017 -66577
0;
#X obj 439 413 relative;
#X msg 439 390 data/saved.pst1;
#X obj 299 417 relative;
#X msg 299 393 data/saved.pst1;
#X obj 47 160 s float-test.s;
#X obj 48 247 r float-test.r;
#X floatatom 48 283 9 0 0 0 - - -, f 9;
#X obj 19 78 bng 15 250 50 0 empty empty empty 17 7 0 10 -262144 -1
-1;
#X obj 19 122 f 0;
#X obj 155 160 s message-test.s;
#X obj 158 248 r message-test.r;
#X obj 158 273 list prepend set;
#X msg 158 320 1 2 3 4, f 16;
#X obj 158 297 list trim;
#X msg 137 85 1 2 3 4;
#X obj 298 160 s symbol-test.s;
#X obj 305 249 r symbol-test.r;
#X obj 440 128 s numer-test.s;
#X obj 439 159 r number-test.r;
#X floatatom 439 181 5 0 0 0 - - -, f 5;
#X obj 552 128 s tgl.s;
#X obj 551 158 r tgl.r;
#X obj 551 194 tgl 15 0 empty empty empty 17 7 0 10 -262144 -1 -1 0
1;
#X obj 611 127 s nb2.s;
#X obj 608 157 r nb2.r;
#X obj 608 187 nbx 5 14 -1e+37 1e+37 0 0 empty empty empty 0 -8 0 10
-262144 -1 -1 0 256;
#X obj 842 96 taplist 32 32 tap.r tap.s MyTap A 50 a/b/c Lambda 45.87
;
#X obj 838 257 taplist 32 32 tap2.r tap2.s MyTap A 50 a/b/c Lambda
45.87;
#X obj 833 146 r tap2.s/idx;
#X obj 833 174 s tap2i.s;
#X obj 833 205 r tap2i.r;
#X obj 833 230 s tap2.r/idx;
#N canvas 66 78 450 250 (subpatch) 0;
#X array array1 10 float 0;
#X coords 0 1 10 -1 100 140 1 0 0;
#X restore 956 73 graph;
#N canvas 66 82 450 379 config-slot1 0;
#X obj 30 144 persist-table slot1 array1;
#X obj 30 167 persist-table slot1 array2;
#X obj 26 296 persist-map slot1 mix.s mix.r;
#X obj 28 265 persist-map slot1 tgl.s tgl.r;
#X obj 29 238 persist-map slot1 nb2.s nb2.r;
#X obj 29 210 persist-map slot1 tap2i.s tap2i.r;
#X obj 29 188 persist-map slot1 tap.s tap.r;
#X obj 30 115 persist-map slot1 numer-test.s number-test.r;
#X obj 33 85 persist-map slot1 symbol-test.s symbol-test.r;
#X obj 34 52 persist-map slot1 message-test.s message-test.r;
#X obj 35 20 persist-map slot1 float-test.s float-test.r;
#X restore 466 37 pd config-slot1;
#X msg 298 81 symbol hello;
#X msg 317 113 symbol goodbye;
#X obj 305 276 symbol;
#X obj 677 250 s mix.s;
#X obj 678 293 r mix.r;
#X obj 740 325 vsl 15 128 0 6 0 0 empty empty empty 0 -9 0 10 -262144
-1 -1 0 1;
#X obj 658 464 hsl 128 15 0 6 0 0 empty empty empty -2 -8 0 10 -262144
-1 -1 0 1;
#X obj 776 330 vradio 15 1 0 8 empty empty empty 0 -8 0 10 -262144
-1 -1 0;
#X obj 676 497 hradio 15 1 0 8 empty empty empty 0 -8 0 10 -262144
-1 -1 0.519685;
#X obj 27 429 persist-load slot1;
#X obj 144 431 persist-save slot1;
#X obj 299 441 persist-load slot1;
#X obj 439 442 persist-save slot1;
#X connect 1 0 36 0;
#X connect 2 0 31 0;
#X connect 3 0 2 0;
#X connect 4 0 44 0;
#X connect 6 0 47 0;
#X connect 7 0 50 0;
#X connect 8 0 64 0;
#X connect 9 0 64 0;
#X connect 10 0 64 0;
#X connect 11 0 64 0;
#X connect 13 0 20 0;
#X connect 14 0 21 0;
#X connect 15 0 18 0;
#X connect 16 0 17 0;
#X connect 22 0 70 0;
#X connect 23 0 71 0;
#X connect 27 0 73 0;
#X connect 28 0 27 0;
#X connect 29 0 72 0;
#X connect 30 0 29 0;
#X connect 32 0 33 0;
#X connect 34 0 35 0;
#X connect 35 0 31 0;
#X connect 37 0 38 0;
#X connect 38 0 40 0;
#X connect 40 0 39 0;
#X connect 41 0 36 0;
#X connect 43 0 63 0;
#X connect 45 0 46 0;
#X connect 48 0 49 0;
#X connect 51 0 52 0;
#X connect 55 0 56 0;
#X connect 57 0 58 0;
#X connect 61 0 42 0;
#X connect 62 0 42 0;
#X connect 63 0 5 0;
#X connect 65 0 68 0;
#X connect 65 0 66 0;
#X connect 65 0 67 0;
#X connect 65 0 69 0;
