#N canvas 65 87 866 629 10;
#X obj 128 49 inlet~;
#X obj 206 49 inlet;
#X obj 128 356 outlet~;
#X obj 247 353 outlet~;
#X obj 129 301 *~;
#X obj 248 301 *~;
#X obj 257 121 swap 1;
#X obj 257 149 -;
#X obj 159 216 lop~ 10;
#X obj 267 219 lop~ 10;
#X connect 0 0 4 0;
#X connect 0 0 5 0;
#X connect 1 0 6 0;
#X connect 1 0 8 0;
#X connect 4 0 2 0;
#X connect 5 0 3 0;
#X connect 6 0 7 0;
#X connect 6 1 7 1;
#X connect 7 0 9 0;
#X connect 8 0 4 1;
#X connect 9 0 5 1;
