#N canvas 65 82 364 133 10;
#X obj -223 17 inlet;
#X obj -223 61 / 127;
#X obj -223 100 line~;
#X msg -174 23 set \$1;
#X obj -174 4 inlet;
#X obj -223 37 t f b;
#X obj -223 120 outlet~;
#X msg -183 61 5;
#X connect 0 0 5 0;
#X connect 1 0 2 0;
#X connect 2 0 6 0;
#X connect 3 0 7 0;
#X connect 4 0 3 0;
#X connect 5 0 1 0;
#X connect 5 1 7 0;
#X connect 7 0 2 1;
