#N canvas 200 113 854 400 10;
#X obj 239 49 hsl 128 15 1 64 0 1 empty empty empty -2 -8 0 10 -262144
-1 -1 800 0;
#X obj 236 69 int;
#X floatatom 236 91 5 0 0 0 - - -, f 5;
#X obj 30 131 noise~;
#X obj 30 153 *~ 300;
#X obj 30 175 +~ 800;
#X obj 30 197 osc~;
#X obj 30 236 *~;
#X obj 79 219 vline~;
#X obj 30 341 dac~;
#X obj 189 164 euclidean 7 16;
#X obj 287 100 hsl 128 15 2 64 0 1 empty empty empty -2 -8 0 10 -262144
-1 -1 2900 0;
#X obj 284 120 int;
#X floatatom 284 142 5 0 0 0 - - -, f 5;
#X msg 79 198 0 \, 0.3 2 \, 0 8 2;
#X obj 29 313 *~ 1;
#X obj 648 37 hsl 128 15 1 64 0 1 empty empty empty -2 -8 0 10 -262144
-1 -1 4300 0;
#X obj 645 57 int;
#X floatatom 645 79 5 0 0 0 - - -, f 5;
#X obj 439 119 noise~;
#X obj 439 141 *~ 300;
#X obj 439 185 osc~;
#X obj 439 224 *~;
#X obj 488 207 vline~;
#X obj 439 329 dac~;
#X obj 696 88 hsl 128 15 2 64 0 1 empty empty empty -2 -8 0 10 -262144
-1 -1 6100 0;
#X obj 693 108 int;
#X floatatom 693 130 5 0 0 0 - - -, f 5;
#X msg 488 186 0 \, 0.3 2 \, 0 8 2;
#X obj 438 301 *~ 1;
#X obj 598 152 euclidean 9 16;
#X obj 30 20 tgl 15 0 empty empty empty 17 7 0 10 -262144 -1 -1 1 1
;
#X obj 30 40 metro 125;
#X obj 30 62 s met;
#X obj 189 137 r met;
#X obj 598 125 r met;
#X obj 436 163 +~ 2600;
#X connect 0 0 1 0;
#X connect 1 0 2 0;
#X connect 2 0 10 1;
#X connect 3 0 4 0;
#X connect 4 0 5 0;
#X connect 5 0 6 0;
#X connect 6 0 7 0;
#X connect 7 0 15 0;
#X connect 8 0 7 1;
#X connect 10 0 14 0;
#X connect 10 1 15 1;
#X connect 11 0 12 0;
#X connect 12 0 13 0;
#X connect 13 0 10 2;
#X connect 14 0 8 0;
#X connect 15 0 9 1;
#X connect 16 0 17 0;
#X connect 17 0 18 0;
#X connect 18 0 30 1;
#X connect 19 0 20 0;
#X connect 20 0 36 0;
#X connect 21 0 22 0;
#X connect 22 0 29 0;
#X connect 23 0 22 1;
#X connect 25 0 26 0;
#X connect 26 0 27 0;
#X connect 27 0 30 2;
#X connect 28 0 23 0;
#X connect 29 0 24 0;
#X connect 30 0 28 0;
#X connect 30 1 29 1;
#X connect 31 0 32 0;
#X connect 32 0 33 0;
#X connect 34 0 10 0;
#X connect 35 0 30 0;
#X connect 36 0 21 0;
