#N canvas 86 82 939 379 10;
#X declare -path ../../../../pd-party/droidparty-abstractions;
#X obj 9 90 hsl 128 25 0 32 0 0 num1.s num1.r Numerator 5 12 0 10 -262144
-1 -1 900 1;
#X obj 9 124 hsl 128 25 0 32 0 0 den1.s den1.r Denominator 5 12 0 10
-262144 -1 -1 3000 1;
#X obj 6 57 tgl 25 0 glitch1.s glitch1.r Glitch_1 30 12 0 10 -262144
-1 -1 0 1;
#N canvas 789 151 1301 714 guts 0;
#X obj 548 674 dac~;
#X obj 13 279 euclidean 7 16;
#X obj 437 619 hip~ 25;
#X obj 437 638 lop~ 20000;
#X obj 437 658 tanh~;
#N canvas 687 104 667 679 glitch2 0;
#X obj 159 174 samphold~;
#X obj 158 195 expr~ abs(1-pow($v1*3 \, 2));
#X obj 118 344 *~;
#X obj 198 327 vline~;
#X obj 98 12 vline~;
#X obj 215 -33 bng 15 250 50 0 empty empty empty 17 7 0 10 -262144
-1 -1;
#X obj 140 251 *~;
#X obj -24 45 expr~ floor(16*$v1 \, 0);
#X obj 155 225 hip~ 0.25;
#X obj -20 203 osc~ 25000;
#X obj -18 150 expr~ abs(1-pow($v1*3 \, 15));
#X msg 195 303 1 \, 0 100 50;
#X obj 260 -32 inlet;
#X obj 121 604 outlet~;
#X obj 210 155 expr~ modf(32*$v1);
#X obj -23 68 expr~ $v1%9;
#X obj -23 91 expr~ if($v1==0 \, 1 \, if ($v1==3 \, 0.75 \, if ($v1==7
\, 0.53 \, if($v1==8 || $v1 ==5 \, 0.8 \, 0))));
#X obj 0 176 *~ 0.5;
#X obj 128 461 *~;
#X obj 198 -2 t b f;
#X obj 223 438 env_adj;
#X msg 325 -8 127;
#X obj 123 548 osc~;
#X msg 100 -14 0.1 \, 1 1000;
#X obj 122 572 *~ 5;
#X obj 125 502 *~ 1000;
#X obj 123 523 +~ 5000;
#X obj 392 14 inlet;
#X obj 396 41 switch~;
#X connect 0 0 1 0;
#X connect 1 0 8 0;
#X connect 2 0 18 0;
#X connect 3 0 2 1;
#X connect 4 0 7 0;
#X connect 4 0 14 0;
#X connect 5 0 19 0;
#X connect 6 0 2 0;
#X connect 7 0 15 0;
#X connect 8 0 6 1;
#X connect 9 0 6 0;
#X connect 10 0 17 0;
#X connect 11 0 3 0;
#X connect 12 0 19 0;
#X connect 14 0 0 1;
#X connect 15 0 16 0;
#X connect 16 0 0 0;
#X connect 16 0 10 0;
#X connect 17 0 9 0;
#X connect 18 0 25 0;
#X connect 19 0 23 0;
#X connect 19 0 11 0;
#X connect 19 1 20 0;
#X connect 20 0 18 1;
#X connect 21 0 19 0;
#X connect 22 0 24 0;
#X connect 23 0 4 0;
#X connect 24 0 13 0;
#X connect 25 0 26 0;
#X connect 26 0 22 0;
#X connect 27 0 28 0;
#X restore 644 288 pd glitch2;
#N canvas 65 54 1301 714 elliptic2-reverse 0;
#X obj -403 31 expr~ if($v1==0 \, 1 \, if ($v1==3 \, 0.5 \, if ($v1==7
\, -0.68 \, 0)));
#X obj -343 219 *~;
#X obj -293 127 samphold~;
#X obj -295 156 expr~ abs(1-pow($v1*3 \, 3));
#X obj -401 66 expr~ abs(1-pow($v1*3 \, 5));
#X obj -389 -30 expr~ floor(16*$v1 \, 0);
#X obj -388 -7 expr~ $v1%8;
#X obj -295 187 lop~ 15;
#X obj -222 96 expr~ modf(16*$v1);
#X obj -358 292 *~;
#X obj -278 275 vline~;
#X obj -304 -62 vline~;
#X obj -317 -194 bng 15 250 50 0 empty empty empty 17 7 0 10 -262144
-1 -1;
#X obj -399 138 osc~ 100;
#X obj -354 443 outlet~;
#X obj -147 -194 inlet;
#X obj -332 396 *~;
#X obj -302 -110 t b f;
#X obj -397 109 *~ 8;
#X obj -237 373 env_adj;
#X msg -316 -157 127;
#X msg -281 250 1 \, 0 125;
#X obj -301 349 osc~;
#X obj -303 298 *~ 1000;
#X msg -302 -88 1 \, 0 2048;
#X obj -358 336 *~ 100;
#X obj -72 -181 inlet;
#X obj -68 -154 switch~;
#X connect 0 0 2 0;
#X connect 0 0 4 0;
#X connect 1 0 9 0;
#X connect 2 0 3 0;
#X connect 3 0 7 0;
#X connect 4 0 18 0;
#X connect 5 0 6 0;
#X connect 6 0 0 0;
#X connect 7 0 1 1;
#X connect 8 0 2 1;
#X connect 9 0 23 0;
#X connect 9 0 25 0;
#X connect 10 0 9 1;
#X connect 11 0 5 0;
#X connect 11 0 8 0;
#X connect 13 0 1 0;
#X connect 15 0 17 0;
#X connect 16 0 14 0;
#X connect 17 0 24 0;
#X connect 17 0 21 0;
#X connect 17 1 19 0;
#X connect 18 0 13 0;
#X connect 19 0 16 1;
#X connect 20 0 17 0;
#X connect 21 0 10 0;
#X connect 22 0 16 0;
#X connect 23 0 22 0;
#X connect 24 0 11 0;
#X connect 25 0 16 0;
#X connect 26 0 27 0;
#X restore 895 293 pd elliptic2-reverse;
#N canvas 665 107 667 679 gritt 0;
#X obj 342 285 *~;
#X obj 413 268 vline~;
#X obj 359 162 expr~ floor ($v1*$v2 \, 0);
#X obj 343 257 *~;
#X obj 359 185 expr~ $v1%3;
#X obj 458 139 sig~ 96;
#X obj 343 211 osc~ 15000;
#X obj 359 142 vline~;
#X msg 359 117 0 \, 1 2041;
#X msg 413 243 0.5 \, 0 200;
#X obj 342 236 *~ 1;
#X obj 396 -21 inlet;
#X obj 373 417 outlet~;
#X obj 399 320 *~;
#X obj 409 34 t b f;
#X obj 494 297 env_adj;
#X msg 168 24 127, f 11;
#X obj 390 4 * 127;
#X obj 374 387 *~ 10000;
#X obj 518 14 inlet;
#X obj 522 41 switch~;
#X connect 0 0 13 0;
#X connect 1 0 0 1;
#X connect 2 0 4 0;
#X connect 3 0 0 0;
#X connect 4 0 3 1;
#X connect 5 0 2 1;
#X connect 6 0 10 0;
#X connect 7 0 2 0;
#X connect 8 0 7 0;
#X connect 9 0 1 0;
#X connect 10 0 3 0;
#X connect 11 0 17 0;
#X connect 13 0 18 0;
#X connect 14 0 8 0;
#X connect 14 0 9 0;
#X connect 14 1 15 0;
#X connect 15 0 13 1;
#X connect 16 0 14 0;
#X connect 17 0 14 0;
#X connect 18 0 12 0;
#X connect 19 0 20 0;
#X restore 1116 294 pd gritt;
#N canvas 65 97 1301 686 glitch 0;
#X obj 153 138 samphold~;
#X obj -23 91 expr~ if($v1==0 \, 1 \, if ($v1==3 \, 0.75 \, if ($v1==7
\, 0.53 \, 0)));
#X obj 204 119 expr~ modf(8*$v1);
#X obj 152 159 expr~ abs(1-pow($v1*3 \, 2));
#X obj 112 308 *~;
#X obj 192 291 vline~;
#X obj 98 12 vline~;
#X obj 215 -33 bng 15 250 50 0 empty empty empty 17 7 0 10 -262144
-1 -1;
#X obj 134 215 *~;
#X obj 149 189 hip~ 0.25;
#X obj -26 167 osc~ 25000;
#X obj -25 145 *~ 8;
#X obj -24 114 expr~ abs(1-pow($v1*3 \, 15));
#X obj 260 -32 inlet;
#X obj 124 537 outlet~;
#X obj -23 68 expr~ $v1%5;
#X obj -24 45 expr~ floor(16*$v1 \, 0);
#X obj 133 473 *~;
#X obj 198 -2 t b f;
#X obj 228 450 env_adj;
#X msg 165 -34 127;
#X obj 21 243 *~ 1000;
#X obj 82 237 *~ 1002;
#X obj 21 282 osc~;
#X obj 83 286 osc~;
#X obj 81 262 +~ 127;
#X obj 258 -5 * 127;
#X obj 132 508 tanh~;
#X msg 100 -14 1 \, 0 100;
#X msg 189 266 1 \, 0 50 100;
#X obj 125 359 *~ 10;
#X obj 392 14 inlet;
#X obj 396 41 switch~;
#X connect 0 0 3 0;
#X connect 1 0 0 0;
#X connect 1 0 12 0;
#X connect 2 0 0 1;
#X connect 3 0 9 0;
#X connect 4 0 30 0;
#X connect 5 0 4 1;
#X connect 6 0 2 0;
#X connect 6 0 16 0;
#X connect 7 0 18 0;
#X connect 8 0 21 0;
#X connect 8 0 22 0;
#X connect 9 0 8 1;
#X connect 10 0 8 0;
#X connect 11 0 10 0;
#X connect 12 0 11 0;
#X connect 13 0 26 0;
#X connect 15 0 1 0;
#X connect 16 0 15 0;
#X connect 17 0 27 0;
#X connect 18 0 28 0;
#X connect 18 0 29 0;
#X connect 18 1 19 0;
#X connect 19 0 17 1;
#X connect 20 0 18 0;
#X connect 21 0 23 0;
#X connect 22 0 25 0;
#X connect 23 0 4 0;
#X connect 24 0 4 0;
#X connect 25 0 24 0;
#X connect 26 0 18 0;
#X connect 27 0 14 0;
#X connect 28 0 6 0;
#X connect 29 0 5 0;
#X connect 30 0 17 0;
#X connect 31 0 32 0;
#X restore 416 281 pd glitch;
#X obj 682 619 hip~ 25;
#X obj 682 638 lop~ 20000;
#X obj 682 658 tanh~;
#X obj 13 218 spigot;
#N canvas 65 99 667 679 elliptic 0;
#X obj 191 334 *~;
#X obj 189 256 osc~ 26000;
#X obj 259 313 vline~;
#X obj 188 280 *~ 0.5;
#X obj 189 302 +~;
#X obj 204 198 expr~ floor ($v1*$v2 \, 0);
#X obj 204 221 expr~ $v1%2;
#X obj 294 174 sig~ 25;
#X obj 203 177 vline~;
#X obj 238 29 inlet;
#X obj 241 479 outlet~;
#X obj 268 367 *~;
#X obj 239 65 t b f;
#X obj 363 344 env_adj;
#X msg 136 33 127;
#X msg 203 152 0 \, 1 1024;
#X obj 253 392 *~ 100;
#X obj 254 418 +~ 100;
#X msg 259 291 1 \, 0 100;
#X obj 392 14 inlet;
#X obj 396 41 switch~;
#X connect 0 0 11 0;
#X connect 1 0 3 0;
#X connect 2 0 0 1;
#X connect 3 0 4 0;
#X connect 4 0 0 0;
#X connect 5 0 6 0;
#X connect 6 0 4 1;
#X connect 7 0 5 1;
#X connect 8 0 5 0;
#X connect 9 0 12 0;
#X connect 11 0 16 0;
#X connect 12 0 15 0;
#X connect 12 0 18 0;
#X connect 12 1 13 0;
#X connect 13 0 11 1;
#X connect 14 0 12 0;
#X connect 15 0 8 0;
#X connect 16 0 17 0;
#X connect 17 0 10 0;
#X connect 18 0 2 0;
#X connect 19 0 20 0;
#X restore 208 288 pd elliptic;
#X obj 5 483 cos_panner;
#N canvas 65 122 703 510 tick3 0;
#X obj 159 47 noise~;
#X obj 160 313 *~;
#X obj 333 254 vline~;
#X obj 163 214 bp~ 2000 5;
#X obj 269 13 inlet;
#X obj 159 360 outlet~;
#X obj 184 133 random 10000;
#X obj 272 55 t b b b;
#X obj 229 36 bng 15 250 50 0 empty empty empty 17 7 0 10 -262144 -1
-1;
#X obj 185 168 + 10000;
#X obj 161 335 *~ 1000;
#X obj 392 14 inlet;
#X obj 396 41 switch~;
#X msg 333 235 0 \, 1 2 \, 0 \$1 2;
#X obj 334 207 f 50;
#X obj 234 168 r g1_tone.s;
#X obj 350 172 r g1_decay.s;
#X connect 0 0 3 0;
#X connect 1 0 10 0;
#X connect 2 0 1 1;
#X connect 3 0 1 0;
#X connect 4 0 7 0;
#X connect 6 0 9 0;
#X connect 7 0 6 0;
#X connect 7 2 14 0;
#X connect 8 0 7 0;
#X connect 9 0 3 1;
#X connect 10 0 5 0;
#X connect 11 0 12 0;
#X connect 13 0 2 0;
#X connect 14 0 13 0;
#X connect 15 0 3 2;
#X connect 16 0 14 1;
#X restore 5 311 pd tick3;
#X obj 101 466 random 2;
#X obj 5 336 *~;
#X obj 13 238 t b b;
#X obj 74 201 r glitch1.s;
#X obj 53 238 r num1.s;
#X obj 94 258 r den1.s;
#X obj 216 254 euclidean 7 16;
#X obj 216 193 spigot;
#X obj 208 311 *~;
#X obj 216 213 t b b;
#X obj 271 176 r glitch2.s;
#X obj 256 213 r num2.s;
#X obj 297 233 r den2.s;
#X obj 446 258 euclidean 7 16;
#X obj 446 197 spigot;
#X obj 416 309 *~;
#X obj 446 217 t b b;
#X obj 479 167 r glitch3.s;
#X obj 486 217 r num3.s;
#X obj 527 237 r den3.s;
#X obj 674 265 euclidean 7 16;
#X obj 674 204 spigot;
#X obj 644 315 *~;
#X obj 674 224 t b b;
#X obj 704 173 r glitch4.s;
#X obj 714 224 r num4.s;
#X obj 755 244 r den4.s;
#X obj 926 270 euclidean 7 16;
#X obj 926 209 spigot;
#X obj 896 316 *~;
#X obj 926 229 t b b;
#X obj 959 179 r glitch5.s;
#X obj 966 229 r num5.s;
#X obj 1007 249 r den5.s;
#X obj 1146 267 euclidean 7 16;
#X obj 1146 206 spigot;
#X obj 1116 324 *~;
#X obj 1146 226 t b b;
#X obj 1179 176 r glitch6.s;
#X obj 1186 226 r num6.s;
#X obj 1227 246 r den6.s;
#X text 33 -5 remap clock;
#X text 27 28 stream some synthesis parameters upwards;
#X text 20 49 parametrize panners ie radiobutton (left \, center \,
right \, random);
#X obj 516 72 bang, f 19;
#X obj 517 51 change, f 19;
#X obj 517 30 i, f 19;
#X obj 517 8 / 24, f 19;
#X obj 517 -13 clock, f 19;
#X obj 56 338 r panner1_mode.s;
#X obj 41 382 select 0 1 2 3;
#X msg 41 405 0;
#X msg 61 426 0.5;
#X msg 81 447 1;
#X obj 41 362 f;
#X obj 207 465 cos_panner;
#X obj 303 448 random 2;
#X obj 243 364 select 0 1 2 3;
#X msg 243 387 0;
#X msg 263 408 0.5;
#X msg 283 429 1;
#X obj 243 344 f;
#X obj 258 320 r panner2_mode.s;
#X obj 417 449 cos_panner;
#X obj 513 432 random 2;
#X obj 453 348 select 0 1 2 3;
#X msg 453 371 0;
#X msg 473 392 0.5;
#X msg 493 413 1;
#X obj 453 328 f;
#X obj 468 304 r panner3_mode.s;
#X obj 644 458 cos_panner;
#X obj 740 441 random 2;
#X obj 680 357 select 0 1 2 3;
#X msg 680 380 0;
#X msg 700 401 0.5;
#X msg 720 422 1;
#X obj 680 337 f;
#X obj 897 470 cos_panner;
#X obj 993 453 random 2;
#X obj 933 369 select 0 1 2 3;
#X msg 933 392 0;
#X msg 953 413 0.5;
#X msg 973 434 1;
#X obj 933 349 f;
#X obj 695 313 r panner4_mode.s;
#X obj 948 325 r panner5_mode.s;
#X obj 1117 465 cos_panner;
#X obj 1213 448 random 2;
#X obj 1153 364 select 0 1 2 3;
#X msg 1153 387 0;
#X msg 1173 408 0.5;
#X msg 1193 429 1;
#X obj 1153 344 f;
#X obj 1168 320 r panner6_mode.s;
#X connect 1 1 15 0;
#X connect 2 0 3 0;
#X connect 3 0 4 0;
#X connect 4 0 0 0;
#X connect 5 0 38 0;
#X connect 5 0 38 1;
#X connect 6 0 45 0;
#X connect 6 0 45 1;
#X connect 7 0 52 0;
#X connect 7 0 52 1;
#X connect 8 0 31 0;
#X connect 8 0 31 1;
#X connect 9 0 10 0;
#X connect 10 0 11 0;
#X connect 11 0 0 1;
#X connect 12 0 18 0;
#X connect 13 0 24 0;
#X connect 13 0 24 1;
#X connect 14 0 2 0;
#X connect 14 1 9 0;
#X connect 15 0 17 0;
#X connect 15 0 17 1;
#X connect 16 0 14 1;
#X connect 17 0 14 0;
#X connect 18 0 1 0;
#X connect 18 1 70 0;
#X connect 19 0 12 1;
#X connect 19 0 15 1;
#X connect 20 0 1 1;
#X connect 21 0 1 2;
#X connect 22 1 13 0;
#X connect 23 0 25 0;
#X connect 24 0 71 0;
#X connect 25 0 22 0;
#X connect 25 1 77 0;
#X connect 26 0 23 1;
#X connect 26 0 13 1;
#X connect 27 0 22 1;
#X connect 28 0 22 2;
#X connect 29 1 8 0;
#X connect 30 0 32 0;
#X connect 31 0 79 0;
#X connect 32 0 29 0;
#X connect 32 1 85 0;
#X connect 33 0 30 1;
#X connect 33 0 8 1;
#X connect 34 0 29 1;
#X connect 35 0 29 2;
#X connect 36 1 5 0;
#X connect 37 0 39 0;
#X connect 38 0 87 0;
#X connect 39 0 36 0;
#X connect 39 1 93 0;
#X connect 40 0 37 1;
#X connect 40 0 5 1;
#X connect 41 0 36 1;
#X connect 42 0 36 2;
#X connect 43 1 6 0;
#X connect 44 0 46 0;
#X connect 45 0 94 0;
#X connect 46 0 43 0;
#X connect 46 1 100 0;
#X connect 47 0 44 1;
#X connect 47 0 6 1;
#X connect 48 0 43 1;
#X connect 49 0 43 2;
#X connect 50 1 7 0;
#X connect 51 0 53 0;
#X connect 52 0 103 0;
#X connect 53 0 50 0;
#X connect 53 1 109 0;
#X connect 54 0 51 1;
#X connect 54 0 7 1;
#X connect 55 0 50 1;
#X connect 56 0 50 2;
#X connect 60 0 12 0;
#X connect 60 0 23 0;
#X connect 60 0 30 0;
#X connect 60 0 37 0;
#X connect 60 0 44 0;
#X connect 60 0 51 0;
#X connect 61 0 60 0;
#X connect 62 0 61 0;
#X connect 63 0 62 0;
#X connect 64 0 63 0;
#X connect 65 0 70 1;
#X connect 66 0 67 0;
#X connect 66 1 68 0;
#X connect 66 2 69 0;
#X connect 66 3 16 0;
#X connect 67 0 14 1;
#X connect 68 0 14 1;
#X connect 69 0 14 1;
#X connect 70 0 66 0;
#X connect 71 0 2 0;
#X connect 71 1 9 0;
#X connect 72 0 71 1;
#X connect 73 0 74 0;
#X connect 73 1 75 0;
#X connect 73 2 76 0;
#X connect 73 3 72 0;
#X connect 74 0 71 1;
#X connect 75 0 71 1;
#X connect 76 0 71 1;
#X connect 77 0 73 0;
#X connect 78 0 77 1;
#X connect 79 0 2 0;
#X connect 79 1 9 0;
#X connect 80 0 79 1;
#X connect 81 0 82 0;
#X connect 81 1 83 0;
#X connect 81 2 84 0;
#X connect 81 3 80 0;
#X connect 82 0 79 1;
#X connect 83 0 79 1;
#X connect 84 0 79 1;
#X connect 85 0 81 0;
#X connect 86 0 85 1;
#X connect 87 0 2 0;
#X connect 87 1 9 0;
#X connect 88 0 87 1;
#X connect 89 0 90 0;
#X connect 89 1 91 0;
#X connect 89 2 92 0;
#X connect 89 3 88 0;
#X connect 90 0 87 1;
#X connect 91 0 87 1;
#X connect 92 0 87 1;
#X connect 93 0 89 0;
#X connect 94 0 2 0;
#X connect 94 1 9 0;
#X connect 95 0 94 1;
#X connect 96 0 97 0;
#X connect 96 1 98 0;
#X connect 96 2 99 0;
#X connect 96 3 95 0;
#X connect 97 0 94 1;
#X connect 98 0 94 1;
#X connect 99 0 94 1;
#X connect 100 0 96 0;
#X connect 101 0 93 1;
#X connect 102 0 100 1;
#X connect 103 0 2 0;
#X connect 103 1 9 0;
#X connect 104 0 103 1;
#X connect 105 0 106 0;
#X connect 105 1 107 0;
#X connect 105 2 108 0;
#X connect 105 3 104 0;
#X connect 106 0 103 1;
#X connect 107 0 103 1;
#X connect 108 0 103 1;
#X connect 109 0 105 0;
#X connect 110 0 109 1;
#X restore 6 323 pd guts;
#X obj 158 91 hsl 128 25 0 32 0 0 num2.s num2.r Numerator 5 12 0 10
-262144 -1 -1 1600 1;
#X obj 158 125 hsl 128 25 0 32 0 0 den2.s den2.r Denominator 5 12 0
10 -262144 -1 -1 4200 1;
#X obj 155 58 tgl 25 0 glitch2.s glitch2.r Glitch_2 30 12 0 10 -262144
-1 -1 0 1;
#X obj 306 91 hsl 128 25 0 32 0 0 num3.s num3.r Numerator 5 12 0 10
-262144 -1 -1 2600 1;
#X obj 306 125 hsl 128 25 0 32 0 0 den3.s den3.r Denominator 5 12 0
10 -262144 -1 -1 5000 1;
#X obj 303 58 tgl 25 0 glitch3.s glitch3.r Glitch_3 30 12 0 10 -262144
-1 -1 0 1;
#X obj 452 92 hsl 128 25 0 32 0 0 num4.s num4.r Numerator 5 12 0 10
-262144 -1 -1 1700 1;
#X obj 452 126 hsl 128 25 0 32 0 0 den4.s den4.r Denominator 5 12 0
10 -262144 -1 -1 7700 1;
#X obj 449 59 tgl 25 0 glitch4.s glitch4.r Glitch_4 30 12 0 10 -262144
-1 -1 0 1;
#X obj 601 93 hsl 128 25 0 32 0 0 num5.s num5.r Numerator 5 12 0 10
-262144 -1 -1 6700 1;
#X obj 601 127 hsl 128 25 0 32 0 0 den5.s den5.r Denominator 5 12 0
10 -262144 -1 -1 9000 1;
#X obj 598 60 tgl 25 0 glitch5.s glitch5.r Glitch_5 30 12 0 10 -262144
-1 -1 0 1;
#X obj 749 93 hsl 128 25 0 32 0 0 num6.s num6.r Numerator 5 12 0 10
-262144 -1 -1 2100 1;
#X obj 749 127 hsl 128 25 0 32 0 0 den6.s den6.r Denominator 5 12 0
10 -262144 -1 -1 8600 1;
#X obj 746 60 tgl 25 0 glitch6.s glitch6.r Glitch_6 30 12 0 10 -262144
-1 -1 0 1;
#X obj 8 345 clock-gui;
#N canvas 700 107 651 686 loadsave 1;
#X obj 7 10 persist-map storage glitch1.s glitch1.r;
#X obj 7 31 persist-map storage num1.s num1.r;
#X obj 7 52 persist-map storage den1.s den1.r;
#X obj 7 117 persist-map storage glitch2.s glitch2.r;
#X obj 7 138 persist-map storage num2.s num2.r;
#X obj 7 159 persist-map storage den2.s den2.r;
#X obj 8 241 persist-map storage glitch3.s glitch3.r;
#X obj 8 262 persist-map storage num3.s num3.r;
#X obj 8 282 persist-map storage den3.s den3.r;
#X obj 7 347 persist-map storage glitch4.s glitch4.r;
#X obj 7 368 persist-map storage num4.s num4.r;
#X obj 7 388 persist-map storage den4.s den4.r;
#X obj 7 450 persist-map storage glitch5.s glitch5.r;
#X obj 7 470 persist-map storage num5.s num5.r;
#X obj 7 490 persist-map storage den5.s den5.r;
#X obj 7 550 persist-map storage glitch6.s glitch6.r;
#X obj 7 571 persist-map storage num6.s num6.r;
#X obj 7 591 persist-map storage den6.s den6.r;
#X obj 431 14 r load;
#X msg 431 35 \; storage load presets cbs;
#X obj 431 70 r storage-load;
#X obj 431 90 persist-load storage;
#X obj 433 197 persist-save storage;
#X obj 433 177 r storage-save;
#X obj 432 121 r save;
#X msg 432 141 \; storage save presets cbs;
#X obj 7 181 persist-map storage panner2_mode.s panner2_mode.r;
#X obj 7 73 persist-map storage panner1_mode.s panner1_mode.r;
#X obj 8 301 persist-map storage panner3_mode.s panner3_mode.r;
#X obj 7 408 persist-map storage panner4_mode.s panner4_mode.r;
#X obj 6 511 persist-map storage panner5_mode.s panner5_mode.r;
#X obj 7 611 persist-map storage panner5_mode.s panner5_mode.r;
#X connect 18 0 19 0;
#X connect 20 0 21 0;
#X connect 23 0 22 0;
#X connect 24 0 25 0;
#X restore 230 346 pd loadsave;
#X obj 84 323 loadsave storage;
#X obj 9 375 declare -path ../../../../pd-party/droidparty-abstractions
;
#X obj 6 10 bng 30 250 50 0 load empty Load 0 -7 0 10 -262144 -1 -1
;
#X obj 112 9 bng 30 250 50 0 save empty Save 0 -7 0 10 -262144 -1 -1
;
#X obj 6 159 hradio 33 1 0 4 panner1_mode.s panner1_mode.r empty 0
-8 0 10 -262144 -1 -1 3;
#X obj 6 203 hsl 128 25 2 20 0 0 g1_tone.s g1_tone.r Tone 5 12 0 10
-262144 -1 -1 3400 1;
#X obj 6 240 hsl 128 25 10 100 0 0 g1_decay.s g1_decay.r Decay 5 12
0 10 -262144 -1 -1 3300 1;
#X obj 156 159 hradio 33 1 0 4 panner2_mode.s panner2_mode.r empty
0 -8 0 10 -262144 -1 -1 0;
#X obj 303 158 hradio 33 1 0 4 panner3_mode.s panner3_mode.r empty
0 -8 0 10 -262144 -1 -1 3;
#X obj 449 159 hradio 33 1 0 4 panner4_mode.s panner4_mode.r empty
0 -8 0 10 -262144 -1 -1 3;
#X obj 598 160 hradio 33 1 0 4 panner5_mode.s panner5_mode.r empty
0 -8 0 10 -262144 -1 -1 3;
#X obj 747 161 hradio 33 1 0 4 panner6_mode.s panner6_mode.r empty
0 -8 0 10 -262144 -1 -1 3;
