#N canvas 317 176 475 379 10;
#X declare -path ../../../../pd-party/droidparty-abstractions;
#X obj 9 90 hsl 128 25 0 32 0 0 num1.s num1.r Numerator 5 12 0 10 -262144
-1 -1 0 1;
#X obj 9 124 hsl 128 25 0 32 0 0 den1.s den1.r Denominator 5 12 0 10
-262144 -1 -1 0 1;
#X obj 6 57 tgl 25 0 glitch1.s glitch1.r Glitch_1 30 12 0 10 -262144
-1 -1 0 1;
#N canvas 571 87 651 686 guts 1;
#X obj 526 657 dac~;
#X obj 66 256 euclidean 7 16;
#X obj 415 602 hip~ 25;
#X obj 415 621 lop~ 20000;
#X obj 415 641 tanh~;
#N canvas 690 99 667 679 glitch2 0;
#X obj 159 174 samphold~;
#X obj 158 195 expr~ abs(1-pow($v1*3 \, 2));
#X obj 118 344 *~;
#X obj 198 327 vline~;
#X obj 98 12 vline~;
#X obj 215 -33 bng 15 250 50 0 empty empty empty 17 7 0 10 -262144
-1 -1;
#X obj 140 251 *~;
#X obj -24 45 expr~ floor(16*$v1 \, 0);
#X obj 155 225 hip~ 0.25;
#X obj -20 203 osc~ 25000;
#X obj -18 150 expr~ abs(1-pow($v1*3 \, 15));
#X msg 195 303 1 \, 0 100 50;
#X obj 260 -32 inlet;
#X obj 121 604 outlet~;
#X obj 210 155 expr~ modf(32*$v1);
#X obj -23 68 expr~ $v1%9;
#X obj -23 91 expr~ if($v1==0 \, 1 \, if ($v1==3 \, 0.75 \, if ($v1==7
\, 0.53 \, if($v1==8 || $v1 ==5 \, 0.8 \, 0))));
#X obj 0 176 *~ 0.5;
#X obj 128 461 *~;
#X obj 198 -2 t b f;
#X obj 223 438 env_adj;
#X msg 325 -8 127;
#X obj 123 548 osc~;
#X msg 100 -14 0.1 \, 1 1000;
#X obj 122 572 *~ 5;
#X obj 125 502 *~ 1000;
#X obj 123 523 +~ 5000;
#X obj 392 14 inlet;
#X obj 396 41 switch~;
#X connect 0 0 1 0;
#X connect 1 0 8 0;
#X connect 2 0 18 0;
#X connect 3 0 2 1;
#X connect 4 0 7 0;
#X connect 4 0 14 0;
#X connect 5 0 19 0;
#X connect 6 0 2 0;
#X connect 7 0 15 0;
#X connect 8 0 6 1;
#X connect 9 0 6 0;
#X connect 10 0 17 0;
#X connect 11 0 3 0;
#X connect 12 0 19 0;
#X connect 14 0 0 1;
#X connect 15 0 16 0;
#X connect 16 0 0 0;
#X connect 16 0 10 0;
#X connect 17 0 9 0;
#X connect 18 0 25 0;
#X connect 19 0 23 0;
#X connect 19 0 11 0;
#X connect 19 1 20 0;
#X connect 20 0 18 1;
#X connect 21 0 19 0;
#X connect 22 0 24 0;
#X connect 23 0 4 0;
#X connect 24 0 13 0;
#X connect 25 0 26 0;
#X connect 26 0 22 0;
#X connect 27 0 28 0;
#X restore 604 283 pd glitch2;
#N canvas 65 54 1301 714 elliptic2-reverse 0;
#X obj -403 31 expr~ if($v1==0 \, 1 \, if ($v1==3 \, 0.5 \, if ($v1==7
\, -0.68 \, 0)));
#X obj -343 219 *~;
#X obj -293 127 samphold~;
#X obj -295 156 expr~ abs(1-pow($v1*3 \, 3));
#X obj -401 66 expr~ abs(1-pow($v1*3 \, 5));
#X obj -389 -30 expr~ floor(16*$v1 \, 0);
#X obj -388 -7 expr~ $v1%8;
#X obj -295 187 lop~ 15;
#X obj -222 96 expr~ modf(16*$v1);
#X obj -358 292 *~;
#X obj -278 275 vline~;
#X obj -304 -62 vline~;
#X obj -317 -194 bng 15 250 50 0 empty empty empty 17 7 0 10 -262144
-1 -1;
#X obj -399 138 osc~ 100;
#X obj -354 443 outlet~;
#X obj -147 -194 inlet;
#X obj -332 396 *~;
#X obj -302 -110 t b f;
#X obj -397 109 *~ 8;
#X obj -237 373 env_adj;
#X msg -316 -157 127;
#X msg -281 250 1 \, 0 125;
#X obj -301 349 osc~;
#X obj -303 298 *~ 1000;
#X msg -302 -88 1 \, 0 2048;
#X obj -358 336 *~ 100;
#X obj -72 -181 inlet;
#X obj -68 -154 switch~;
#X connect 0 0 2 0;
#X connect 0 0 4 0;
#X connect 1 0 9 0;
#X connect 2 0 3 0;
#X connect 3 0 7 0;
#X connect 4 0 18 0;
#X connect 5 0 6 0;
#X connect 6 0 0 0;
#X connect 7 0 1 1;
#X connect 8 0 2 1;
#X connect 9 0 23 0;
#X connect 9 0 25 0;
#X connect 10 0 9 1;
#X connect 11 0 5 0;
#X connect 11 0 8 0;
#X connect 13 0 1 0;
#X connect 15 0 17 0;
#X connect 16 0 14 0;
#X connect 17 0 24 0;
#X connect 17 0 21 0;
#X connect 17 1 19 0;
#X connect 18 0 13 0;
#X connect 19 0 16 1;
#X connect 20 0 17 0;
#X connect 21 0 10 0;
#X connect 22 0 16 0;
#X connect 23 0 22 0;
#X connect 24 0 11 0;
#X connect 25 0 16 0;
#X connect 26 0 27 0;
#X restore 793 286 pd elliptic2-reverse;
#N canvas 665 107 667 679 gritt 0;
#X obj 342 285 *~;
#X obj 413 268 vline~;
#X obj 359 162 expr~ floor ($v1*$v2 \, 0);
#X obj 343 257 *~;
#X obj 359 185 expr~ $v1%3;
#X obj 458 139 sig~ 96;
#X obj 343 211 osc~ 15000;
#X obj 359 142 vline~;
#X msg 359 117 0 \, 1 2041;
#X msg 413 243 0.5 \, 0 200;
#X obj 342 236 *~ 1;
#X obj 396 -21 inlet;
#X obj 373 417 outlet~;
#X obj 399 320 *~;
#X obj 409 34 t b f;
#X obj 494 297 env_adj;
#X msg 168 24 127, f 11;
#X obj 390 4 * 127;
#X obj 374 387 *~ 10000;
#X obj 518 14 inlet;
#X obj 522 41 switch~;
#X connect 0 0 13 0;
#X connect 1 0 0 1;
#X connect 2 0 4 0;
#X connect 3 0 0 0;
#X connect 4 0 3 1;
#X connect 5 0 2 1;
#X connect 6 0 10 0;
#X connect 7 0 2 0;
#X connect 8 0 7 0;
#X connect 9 0 1 0;
#X connect 10 0 3 0;
#X connect 11 0 17 0;
#X connect 13 0 18 0;
#X connect 14 0 8 0;
#X connect 14 0 9 0;
#X connect 14 1 15 0;
#X connect 15 0 13 1;
#X connect 16 0 14 0;
#X connect 17 0 14 0;
#X connect 18 0 12 0;
#X connect 19 0 20 0;
#X restore 976 283 pd gritt;
#N canvas 65 97 1301 686 glitch 0;
#X obj 153 138 samphold~;
#X obj -23 91 expr~ if($v1==0 \, 1 \, if ($v1==3 \, 0.75 \, if ($v1==7
\, 0.53 \, 0)));
#X obj 204 119 expr~ modf(8*$v1);
#X obj 152 159 expr~ abs(1-pow($v1*3 \, 2));
#X obj 112 308 *~;
#X obj 192 291 vline~;
#X obj 98 12 vline~;
#X obj 215 -33 bng 15 250 50 0 empty empty empty 17 7 0 10 -262144
-1 -1;
#X obj 134 215 *~;
#X obj 149 189 hip~ 0.25;
#X obj -26 167 osc~ 25000;
#X obj -25 145 *~ 8;
#X obj -24 114 expr~ abs(1-pow($v1*3 \, 15));
#X obj 260 -32 inlet;
#X obj 124 537 outlet~;
#X obj -23 68 expr~ $v1%5;
#X obj -24 45 expr~ floor(16*$v1 \, 0);
#X obj 133 473 *~;
#X obj 198 -2 t b f;
#X obj 228 450 env_adj;
#X msg 165 -34 127;
#X obj 21 243 *~ 1000;
#X obj 82 237 *~ 1002;
#X obj 21 282 osc~;
#X obj 83 286 osc~;
#X obj 81 262 +~ 127;
#X obj 258 -5 * 127;
#X obj 132 508 tanh~;
#X msg 100 -14 1 \, 0 100;
#X msg 189 266 1 \, 0 50 100;
#X obj 125 359 *~ 10;
#X obj 392 14 inlet;
#X obj 396 41 switch~;
#X connect 0 0 3 0;
#X connect 1 0 0 0;
#X connect 1 0 12 0;
#X connect 2 0 0 1;
#X connect 3 0 9 0;
#X connect 4 0 30 0;
#X connect 5 0 4 1;
#X connect 6 0 2 0;
#X connect 6 0 16 0;
#X connect 7 0 18 0;
#X connect 8 0 21 0;
#X connect 8 0 22 0;
#X connect 9 0 8 1;
#X connect 10 0 8 0;
#X connect 11 0 10 0;
#X connect 12 0 11 0;
#X connect 13 0 26 0;
#X connect 15 0 1 0;
#X connect 16 0 15 0;
#X connect 17 0 27 0;
#X connect 18 0 28 0;
#X connect 18 0 29 0;
#X connect 18 1 19 0;
#X connect 19 0 17 1;
#X connect 20 0 18 0;
#X connect 21 0 23 0;
#X connect 22 0 25 0;
#X connect 23 0 4 0;
#X connect 24 0 4 0;
#X connect 25 0 24 0;
#X connect 26 0 18 0;
#X connect 27 0 14 0;
#X connect 28 0 6 0;
#X connect 29 0 5 0;
#X connect 30 0 17 0;
#X connect 31 0 32 0;
#X restore 416 281 pd glitch;
#X obj 660 602 hip~ 25;
#X obj 660 621 lop~ 20000;
#X obj 660 641 tanh~;
#X obj 66 195 spigot;
#N canvas 65 94 667 679 elliptic 0;
#X obj 191 334 *~;
#X obj 189 256 osc~ 26000;
#X obj 259 313 vline~;
#X obj 188 280 *~ 0.5;
#X obj 189 302 +~;
#X obj 204 198 expr~ floor ($v1*$v2 \, 0);
#X obj 204 221 expr~ $v1%2;
#X obj 294 174 sig~ 25;
#X obj 203 177 vline~;
#X obj 238 29 inlet;
#X obj 241 479 outlet~;
#X obj 268 367 *~;
#X obj 239 65 t b f;
#X obj 363 344 env_adj;
#X msg 136 33 127;
#X msg 203 152 0 \, 1 1024;
#X obj 253 392 *~ 100;
#X obj 254 418 +~ 100;
#X msg 259 291 1 \, 0 100;
#X obj 392 14 inlet;
#X obj 396 41 switch~;
#X connect 0 0 11 0;
#X connect 1 0 3 0;
#X connect 2 0 0 1;
#X connect 3 0 4 0;
#X connect 4 0 0 0;
#X connect 5 0 6 0;
#X connect 6 0 4 1;
#X connect 7 0 5 1;
#X connect 8 0 5 0;
#X connect 9 0 12 0;
#X connect 11 0 16 0;
#X connect 12 0 15 0;
#X connect 12 0 18 0;
#X connect 12 1 13 0;
#X connect 13 0 11 1;
#X connect 14 0 12 0;
#X connect 15 0 8 0;
#X connect 16 0 17 0;
#X connect 17 0 10 0;
#X connect 18 0 2 0;
#X connect 19 0 20 0;
#X restore 239 276 pd elliptic;
#X obj 36 338 cos_panner;
#N canvas 65 112 578 426 tick3 0;
#X obj 159 47 noise~;
#X obj 159 152 *~;
#X obj 266 203 vline~;
#X obj 159 113 bp~ 2000 5;
#X obj 269 13 inlet;
#X obj 158 285 outlet~;
#X obj 268 91 random 10000;
#X obj 337 134 + 2;
#X obj 272 55 t b b b;
#X msg 266 184 0 \, 1 2 \, 0 25 2;
#X obj 229 36 bng 15 250 50 0 empty empty empty 17 7 0 10 -262144 -1
-1;
#X obj 251 116 + 10000;
#X obj 338 114 random 5;
#X obj 158 229 *~ 1000;
#X obj 392 14 inlet;
#X obj 396 41 switch~;
#X connect 0 0 3 0;
#X connect 1 0 13 0;
#X connect 2 0 1 1;
#X connect 3 0 1 0;
#X connect 4 0 8 0;
#X connect 6 0 11 0;
#X connect 7 0 3 2;
#X connect 8 0 6 0;
#X connect 8 1 12 0;
#X connect 8 2 9 0;
#X connect 9 0 2 0;
#X connect 10 0 8 0;
#X connect 11 0 3 1;
#X connect 12 0 7 0;
#X connect 13 0 5 0;
#X connect 14 0 15 0;
#X restore 36 288 pd tick3;
#X obj 93 288 random 2;
#X obj 36 313 *~;
#X obj 66 215 t b b;
#X obj 99 165 r glitch1.s;
#X obj 106 215 r num1.s;
#X obj 147 235 r den1.s;
#X obj 269 254 euclidean 7 16;
#X obj 269 193 spigot;
#X obj 239 336 cos_panner;
#X obj 296 313 random 2;
#X obj 239 311 *~;
#X obj 269 213 t b b;
#X obj 302 163 r glitch2.s;
#X obj 309 213 r num2.s;
#X obj 350 233 r den2.s;
#X obj 446 258 euclidean 7 16;
#X obj 446 197 spigot;
#X obj 416 334 cos_panner;
#X obj 473 307 random 2;
#X obj 416 309 *~;
#X obj 446 217 t b b;
#X obj 479 167 r glitch3.s;
#X obj 486 217 r num3.s;
#X obj 527 237 r den3.s;
#X obj 634 260 euclidean 7 16;
#X obj 634 199 spigot;
#X obj 604 335 cos_panner;
#X obj 661 312 random 2;
#X obj 604 310 *~;
#X obj 634 219 t b b;
#X obj 667 169 r glitch4.s;
#X obj 674 219 r num4.s;
#X obj 715 239 r den4.s;
#X obj 824 263 euclidean 7 16;
#X obj 824 202 spigot;
#X obj 794 334 cos_panner;
#X obj 851 309 random 2;
#X obj 794 309 *~;
#X obj 824 222 t b b;
#X obj 857 172 r glitch5.s;
#X obj 864 222 r num5.s;
#X obj 905 242 r den5.s;
#X obj 1006 256 euclidean 7 16;
#X obj 1006 195 spigot;
#X obj 976 338 cos_panner;
#X obj 1033 315 random 2;
#X obj 976 313 *~;
#X obj 1006 215 t b b;
#X obj 1039 165 r glitch6.s;
#X obj 1046 215 r num6.s;
#X obj 1087 235 r den6.s;
#X obj 517 36 clock, f 19;
#X text 61 12 declare path;
#X text 62 36 remap clock;
#X text 62 66 remove wordbuttons;
#X text 65 95 stream some synthesis parameters upwards;
#X text 58 116 parametrize panners ie radiobutton (left \, center \,
right \, random);
#X connect 1 1 15 0;
#X connect 2 0 3 0;
#X connect 3 0 4 0;
#X connect 4 0 0 0;
#X connect 5 0 44 0;
#X connect 5 0 44 1;
#X connect 6 0 53 0;
#X connect 6 0 53 1;
#X connect 7 0 62 0;
#X connect 7 0 62 1;
#X connect 8 0 35 0;
#X connect 8 0 35 1;
#X connect 9 0 10 0;
#X connect 10 0 11 0;
#X connect 11 0 0 1;
#X connect 12 0 18 0;
#X connect 13 0 26 0;
#X connect 13 0 26 1;
#X connect 14 0 2 0;
#X connect 14 1 9 0;
#X connect 15 0 17 0;
#X connect 15 0 17 1;
#X connect 16 0 14 1;
#X connect 17 0 14 0;
#X connect 18 0 1 0;
#X connect 18 1 16 0;
#X connect 19 0 12 1;
#X connect 19 0 15 1;
#X connect 20 0 1 1;
#X connect 21 0 1 2;
#X connect 22 1 13 0;
#X connect 23 0 27 0;
#X connect 24 0 2 0;
#X connect 24 1 9 0;
#X connect 25 0 24 1;
#X connect 26 0 24 0;
#X connect 27 0 22 0;
#X connect 27 1 25 0;
#X connect 28 0 23 1;
#X connect 28 0 13 1;
#X connect 29 0 22 1;
#X connect 30 0 22 2;
#X connect 31 1 8 0;
#X connect 32 0 36 0;
#X connect 33 0 2 0;
#X connect 33 1 9 0;
#X connect 34 0 33 1;
#X connect 35 0 33 0;
#X connect 36 0 31 0;
#X connect 36 1 34 0;
#X connect 37 0 32 1;
#X connect 37 0 8 1;
#X connect 38 0 31 1;
#X connect 39 0 31 2;
#X connect 40 1 5 0;
#X connect 41 0 45 0;
#X connect 42 0 2 0;
#X connect 42 1 9 0;
#X connect 43 0 42 1;
#X connect 44 0 42 0;
#X connect 45 0 40 0;
#X connect 45 1 43 0;
#X connect 46 0 41 1;
#X connect 46 0 5 1;
#X connect 47 0 40 1;
#X connect 48 0 40 2;
#X connect 49 1 6 0;
#X connect 50 0 54 0;
#X connect 51 0 2 0;
#X connect 51 1 9 0;
#X connect 52 0 51 1;
#X connect 53 0 51 0;
#X connect 54 0 49 0;
#X connect 54 1 52 0;
#X connect 55 0 50 1;
#X connect 55 0 6 1;
#X connect 56 0 49 1;
#X connect 57 0 49 2;
#X connect 58 1 7 0;
#X connect 59 0 63 0;
#X connect 60 0 2 0;
#X connect 60 1 9 0;
#X connect 61 0 60 1;
#X connect 62 0 60 0;
#X connect 63 0 58 0;
#X connect 63 1 61 0;
#X connect 64 0 59 1;
#X connect 64 0 7 1;
#X connect 65 0 58 1;
#X connect 66 0 58 2;
#X connect 67 0 12 0;
#X connect 67 0 23 0;
#X connect 67 0 32 0;
#X connect 67 0 41 0;
#X connect 67 0 50 0;
#X connect 67 0 59 0;
#X restore 8 273 pd guts;
#X obj 158 91 hsl 128 25 0 32 0 0 num2.s num2.r Numerator 5 12 0 10
-262144 -1 -1 0 1;
#X obj 158 125 hsl 128 25 0 32 0 0 den2.s den2.r Denominator 5 12 0
10 -262144 -1 -1 0 1;
#X obj 155 58 tgl 25 0 glitch2.s glitch2.r Glitch_2 30 12 0 10 -262144
-1 -1 0 1;
#X obj 306 91 hsl 128 25 0 32 0 0 num3.s num3.r Numerator 5 12 0 10
-262144 -1 -1 0 1;
#X obj 306 125 hsl 128 25 0 32 0 0 den3.s den3.r Denominator 5 12 0
10 -262144 -1 -1 0 1;
#X obj 303 58 tgl 25 0 glitch3.s glitch3.r Glitch_3 30 12 0 10 -262144
-1 -1 0 1;
#X obj 10 197 hsl 128 25 0 32 0 0 num4.s num4.r Numerator 5 12 0 10
-262144 -1 -1 0 1;
#X obj 10 231 hsl 128 25 0 32 0 0 den4.s den4.r Denominator 5 12 0
10 -262144 -1 -1 0 1;
#X obj 7 164 tgl 25 0 glitch4.s glitch4.r Glitch_4 30 12 0 10 -262144
-1 -1 0 1;
#X obj 159 198 hsl 128 25 0 32 0 0 num5.s num5.r Numerator 5 12 0 10
-262144 -1 -1 0 1;
#X obj 159 232 hsl 128 25 0 32 0 0 den5.s den5.r Denominator 5 12 0
10 -262144 -1 -1 0 1;
#X obj 156 165 tgl 25 0 glitch5.s glitch5.r Glitch_5 30 12 0 10 -262144
-1 -1 0 1;
#X obj 307 198 hsl 128 25 0 32 0 0 num6.s num6.r Numerator 5 12 0 10
-262144 -1 -1 0 1;
#X obj 307 232 hsl 128 25 0 32 0 0 den6.s den6.r Denominator 5 12 0
10 -262144 -1 -1 0 1;
#X obj 304 165 tgl 25 0 glitch6.s glitch6.r Glitch_6 30 12 0 10 -262144
-1 -1 0 1;
#X obj 10 295 clock-gui;
#N canvas 703 102 651 686 loadsave 1;
#X obj 7 10 persist-map storage glitch1.s glitch1.r;
#X obj 7 31 persist-map storage num1.s num1.r;
#X obj 7 52 persist-map storage den1.s den1.r;
#X obj 7 83 persist-map storage glitch2.s glitch2.r;
#X obj 7 104 persist-map storage num2.s num2.r;
#X obj 7 125 persist-map storage den2.s den2.r;
#X obj 8 154 persist-map storage glitch3.s glitch3.r;
#X obj 8 175 persist-map storage num3.s num3.r;
#X obj 8 195 persist-map storage den3.s den3.r;
#X obj 7 235 persist-map storage glitch4.s glitch4.r;
#X obj 7 256 persist-map storage num4.s num4.r;
#X obj 7 276 persist-map storage den4.s den4.r;
#X obj 15 323 persist-map storage glitch5.s glitch5.r;
#X obj 15 343 persist-map storage num5.s num5.r;
#X obj 15 363 persist-map storage den5.s den5.r;
#X obj 17 397 persist-map storage glitch6.s glitch6.r;
#X obj 17 418 persist-map storage num6.s num6.r;
#X obj 17 438 persist-map storage den6.s den6.r;
#X obj 305 18 r load;
#X msg 305 39 \; storage load presets cbs;
#X obj 305 74 r storage-load;
#X obj 305 94 persist-load storage;
#X obj 307 201 persist-save storage;
#X obj 307 181 r storage-save;
#X msg 306 145 \; storage save presets_pattern cbs;
#X obj 306 125 r save;
#X connect 18 0 19 0;
#X connect 20 0 21 0;
#X connect 23 0 22 0;
#X connect 25 0 24 0;
#X restore 232 296 pd loadsave;
#X obj 86 273 loadsave storage;
#X obj 11 325 declare -path ../../../../pd-party/droidparty-abstractions
;
#X obj 6 10 bng 30 250 50 0 load empty Load 0 -7 0 10 -262144 -1 -1
;
#X obj 112 9 bng 30 250 50 0 save empty Save 0 -7 0 10 -262144 -1 -1
;
