#N canvas 65 54 1301 714 10;
#X obj 120 50 inlet;
#N canvas 696 89 667 679 glitch2 0;
#X obj 159 174 samphold~;
#X obj 158 195 expr~ abs(1-pow($v1*3 \, 2));
#X obj 118 344 *~;
#X obj 198 327 vline~;
#X obj 98 12 vline~;
#X obj 215 -33 bng 15 250 50 0 empty empty empty 17 7 0 10 -262144
-1 -1;
#X obj 140 251 *~;
#X obj -24 45 expr~ floor(16*$v1 \, 0);
#X obj 155 225 hip~ 0.25;
#X obj -20 203 osc~ 25000;
#X obj -18 150 expr~ abs(1-pow($v1*3 \, 15));
#X msg 195 303 1 \, 0 100 50;
#X obj 260 -32 inlet;
#X obj 121 572 outlet~;
#X obj 210 155 expr~ modf(32*$v1);
#X obj -23 68 expr~ $v1%9;
#X obj -23 91 expr~ if($v1==0 \, 1 \, if ($v1==3 \, 0.75 \, if ($v1==7
\, 0.53 \, if($v1==8 || $v1 ==5 \, 0.8 \, 0))));
#X obj 0 176 *~ 0.5;
#X obj 128 461 *~;
#X obj 198 -2 t b f;
#X obj 223 438 env_adj;
#X msg 325 -8 127;
#X obj 116 533 osc~;
#X obj 125 501 *~ 10000;
#X msg 100 -14 0.1 \, 1 1000;
#X connect 0 0 1 0;
#X connect 1 0 8 0;
#X connect 2 0 18 0;
#X connect 3 0 2 1;
#X connect 4 0 7 0;
#X connect 4 0 14 0;
#X connect 5 0 19 0;
#X connect 6 0 2 0;
#X connect 7 0 15 0;
#X connect 8 0 6 1;
#X connect 9 0 6 0;
#X connect 10 0 17 0;
#X connect 11 0 3 0;
#X connect 12 0 19 0;
#X connect 14 0 0 1;
#X connect 15 0 16 0;
#X connect 16 0 0 0;
#X connect 16 0 10 0;
#X connect 17 0 9 0;
#X connect 18 0 23 0;
#X connect 19 0 24 0;
#X connect 19 0 11 0;
#X connect 19 1 20 0;
#X connect 20 0 18 1;
#X connect 21 0 19 0;
#X connect 22 0 13 0;
#X connect 23 0 22 0;
#X connect 24 0 4 0;
#X restore 169 319 pd glitch2;
#X obj 120 250 route 0 1 2 3 4 5;
#N canvas 671 97 667 679 elliptic2-reverse 1;
#X obj -403 31 expr~ if($v1==0 \, 1 \, if ($v1==3 \, 0.5 \, if ($v1==7
\, -0.68 \, 0)));
#X obj -343 219 *~;
#X obj -293 127 samphold~;
#X obj -295 156 expr~ abs(1-pow($v1*3 \, 3));
#X obj -401 66 expr~ abs(1-pow($v1*3 \, 5));
#X obj -389 -30 expr~ floor(16*$v1 \, 0);
#X obj -388 -7 expr~ $v1%8;
#X obj -295 187 lop~ 15;
#X obj -222 96 expr~ modf(16*$v1);
#X obj -358 292 *~;
#X obj -278 275 vline~;
#X obj -304 -62 vline~;
#X obj -317 -194 bng 15 250 50 0 empty empty empty 17 7 0 10 -262144
-1 -1;
#X obj -399 138 osc~ 100;
#X obj -354 443 outlet~;
#X obj -147 -194 inlet;
#X obj -332 396 *~;
#X obj -302 -110 t b f;
#X obj -397 109 *~ 8;
#X obj -237 373 env_adj;
#X msg -316 -157 127;
#X msg -281 250 1 \, 0 125;
#X obj -301 349 osc~;
#X obj -303 298 *~ 1000;
#X msg -302 -88 1 \, 0 2048;
#X obj -358 336 *~ 100;
#X connect 0 0 2 0;
#X connect 0 0 4 0;
#X connect 1 0 9 0;
#X connect 2 0 3 0;
#X connect 3 0 7 0;
#X connect 4 0 18 0;
#X connect 5 0 6 0;
#X connect 6 0 0 0;
#X connect 7 0 1 1;
#X connect 8 0 2 1;
#X connect 9 0 23 0;
#X connect 9 0 25 0;
#X connect 10 0 9 1;
#X connect 11 0 5 0;
#X connect 11 0 8 0;
#X connect 13 0 1 0;
#X connect 15 0 17 0;
#X connect 16 0 14 0;
#X connect 17 0 24 0;
#X connect 17 0 21 0;
#X connect 17 1 19 0;
#X connect 18 0 13 0;
#X connect 19 0 16 1;
#X connect 20 0 17 0;
#X connect 21 0 10 0;
#X connect 22 0 16 0;
#X connect 23 0 22 0;
#X connect 24 0 11 0;
#X connect 25 0 16 0;
#X restore 307 299 pd elliptic2-reverse;
#X obj 120 218 list prepend;
#X obj 187 509 cos_panner;
#X obj 120 87 unpack f f f;
#X text 242 51 packed : gain (0-127) / sound / pan (0-1);
#X obj 191 549 outlet~;
#X obj 248 549 outlet~;
#X floatatom 235 117 5 0 0 0 - - -, f 5;
#X floatatom 186 145 5 0 0 0 - - -, f 5;
#N canvas 65 92 450 300 tick1 0;
#X obj 30 131 noise~;
#X obj 30 153 *~ 300;
#X obj 30 175 +~ 800;
#X obj 30 197 osc~;
#X obj 30 236 *~;
#X obj 79 219 vline~;
#X msg 79 198 0 \, 0.3 2 \, 0 8 2;
#X obj 29 313 *~ 1;
#X connect 0 0 1 0;
#X connect 1 0 2 0;
#X connect 2 0 3 0;
#X connect 3 0 4 0;
#X connect 4 0 7 0;
#X connect 5 0 4 1;
#X connect 6 0 5 0;
#X restore 755 250 pd tick1;
#N canvas 65 82 450 300 tick2 0;
#X obj 159 47 noise~;
#X obj 159 69 *~ 300;
#X obj 159 113 osc~;
#X obj 159 152 *~;
#X obj 208 135 vline~;
#X msg 208 114 0 \, 0.3 2 \, 0 8 2;
#X obj 158 229 *~ 1;
#X obj 156 91 +~ 2600;
#X connect 0 0 1 0;
#X connect 1 0 7 0;
#X connect 2 0 3 0;
#X connect 3 0 6 0;
#X connect 4 0 3 1;
#X connect 5 0 4 0;
#X connect 7 0 2 0;
#X restore 817 249 pd tick2;
#N canvas 671 97 667 679 gritt 0;
#X obj 342 285 *~;
#X obj 413 268 vline~;
#X obj 359 162 expr~ floor ($v1*$v2 \, 0);
#X obj 343 257 *~;
#X obj 359 185 expr~ $v1%3;
#X obj 458 139 sig~ 96;
#X obj 343 211 osc~ 15000;
#X obj 359 142 vline~;
#X msg 359 117 0 \, 1 2041;
#X msg 413 243 0.5 \, 0 200;
#X obj 342 236 *~ 1;
#X obj 407 4 inlet;
#X obj 344 402 outlet~;
#X obj 399 320 *~;
#X obj 409 34 t b f;
#X obj 494 297 env_adj;
#X msg 362 21 127;
#X connect 0 0 13 0;
#X connect 1 0 0 1;
#X connect 2 0 4 0;
#X connect 3 0 0 0;
#X connect 4 0 3 1;
#X connect 5 0 2 1;
#X connect 6 0 10 0;
#X connect 7 0 2 0;
#X connect 8 0 7 0;
#X connect 9 0 1 0;
#X connect 10 0 3 0;
#X connect 11 0 14 0;
#X connect 13 0 12 0;
#X connect 14 0 8 0;
#X connect 14 0 9 0;
#X connect 14 1 15 0;
#X connect 15 0 13 1;
#X connect 16 0 14 0;
#X restore 357 406 pd gritt, f 11;
#N canvas 65 97 1301 686 glitch 0;
#X obj 153 138 samphold~;
#X obj -23 91 expr~ if($v1==0 \, 1 \, if ($v1==3 \, 0.75 \, if ($v1==7
\, 0.53 \, 0)));
#X obj 204 119 expr~ modf(8*$v1);
#X obj 152 159 expr~ abs(1-pow($v1*3 \, 2));
#X obj 112 308 *~;
#X obj 192 291 vline~;
#X obj 98 12 vline~;
#X obj 215 -33 bng 15 250 50 0 empty empty empty 17 7 0 10 -262144
-1 -1;
#X obj 134 215 *~;
#X obj 149 189 hip~ 0.25;
#X obj -26 167 osc~ 25000;
#X obj -25 145 *~ 8;
#X obj -24 114 expr~ abs(1-pow($v1*3 \, 15));
#X msg 189 267 1 \, 0 100 50;
#X obj 260 -32 inlet;
#X obj 118 510 outlet~;
#X obj -23 68 expr~ $v1%5;
#X obj -24 45 expr~ floor(16*$v1 \, 0);
#X obj 133 473 *~;
#X obj 198 -2 t b f;
#X obj 228 450 env_adj;
#X msg 165 -34 127;
#X obj 21 243 *~ 1000;
#X obj 82 237 *~ 1002;
#X obj 21 282 osc~;
#X obj 83 286 osc~;
#X msg 100 -14 1 \, 0 250;
#X obj 81 262 +~ 127;
#X connect 0 0 3 0;
#X connect 1 0 0 0;
#X connect 1 0 12 0;
#X connect 2 0 0 1;
#X connect 3 0 9 0;
#X connect 4 0 18 0;
#X connect 5 0 4 1;
#X connect 6 0 2 0;
#X connect 6 0 17 0;
#X connect 7 0 19 0;
#X connect 8 0 22 0;
#X connect 8 0 23 0;
#X connect 9 0 8 1;
#X connect 10 0 8 0;
#X connect 11 0 10 0;
#X connect 12 0 11 0;
#X connect 13 0 5 0;
#X connect 14 0 19 0;
#X connect 16 0 1 0;
#X connect 17 0 16 0;
#X connect 18 0 15 0;
#X connect 19 0 26 0;
#X connect 19 0 13 0;
#X connect 19 1 20 0;
#X connect 20 0 18 1;
#X connect 21 0 19 0;
#X connect 22 0 24 0;
#X connect 23 0 27 0;
#X connect 24 0 4 0;
#X connect 25 0 4 0;
#X connect 26 0 6 0;
#X connect 27 0 25 0;
#X restore 204 405 pd glitch;
#N canvas 65 84 667 679 elliptic 0;
#X obj 191 334 *~;
#X obj 189 256 osc~ 26000;
#X obj 259 313 vline~;
#X obj 188 280 *~ 0.5;
#X obj 189 302 +~;
#X obj 204 198 expr~ floor ($v1*$v2 \, 0);
#X obj 204 221 expr~ $v1%2;
#X obj 294 174 sig~ 25;
#X obj 203 177 vline~;
#X obj 238 29 inlet;
#X obj 241 479 outlet~;
#X obj 268 367 *~;
#X obj 239 65 t b f;
#X obj 363 344 env_adj;
#X msg 136 33 127;
#X msg 203 152 0 \, 1 1024;
#X obj 253 392 *~ 100;
#X obj 254 418 +~ 100;
#X msg 259 291 1 \, 0 100;
#X connect 0 0 11 0;
#X connect 1 0 3 0;
#X connect 2 0 0 1;
#X connect 3 0 4 0;
#X connect 4 0 0 0;
#X connect 5 0 6 0;
#X connect 6 0 4 1;
#X connect 7 0 5 1;
#X connect 8 0 5 0;
#X connect 9 0 12 0;
#X connect 11 0 16 0;
#X connect 12 0 15 0;
#X connect 12 0 18 0;
#X connect 12 1 13 0;
#X connect 13 0 11 1;
#X connect 14 0 12 0;
#X connect 15 0 8 0;
#X connect 16 0 17 0;
#X connect 17 0 10 0;
#X connect 18 0 2 0;
#X restore 149 442 pd elliptic;
#N canvas 677 87 667 679 elliptic-double 0;
#X obj 188 361 *~;
#X obj 259 344 vline~;
#X obj 189 333 +~;
#X obj 204 198 expr~ floor ($v1*$v2 \, 0);
#X obj 203 177 vline~;
#X obj 238 29 inlet;
#X obj 196 562 outlet~;
#X obj 86 251 osc~ 26000;
#X obj 188 311 *~ 0.5;
#X obj 103 306 *~;
#X obj 173 266 osc~ 5000;
#X obj 204 221 expr~ $v1%8;
#X obj 294 174 sig~ 25;
#X obj 336 488 *~;
#X obj 239 65 t b f;
#X obj 431 465 env_adj;
#X msg 175 37 127;
#X msg 203 152 2 \, 0 500;
#X msg 259 319 1 \, 0 250;
#X connect 0 0 13 0;
#X connect 1 0 0 1;
#X connect 2 0 0 0;
#X connect 3 0 11 0;
#X connect 4 0 3 0;
#X connect 5 0 14 0;
#X connect 7 0 9 0;
#X connect 8 0 2 0;
#X connect 9 0 8 0;
#X connect 10 0 9 1;
#X connect 11 0 2 1;
#X connect 12 0 3 1;
#X connect 13 0 6 0;
#X connect 14 0 17 0;
#X connect 14 0 18 0;
#X connect 14 1 15 0;
#X connect 15 0 13 1;
#X connect 16 0 14 0;
#X connect 17 0 4 0;
#X connect 18 0 1 0;
#X restore 701 152 pd elliptic-double;
#N canvas 65 102 450 300 tick3 0;
#X obj 159 47 noise~;
#X obj 159 152 *~;
#X obj 266 203 vline~;
#X obj 159 113 bp~ 2000 5;
#X obj 269 13 inlet;
#X obj 158 285 outlet~;
#X obj 268 91 random 10000;
#X obj 337 134 + 2;
#X obj 272 55 t b b b;
#X msg 266 184 0 \, 1 2 \, 0 25 2;
#X obj 229 36 bng 15 250 50 0 empty empty empty 17 7 0 10 -262144 -1
-1;
#X obj 251 116 + 10000;
#X obj 338 114 random 5;
#X obj 158 229 *~ 1000;
#X connect 0 0 3 0;
#X connect 1 0 13 0;
#X connect 2 0 1 1;
#X connect 3 0 1 0;
#X connect 4 0 8 0;
#X connect 6 0 11 0;
#X connect 7 0 3 2;
#X connect 8 0 6 0;
#X connect 8 1 12 0;
#X connect 8 2 9 0;
#X connect 9 0 2 0;
#X connect 10 0 8 0;
#X connect 11 0 3 1;
#X connect 12 0 7 0;
#X connect 13 0 5 0;
#X restore 88 400 pd tick3;
#X connect 0 0 6 0;
#X connect 1 0 5 0;
#X connect 2 0 18 0;
#X connect 2 1 16 0;
#X connect 2 2 15 0;
#X connect 2 3 1 0;
#X connect 2 4 14 0;
#X connect 2 5 3 0;
#X connect 3 0 5 0;
#X connect 4 0 2 0;
#X connect 5 0 8 0;
#X connect 5 1 9 0;
#X connect 6 0 4 0;
#X connect 6 1 4 1;
#X connect 6 1 11 0;
#X connect 6 2 5 1;
#X connect 6 2 10 0;
#X connect 14 0 5 0;
#X connect 15 0 5 0;
#X connect 16 0 5 0;
#X connect 18 0 5 0;
