#N canvas 154 33 739 676 10;
#X obj 231 470 textfile;
#X msg 120 371 clear;
#X msg 305 453 print;
#X obj 231 394 list prepend add;
#X obj 231 420 list trim;
#X obj 98 471 s SSSAD_ADMIN;
#X obj 231 326 r SSSAD_ADMIN;
#X obj 231 370 route persist;
#X obj 231 348 list trim;
#X msg 98 405 save;
#X msg 112 444 set;
#X obj 76 335 t a b b;
#X msg 76 518 write \$1;
#X obj 17 627 until;
#X msg 17 606 100;
#X obj 17 583 t b a;
#X msg 65 627 read \$1 \, rewind;
#X text 49 606 Avoid loops. A bang normally also works.;
#X obj 229 517 s SSSAD;
#X obj 296 514 s SSSAD_ADMIN;
#X msg 296 489 set;
#X obj 7 36 bng 15 250 50 0 \$0/save \$1/save save 17 7 0 10 -260097
-1 -1;
#X obj 7 17 bng 15 250 50 0 \$0/load \$1/load load 17 7 0 10 -260097
-1 -1;
#X obj 172 18 bng 15 250 50 0 \$0/forward \$1/forward > 17 7 0 10 -260097
-1 -1;
#X obj 151 18 bng 15 250 50 0 \$0/backward \$1/forward < -7 7 0 10
-260097 -1 -1;
#X obj 7 58 hradio 15 1 0 12 \$0/state \$1/state empty 0 -6 0 8 -260097
-1 -1 3;
#X obj 17 179 r \$0/load;
#X obj 76 239 r \$0/save;
#X obj 76 280 0;
#X obj 17 224 0;
#X obj 91 260 r \$0/state;
#X obj 32 202 r \$0/state;
#X obj 335 75 r \$0/forward;
#X obj 362 126 0;
#X obj 335 126 +;
#X msg 335 96 1;
#X obj 335 147 s \$1/state;
#X msg 425 95 -1;
#X obj 17 541 makefilename \$1state-%d.sssad;
#X obj 76 304 makefilename \$1state-%d.sssad;
#X obj 425 75 r \$0/backward;
#X connect 0 0 18 0;
#X connect 0 1 20 0;
#X connect 1 0 0 0;
#X connect 2 0 0 0;
#X connect 3 0 4 0;
#X connect 4 0 0 0;
#X connect 6 0 8 0;
#X connect 7 0 3 0;
#X connect 8 0 7 0;
#X connect 9 0 5 0;
#X connect 10 0 5 0;
#X connect 11 0 12 0;
#X connect 11 1 9 0;
#X connect 11 2 1 0;
#X connect 12 0 0 0;
#X connect 13 0 0 0;
#X connect 14 0 13 0;
#X connect 15 0 14 0;
#X connect 15 1 16 0;
#X connect 16 0 0 0;
#X connect 20 0 19 0;
#X connect 26 0 29 0;
#X connect 27 0 28 0;
#X connect 28 0 39 0;
#X connect 29 0 38 0;
#X connect 30 0 28 1;
#X connect 31 0 29 1;
#X connect 32 0 35 0;
#X connect 33 0 34 1;
#X connect 34 0 33 0;
#X connect 34 0 36 0;
#X connect 35 0 34 0;
#X connect 37 0 34 0;
#X connect 38 0 15 0;
#X connect 39 0 11 0;
#X connect 40 0 37 0;
#X coords 0 -1 1 1 200 80 1 0 0;
