#N canvas 10 10 200 200 10;
#N canvas 20 20 420 300 META 0;
#X text 10 10 META this is a prototype of a libdir meta file;
#X text 10 10 NAME list-abs;
#X text 10 10 AUTHOR Frank Barknecht;
#X text 10 10 LICENSE GNU GPL;
#X text 10 10 DESCRIPTION a collection of objects for manipulating lists. Requires pd>=0.39;
#X restore 10 10 pd META;
