#N canvas 65 112 638 300 10;
#X obj 48 182 f;
#X obj 63 54 t b b;
#X msg 63 78 1;
#X obj 96 78 delay;
#X obj 122 9 r notetime;
#X msg 96 97 0;
#X obj 48 114 f;
#X obj 48 136 sel 1;
#X obj 48 3 r beatbang;
#X obj 48 211 pack f 127;
#X obj 105 187 r velocity.s;
#X obj 48 242 outlet;
#X obj 63 26 r \$1;
#X obj 63 162 r \$2;
#X obj 319 3 inlet;
#X obj 321 171 f;
#X obj 321 200 pack f 127;
#X obj 378 176 r velocity.s;
#X obj 336 151 r \$2;
#X obj 223 1 r play_div.s;
#X obj 205 76 f;
#X obj 206 113 /;
#X obj 244 81 + 1;
#X obj 222 25 t b f;
#X connect 0 0 9 0;
#X connect 1 0 2 0;
#X connect 1 1 3 0;
#X connect 2 0 6 1;
#X connect 3 0 5 0;
#X connect 4 0 20 1;
#X connect 5 0 6 1;
#X connect 6 0 7 0;
#X connect 7 0 0 0;
#X connect 8 0 6 0;
#X connect 9 0 11 0;
#X connect 10 0 9 1;
#X connect 12 0 1 0;
#X connect 13 0 0 1;
#X connect 14 0 15 0;
#X connect 15 0 16 0;
#X connect 16 0 11 0;
#X connect 17 0 16 1;
#X connect 18 0 15 1;
#X connect 19 0 23 0;
#X connect 20 0 21 0;
#X connect 21 0 3 1;
#X connect 22 0 21 1;
#X connect 23 0 20 0;
#X connect 23 1 22 0;
