#N canvas 147 113 638 300 10;
#X obj 48 334 outlet;
#X obj 63 54 t b b;
#X msg 63 78 1;
#X obj 96 78 delay;
#X obj 122 9 r notetime;
#X msg 96 97 0;
#X obj 48 114 f;
#X obj 48 136 sel 1;
#X obj 48 3 r beatbang;
#X obj 48 314 pack f 127;
#X obj 105 290 r velocity.s;
#X obj 63 26 r \$1;
#X obj 223 1 r play_div.s;
#X obj 205 76 f;
#X obj 206 113 /;
#X obj 244 81 + 1;
#X obj 222 25 t b f;
#X obj 48 293 +;
#X obj 102 223 + 3;
#X obj 102 243 * 12;
#X obj 82 274 f;
#X obj 48 244 t f b;
#X obj 102 198 r keyboard_octave.s;
#X floatatom 148 261 5 0 0 0 - - -, f 5;
#X obj 23 99 bng 15 250 50 0 empty empty empty 17 7 0 10 -262144 -1
-1;
#X floatatom 12 261 5 0 0 0 - - -, f 5;
#X obj 48 182 f \$2;
#X connect 1 0 2 0;
#X connect 1 0 24 0;
#X connect 1 1 3 0;
#X connect 2 0 6 1;
#X connect 3 0 5 0;
#X connect 4 0 13 1;
#X connect 5 0 6 1;
#X connect 6 0 7 0;
#X connect 7 0 26 0;
#X connect 8 0 6 0;
#X connect 9 0 0 0;
#X connect 10 0 9 1;
#X connect 11 0 1 0;
#X connect 12 0 16 0;
#X connect 13 0 14 0;
#X connect 14 0 3 1;
#X connect 15 0 14 1;
#X connect 16 0 13 0;
#X connect 16 1 15 0;
#X connect 17 0 9 0;
#X connect 17 0 25 0;
#X connect 18 0 19 0;
#X connect 19 0 20 1;
#X connect 19 0 23 0;
#X connect 20 0 17 1;
#X connect 21 0 17 0;
#X connect 21 1 20 0;
#X connect 22 0 18 0;
#X connect 26 0 21 0;
