#N canvas 65 92 638 300 10;
#X obj 48 182 f;
#X obj 63 54 t b b;
#X msg 63 78 1;
#X obj 96 78 delay;
#X obj 122 55 r notetime;
#X msg 96 97 0;
#X obj 48 114 f;
#X obj 48 136 sel 1;
#X obj 48 3 r beatbang;
#X obj 48 211 pack f 127;
#X obj 105 187 r velocity.s;
#X obj 48 242 outlet;
#X obj 63 26 r \$1;
#X obj 63 162 r \$2;
#X obj 15 35 bng 15 250 50 0 empty empty empty 17 7 0 10 -262144 -1
-1;
#X floatatom 153 86 5 0 0 0 - - -, f 5;
#X obj 319 3 inlet;
#X obj 321 171 f;
#X obj 321 200 pack f 127;
#X obj 378 176 r velocity.s;
#X obj 336 151 r \$2;
#X connect 0 0 9 0;
#X connect 1 0 2 0;
#X connect 1 1 3 0;
#X connect 2 0 6 1;
#X connect 3 0 5 0;
#X connect 4 0 3 1;
#X connect 4 0 15 0;
#X connect 5 0 6 1;
#X connect 6 0 7 0;
#X connect 7 0 0 0;
#X connect 8 0 6 0;
#X connect 8 0 14 0;
#X connect 9 0 11 0;
#X connect 10 0 9 1;
#X connect 12 0 1 0;
#X connect 13 0 0 1;
#X connect 16 0 17 0;
#X connect 17 0 18 0;
#X connect 18 0 11 0;
#X connect 19 0 18 1;
#X connect 20 0 17 1;
