#N canvas 99 169 822 512 10;
#X declare -path ../../../../pd-party/droidparty-abstractions;
#X obj 2 503 declare -path ../../../../pd-party/droidparty-abstractions
;
#X obj 2305 0 cnv 15 180 235 empty canvas_chorder empty 0 -4 0 10 -260097
-66577 0;
#X obj 45 85 taplist 35 35 basenote1.r basenote1.s basenote1 C C# D
Eb E F F# G Ab A Bb B;
#X obj 45 46 hradio 35 1 0 4 octave1.s octave1.r Octave1 0 8 0 10 -262144
-1 -1 2;
#X obj 44 136 nbx 5 20 -1e+37 1e+37 0 0 \$0a note1-1.r empty 0 -8 0
10 -262144 -1 -1 60 256;
#X obj 44 156 nbx 5 20 -1e+37 1e+37 0 0 \$0b note1-2.r empty 0 -8 0
10 -262144 -1 -1 63 256;
#X obj 44 176 nbx 5 20 -1e+37 1e+37 0 0 \$0c note1-3.r empty 0 -8 0
10 -262144 -1 -1 67 256;
#X obj 44 196 nbx 5 20 -1e+37 1e+37 0 0 \$0d note1-4.r empty 0 -8 0
10 -262144 -1 -1 72 256;
#X obj 134 86 taplist 50 35 arrangement1.r arrangement1.s arrangement1
M M7 M6 7 M7-5 M7+5 7+5 m mM7 m6 m7 m7-5 m-5;
#X text 109 20 I;
#X obj 233 91 taplist 35 35 basenote2.r basenote2.s basenote2 C C#
D Eb E F F# G Ab A Bb B;
#X obj 232 45 hradio 35 1 0 4 octave2.s octave2.r Octave2 0 8 0 10
-262144 -1 -1 2;
#X obj 232 139 nbx 5 20 -1e+37 1e+37 0 0 \$0a note2-1.r empty 0 -8
0 10 -262144 -1 -1 63 256;
#X obj 232 159 nbx 5 20 -1e+37 1e+37 0 0 \$0b note2-2.r empty 0 -8
0 10 -262144 -1 -1 66 256;
#X obj 232 179 nbx 5 20 -1e+37 1e+37 0 0 \$0c note2-3.r empty 0 -8
0 10 -262144 -1 -1 70 256;
#X obj 232 199 nbx 5 20 -1e+37 1e+37 0 0 \$0d note2-4.r empty 0 -8
0 10 -262144 -1 -1 72 256;
#X obj 322 92 taplist 50 35 arrangement2.r arrangement2.s arrangement2
M M7 M6 7 M7-5 M7+5 7+5 m mM7 m6 m7 m7-5 m-5;
#X obj 424 92 taplist 35 35 basenote3.r basenote3.s basenote3 C C#
D Eb E F F# G Ab A Bb B;
#X obj 424 46 hradio 35 1 0 4 octave3.s octave3.r Octave3 0 8 0 10
-262144 -1 -1 2;
#X obj 424 138 nbx 5 20 -1e+37 1e+37 0 0 \$0a note3-1.r empty 0 -8
0 10 -262144 -1 -1 65 256;
#X obj 424 158 nbx 5 20 -1e+37 1e+37 0 0 \$0b note3-2.r empty 0 -8
0 10 -262144 -1 -1 69 256;
#X obj 424 178 nbx 5 20 -1e+37 1e+37 0 0 \$0c note3-3.r empty 0 -8
0 10 -262144 -1 -1 72 256;
#X obj 424 198 nbx 5 20 -1e+37 1e+37 0 0 \$0d note3-4.r empty 0 -8
0 10 -262144 -1 -1 77 256;
#X obj 513 93 taplist 50 35 arrangement3.r arrangement3.s arrangement3
M M7 M6 7 M7-5 M7+5 7+5 m mM7 m6 m7 m7-5 m-5;
#X obj 618 92 taplist 35 35 basenote4.r basenote4.s basenote4 C C#
D Eb E F F# G Ab A Bb B;
#X obj 617 47 hradio 35 1 0 4 octave4.s octave4.r Octave4 0 8 0 10
-262144 -1 -1 2;
#X obj 619 139 nbx 5 20 -1e+37 1e+37 0 0 \$0a note4-1.r empty 0 -8
0 10 -262144 -1 -1 62 256;
#X obj 619 159 nbx 5 20 -1e+37 1e+37 0 0 \$0b note4-2.r empty 0 -8
0 10 -262144 -1 -1 66 256;
#X obj 619 179 nbx 5 20 -1e+37 1e+37 0 0 \$0c note4-3.r empty 0 -8
0 10 -262144 -1 -1 69 256;
#X obj 619 199 nbx 5 20 -1e+37 1e+37 0 0 \$0d note4-4.r empty 0 -8
0 10 -262144 -1 -1 74 256;
#X obj 706 93 taplist 50 35 arrangement4.r arrangement4.s arrangement4
M M7 M6 7 M7-5 M7+5 7+5 m mM7 m6 m7 m7-5 m-5;
#X text 289 17 II;
#X text 482 17 III;
#X text 680 19 IV;
#X obj 44 250 tgl 40 1 structured_evolution.s structured_evolution.r
empty 17 7 0 10 -262144 -1 -1 1 1;
#X obj 44 290 vradio 25 1 0 8 structure_type.s structure_type.r empty
0 -8 0 10 -262144 -1 -1 5;
#X text 70 371 Binary (1 2);
#X text 70 396 Binary (1 1 2 2);
#X text 70 420 Rondo (1 2 1 3 1 4 1);
#X text 69 446 Blues (1 2 1 3 2 1);
#X text 69 346 Arch form (1 2 1 3 1 2 1);
#X text 69 321 Ternary (1 2 1);
#X text 69 296 Ternary (1 1 2 1);
#X text 89 248 Structured evolution;
#X text 69 470 Forward (1 2 3 4);
#X text 326 246 Probabilistic evolution;
#X obj 285 303 hsl 150 30 0 100 0 0 proba1.s proba1.r empty -2 -8 0
10 -262144 -1 -1 3725 1;
#X obj 285 339 hsl 150 30 0 100 0 0 proba2.s proba2.r empty -2 -8 0
10 -262144 -1 -1 7450 1;
#X obj 285 377 hsl 150 30 0 100 0 0 proba3.s proba3.r empty -2 -8 0
10 -262144 -1 -1 11175 1;
#X obj 284 416 hsl 150 30 0 100 0 0 proba4.s proba4.r empty -2 -8 0
10 -262144 -1 -1 14900 1;
#X text 445 311 P1;
#X text 445 347 P2;
#X text 446 387 P3;
#X text 444 424 p4;
#X obj 283 249 tgl 40 0 proba_evolution.s proba_evolution.r empty 17
7 0 10 -262144 -1 -1 0 1;
#X text 278 453 Chained probabilities (25-50-75-100;
#X text 278 470 give equal probability for all chords);
#X obj 616 297 bng 35 250 50 0 load_chords empty Load_Chords 0 -7 0
10 -262144 -1 -1;
#X obj 617 353 bng 35 250 50 0 save_chords empty Save_Chords 0 -7 0
10 -262144 -1 -1;
#X obj 617 411 bng 35 250 50 0 reset_chords empty Reset_Chords 0 -7
0 10 -262144 -1 -1;
