#N canvas 65 54 1301 714 10;
#X declare -path ../../../../pd-party/droidparty-abstractions;
#X obj 9 3 declare -path ../../../../pd-party/droidparty-abstractions
;
#X obj 66 178 s notetime;
#X obj 8 135 / 24;
#X obj 8 157 i;
#X obj 8 182 change;
#X obj 66 143 * 24;
#X obj 8 100 clock, f 16;
#X obj 9 585 s beatbang;
#N canvas 581 123 450 519 arpegiator 0;
#X obj 252 47 r notetime;
#X obj 239 146 f;
#X obj 179 163 *;
#X obj 19 94 t f b;
#X obj 100 163 *;
#X obj 179 142 * 0.33;
#X obj 100 143 * 0.66;
#X obj 20 162 * 0.99;
#X obj 18 -5 r delay.s;
#X obj 20 180 s delay4.s;
#X obj 100 181 s delay3.s;
#X obj 179 181 s delay2.s;
#X obj 251 71 t b f;
#X obj 18 48 f;
#X obj 19 20 t b f;
#X connect 0 0 12 0;
#X connect 1 0 2 1;
#X connect 1 0 4 1;
#X connect 1 0 7 1;
#X connect 2 0 11 0;
#X connect 3 0 5 0;
#X connect 3 0 6 0;
#X connect 3 0 7 0;
#X connect 3 1 1 0;
#X connect 4 0 10 0;
#X connect 5 0 2 0;
#X connect 6 0 4 0;
#X connect 7 0 9 0;
#X connect 8 0 14 0;
#X connect 12 0 13 0;
#X connect 12 1 1 1;
#X connect 13 0 3 0;
#X connect 14 0 13 0;
#X connect 14 1 13 1;
#X restore 8 59 pd arpegiator;
#X obj 101 126 s stop;
#N canvas 65 54 1301 714 structure-state-machine 0;
#X text 642 -294 States machine looping through a sequence of states
;
#X text 643 -281 Mainly for musical forms;
#X text 645 -259 Does not use arguments \, but the right inlet;
#X text 645 -238 2nd inlet : list representing the form;
#X text 591 -15 Rondo;
#X text 573 -152 Ternary;
#X text 567 -98 Arch form;
#X text 581 -67 Binary;
#X msg 386 -210 reset;
#X msg 315 -209 behave \$1;
#X obj 316 -227 tgl 15 0 empty empty empty 0 -6 0 8 -262144 -1 -1 0
1;
#X text 645 -217 behave : (1 0) reset when the moment you change the
form. Defaults to false;
#X text 645 -184 reset : resets to the first part of the form (0);
#X msg 474 -15 1 2 1 3 1 4 1;
#X obj 231 -176 select 0;
#X obj 232 62 select 1 2 3 4;
#X msg 472 -152 1 1 2 1;
#X msg 473 -128 1 2 1;
#X msg 474 -97 1 2 1 3 1 2 1;
#X msg 474 -68 1 2;
#X msg 473 -44 1 1 2 2;
#N canvas 65 54 1301 714 musical-forms 0;
#X obj 47 24 inlet;
#X obj 203 116 bang;
#X obj 78 204 f 0;
#X obj 120 206 + 1;
#X msg -6 153 0;
#X text 533 81 form a a b a;
#X obj 476 35 inlet;
#X obj 191 351 list;
#X obj 223 408 list split 1;
#X obj 191 381 list split;
#X obj 194 290 t b f;
#X obj 203 592 outlet;
#X obj -5 131 bang;
#X text 302 380 get element at;
#X obj 84 246 %;
#X obj 461 92 t a a b;
#X obj 214 183 spigot;
#X msg 213 203 1;
#X obj 64 82 route reset behave;
#X obj 480 241 list length;
#X connect 0 0 18 0;
#X connect 1 0 2 0;
#X connect 2 0 3 0;
#X connect 2 0 14 0;
#X connect 3 0 2 1;
#X connect 4 0 2 1;
#X connect 6 0 15 0;
#X connect 7 0 9 0;
#X connect 8 0 11 0;
#X connect 9 1 8 0;
#X connect 10 0 7 0;
#X connect 10 1 9 1;
#X connect 12 0 4 0;
#X connect 14 0 10 0;
#X connect 15 0 7 1;
#X connect 15 1 19 0;
#X connect 15 2 16 0;
#X connect 16 0 17 0;
#X connect 17 0 3 1;
#X connect 18 0 12 0;
#X connect 18 1 16 1;
#X connect 18 2 1 0;
#X connect 19 0 14 1;
#X restore 231 -111 pd musical-forms;
#X obj 509 -286 inlet;
#X msg 477 9 1 2 1 3 1;
#X text 553 10 Blues;
#X obj 231 12 spigot;
#X obj 266 -328 inlet;
#X obj -16 -110 spigot;
#X obj -87 -354 inlet;
#X obj -16 -91 random 100;
#X obj -16 -67 moses;
#X obj 11 -47 moses;
#X obj 38 -25 moses;
#X obj 64 -5 moses;
#X obj 231 -262 b;
#X msg 231 -239 0;
#X obj 19 223 outlet;
#X obj 89 225 outlet;
#X obj 158 225 outlet;
#X obj 238 224 outlet;
#X obj 386 -250 r stop;
#X obj 19 197 b;
#X obj 89 196 b;
#X obj 158 195 b;
#X obj 238 195 b;
#X obj 509 -255 sel 0 1 2 3 4 5 6 7;
#X msg 478 36 1 2 3 4;
#X text 554 37 Forward;
#X obj 53 -84 r proba1.s;
#X obj 67 -64 r proba2.s;
#X obj 90 -42 r proba3.s;
#X obj 104 -22 r proba4.s;
#X obj 26 -341 inlet;
#X connect 8 0 21 0;
#X connect 9 0 21 0;
#X connect 10 0 9 0;
#X connect 13 0 21 1;
#X connect 14 0 21 0;
#X connect 14 0 27 0;
#X connect 15 0 41 0;
#X connect 15 1 42 0;
#X connect 15 2 43 0;
#X connect 15 3 44 0;
#X connect 16 0 21 1;
#X connect 17 0 21 1;
#X connect 18 0 21 1;
#X connect 19 0 21 1;
#X connect 20 0 21 1;
#X connect 21 0 25 0;
#X connect 22 0 45 0;
#X connect 23 0 21 1;
#X connect 25 0 15 0;
#X connect 26 0 25 1;
#X connect 27 0 29 0;
#X connect 28 0 34 0;
#X connect 29 0 30 0;
#X connect 30 0 41 0;
#X connect 30 1 31 0;
#X connect 31 0 42 0;
#X connect 31 1 32 0;
#X connect 32 0 43 0;
#X connect 32 1 33 0;
#X connect 33 0 44 0;
#X connect 34 0 35 0;
#X connect 35 0 14 0;
#X connect 40 0 8 0;
#X connect 41 0 36 0;
#X connect 42 0 37 0;
#X connect 43 0 38 0;
#X connect 44 0 39 0;
#X connect 45 0 16 0;
#X connect 45 1 17 0;
#X connect 45 2 18 0;
#X connect 45 3 19 0;
#X connect 45 4 20 0;
#X connect 45 5 13 0;
#X connect 45 6 23 0;
#X connect 45 7 46 0;
#X connect 46 0 21 1;
#X connect 48 0 30 1;
#X connect 49 0 31 1;
#X connect 50 0 32 1;
#X connect 51 0 33 1;
#X connect 52 0 27 1;
#X restore 450 222 pd structure-state-machine;
#X obj 450 245 s play_chord1.s;
#X obj 502 267 s play_chord2.s;
#X obj 552 244 s play_chord3.s;
#X obj 604 266 s play_chord4.s;
#X obj 603 196 r structure_type.s;
#X obj 552 163 r structured_evolution.s;
#X obj 501 141 r proba_evolution.s;
#X obj 423 440 pack f \$0;
#X obj 423 418 + 25;
#X msg 423 461 \; canvas_chorder pos \$1 0;
#X obj 423 391 * 190;
#N canvas 65 82 1301 686 audio 0;
#X obj 509 920 dac~;
#X obj 600 569 r \$0-in1;
#X obj 507 590 s_rhodey mypiano;
#X obj 738 593 s \$0-in1;
#X msg 738 569 tone \$1;
#X obj 864 587 s \$0-in1;
#X obj 942 588 s \$0-in1;
#X obj 1027 586 s \$0-in1;
#X msg 1027 565 mod \$1;
#X msg 864 567 vib-freq \$1;
#X msg 942 565 vib-depth \$1;
#X obj 1087 587 s \$0-in1;
#X msg 1087 567 adsr24 \$1;
#X obj 800 592 s \$0-in1;
#X msg 800 569 decay \$1;
#X obj 507 489 poly 12 1;
#X obj 507 517 pack f f f;
#X obj 507 544 route 1 2 3 4 5 6 7 8 9 10 11 12;
#X obj 615 593 r \$0-in1;
#X obj 522 614 s_rhodey mypiano;
#X obj 631 616 r \$0-in1;
#X obj 538 637 s_rhodey mypiano;
#X obj 646 640 r \$0-in1;
#X obj 553 661 s_rhodey mypiano;
#X obj 663 664 r \$0-in1;
#X obj 570 685 s_rhodey mypiano;
#X obj 678 688 r \$0-in1;
#X obj 585 709 s_rhodey mypiano;
#X obj 694 711 r \$0-in1;
#X obj 601 732 s_rhodey mypiano;
#X obj 709 735 r \$0-in1;
#X obj 616 756 s_rhodey mypiano;
#X obj 726 757 r \$0-in1;
#X obj 633 778 s_rhodey mypiano;
#X obj 741 781 r \$0-in1;
#X obj 648 802 s_rhodey mypiano;
#X obj 757 804 r \$0-in1;
#X obj 664 825 s_rhodey mypiano;
#X obj 772 828 r \$0-in1;
#X obj 679 849 s_rhodey mypiano;
#X obj 30 229 r play_chord1.s;
#X obj 508 867 *~ 0.25;
#X obj 508 894 tanh~;
#X obj 47 278 delay;
#X obj 64 298 delay;
#X obj 30 251 t b b b b;
#X obj 81 317 delay;
#X obj 282 279 delay;
#X obj 299 299 delay;
#X obj 265 252 t b b b b;
#X obj 316 318 delay;
#X obj 265 230 r play_chord2.s;
#X obj 524 277 delay;
#X obj 541 297 delay;
#X obj 507 250 t b b b b;
#X obj 558 316 delay;
#X obj 771 273 delay;
#X obj 788 293 delay;
#X obj 754 246 t b b b b;
#X obj 805 312 delay;
#X obj 507 228 r play_chord3.s;
#X obj 754 224 r play_chord4.s;
#X obj 738 546 r tone.s;
#X obj 800 547 r decay.s;
#X obj 864 546 r vibfreq.s;
#X obj 942 545 r vibdepth.s;
#X obj 1027 545 r mod.s;
#X obj 1087 546 r adsr.s;
#X obj 109 261 r delay2.s;
#X obj 124 281 r delay3.s;
#X obj 137 300 r delay4.s;
#X obj 344 262 r delay2.s;
#X obj 359 282 r delay3.s;
#X obj 372 301 r delay4.s;
#X obj 586 260 r delay2.s;
#X obj 601 280 r delay3.s;
#X obj 614 299 r delay4.s;
#X obj 833 256 r delay2.s;
#X obj 848 276 r delay3.s;
#X obj 861 295 r delay4.s;
#X obj 9 24 chords-assembler basenote1.s/idx octave1.s arrangement1.s/idx
, f 62;
#X obj 9 45 s note1-1.r;
#X obj 132 45 s note1-2.r;
#X obj 255 45 s note1-3.r;
#X obj 378 44 s note1-4.r;
#X obj 10 75 chords-assembler basenote2.s/idx octave2.s arrangement2.s/idx
, f 62;
#X obj 10 96 s note2-1.r;
#X obj 133 96 s note2-2.r;
#X obj 256 96 s note2-3.r;
#X obj 379 95 s note2-4.r;
#X obj 10 123 chords-assembler basenote3.s/idx octave3.s arrangement3.s/idx
, f 62;
#X obj 10 144 s note3-1.r;
#X obj 133 144 s note3-2.r;
#X obj 256 144 s note3-3.r;
#X obj 379 143 s note3-4.r;
#X obj 10 176 chords-assembler basenote4.s/idx octave4.s arrangement4.s/idx
, f 62;
#X obj 10 197 s note4-1.r;
#X obj 133 197 s note4-2.r;
#X obj 256 197 s note4-3.r;
#X obj 379 196 s note4-4.r;
#X obj 265 341 c_armnote play_note2-1.s note2-1.r;
#X obj 30 342 c_armnote play_note1-1.s note1-1.r;
#X obj 42 363 c_armnote play_note1-2.s note1-2.r;
#X obj 53 384 c_armnote play_note1-3.s note1-3.r;
#X obj 65 408 c_armnote play_note1-4.s note1-4.r;
#X obj 277 362 c_armnote play_note2-2.s note2-2.r;
#X obj 288 383 c_armnote play_note2-3.s note2-3.r;
#X obj 300 407 c_armnote play_note2-4.s note2-4.r;
#X obj 754 335 c_armnote play_note4-1.s note4-1.r;
#X obj 766 356 c_armnote play_note4-2.s note4-2.r;
#X obj 777 377 c_armnote play_note4-3.s note4-3.r;
#X obj 789 401 c_armnote play_note4-4.s note4-4.r;
#X obj 507 339 c_armnote play_note3-1.s note3-1.r;
#X obj 519 360 c_armnote play_note3-2.s note3-2.r;
#X obj 530 381 c_armnote play_note3-3.s note3-3.r;
#X obj 542 405 c_armnote play_note3-4.s note3-4.r;
#X connect 1 0 2 1;
#X connect 2 0 41 0;
#X connect 4 0 3 0;
#X connect 8 0 7 0;
#X connect 9 0 5 0;
#X connect 10 0 6 0;
#X connect 12 0 11 0;
#X connect 14 0 13 0;
#X connect 15 0 16 0;
#X connect 15 1 16 1;
#X connect 15 2 16 2;
#X connect 16 0 17 0;
#X connect 17 0 2 0;
#X connect 17 1 19 0;
#X connect 17 2 21 0;
#X connect 17 3 23 0;
#X connect 17 4 25 0;
#X connect 17 5 27 0;
#X connect 17 6 29 0;
#X connect 17 7 31 0;
#X connect 17 8 33 0;
#X connect 17 9 35 0;
#X connect 17 10 37 0;
#X connect 17 11 39 0;
#X connect 18 0 19 1;
#X connect 19 0 41 0;
#X connect 20 0 21 1;
#X connect 21 0 41 0;
#X connect 22 0 23 1;
#X connect 23 0 41 0;
#X connect 24 0 25 1;
#X connect 25 0 41 0;
#X connect 26 0 27 1;
#X connect 27 0 41 0;
#X connect 28 0 29 1;
#X connect 29 0 41 0;
#X connect 30 0 31 1;
#X connect 31 0 41 0;
#X connect 32 0 33 1;
#X connect 33 0 41 0;
#X connect 34 0 35 1;
#X connect 35 0 41 0;
#X connect 36 0 37 1;
#X connect 37 0 41 0;
#X connect 38 0 39 1;
#X connect 39 0 41 0;
#X connect 40 0 45 0;
#X connect 41 0 42 0;
#X connect 42 0 0 0;
#X connect 42 0 0 1;
#X connect 43 0 102 0;
#X connect 44 0 103 0;
#X connect 45 0 101 0;
#X connect 45 1 43 0;
#X connect 45 2 44 0;
#X connect 45 3 46 0;
#X connect 46 0 104 0;
#X connect 47 0 105 0;
#X connect 48 0 106 0;
#X connect 49 0 100 0;
#X connect 49 1 47 0;
#X connect 49 2 48 0;
#X connect 49 3 50 0;
#X connect 50 0 107 0;
#X connect 51 0 49 0;
#X connect 52 0 113 0;
#X connect 53 0 114 0;
#X connect 54 0 112 0;
#X connect 54 1 52 0;
#X connect 54 2 53 0;
#X connect 54 3 55 0;
#X connect 55 0 115 0;
#X connect 56 0 109 0;
#X connect 57 0 110 0;
#X connect 58 0 108 0;
#X connect 58 1 56 0;
#X connect 58 2 57 0;
#X connect 58 3 59 0;
#X connect 59 0 111 0;
#X connect 60 0 54 0;
#X connect 61 0 58 0;
#X connect 62 0 4 0;
#X connect 63 0 14 0;
#X connect 64 0 9 0;
#X connect 65 0 10 0;
#X connect 66 0 8 0;
#X connect 67 0 12 0;
#X connect 68 0 43 1;
#X connect 69 0 44 1;
#X connect 70 0 46 1;
#X connect 71 0 47 1;
#X connect 72 0 48 1;
#X connect 73 0 50 1;
#X connect 74 0 52 1;
#X connect 75 0 53 1;
#X connect 76 0 55 1;
#X connect 77 0 56 1;
#X connect 78 0 57 1;
#X connect 79 0 59 1;
#X connect 80 0 81 0;
#X connect 80 1 82 0;
#X connect 80 2 83 0;
#X connect 80 3 84 0;
#X connect 85 0 86 0;
#X connect 85 1 87 0;
#X connect 85 2 88 0;
#X connect 85 3 89 0;
#X connect 90 0 91 0;
#X connect 90 1 92 0;
#X connect 90 2 93 0;
#X connect 90 3 94 0;
#X connect 95 0 96 0;
#X connect 95 1 97 0;
#X connect 95 2 98 0;
#X connect 95 3 99 0;
#X connect 100 0 15 0;
#X connect 101 0 15 0;
#X connect 102 0 15 0;
#X connect 103 0 15 0;
#X connect 104 0 15 0;
#X connect 105 0 15 0;
#X connect 106 0 15 0;
#X connect 107 0 15 0;
#X connect 108 0 15 0;
#X connect 109 0 15 0;
#X connect 110 0 15 0;
#X connect 111 0 15 0;
#X connect 112 0 15 0;
#X connect 113 0 15 0;
#X connect 114 0 15 0;
#X connect 115 0 15 0;
#X restore 8 38 pd audio;
#X msg 394 276 0;
#X msg 424 296 1;
#X msg 451 319 2;
#X msg 479 341 3;
#X obj 548 342 sel 0;
#X msg 549 364 12;
#X text 592 340 no visible bar when no mode selected;
#X floatatom 150 180 5 0 0 0 - - -, f 5;
#N canvas 616 87 651 686 loadsave-mapping 0;
#X obj 462 75 r reset_synth;
#X obj 577 33 loadbang;
#X obj 412 -152 r synth-load;
#X obj 411 -132 persist-load synth;
#X obj 413 -42 r synth-save;
#X obj 413 -22 persist-save synth;
#X obj 412 -208 r load_synth;
#X msg 412 -188 \; synth load presets_synth cbs;
#X obj 412 -98 r save_synth;
#X msg 412 -78 \; synth save presets_synth cbs;
#X obj 40 -210 r load_chords;
#X obj 40 -154 r chords-load;
#X obj 40 -134 persist-load chords;
#X obj 41 -103 r save_chords;
#X msg 40 -190 \; chords load presets_chords cbs;
#X msg 41 -83 \; chords save presets_chords cbs;
#X obj 42 -47 r chords-save;
#X obj 42 -27 persist-save chords;
#X obj 28 27 persist-map synth tone.s tone.r;
#X obj 28 46 persist-map synth decay.s decay.r;
#X obj 28 65 persist-map synth mod.s mod.r;
#X obj 28 84 persist-map synth velocity.s velocity.r;
#X obj 28 103 persist-map synth vibfreq.s vibfreq.r;
#X obj 28 124 persist-map synth vibdepth.s vibdepth.r;
#X obj 28 143 persist-map synth adsr.s adsr.r;
#X obj 28 162 persist-map synth delay.s delay.r;
#X obj 27 209 persist-map chords octave1.s octave1.r;
#X obj 27 229 persist-map chords basenote1.s basenote1.r;
#X obj 27 251 persist-map chords arrangement1.s arrangement1.r;
#X obj 26 280 persist-map chords octave2.s octave2.r;
#X obj 26 300 persist-map chords basenote2.s basenote2.r;
#X obj 26 322 persist-map chords arrangement2.s arrangement2.r;
#X obj 26 357 persist-map chords octave3.s octave3.r;
#X obj 26 377 persist-map chords basenote3.s basenote3.r;
#X obj 26 399 persist-map chords arrangement3.s arrangement3.r;
#X obj 26 427 persist-map chords octave4.s octave4.r;
#X obj 26 447 persist-map chords basenote4.s basenote4.r;
#X obj 26 470 persist-map chords arrangement4.s arrangement4.r;
#X obj 29 505 persist-map chords structured_evolution.s structured_evolution.r
;
#X obj 29 538 persist-map chords proba_evolution.s proba_evolution.r
;
#X obj 29 558 persist-map chords structure_type.s structure_type.r
;
#X obj 32 589 persist-map chords proba1.s proba1.r;
#X obj 34 611 persist-map chords proba2.s proba2.r;
#X obj 32 632 persist-map chords proba3.s proba3.r;
#X obj 34 654 persist-map chords proba4.s proba4.r;
#X obj 463 245 r reset_chords;
#X msg 463 280 \; octave1.r 1 \; basenote1.r/idx 0 \; arrangement1.r/idx
0 \; octave2.r 1 \; basenote2.r/idx 0 \; arrangement2.r/idx 0 \; octave3.r
1 \; basenote3.r/idx 0 \; arrangement3.r/idx 0 \; octave4.r 1 \; basenote4.r/idx
0 \; arrangement4.r/idx 0 \; structured_evolution.r 0 \; proba_evolution.r
0 \; structure_type.r 0 \; proba1.r 25 \; proba2.r 50 \; proba3.r 75
\; proba4.r 100 \;;
#X msg 341 34 \; play_div.r 3 \;;
#X msg 462 110 \; tone.r 0.2 \; decay.r 1500 \; velocity.r 100 \; vibfreq.r
11 \; vibdepth.r 1 \; mod.r 0 \; adsr.r 127 \; delay.r 0 \;;
#X connect 0 0 48 0;
#X connect 1 0 48 0;
#X connect 1 0 46 0;
#X connect 1 0 47 0;
#X connect 2 0 3 0;
#X connect 4 0 5 0;
#X connect 6 0 7 0;
#X connect 8 0 9 0;
#X connect 10 0 14 0;
#X connect 11 0 12 0;
#X connect 13 0 15 0;
#X connect 16 0 17 0;
#X connect 45 0 46 0;
#X restore 362 41 pd loadsave-mapping;
#X obj 165 42 loadsave pattern;
#X obj 270 42 loadsave synth;
#X obj 126 235 r play_div.s;
#X obj 41 299 list prepend;
#X obj 134 486 b;
#X obj 134 460 sel 3 6 9 12 15 18 21;
#X obj 34 366 sel 12;
#X obj 80 411 sel 6 12 18;
#X obj 80 432 b;
#X obj 107 457 b;
#X obj 107 434 sel 4 8 12 16 20;
#X obj 46 389 sel 8 16;
#X obj 46 409 b;
#X obj 170 517 b;
#X obj 169 489 sel 2 4 6 8 10 12 14 16 18 20 22;
#X obj 41 327 route 0 1 2 3 4 5 6;
#X obj 102 267 f;
#X obj 35 268 % 24;
#X obj 8 205 t b b;
#X obj 9 244 t b b b;
#X connect 2 0 3 0;
#X connect 3 0 4 0;
#X connect 4 0 50 0;
#X connect 5 0 1 0;
#X connect 5 0 30 0;
#X connect 6 0 2 0;
#X connect 6 0 49 0;
#X connect 6 1 5 0;
#X connect 6 2 9 0;
#X connect 10 0 11 0;
#X connect 10 0 23 0;
#X connect 10 1 12 0;
#X connect 10 1 24 0;
#X connect 10 2 13 0;
#X connect 10 2 25 0;
#X connect 10 3 14 0;
#X connect 10 3 26 0;
#X connect 15 0 10 3;
#X connect 16 0 10 2;
#X connect 16 0 27 0;
#X connect 17 0 10 1;
#X connect 17 0 27 0;
#X connect 18 0 20 0;
#X connect 19 0 18 0;
#X connect 21 0 19 0;
#X connect 23 0 21 0;
#X connect 24 0 21 0;
#X connect 25 0 21 0;
#X connect 26 0 21 0;
#X connect 27 0 28 0;
#X connect 28 0 21 0;
#X connect 34 0 48 1;
#X connect 35 0 47 0;
#X connect 36 0 7 0;
#X connect 37 0 36 0;
#X connect 37 1 36 0;
#X connect 37 2 36 0;
#X connect 37 3 36 0;
#X connect 37 4 36 0;
#X connect 37 5 36 0;
#X connect 37 6 36 0;
#X connect 38 0 7 0;
#X connect 39 0 40 0;
#X connect 39 1 40 0;
#X connect 39 2 40 0;
#X connect 40 0 7 0;
#X connect 41 0 7 0;
#X connect 42 0 41 0;
#X connect 42 1 41 0;
#X connect 42 2 41 0;
#X connect 42 3 41 0;
#X connect 42 4 41 0;
#X connect 43 0 44 0;
#X connect 43 1 44 0;
#X connect 44 0 7 0;
#X connect 45 0 7 0;
#X connect 46 0 45 0;
#X connect 46 1 45 0;
#X connect 46 2 45 0;
#X connect 46 3 45 0;
#X connect 46 4 45 0;
#X connect 46 5 45 0;
#X connect 46 6 45 0;
#X connect 46 7 45 0;
#X connect 46 8 45 0;
#X connect 46 9 45 0;
#X connect 46 10 45 0;
#X connect 47 1 38 0;
#X connect 47 2 43 0;
#X connect 47 3 39 0;
#X connect 47 4 42 0;
#X connect 47 5 37 0;
#X connect 47 6 46 0;
#X connect 48 0 35 1;
#X connect 49 0 35 0;
#X connect 50 0 51 0;
#X connect 50 1 10 0;
#X connect 51 0 7 0;
#X connect 51 2 48 0;
