#N canvas 691 92 651 686 10;
#X obj 463 171 bng 25 250 50 0 empty empty Xm7 3 12 0 10 -262130 -1
-1;
#X obj 191 426 unpack 0 0 0 0;
#X obj 272 171 bng 25 250 50 0 empty empty X7 3 12 0 10 -203904 -1
-1;
#X obj 218 171 bng 25 250 50 0 empty empty Xj 3 12 0 10 -257985 -1
-1;
#X obj 152 513 +;
#X obj 177 513 +;
#X obj 202 513 +;
#X obj 227 513 +;
#X obj 410 171 bng 25 250 50 0 empty empty Xmj 3 12 0 10 -261234 -1
-1;
#X obj 517 171 bng 25 250 50 0 empty empty X_d 3 12 0 10 -204786 -1
-1;
#X obj 490 171 bng 25 250 50 0 empty empty X/d 3 12 0 10 -262130 -1
-1;
#X obj 326 171 bng 25 250 50 0 empty empty X+j 3 12 0 10 -228856 -1
-1;
#X obj 353 171 bng 25 250 50 0 empty empty X+7 3 12 0 10 -4032 -1 -1
;
#X obj 245 171 bng 25 250 50 0 empty empty X6 3 12 0 10 -260097 -1
-1;
#X obj 436 171 bng 25 250 50 0 empty empty Xm6 3 12 0 10 -162280 -1
-1;
#X obj 299 171 bng 25 250 50 0 empty empty X7b5 3 12 0 9 -261234 -1
-1;
#X obj 191 171 bng 25 250 50 0 empty empty XM 3 12 0 10 -262144 -1
-1;
#X obj 384 171 bng 25 250 50 0 empty empty Xm 3 12 0 10 -262130 -1
-1;
#X obj 152 549 + 0;
#X obj 177 550 + 0;
#X obj 202 550 + 0;
#X obj 227 550 + 0;
#X msg 218 223 0 4 7 11;
#X msg 245 240 0 4 7 9;
#X msg 272 257 0 4 7 10;
#X msg 299 274 0 4 6 10;
#X msg 326 291 0 4 8 11;
#X msg 353 308 0 4 8 10;
#X msg 410 342 0 3 7 11;
#X msg 436 358 0 3 7 9;
#X msg 463 375 0 3 7 10;
#X msg 490 392 0 3 6 10;
#X msg 517 409 0 3 6 9;
#X obj 45 403 t f f f f;
#X obj 393 485 + 3;
#X obj 393 507 * 12;
#X msg 191 206 0 4 7 12;
#X msg 384 325 0 3 7 12;
#X obj 191 142 sel 0 1 2 3 4 5 6 7 8 9 10 11 12, f 59;
#X obj 46 382 f;
#X obj 191 116 f;
#X obj 393 463 f;
#X obj 174 15 r \$3;
#X obj 358 6 r \$2;
#X obj 46 12 r \$1;
#X obj 46 46 t b f b b;
#X obj 174 50 t b b f b;
#X obj 358 29 t b b b f;
#X obj 152 589 outlet;
#X obj 177 610 outlet;
#X obj 202 630 outlet;
#X obj 227 650 outlet;
#X connect 0 0 30 0;
#X connect 1 0 4 1;
#X connect 1 1 5 1;
#X connect 1 2 6 1;
#X connect 1 3 7 1;
#X connect 2 0 24 0;
#X connect 3 0 22 0;
#X connect 4 0 18 0;
#X connect 5 0 19 0;
#X connect 6 0 20 0;
#X connect 7 0 21 0;
#X connect 8 0 28 0;
#X connect 9 0 32 0;
#X connect 10 0 31 0;
#X connect 11 0 26 0;
#X connect 12 0 27 0;
#X connect 13 0 23 0;
#X connect 14 0 29 0;
#X connect 15 0 25 0;
#X connect 16 0 36 0;
#X connect 17 0 37 0;
#X connect 18 0 48 0;
#X connect 19 0 49 0;
#X connect 20 0 50 0;
#X connect 21 0 51 0;
#X connect 22 0 1 0;
#X connect 23 0 1 0;
#X connect 24 0 1 0;
#X connect 25 0 1 0;
#X connect 26 0 1 0;
#X connect 27 0 1 0;
#X connect 28 0 1 0;
#X connect 29 0 1 0;
#X connect 30 0 1 0;
#X connect 31 0 1 0;
#X connect 32 0 1 0;
#X connect 33 0 7 0;
#X connect 33 1 6 0;
#X connect 33 2 5 0;
#X connect 33 3 4 0;
#X connect 34 0 35 0;
#X connect 35 0 21 1;
#X connect 35 0 20 1;
#X connect 35 0 19 1;
#X connect 35 0 18 1;
#X connect 36 0 1 0;
#X connect 37 0 1 0;
#X connect 38 0 16 0;
#X connect 38 1 3 0;
#X connect 38 2 13 0;
#X connect 38 3 2 0;
#X connect 38 4 15 0;
#X connect 38 5 11 0;
#X connect 38 6 12 0;
#X connect 38 7 17 0;
#X connect 38 8 8 0;
#X connect 38 9 14 0;
#X connect 38 10 0 0;
#X connect 38 11 10 0;
#X connect 38 12 9 0;
#X connect 39 0 33 0;
#X connect 40 0 38 0;
#X connect 41 0 34 0;
#X connect 42 0 46 0;
#X connect 43 0 47 0;
#X connect 44 0 45 0;
#X connect 45 0 39 0;
#X connect 45 1 39 1;
#X connect 45 2 40 0;
#X connect 45 3 41 0;
#X connect 46 0 39 0;
#X connect 46 1 40 0;
#X connect 46 2 40 1;
#X connect 46 3 41 0;
#X connect 47 0 39 0;
#X connect 47 1 40 0;
#X connect 47 2 41 0;
#X connect 47 3 41 1;
