#N canvas 396 176 450 300 10;
#N canvas 146 87 561 528 (subpatch) 1;
#X obj 1 0 cnv 15 348 20 empty empty Structure 2 10 0 14 -66577 -262144
0;
#X obj 8 24 tgl 15 0 \$0134209IJFZ struct-evol empty 17 7 0 10 -262144
-1 -1 1 1;
#N canvas 65 54 1301 714 harmonic-structures 1;
#X text 642 -294 States machine looping through a sequence of states
;
#X text 643 -281 Mainly for musical forms;
#X text 645 -259 Does not use arguments \, but the right inlet;
#X text 645 -238 2nd inlet : list representing the form;
#X text 591 -15 Rondo;
#X text 573 -152 Ternary;
#X text 567 -98 Arch form;
#X text 581 -67 Binary;
#X msg 386 -210 reset;
#X msg 315 -209 behave \$1;
#X obj 316 -227 tgl 15 0 empty empty empty 0 -6 0 8 -262144 -1 -1 0
1;
#X text 645 -217 behave : (1 0) reset when the moment you change the
form. Defaults to false;
#X text 645 -184 reset : resets to the first part of the form (0);
#X msg 474 -15 1 2 1 3 1 4 1;
#X obj 231 -176 select 0;
#X obj 232 62 select 1 2 3 4;
#X msg 472 -152 1 1 2 1;
#X msg 473 -128 1 2 1;
#X msg 474 -97 1 2 1 3 1 2 1;
#X msg 474 -68 1 2;
#X msg 473 -44 1 1 2 2;
#N canvas 65 54 1301 714 musical-forms 0;
#X obj 47 24 inlet;
#X obj 203 116 bang;
#X obj 78 204 f 0;
#X obj 120 206 + 1;
#X msg -6 153 0;
#X text 533 81 form a a b a;
#X obj 476 35 inlet;
#X obj 191 351 list;
#X obj 223 408 list split 1;
#X obj 191 381 list split;
#X obj 194 290 t b f;
#X obj 203 592 outlet;
#X obj -5 131 bang;
#X text 302 380 get element at;
#X obj 84 246 %;
#X obj 461 92 t a a b;
#X obj 214 183 spigot;
#X msg 213 203 1;
#X obj 64 82 route reset behave;
#X obj 480 241 list length;
#X connect 0 0 18 0;
#X connect 1 0 2 0;
#X connect 2 0 3 0;
#X connect 2 0 14 0;
#X connect 3 0 2 1;
#X connect 4 0 2 1;
#X connect 6 0 15 0;
#X connect 7 0 9 0;
#X connect 8 0 11 0;
#X connect 9 1 8 0;
#X connect 10 0 7 0;
#X connect 10 1 9 1;
#X connect 12 0 4 0;
#X connect 14 0 10 0;
#X connect 15 0 7 1;
#X connect 15 1 19 0;
#X connect 15 2 16 0;
#X connect 16 0 17 0;
#X connect 17 0 3 1;
#X connect 18 0 12 0;
#X connect 18 1 16 1;
#X connect 18 2 1 0;
#X connect 19 0 14 1;
#X restore 231 -111 pd musical-forms;
#X obj 509 -286 inlet;
#X msg 477 9 1 2 1 3 1;
#X text 553 10 Blues;
#X obj 509 -255 sel 0 1 2 3 4 5 6;
#X obj 231 12 spigot;
#X obj 267 -324 inlet;
#X obj -16 -110 spigot;
#X obj 17 -322 inlet;
#X obj -16 -91 random 100;
#X obj 53 -84 r Struct-I-prob;
#X obj 67 -64 r Struct-II-prob;
#X obj 90 -42 r Struct-III-prob;
#X obj 104 -22 r Struct-IV-prob;
#X obj -16 -67 moses;
#X obj 11 -47 moses;
#X obj 38 -25 moses;
#X obj 64 -5 moses;
#X obj 231 -283 r base-note-change;
#X obj 231 -262 b;
#X msg 231 -239 0;
#X obj 19 223 outlet;
#X obj 89 225 outlet;
#X obj 158 225 outlet;
#X obj 238 224 outlet;
#X obj 386 -250 r stop;
#X obj 19 197 b;
#X obj 89 196 b;
#X obj 158 195 b;
#X obj 238 195 b;
#X connect 8 0 21 0;
#X connect 9 0 21 0;
#X connect 10 0 9 0;
#X connect 13 0 21 1;
#X connect 14 0 21 0;
#X connect 14 0 28 0;
#X connect 15 0 47 0;
#X connect 15 1 48 0;
#X connect 15 2 49 0;
#X connect 15 3 50 0;
#X connect 16 0 21 1;
#X connect 17 0 21 1;
#X connect 18 0 21 1;
#X connect 19 0 21 1;
#X connect 20 0 21 1;
#X connect 21 0 26 0;
#X connect 22 0 25 0;
#X connect 23 0 21 1;
#X connect 25 0 16 0;
#X connect 25 1 17 0;
#X connect 25 2 18 0;
#X connect 25 3 19 0;
#X connect 25 4 20 0;
#X connect 25 5 13 0;
#X connect 25 6 23 0;
#X connect 26 0 15 0;
#X connect 27 0 26 1;
#X connect 28 0 30 0;
#X connect 29 0 28 1;
#X connect 30 0 35 0;
#X connect 31 0 35 1;
#X connect 32 0 36 1;
#X connect 33 0 37 1;
#X connect 34 0 38 1;
#X connect 35 0 47 0;
#X connect 35 1 36 0;
#X connect 36 0 48 0;
#X connect 36 1 37 0;
#X connect 37 0 49 0;
#X connect 37 1 38 0;
#X connect 38 0 50 0;
#X connect 39 0 40 0;
#X connect 40 0 41 0;
#X connect 41 0 14 0;
#X connect 46 0 8 0;
#X connect 47 0 42 0;
#X connect 48 0 43 0;
#X connect 49 0 44 0;
#X connect 50 0 45 0;
#X coords 0 -1 1 1 150 60 1 100 100;
#X restore 86 238 pd harmonic-structures;
#X obj 138 -171 loadbang;
#X msg 92 -107 4;
#X obj 8 45 vradio 15 1 0 7 \$0czehjiczeijnooooo \$0cifzehjbnpppppp
empty 0 -8 0 10 -262144 -1 -1 1;
#X text 29 87 Binary (1 2);
#X text 30 103 Binary (1 1 2 2);
#X text 30 119 Rondo (1 2 1 3 1 4 1);
#X text 30 135 Blues (1 2 1 3 2 1);
#X text 29 72 Arch form (1 2 1 3 1 2 1);
#X text 28 56 Ternary (1 2 1);
#X text 27 40 Ternary (1 1 2 1);
#X msg 151 -90 24;
#X msg 163 -68 29;
#X msg 173 -46 28;
#X msg 185 -25 31;
#X obj 186 23 tgl 15 0 \$0134209IJFZ proba-evol empty 17 7 0 10 -262144
-1 -1 1 1;
#X text 26 21 Structured evolution;
#X text 204 20 Probabilistic evolution;
#N canvas 65 82 1024 686 (subpatch) 0;
#X obj 2 18 vsl 20 30 0 100 0 0 \$0oieazdjd \$0azdxs I 7 -9 0 10 -33289
-262144 -33289 0 1;
#X floatatom 2 51 5 0 0 0 - - -, f 5;
#X obj 37 17 vsl 20 30 0 100 0 0 \$0oieazdjd \$0azdxs II 3 -9 0 10
-33289 -262144 -33289 0 1;
#X floatatom 37 51 5 0 0 0 - - -, f 5;
#X obj 71 17 vsl 20 30 0 100 0 0 \$0oieazdjd \$0azdxs III 1 -9 0 10
-33289 -262144 -33289 0 1;
#X floatatom 71 50 5 0 0 0 - - -, f 5;
#X obj 105 16 vsl 20 30 0 100 0 0 \$0oieazdjd \$0azdxs IV 1 -9 0 10
-33289 -262144 -33289 0 1;
#X floatatom 105 50 5 0 0 0 - - -, f 5;
#X obj 428 29 i;
#X obj 408 53 i;
#X obj 54 -117 unpack f f f f f f f f;
#X obj 435 60 i;
#X obj 404 30 i;
#X obj 462 53 i;
#X obj 501 -152 r default-setting;
#X obj -12 168 s Struct-I-prob;
#X msg 489 -112 25 50 75 100;
#X obj 2 188 s Struct-II-prob;
#X obj 25 212 s Struct-III-prob;
#X obj 39 232 s Struct-IV-prob;
#X connect 0 0 11 0;
#X connect 1 0 15 0;
#X connect 2 0 12 0;
#X connect 3 0 17 0;
#X connect 4 0 13 0;
#X connect 5 0 18 0;
#X connect 6 0 8 0;
#X connect 7 0 19 0;
#X connect 8 0 7 0;
#X connect 10 0 0 0;
#X connect 10 1 2 0;
#X connect 10 2 4 0;
#X connect 10 3 6 0;
#X connect 11 0 1 0;
#X connect 12 0 3 0;
#X connect 13 0 5 0;
#X connect 14 0 16 0;
#X connect 16 0 10 0;
#X coords 0 1 100 -1 139 70 1 0 0;
#X restore 186 46 graph;
#X msg 31 -110 1;
#X obj 1 -157 r Struct-preset;
#X obj 98 329 outlet;
#X connect 1 0 2 1;
#X connect 3 0 4 0;
#X connect 3 0 13 0;
#X connect 3 0 14 0;
#X connect 3 0 15 0;
#X connect 3 0 16 0;
#X connect 3 0 21 0;
#X connect 5 0 2 2;
#X connect 17 0 2 0;
#X connect 21 0 5 0;
#X connect 21 0 17 0;
#X connect 22 0 5 0;
#X coords 0 1 100 -1 350 300 1 0 0;
#X restore -1 -342 graph;
