#N canvas 65 54 1301 714 10;
#X obj -42 117 f 0;
#X obj -17 117 + 1;
#X obj -42 10 b;
#X obj -327 134 / 24;
#X obj -327 155 i;
#X obj -327 175 change;
#X floatatom -286 348 10 0 0 0 - - -, f 10;
#X floatatom -318 366 10 0 0 0 - - -, f 10;
#X floatatom 52 -35 5 0 0 0 - - -, f 5;
#X obj -42 -38 midirealtimein;
#X floatatom 10 118 5 0 0 0 - - -, f 5;
#X obj -42 -15 route 248 250 252;
#X text 76 -15 // 248 == beat;
#N canvas 65 87 450 300 audio_feedback 0;
#X obj 395 414 *~;
#X obj 395 470 dac~;
#X obj 469 397 line~;
#X obj 469 322 t b b;
#X msg 469 346 1 5;
#X obj 512 347 del 5;
#X msg 515 370 0 5;
#X obj 394 362 osc~ 880;
#X obj 469 299 spigot;
#X obj 502 275 inlet;
#X obj 469 253 inlet;
#X connect 0 0 1 0;
#X connect 0 0 1 1;
#X connect 2 0 0 1;
#X connect 3 0 4 0;
#X connect 3 1 5 0;
#X connect 4 0 2 0;
#X connect 5 0 6 0;
#X connect 6 0 2 0;
#X connect 7 0 0 0;
#X connect 8 0 3 0;
#X connect 9 0 8 1;
#X connect 10 0 8 0;
#X restore -253 290 pd audio_feedback;
#X msg -154 247 1;
#X msg -154 270 0;
#N canvas 65 97 450 300 time 0;
#X obj 63 122 timer;
#X obj 63 76 % 2;
#X obj 63 96 sel 0 1;
#X obj 63 166 swap 60000;
#X obj 63 189 /;
#X obj 138 167 outlet ms;
#X obj 63 215 outlet bpm;
#X obj 63 54 inlet;
#X connect 0 0 3 0;
#X connect 0 0 5 0;
#X connect 1 0 2 0;
#X connect 2 0 0 0;
#X connect 2 1 0 1;
#X connect 3 0 4 0;
#X connect 3 1 4 1;
#X connect 4 0 6 0;
#X connect 7 0 1 0;
#X restore -327 315 pd time;
#X text -216 348 ms;
#X text -246 368 bpm;
#X text -121 245 on;
#X text -122 267 off;
#X msg -9 35 0;
#X obj 57 417 i;
#X obj 57 437 change;
#X obj 57 397 / 12;
#X floatatom 106 440 5 0 0 0 - - -, f 5;
#X text 74 10 // 252 == stop;
#X text 73 23 // 251 == resume;
#X obj -9 11 b;
#X text 95 398 x 2;
#X obj 348 419 i;
#X obj 348 439 change;
#X floatatom 397 442 5 0 0 0 - - -, f 5;
#X obj 445 420 i;
#X obj 445 440 change;
#X floatatom 494 443 5 0 0 0 - - -, f 5;
#X text 483 401 x 8;
#X obj 156 417 i;
#X obj 156 437 change;
#X floatatom 205 440 5 0 0 0 - - -, f 5;
#X obj 156 397 / 8;
#X text 194 398 x 3;
#X obj 252 439 change;
#X floatatom 301 442 5 0 0 0 - - -, f 5;
#X obj 445 400 / 3;
#X obj -74 34 bng 15 250 50 0 empty empty empty 17 7 0 10 -262144 -1
-1;
#X obj -339 11 delay 250;
#X obj -382 28 bng 15 250 50 0 empty empty empty 17 7 0 10 -262144
-1 -1;
#X obj -382 -4 bng 15 250 50 0 empty empty empty 17 7 0 10 -262144
-1 -1;
#N canvas 65 87 450 457 avg 0;
#X obj 57 121 -;
#X obj 57 146 /;
#X obj 57 169 +;
#X obj 88 169 f;
#X text 118 168 (mean);
#X text 85 122 (delta);
#X obj 57 -75 inlet;
#X obj 57 -34 route float reset;
#X obj 255 8 b;
#X obj 255 32 0;
#X obj 57 199 outlet;
#X obj 240 72 f;
#X obj 269 72 + 1;
#X obj 240 99 + 1;
#X obj 57 55 t f b;
#X obj 240 192 outlet;
#X text 290 193 (n);
#X text 103 200 (average);
#X connect 0 0 1 0;
#X connect 1 0 2 0;
#X connect 2 0 3 0;
#X connect 2 0 0 1;
#X connect 2 0 10 0;
#X connect 3 0 2 1;
#X connect 6 0 7 0;
#X connect 7 0 14 0;
#X connect 7 1 8 0;
#X connect 8 0 9 0;
#X connect 9 0 3 0;
#X connect 9 0 0 1;
#X connect 9 0 11 1;
#X connect 11 0 12 0;
#X connect 11 0 13 0;
#X connect 12 0 11 1;
#X connect 13 0 1 1;
#X connect 13 0 15 0;
#X connect 14 0 0 0;
#X connect 14 1 11 0;
#X restore -288 -13 pd avg;
#X obj -382 65 f 0;
#X obj -357 65 + 1;
#X floatatom -330 66 5 0 0 0 - - -, f 5;
#X obj -327 392 outlet bpm;
#X obj -288 416 outlet dt;
#X obj -9 172 r clockmode.s;
#X obj -327 196 t f f;
#X obj -42 395 / 24;
#X obj -42 416 i;
#X obj -42 436 change;
#X text -331 112 info;
#X text 0 398 normal;
#X obj -42 234 spigot;
#X obj 684 498 r clockmode.s;
#X obj 651 570 spigot;
#X obj 684 522 swap 1;
#X obj 684 545 -;
#X obj 252 419 i;
#X text 290 400 x 4;
#X obj 252 399 / 6;
#X obj 348 399 / 4;
#X text 386 400 x 6;
#X obj 651 459 metro 250;
#X obj 651 336 r localbpm.s;
#X obj 651 357 swap 60000;
#X obj 651 380 /;
#X obj 651 400 t b f;
#X obj 651 435 f 1;
#X text 75 -3 // 250 == start;
#X text -42 -61 net clock connected to Publisher's java code;
#X text 652 307 local clock;
#N canvas 65 92 450 300 receiveFROMgui 0;
#X obj 26 17 r 1x.s;
#X msg 26 37 1;
#X obj 26 60 s netclockspeed.s;
#X obj 27 132 s netclockspeed.s;
#X obj 27 89 r 2x.s;
#X msg 27 109 2;
#X obj 26 202 s netclockspeed.s;
#X obj 26 159 r 3x.s;
#X msg 26 179 3;
#X obj 24 270 s netclockspeed.s;
#X obj 24 227 r 4x.s;
#X msg 24 247 4;
#X obj 225 134 s netclockspeed.s;
#X obj 225 91 r 6x.s;
#X obj 225 206 s netclockspeed.s;
#X msg 225 183 4;
#X obj 225 163 r 8x.s;
#X msg 225 111 6;
#X connect 0 0 1 0;
#X connect 1 0 2 0;
#X connect 4 0 5 0;
#X connect 5 0 3 0;
#X connect 7 0 8 0;
#X connect 8 0 6 0;
#X connect 10 0 11 0;
#X connect 11 0 9 0;
#X connect 13 0 17 0;
#X connect 15 0 14 0;
#X connect 16 0 15 0;
#X connect 17 0 12 0;
#X restore 300 -44 pd receiveFROMgui;
#X obj -42 259 list prepend;
#X obj 42 206 r netclockspeed.s;
#X obj -42 284 route 1 2 3 4 6 8;
#X obj -42 588 t b;
#X obj -42 608 outlet bang;
#X obj 579 -59 r clockmode.s;
#X obj 579 -37 change;
#X obj 579 -16 b;
#X obj 579 5 f 0;
#X obj 579 52 outlet reset;
#X obj 289 201 loadbang;
#X text 370 200 initialiser clock mode et netclock speed;
#X msg 289 232 \; clockmode.s 1 \; netclockspeed.s 1 \;;
#X obj -42 151 t f b;
#X obj 27 235 f;
#X connect 0 0 1 0;
#X connect 0 0 10 0;
#X connect 0 0 3 0;
#X connect 0 0 95 0;
#X connect 1 0 0 1;
#X connect 2 0 0 0;
#X connect 2 0 45 0;
#X connect 3 0 4 0;
#X connect 4 0 5 0;
#X connect 5 0 56 0;
#X connect 9 0 11 0;
#X connect 9 1 8 0;
#X connect 11 0 2 0;
#X connect 11 1 28 0;
#X connect 14 0 13 1;
#X connect 15 0 13 1;
#X connect 16 0 7 0;
#X connect 16 0 53 0;
#X connect 16 1 6 0;
#X connect 16 1 49 0;
#X connect 16 1 54 0;
#X connect 21 0 0 1;
#X connect 21 0 91 0;
#X connect 22 0 23 0;
#X connect 23 0 25 0;
#X connect 23 0 85 0;
#X connect 24 0 22 0;
#X connect 28 0 21 0;
#X connect 30 0 31 0;
#X connect 31 0 32 0;
#X connect 31 0 85 0;
#X connect 33 0 34 0;
#X connect 34 0 35 0;
#X connect 34 0 85 0;
#X connect 37 0 38 0;
#X connect 38 0 39 0;
#X connect 38 0 85 0;
#X connect 40 0 37 0;
#X connect 42 0 43 0;
#X connect 42 0 85 0;
#X connect 44 0 33 0;
#X connect 46 0 47 0;
#X connect 47 0 48 0;
#X connect 47 0 50 0;
#X connect 48 0 46 0;
#X connect 49 0 46 1;
#X connect 50 0 51 0;
#X connect 50 0 52 0;
#X connect 51 0 50 1;
#X connect 55 0 62 1;
#X connect 56 0 16 0;
#X connect 56 1 13 0;
#X connect 57 0 58 0;
#X connect 58 0 59 0;
#X connect 59 0 85 0;
#X connect 62 0 82 0;
#X connect 63 0 65 0;
#X connect 64 0 85 0;
#X connect 65 0 66 0;
#X connect 65 1 66 1;
#X connect 66 0 64 1;
#X connect 67 0 42 0;
#X connect 69 0 67 0;
#X connect 70 0 30 0;
#X connect 72 0 64 0;
#X connect 73 0 74 0;
#X connect 74 0 75 0;
#X connect 74 1 75 1;
#X connect 75 0 76 0;
#X connect 76 0 77 0;
#X connect 76 1 72 1;
#X connect 76 1 54 0;
#X connect 77 0 72 0;
#X connect 82 0 84 0;
#X connect 83 0 96 1;
#X connect 84 0 57 0;
#X connect 84 1 24 0;
#X connect 84 2 40 0;
#X connect 84 3 69 0;
#X connect 84 4 70 0;
#X connect 84 5 44 0;
#X connect 85 0 86 0;
#X connect 87 0 88 0;
#X connect 88 0 89 0;
#X connect 89 0 90 0;
#X connect 90 0 91 0;
#X connect 92 0 94 0;
#X connect 95 0 62 0;
#X connect 95 1 96 0;
#X connect 96 0 82 1;
