#N canvas 0 0 461 432 12;
#N canvas 0 0 450 300 (subpatch) 0;
#X array seq 64 float 1;
#A 0 0 0 0 0 0 0 0 0 0 0 0 0 0 0 0 0 0 0 0 0 0 0 0 0 0 0 0 0 0 0 0
0 0 0 0 0 0 0 0 0 0 0 0 0 0 0 0 0 0 0 0 0 0 0 0 0 0 0 0 0 0 0 0 0;
#X coords 0 1 63 -1 200 140 1;
#X restore 100 20 graph;
#X msg 102 205 \; seq const 0;
#X text 18 141 RESET ALL;
#X obj 102 297 s redraw;
#X msg 102 247 bang;
#X msg 102 273 bang;
#X text 96 326 Save this window to save the sequence;
#X obj 100 178 r wordbutton-reset;
#X text 17 379 La table qui va stocker les différents patterns de batteries
que l'on va entrer.;
#X connect 1 0 4 0;
#X connect 4 0 5 0;
#X connect 5 0 3 0;
#X connect 7 0 1 0;
