#N canvas 683 0 667 680 10;
#X msg 84 143 36;
#X msg 101 163 37;
#X msg 118 186 38;
#X msg 135 206 39;
#X msg 153 143 40;
#X msg 170 163 41;
#X msg 187 186 42;
#X msg 204 206 43;
#X msg 222 146 44;
#X msg 239 166 45;
#X msg 256 189 46;
#X msg 273 209 47;
#X obj 320 290 * 12;
#X obj 144 323 +;
#X obj 84 98 symbol;
#X obj 150 -32 inlet bang;
#X msg 117 74 symbol \$1;
#X obj 222 580 f;
#X obj 318 269 f;
#X obj 150 -9 t b b b b b;
#X obj 144 623 outlet;
#X obj 117 51 r \$1;
#X obj 369 75 r \$2;
#X obj 237 531 r \$3;
#X obj 211 356 r \$4;
#X msg 336 205 0;
#X msg 353 225 1;
#X msg 370 248 2;
#X msg 387 268 3;
#X msg 411 214 4;
#X obj 336 126 symbol;
#X msg 369 102 symbol \$1;
#X obj 318 92 t b b;
#X obj 144 530 makenote;
#X obj 289 343 r \$5;
#X obj 256 395 symbol;
#X msg 289 371 symbol \$1;
#X obj 256 420 select /1 /2 /3 /4;
#X obj 371 420 r notetime;
#X obj 256 450 f;
#X obj 256 472 / 1;
#X obj 290 450 f;
#X obj 290 472 / 2;
#X obj 322 450 f;
#X obj 356 450 f;
#X obj 322 472 / 3;
#X obj 356 472 / 4;
#X obj 177 417 sel 0 1;
#X obj 177 393 f;
#X obj 237 553 t f;
#X obj 190 556 t f b;
#X obj 117 372 f;
#X obj 146 600 pack f f f;
#X msg 288 161 0;
#X obj 84 118 select C C# D Eb E F F# G G# A Bb B Off;
#X obj 336 151 select *0 *1 *2 *3;
#X msg 177 440 60;
#X msg 207 441 80;
#X connect 0 0 13 0;
#X connect 1 0 13 0;
#X connect 2 0 13 0;
#X connect 3 0 13 0;
#X connect 4 0 13 0;
#X connect 5 0 13 0;
#X connect 6 0 13 0;
#X connect 7 0 13 0;
#X connect 8 0 13 0;
#X connect 9 0 13 0;
#X connect 10 0 13 0;
#X connect 11 0 13 0;
#X connect 12 0 13 1;
#X connect 13 0 51 1;
#X connect 14 0 54 0;
#X connect 15 0 19 0;
#X connect 16 0 14 1;
#X connect 17 0 52 2;
#X connect 18 0 12 0;
#X connect 19 0 51 0;
#X connect 19 1 14 0;
#X connect 19 2 48 0;
#X connect 19 3 35 0;
#X connect 19 4 32 0;
#X connect 21 0 16 0;
#X connect 22 0 31 0;
#X connect 23 0 49 0;
#X connect 24 0 48 1;
#X connect 25 0 18 1;
#X connect 26 0 18 1;
#X connect 27 0 18 1;
#X connect 28 0 18 1;
#X connect 29 0 18 1;
#X connect 30 0 55 0;
#X connect 31 0 30 1;
#X connect 32 0 18 0;
#X connect 32 1 30 0;
#X connect 33 0 52 0;
#X connect 33 1 50 0;
#X connect 34 0 36 0;
#X connect 35 0 37 0;
#X connect 36 0 35 1;
#X connect 37 0 39 0;
#X connect 37 1 41 0;
#X connect 37 2 43 0;
#X connect 37 3 44 0;
#X connect 38 0 39 1;
#X connect 38 0 41 1;
#X connect 38 0 43 1;
#X connect 38 0 44 1;
#X connect 39 0 40 0;
#X connect 40 0 33 2;
#X connect 41 0 42 0;
#X connect 42 0 33 2;
#X connect 43 0 45 0;
#X connect 44 0 46 0;
#X connect 45 0 33 2;
#X connect 46 0 33 2;
#X connect 47 0 56 0;
#X connect 47 1 57 0;
#X connect 48 0 47 0;
#X connect 49 0 17 1;
#X connect 50 0 52 1;
#X connect 50 1 17 0;
#X connect 51 0 33 0;
#X connect 52 0 20 0;
#X connect 53 0 51 0;
#X connect 54 0 0 0;
#X connect 54 1 1 0;
#X connect 54 2 2 0;
#X connect 54 3 3 0;
#X connect 54 4 4 0;
#X connect 54 5 5 0;
#X connect 54 6 6 0;
#X connect 54 7 7 0;
#X connect 54 8 8 0;
#X connect 54 9 9 0;
#X connect 54 10 10 0;
#X connect 54 11 11 0;
#X connect 54 12 53 0;
#X connect 55 0 25 0;
#X connect 55 1 26 0;
#X connect 55 2 27 0;
#X connect 55 3 28 0;
#X connect 56 0 33 1;
#X connect 57 0 33 1;
