#N struct 1131template-marker float a float b;
#N canvas 554 204 477 291 10;
#X declare -path ../../../../pd-party/droidparty-abstractions;
#X obj 36 15 declare -path ../../../../pd-party/droidparty-abstractions
;
#X obj 48 79 taplist 32 32 taplist.r taplist.s A B C D;
#X text 47 55 taplist;
#X obj 299 83 loadsave myLoadSave;
#X text 298 62 load/save;
#X obj 178 81 touch 64 64 myTouch;
#X text 179 58 touch;
#X obj 46 41 cnv 15 1 100 empty empty empty 20 12 0 14 -258113 -66577
0;
#X obj 21 77 cnv 15 100 1 empty empty empty 20 12 0 14 -258113 -66577
0;
#X obj 297 45 cnv 15 1 100 empty empty empty 20 12 0 14 -258113 -66577
0;
#X obj 272 81 cnv 15 100 1 empty empty empty 20 12 0 14 -258113 -66577
0;
#X obj 176 43 cnv 15 1 100 empty empty empty 20 12 0 14 -258113 -66577
0;
#X obj 151 79 cnv 15 100 1 empty empty empty 20 12 0 14 -258113 -66577
0;
#X obj 70 177 r taplist.s;
#X obj 117 250 print;
#X obj 306 110 bng 32 250 50 0 myLoadSave empty empty 17 7 0 10 -262144
-1 -1;
#X obj 169 171 r myTouch;
#X obj 332 181 _OVERVIEW;
#X connect 13 0 14 0;
#X connect 16 0 14 0;
