#N struct 1161template-marker float a float b;
#N canvas 552 205 477 291 10;
#X declare -path ../../../../pd-party/droidparty-abstractions;
#X obj 36 15 declare -path ../../../../pd-party/droidparty-abstractions
;
#X obj 48 79 taplist 32 32 taplist.r taplist.s A B C D;
#X text 47 55 taplist;
#X obj 299 83 loadsave myLoadSave;
#X text 298 62 load/save;
#X obj 178 81 touch 64 64 myTouch;
#X text 179 58 touch;
#X obj 46 41 cnv 15 1 100 empty empty empty 20 12 0 14 -258113 -66577
0;
#X obj 21 77 cnv 15 100 1 empty empty empty 20 12 0 14 -258113 -66577
0;
#X obj 297 45 cnv 15 1 100 empty empty empty 20 12 0 14 -258113 -66577
0;
#X obj 272 81 cnv 15 100 1 empty empty empty 20 12 0 14 -258113 -66577
0;
#X obj 176 43 cnv 15 1 100 empty empty empty 20 12 0 14 -258113 -66577
0;
#X obj 151 79 cnv 15 100 1 empty empty empty 20 12 0 14 -258113 -66577
0;
#X obj 29 182 r taplist.s;
#X obj 117 250 print;
#X obj 308 130 bng 32 250 50 0 load empty empty 17 7 0 10 -262144 -1
-1;
#X obj 117 183 r myTouch;
#X obj 309 174 r load;
#X msg 309 196 \; myLoadSave load .;
#X text 308 107 load;
#X obj 359 130 bng 32 250 50 0 save empty empty 17 7 0 10 -262144 -1
-1;
#X text 359 107 save;
#X obj 327 233 r save;
#X msg 327 255 \; myLoadSave save .;
#X obj 186 183 r myLoadSave;
#X connect 13 0 14 0;
#X connect 16 0 14 0;
#X connect 17 0 18 0;
#X connect 22 0 23 0;
#X connect 24 0 14 0;
