#N canvas 65 54 1301 714 10;
#X obj 338 154 f 0;
#X obj 363 154 + 1;
#X obj 338 47 b;
#X floatatom 432 7 5 0 0 0 - - -, f 5;
#X obj 338 4 midirealtimein;
#X text 503 23 // 248 == beat;
#N canvas 65 92 450 300 audio_feedback 0;
#X obj 395 414 *~;
#X obj 395 470 dac~;
#X obj 469 397 line~;
#X obj 469 322 t b b;
#X msg 469 346 1 5;
#X obj 512 347 del 5;
#X msg 515 370 0 5;
#X obj 394 362 osc~ 880;
#X obj 469 299 spigot;
#X obj 502 275 inlet;
#X obj 469 253 inlet;
#X connect 0 0 1 0;
#X connect 0 0 1 1;
#X connect 2 0 0 1;
#X connect 3 0 4 0;
#X connect 3 1 5 0;
#X connect 4 0 2 0;
#X connect 5 0 6 0;
#X connect 6 0 2 0;
#X connect 7 0 0 0;
#X connect 8 0 3 0;
#X connect 9 0 8 1;
#X connect 10 0 8 0;
#X restore 401 579 pd audio_feedback;
#X msg 500 536 1;
#X msg 500 559 0;
#N canvas 65 102 450 300 time 0;
#X obj 63 122 timer;
#X obj 63 76 % 2;
#X obj 63 96 sel 0 1;
#X obj 63 166 swap 60000;
#X obj 63 189 /;
#X obj 138 167 outlet ms;
#X obj 63 215 outlet bpm;
#X obj 63 -10 inlet;
#X obj 63 42 f 0;
#X obj 88 42 + 1;
#X connect 0 0 3 0;
#X connect 0 0 5 0;
#X connect 1 0 2 0;
#X connect 2 0 0 0;
#X connect 2 1 0 1;
#X connect 3 0 4 0;
#X connect 3 1 4 1;
#X connect 4 0 6 0;
#X connect 7 0 8 0;
#X connect 8 0 9 0;
#X connect 8 0 1 0;
#X connect 9 0 8 1;
#X restore 338 579 pd time;
#X text 533 534 on;
#X text 532 556 off;
#X msg 430 103 0;
#X obj 405 373 i;
#X obj 405 393 change;
#X obj 405 353 / 12;
#X text 501 48 // 252 == stop;
#X text 500 61 // 251 == resume;
#X obj 430 79 b;
#X text 428 373 x 2;
#X obj 570 376 i;
#X obj 570 396 change;
#X obj 624 377 i;
#X obj 624 397 change;
#X text 647 378 x 8;
#X obj 458 373 i;
#X obj 458 393 change;
#X obj 458 353 / 8;
#X text 481 373 x 3;
#X obj 514 395 change;
#X obj 624 357 / 3;
#X obj 338 656 outlet bpm;
#X obj 377 695 outlet dt;
#X obj 371 235 r clockmode.s;
#X obj 338 351 / 24;
#X obj 338 372 i;
#X obj 338 392 change;
#X text 294 578 info;
#X text 360 373 normal;
#X obj 338 271 spigot;
#X obj 234 367 r clockmode.s;
#X obj 201 424 spigot;
#X obj 234 386 swap 1;
#X obj 234 405 -;
#X obj 338 188 t f;
#X obj 514 375 i;
#X text 539 375 x 4;
#X obj 514 355 / 6;
#X obj 570 356 / 4;
#X text 594 377 x 6;
#X obj 201 308 metro 250;
#X obj 201 202 r localbpm.s;
#X obj 201 221 swap 60000;
#X obj 201 240 /;
#X obj 201 260 t b f;
#X obj 201 289 f 1;
#X obj 62 272 loadbang;
#X text 502 35 // 250 == start;
#X text 65 5 net clock connected to Publisher's java code;
#X text 114 207 local clock;
#N canvas 916 172 450 300 receiveFROMgui 0;
#X obj 26 17 r 1x.s;
#X msg 26 37 1;
#X obj 26 60 s netclockspeed.s;
#X obj 27 132 s netclockspeed.s;
#X obj 27 89 r 2x.s;
#X msg 27 109 2;
#X obj 26 202 s netclockspeed.s;
#X obj 26 159 r 3x.s;
#X msg 26 179 3;
#X obj 24 270 s netclockspeed.s;
#X obj 24 227 r 4x.s;
#X msg 24 247 4;
#X obj 225 134 s netclockspeed.s;
#X obj 225 91 r 6x.s;
#X obj 225 206 s netclockspeed.s;
#X obj 225 163 r 8x.s;
#X msg 225 111 6;
#X msg 225 183 8;
#X connect 0 0 1 0;
#X connect 1 0 2 0;
#X connect 4 0 5 0;
#X connect 5 0 3 0;
#X connect 7 0 8 0;
#X connect 8 0 6 0;
#X connect 10 0 11 0;
#X connect 11 0 9 0;
#X connect 13 0 16 0;
#X connect 15 0 17 0;
#X connect 16 0 12 0;
#X connect 17 0 14 0;
#X restore 84 72 pd receiveFROMgui;
#X obj 338 296 list prepend;
#X obj 407 269 r netclockspeed.s;
#X obj 338 321 route 1 2 3 4 6 8;
#X obj 501 458 outlet bang;
#X obj 709 35 r clockmode.s;
#X obj 709 57 change;
#X obj 709 78 b;
#X obj 709 99 f 0;
#X obj 709 146 outlet reset;
#X obj 338 537 t b b;
#X obj 338 441 t b b;
#X obj 601 301 outlet midiraw;
#X obj 515 485 r audioon.s;
#X obj 515 506 sel 1 0;
#X obj 95 390 r clockmode.s;
#X obj 62 447 spigot;
#X obj 95 409 swap 1;
#X obj 95 428 -;
#X obj 62 331 metro 250;
#X obj 62 312 f 1;
#X obj 113 312 / 24;
#X obj 62 470 s \$0-localraw;
#X obj 601 267 r \$0-localraw;
#X obj 243 275 s \$0-localdt;
#X obj 425 665 r \$0-localdt;
#X obj 382 628 r localbpm.s;
#X msg 144 124 1;
#X msg 154 144 0;
#X obj 62 360 spigot;
#X obj 201 340 spigot;
#X obj 338 27 route 248 250 251 252;
#X connect 0 0 1 0;
#X connect 0 0 44 0;
#X connect 1 0 0 1;
#X connect 2 0 0 0;
#X connect 2 0 72 0;
#X connect 4 0 91 0;
#X connect 4 1 3 0;
#X connect 7 0 6 1;
#X connect 8 0 6 1;
#X connect 9 0 31 0;
#X connect 9 1 32 0;
#X connect 12 0 0 1;
#X connect 12 0 69 0;
#X connect 13 0 14 0;
#X connect 14 0 71 0;
#X connect 15 0 13 0;
#X connect 18 0 12 0;
#X connect 20 0 21 0;
#X connect 21 0 71 0;
#X connect 22 0 23 0;
#X connect 23 0 71 0;
#X connect 25 0 26 0;
#X connect 26 0 71 0;
#X connect 27 0 25 0;
#X connect 29 0 71 0;
#X connect 30 0 22 0;
#X connect 33 0 39 1;
#X connect 34 0 35 0;
#X connect 35 0 36 0;
#X connect 36 0 71 0;
#X connect 39 0 61 0;
#X connect 40 0 42 0;
#X connect 41 0 71 0;
#X connect 42 0 43 0;
#X connect 42 1 43 1;
#X connect 43 0 41 1;
#X connect 44 0 39 0;
#X connect 45 0 29 0;
#X connect 47 0 45 0;
#X connect 48 0 20 0;
#X connect 50 0 90 0;
#X connect 51 0 52 0;
#X connect 52 0 53 0;
#X connect 52 1 53 1;
#X connect 53 0 54 0;
#X connect 54 0 55 0;
#X connect 54 0 80 0;
#X connect 54 1 50 1;
#X connect 54 1 81 0;
#X connect 54 1 84 0;
#X connect 55 0 50 0;
#X connect 56 0 55 0;
#X connect 56 0 80 0;
#X connect 61 0 63 0;
#X connect 62 0 61 1;
#X connect 63 0 34 0;
#X connect 63 1 15 0;
#X connect 63 2 27 0;
#X connect 63 3 47 0;
#X connect 63 4 48 0;
#X connect 63 5 30 0;
#X connect 65 0 66 0;
#X connect 66 0 67 0;
#X connect 67 0 68 0;
#X connect 68 0 69 0;
#X connect 70 0 9 0;
#X connect 70 1 6 0;
#X connect 71 0 70 0;
#X connect 71 1 64 0;
#X connect 73 0 74 0;
#X connect 74 0 7 0;
#X connect 74 1 8 0;
#X connect 75 0 77 0;
#X connect 76 0 82 0;
#X connect 77 0 78 0;
#X connect 77 1 78 1;
#X connect 78 0 76 1;
#X connect 79 0 89 0;
#X connect 80 0 79 0;
#X connect 81 0 79 1;
#X connect 83 0 72 0;
#X connect 85 0 32 0;
#X connect 86 0 31 0;
#X connect 87 0 89 1;
#X connect 87 0 90 1;
#X connect 88 0 89 1;
#X connect 88 0 90 1;
#X connect 89 0 76 0;
#X connect 90 0 41 0;
#X connect 91 0 2 0;
#X connect 91 1 18 0;
#X connect 91 1 87 0;
#X connect 91 3 88 0;
