#N canvas 660 325 374 211 10;
#X declare -path ../../../../pd-party/droidparty-abstractions;
#X floatatom 67 109 7 0 0 0 - midiclock.delay -, f 7;
#X text 115 107 ms;
#N canvas 65 86 450 300 clock 0;
#X obj 165 40 clock, f 27;
#X obj 257 264 s bpm;
#X obj 212 257 s dt;
#X obj 105 182 s beat;
#X obj 165 110 s rawmidi;
#X obj 324 115 s reset;
#X obj 105 115 / 24;
#X obj 105 137 i;
#X obj 105 159 change;
#X obj 257 138 swap 60000;
#X obj 257 160 /, f 10;
#X obj 257 106 * 24;
#X obj 43 11 declare -path ../../../../pd-party/droidparty-abstractions
;
#X obj 212 172 * 10;
#X obj 212 194 i;
#X obj 212 216 / 10;
#X obj 257 192 * 10;
#X obj 257 214 i;
#X obj 257 236 / 10;
#X connect 0 0 4 0;
#X connect 0 0 6 0;
#X connect 0 1 11 0;
#X connect 0 1 13 0;
#X connect 0 2 5 0;
#X connect 6 0 7 0;
#X connect 7 0 8 0;
#X connect 8 0 3 0;
#X connect 9 0 10 0;
#X connect 9 1 10 1;
#X connect 10 0 16 0;
#X connect 11 0 9 0;
#X connect 13 0 14 0;
#X connect 14 0 15 0;
#X connect 15 0 2 0;
#X connect 16 0 17 0;
#X connect 17 0 18 0;
#X connect 18 0 1 0;
#X restore 157 153 pd clock;
#X floatatom 35 38 8 0 0 0 - beat -, f 8;
#X text 25 18 Beat count;
#X floatatom 124 37 8 0 0 0 - rawmidi -, f 8;
#X text 114 17 Tick count;
#X floatatom 202 36 8 0 0 0 - dt -, f 8;
#X floatatom 282 35 8 0 0 0 - bpm -, f 8;
#X text 192 16 Delta Time;
#X text 284 13 Bpm;
#X obj 173 106 tgl 15 0 empty clock.audio empty 17 7 0 10 -262144 -1
-1 0 1;
#X text 65 84 Latency;
#X obj 267 106 bng 15 250 50 0 empty reset empty 17 7 0 10 -262144
-1 -1;
#X text 162 84 Audio;
#X text 258 83 Stop;
