#N canvas 350 221 992 460 10;
#X obj 112 85 netreceive -u -b;
#X msg 173 25 listen 0;
#X msg 72 22 listen 21929;
#X obj 187 150 print udp;
#X obj 112 203 timer;
#X obj 112 156 t b b;
#X floatatom 25 274 5 0 0 0 - - -, f 5;
#N canvas 0 50 450 250 (subpatch) 0;
#X array monitor 100 float 0;
#X coords 0 180 100 60 200 140 1 0 0;
#X restore 321 29 graph;
#X obj 199 329 tabwrite monitor;
#X obj 180 209 f 0;
#X obj 213 208 + 1;
#X obj 180 231 mod 100;
#N canvas 610 202 573 499 average 0;
#X obj 100 100 f 0;
#X obj 132 100 + 1;
#X obj 255 226 + 1;
#X obj 115 68 f 0;
#X obj 31 327 /;
#X obj 31 16 inlet value;
#X obj 115 16 inlet reset;
#X obj 31 353 outlet ave;
#X obj 31 66 t b f b, f 12;
#X obj 65 197 array set clockSmoothing;
#X obj 31 272 array sum clockSmoothing;
#X obj 193 107 array define clockSmoothing 100;
#X obj 193 15 inlet reset;
#X msg 193 72 const \$1;
#X obj 100 171 mod 100;
#X obj 255 197 moses 100;
#X connect 0 0 1 0;
#X connect 0 0 14 0;
#X connect 0 0 15 0;
#X connect 1 0 0 1;
#X connect 2 0 4 1;
#X connect 2 0 10 1;
#X connect 3 0 0 1;
#X connect 4 0 7 0;
#X connect 5 0 8 0;
#X connect 6 0 3 0;
#X connect 8 0 10 0;
#X connect 8 1 9 0;
#X connect 8 2 0 0;
#X connect 10 0 4 0;
#X connect 12 0 13 0;
#X connect 13 0 11 0;
#X connect 14 0 9 1;
#X connect 15 0 2 0;
#X restore 84 306 pd average;
#X floatatom 21 330 5 0 0 0 - - -, f 5;
#N canvas 0 50 450 250 (subpatch) 0;
#X array smooth 100 float 0;
#X coords 0 180 100 60 200 140 1 0 0;
#X restore 320 191 graph;
#X obj 84 328 tabwrite smooth;
#X obj 107 261 /;
#X obj 96 232 swap 2400;
#X msg 729 207 connect 192.168.0.12 21928;
#X msg 731 235 disconnect;
#X obj 611 292 tgl 15 0 empty empty empty 17 7 0 10 -262144 -1 -1 0
1;
#X obj 611 263 netsend -u -b;
#X obj 611 157 metro;
#X obj 614 43 hsl 128 15 60 180 0 0 empty empty empty -2 -8 0 10 -262144
-1 -1 0 1;
#X floatatom 611 63 5 0 0 0 - - -, f 5;
#X obj 611 82 t b f;
#X obj 638 110 swap 2400;
#X obj 638 132 /;
#X msg 611 179 send 248;
#X obj 743 94 bng 15 250 50 0 empty empty empty 17 7 0 10 -262144 -1
-1;
#X msg 743 114 send 250;
#X obj 873 92 bng 15 250 50 0 empty empty empty 17 7 0 10 -262144 -1
-1;
#X obj 805 95 bng 15 250 50 0 empty empty empty 17 7 0 10 -262144 -1
-1;
#X msg 805 115 send 251;
#X msg 873 112 send 252;
#X text 739 72 Start;
#X text 863 69 Stop;
#X text 792 70 Resume;
#N canvas 66 103 760 415 audio_feedback 0;
#X obj 266 301 *~;
#X obj 266 357 dac~;
#X obj 340 284 line~;
#X obj 340 209 t b b;
#X msg 340 233 1 5;
#X obj 383 234 del 5;
#X msg 386 257 0 5;
#X obj 265 249 osc~ 880;
#X obj 340 49 spigot;
#X obj 373 25 inlet;
#X obj 340 3 inlet;
#X obj 340 97 f 0;
#X obj 366 97 + 1;
#X obj 231 135 sel 0;
#X msg 231 163 1600;
#X msg 265 163 880;
#X obj 231 114 % 4;
#X obj 425 25 inlet reset;
#X msg 425 48 0;
#X connect 0 0 1 0;
#X connect 0 0 1 1;
#X connect 2 0 0 1;
#X connect 3 0 4 0;
#X connect 3 1 5 0;
#X connect 4 0 2 0;
#X connect 5 0 6 0;
#X connect 6 0 2 0;
#X connect 7 0 0 0;
#X connect 8 0 11 0;
#X connect 9 0 8 1;
#X connect 10 0 8 0;
#X connect 11 0 12 0;
#X connect 11 0 16 0;
#X connect 11 0 3 0;
#X connect 12 0 11 1;
#X connect 13 0 14 0;
#X connect 13 1 15 0;
#X connect 14 0 7 0;
#X connect 15 0 7 0;
#X connect 16 0 13 0;
#X connect 17 0 18 0;
#X connect 18 0 11 1;
#X restore 92 415 pd audio_feedback;
#X msg 141 372 1;
#X msg 141 395 0;
#X text 174 370 on;
#X text 173 392 off;
#X obj 30 178 f 0;
#X obj 62 178 + 1;
#X obj 30 200 mod 24;
#X obj 30 222 select 0;
#X obj 112 107 route 248 250;
#X msg 156 140 0;
#X obj 74 378 del;
#X obj 255 396 hsl 128 15 0 1000 0 0 empty empty empty -2 -8 0 10 -262144
-1 -1 3510 1;
#X floatatom 252 416 5 0 0 0 - - -, f 5;
#X connect 0 0 47 0;
#X connect 1 0 0 0;
#X connect 2 0 0 0;
#X connect 4 0 17 0;
#X connect 5 0 4 0;
#X connect 5 1 4 1;
#X connect 5 1 9 0;
#X connect 9 0 10 0;
#X connect 9 0 11 0;
#X connect 10 0 9 1;
#X connect 11 0 8 1;
#X connect 11 0 15 1;
#X connect 12 0 13 0;
#X connect 12 0 15 0;
#X connect 16 0 12 0;
#X connect 16 0 6 0;
#X connect 16 0 8 0;
#X connect 17 0 16 0;
#X connect 17 1 16 1;
#X connect 18 0 21 0;
#X connect 19 0 21 0;
#X connect 21 0 20 0;
#X connect 22 0 28 0;
#X connect 23 0 24 0;
#X connect 24 0 25 0;
#X connect 25 0 22 0;
#X connect 25 1 26 0;
#X connect 26 0 27 0;
#X connect 26 1 27 1;
#X connect 27 0 22 1;
#X connect 28 0 21 0;
#X connect 29 0 30 0;
#X connect 30 0 21 0;
#X connect 31 0 34 0;
#X connect 32 0 33 0;
#X connect 33 0 21 0;
#X connect 34 0 21 0;
#X connect 39 0 38 1;
#X connect 40 0 38 1;
#X connect 43 0 44 0;
#X connect 43 0 45 0;
#X connect 44 0 43 1;
#X connect 45 0 46 0;
#X connect 46 0 49 0;
#X connect 47 0 5 0;
#X connect 47 0 43 0;
#X connect 47 1 48 0;
#X connect 47 2 3 0;
#X connect 48 0 43 1;
#X connect 48 0 38 2;
#X connect 49 0 38 0;
#X connect 50 0 49 1;
#X connect 50 0 51 0;
