#N struct 2003template-marker float a float b;
#N canvas 94 82 1273 663 10;
#X declare -path z_nrci_abs;
#X declare -path ../../../../pd-party/droidparty-abstractions;
#N canvas 675 82 651 686 audio 1;
#X obj 303 312 r fxcontrol;
#X obj 303 334 unpack f f;
#X obj 238 538 dac~;
#N canvas 65 54 1301 714 drum-synths 0;
#X obj 77 635 outlet~;
#X obj 30 95 perk-bassdrum \$1/bd;
#X obj 212 95 perk-snare \$1/sn;
#X obj 394 134 perk-clap \$1/cl;
#X obj 766 174 perk-cowbell \$1/co;
#X obj 766 158 bng 15 250 50 0 empty empty empty 17 7 0 10 -262144
-1 -1;
#X obj 212 79 bng 15 250 50 0 empty empty empty 17 7 0 10 -262144 -1
-1;
#X obj 394 118 bng 15 250 50 0 empty empty empty 17 7 0 10 -262144
-1 -1;
#X obj 30 79 bng 15 250 50 0 empty empty empty 17 7 0 10 -262144 -1
-1;
#X obj 581 95 perk-hihat \$1/hh;
#X obj 581 79 bng 15 250 50 0 empty empty empty 17 7 0 10 -262144 -1
-1;
#X obj 77 587 *~ 0.15;
#X obj 41 29 r channel1;
#X obj 218 38 r channel2;
#X obj 407 54 r channel3;
#X obj 603 42 r channel4;
#X obj 786 86 r channel5;
#X connect 1 0 11 0;
#X connect 2 0 11 0;
#X connect 3 0 11 0;
#X connect 4 0 11 0;
#X connect 5 0 4 0;
#X connect 6 0 2 0;
#X connect 7 0 3 0;
#X connect 8 0 1 0;
#X connect 9 0 11 0;
#X connect 10 0 9 0;
#X connect 11 0 0 0;
#X connect 12 0 1 0;
#X connect 13 0 2 0;
#X connect 14 0 3 0;
#X connect 15 0 9 0;
#X connect 16 0 4 0;
#X restore 245 284 pd drum-synths;
#X obj 445 164 loadbang;
#N canvas 642 61 450 300 ringmod 0;
#X obj 211 40 inlet;
#X obj 46 34 inlet~;
#X text 253 40 stream of incoming data values (0 - 100);
#X text 95 34 audio input;
#X text 43 383 one inlet~: audio data for processing;
#X text 43 411 one outlet~: processed audio;
#X text 43 397 one inlet: values interpreted as MIDI pitches (0-100)
;
#X obj 46 311 outlet~;
#X obj 211 208 line~;
#X obj 211 189 pack;
#X msg 234 163 5;
#X obj 211 101 mtof;
#X obj 211 60 clip 0 100;
#X text 103 310 audio output;
#X text 42 353 ring modulate an input signal;
#X text 43 339 milo-sfx-ringmod~.pd;
#X obj 195 250 *~;
#X obj 211 230 osc~;
#X obj 211 122 t f b;
#X obj 211 79 t f f;
#X text 42 368 one user-specified value: on/off key assignment;
#X obj 245 101 s pitch-report;
#X obj 599 310 declare -path z_nrci_abs;
#N canvas 0 50 450 300 bypass~ 0;
#X obj 35 32 inlet~;
#X obj 251 35 inlet;
#X obj 35 279 outlet~;
#X obj 51 227 line~;
#X obj 35 252 *~;
#X msg 51 195 1 5;
#X msg 84 195 0 5;
#X text 84 32 audio input;
#X obj 252 278 outlet~;
#X obj 268 226 line~;
#X obj 252 251 *~;
#X msg 268 194 1 5;
#X msg 301 194 0 5;
#X text 290 36 toggle (0/1);
#X obj 251 58 sel 0;
#X obj 238 92 t b b;
#X obj 281 92 t b b;
#X text 90 279 outlet for bypass;
#X text 310 278 outlet for processing;
#X obj 172 92 loadbang;
#X connect 0 0 4 0;
#X connect 0 0 10 0;
#X connect 1 0 14 0;
#X connect 3 0 4 1;
#X connect 4 0 2 0;
#X connect 5 0 3 0;
#X connect 6 0 3 0;
#X connect 9 0 10 1;
#X connect 10 0 8 0;
#X connect 11 0 9 0;
#X connect 12 0 9 0;
#X connect 14 0 15 0;
#X connect 14 1 16 0;
#X connect 15 0 5 0;
#X connect 15 1 12 0;
#X connect 16 0 6 0;
#X connect 16 1 11 0;
#X connect 19 0 5 0;
#X connect 19 0 12 0;
#X restore 70 227 pd bypass~;
#X obj 123 155 r RMon;
#X connect 0 0 12 0;
#X connect 1 0 23 0;
#X connect 8 0 17 0;
#X connect 9 0 8 0;
#X connect 10 0 9 1;
#X connect 11 0 18 0;
#X connect 12 0 19 0;
#X connect 16 0 7 0;
#X connect 17 0 16 1;
#X connect 18 0 9 0;
#X connect 18 1 10 0;
#X connect 19 0 11 0;
#X connect 19 1 21 0;
#X connect 23 0 7 0;
#X connect 23 1 16 0;
#X connect 24 0 23 1;
#X restore 246 410 pd ringmod;
#X obj 303 383 * 100;
#X obj 443 238 s \$0-loadbang;
#N canvas 0 50 450 300 Quantiz 0;
#X obj -64 53 inlet~;
#X obj 48 360 outlet~;
#X obj 48 253 *~;
#X obj 48 317 /~;
#X obj 100 224 pow;
#X msg 107 196 2;
#X obj 119 163 t b f;
#X obj 51 282 expr~ int($v1);
#X obj 269 30 inlet;
#X obj 266 76 clip 0 16;
#N canvas 0 50 450 300 bypass~ 0;
#X obj 35 32 inlet~;
#X obj 251 35 inlet;
#X obj 35 279 outlet~;
#X obj 51 227 line~;
#X obj 35 252 *~;
#X msg 51 195 1 5;
#X msg 84 195 0 5;
#X text 84 32 audio input;
#X obj 252 278 outlet~;
#X obj 268 226 line~;
#X obj 252 251 *~;
#X msg 268 194 1 5;
#X msg 301 194 0 5;
#X text 290 36 toggle (0/1);
#X obj 251 58 sel 0;
#X obj 238 92 t b b;
#X obj 281 92 t b b;
#X text 90 279 outlet for bypass;
#X text 310 278 outlet for processing;
#X obj 172 92 loadbang;
#X connect 0 0 4 0;
#X connect 0 0 10 0;
#X connect 1 0 14 0;
#X connect 3 0 4 1;
#X connect 4 0 2 0;
#X connect 5 0 3 0;
#X connect 6 0 3 0;
#X connect 9 0 10 1;
#X connect 10 0 8 0;
#X connect 11 0 9 0;
#X connect 12 0 9 0;
#X connect 14 0 15 0;
#X connect 14 1 16 0;
#X connect 15 0 5 0;
#X connect 15 1 12 0;
#X connect 16 0 6 0;
#X connect 16 1 11 0;
#X connect 19 0 5 0;
#X connect 19 0 12 0;
#X restore -45 170 pd bypass~;
#X obj 8 98 r Quantize;
#X connect 0 0 10 0;
#X connect 2 0 7 0;
#X connect 3 0 1 0;
#X connect 4 0 2 1;
#X connect 4 0 3 1;
#X connect 5 0 4 0;
#X connect 6 0 5 0;
#X connect 6 1 4 1;
#X connect 7 0 3 0;
#X connect 8 0 9 0;
#X connect 9 0 6 0;
#X connect 10 0 1 0;
#X connect 10 1 2 0;
#X connect 11 0 10 1;
#X restore 245 430 pd Quantiz;
#X obj 360 383 * 8;
#X obj 529 171 r wordbutton-reset;
#X msg 529 195 0;
#X obj 244 511 tanh~;
#X obj 360 357 route 0;
#X obj 303 357 route 0;
#X obj 393 402 r drum_mix;
#X obj 244 481 *~;
#X obj 393 423 / 127;
#X msg 393 444 \$1 5;
#X obj 393 465 line~;
#N canvas 565 319 591 316 reset 0;
#X obj 31 20 inlet;
#X obj 51 163 s cb-load;
#X msg 42 115 ../savefiles/empty;
#X connect 0 0 2 0;
#X connect 2 0 1 0;
#X restore 543 266 pd reset;
#X obj 541 233 b;
#X obj 146 215 s pos;
#X obj 92 175 mod 16;
#X obj 153 239 s beat;
#X obj 92 122 f 0;
#X obj 118 122 + 1;
#X obj 45 23 clock, f 15;
#X floatatom 103 254 5 0 0 0 - - -, f 5;
#X obj 93 330 pack f \$0;
#X msg 92 352 \; \$2-cursor pos \$1 50;
#X obj 92 271 * 55;
#N canvas 65 107 1301 686 drum-seq 1;
#X obj 17 34 step 0 sound1-01.s channel1 s1-repeat.s s1-prob.s;
#X obj 17 54 step 1 sound1-02.s channel1 s1-repeat.s s1-prob.s;
#X obj 17 74 step 2 sound1-03.s channel1 s1-repeat.s s1-prob.s;
#X obj 17 94 step 3 sound1-04.s channel1 s1-repeat.s s1-prob.s;
#X obj 17 114 step 4 sound1-05.s channel1 s1-repeat.s s1-prob.s;
#X obj 17 134 step 5 sound1-06.s channel1 s1-repeat.s s1-prob.s;
#X obj 17 154 step 6 sound1-07.s channel1 s1-repeat.s s1-prob.s;
#X obj 17 174 step 7 sound1-08.s channel1 s1-repeat.s s1-prob.s;
#X obj 17 194 step 8 sound1-09.s channel1 s1-repeat.s s1-prob.s;
#X obj 17 214 step 9 sound1-10.s channel1 s1-repeat.s s1-prob.s;
#X obj 17 234 step 10 sound1-11.s channel1 s1-repeat.s s1-prob.s;
#X obj 17 254 step 11 sound1-12.s channel1 s1-repeat.s s1-prob.s;
#X obj 17 274 step 12 sound1-13.s channel1 s1-repeat.s s1-prob.s;
#X obj 17 294 step 13 sound1-14.s channel1 s1-repeat.s s1-prob.s;
#X obj 17 314 step 14 sound1-15.s channel1 s1-repeat.s s1-prob.s;
#X obj 17 334 step 15 sound1-16.s channel1 s1-repeat.s s1-prob.s;
#X obj 15 361 step 0 sound2-01.s channel2 s2-repeat.s s2-prob.s;
#X obj 15 381 step 1 sound2-02.s channel2 s2-repeat.s s2-prob.s;
#X obj 15 401 step 2 sound2-03.s channel2 s2-repeat.s s2-prob.s;
#X obj 15 421 step 3 sound2-04.s channel2 s2-repeat.s s2-prob.s;
#X obj 15 441 step 4 sound2-05.s channel2 s2-repeat.s s2-prob.s;
#X obj 15 461 step 5 sound2-06.s channel2 s2-repeat.s s2-prob.s;
#X obj 15 481 step 6 sound2-07.s channel2 s2-repeat.s s2-prob.s;
#X obj 15 501 step 7 sound2-08.s channel2 s2-repeat.s s2-prob.s;
#X obj 15 521 step 8 sound2-09.s channel2 s2-repeat.s s2-prob.s;
#X obj 15 541 step 9 sound2-10.s channel2 s2-repeat.s s2-prob.s;
#X obj 15 561 step 10 sound2-11.s channel2 s2-repeat.s s2-prob.s;
#X obj 15 581 step 11 sound2-12.s channel2 s2-repeat.s s2-prob.s;
#X obj 15 601 step 12 sound2-13.s channel2 s2-repeat.s s2-prob.s;
#X obj 15 621 step 13 sound2-14.s channel2 s2-repeat.s s2-prob.s;
#X obj 15 641 step 14 sound2-15.s channel2 s2-repeat.s s2-prob.s;
#X obj 15 661 step 15 sound2-16.s channel2 s2-repeat.s s2-prob.s;
#X obj 378 25 step 0 sound3-01.s channel3 s3-repeat.s s3-prob.s;
#X obj 378 45 step 1 sound3-02.s channel3 s3-repeat.s s3-prob.s;
#X obj 378 65 step 2 sound3-03.s channel3 s3-repeat.s s3-prob.s;
#X obj 378 85 step 3 sound3-04.s channel3 s3-repeat.s s3-prob.s;
#X obj 378 105 step 4 sound3-05.s channel3 s3-repeat.s s3-prob.s;
#X obj 378 125 step 5 sound3-06.s channel3 s3-repeat.s s3-prob.s;
#X obj 378 145 step 6 sound3-07.s channel3 s3-repeat.s s3-prob.s;
#X obj 378 165 step 7 sound3-08.s channel3 s3-repeat.s s3-prob.s;
#X obj 378 185 step 8 sound3-09.s channel3 s3-repeat.s s3-prob.s;
#X obj 378 205 step 9 sound3-10.s channel3 s3-repeat.s s3-prob.s;
#X obj 378 225 step 10 sound3-11.s channel3 s3-repeat.s s3-prob.s;
#X obj 378 245 step 11 sound3-12.s channel3 s3-repeat.s s3-prob.s;
#X obj 378 265 step 12 sound3-13.s channel3 s3-repeat.s s3-prob.s;
#X obj 378 285 step 13 sound3-14.s channel3 s3-repeat.s s3-prob.s;
#X obj 378 305 step 14 sound3-15.s channel3 s3-repeat.s s3-prob.s;
#X obj 378 325 step 15 sound3-16.s channel3 s3-repeat.s s3-prob.s;
#X obj 379 369 step 0 sound4-01.s channel4 s4-repeat.s s4-prob.s;
#X obj 379 389 step 1 sound4-02.s channel4 s4-repeat.s s4-prob.s;
#X obj 379 409 step 2 sound4-03.s channel4 s4-repeat.s s4-prob.s;
#X obj 379 429 step 3 sound4-04.s channel4 s4-repeat.s s4-prob.s;
#X obj 379 449 step 4 sound4-05.s channel4 s4-repeat.s s4-prob.s;
#X obj 379 469 step 5 sound4-06.s channel4 s4-repeat.s s4-prob.s;
#X obj 379 489 step 6 sound4-07.s channel4 s4-repeat.s s4-prob.s;
#X obj 379 509 step 7 sound4-08.s channel4 s4-repeat.s s4-prob.s;
#X obj 379 529 step 8 sound4-09.s channel4 s4-repeat.s s4-prob.s;
#X obj 379 549 step 9 sound4-10.s channel4 s4-repeat.s s4-prob.s;
#X obj 379 569 step 10 sound4-11.s channel4 s4-repeat.s s4-prob.s;
#X obj 379 589 step 11 sound4-12.s channel4 s4-repeat.s s4-prob.s;
#X obj 379 609 step 12 sound4-13.s channel4 s4-repeat.s s4-prob.s;
#X obj 379 629 step 13 sound4-14.s channel4 s4-repeat.s s4-prob.s;
#X obj 379 649 step 14 sound4-15.s channel4 s4-repeat.s s4-prob.s;
#X obj 379 669 step 15 sound4-16.s channel4 s4-repeat.s s4-prob.s;
#X obj 711 106 step 4 sound5-05.s channel5 s5-repeat.s s5-prob.s;
#X obj 711 126 step 5 sound5-06.s channel5 s5-repeat.s s5-prob.s;
#X obj 711 146 step 6 sound5-07.s channel5 s5-repeat.s s5-prob.s;
#X obj 711 166 step 7 sound5-08.s channel5 s5-repeat.s s5-prob.s;
#X obj 711 186 step 8 sound5-09.s channel5 s5-repeat.s s5-prob.s;
#X obj 711 206 step 9 sound5-10.s channel5 s5-repeat.s s5-prob.s;
#X obj 711 226 step 10 sound5-11.s channel5 s5-repeat.s s5-prob.s;
#X obj 711 246 step 11 sound5-12.s channel5 s5-repeat.s s5-prob.s;
#X obj 711 266 step 12 sound5-13.s channel5 s5-repeat.s s5-prob.s;
#X obj 711 286 step 13 sound5-14.s channel5 s5-repeat.s s5-prob.s;
#X obj 711 306 step 14 sound5-15.s channel5 s5-repeat.s s5-prob.s;
#X obj 711 326 step 15 sound5-16.s channel5 s5-repeat.s s5-prob.s;
#X obj 711 26 step 0 sound5-01.s channel5 s5-repeat.s s5-prob.s;
#X obj 711 46 step 1 sound5-02.s channel5 s5-repeat.s s5-prob.s;
#X obj 711 66 step 2 sound5-03.s channel5 s5-repeat.s s5-prob.s;
#X obj 711 86 step 3 sound5-04.s channel5 s5-repeat.s s5-prob.s;
#X restore 250 249 pd drum-seq;
#X text 227 25 add funky parameters (select funk speed / select funky
buzyness);
#X text 229 58 replace samples with synths;
#X text 231 79 replace samples with synths;
#X obj 84 61 s rawmidi;
#X obj 92 294 + 4;
#X connect 0 0 1 0;
#X connect 1 0 14 0;
#X connect 1 1 13 0;
#X connect 3 0 5 0;
#X connect 4 0 7 0;
#X connect 4 0 21 0;
#X connect 5 0 8 0;
#X connect 6 0 5 1;
#X connect 8 0 16 0;
#X connect 9 0 8 1;
#X connect 10 0 11 0;
#X connect 10 0 21 0;
#X connect 11 0 7 0;
#X connect 12 0 2 0;
#X connect 12 0 2 1;
#X connect 13 1 9 0;
#X connect 14 1 6 0;
#X connect 15 0 17 0;
#X connect 16 0 12 0;
#X connect 17 0 18 0;
#X connect 18 0 19 0;
#X connect 19 0 16 1;
#X connect 21 0 20 0;
#X connect 23 0 22 0;
#X connect 23 0 24 0;
#X connect 23 0 31 0;
#X connect 25 0 26 0;
#X connect 25 0 23 0;
#X connect 26 0 25 1;
#X connect 27 0 25 0;
#X connect 27 1 36 0;
#X connect 27 4 25 1;
#X connect 28 0 31 0;
#X connect 29 0 30 0;
#X connect 31 0 37 0;
#X connect 37 0 29 0;
#X restore 7 27 pd audio;
#X text 97 573 |;
#X text 553 378 >;
#X text 97 577 v;
#X obj 59 395 tgl 45 0 RMon empty empty 17 7 0 10 -262144 -1 -1 0 1
;
#X obj 59 446 tgl 45 0 Quantize empty empty 17 7 0 10 -262144 -1 -1
0 1;
#X text 2 406 Ring Mod;
#X text 496 377 Ring mod;
#X text 3 462 Quantize;
#X text 39 576 Quantizer;
#X text 548 373 _;
#X obj 1164 510 vsl 30 100 0 127 0 0 drum_mix drum_mix.r empty 0 -9
0 10 -262144 -1 -1 7800 1;
#X obj 8 4 loadsave storage;
#X text 1159 484 Drums;
#N canvas 729 284 613 463 loadsave-interface 0;
#X obj 44 15 s cb-save;
#X obj 44 -6 r storage-save;
#X obj 144 -6 r storage-load;
#X obj 144 15 s cb-load;
#X obj 13 -108 r wordbutton-save;
#X msg 192 -86 \; storage load savefiles cbs;
#X msg 12 -86 \; storage save savefiles cbs;
#X obj 192 -111 r wordbutton-load;
#X obj 132 71 r cb-save;
#X obj 51 71 r cb-load;
#X obj 51 96 sssad/loadsave;
#X connect 1 0 0 0;
#X connect 2 0 3 0;
#X connect 4 0 6 0;
#X connect 7 0 5 0;
#X connect 8 0 10 1;
#X connect 9 0 10 0;
#X restore 110 4 pd loadsave-interface;
#N canvas 65 54 1301 714 loadsave 0;
#X obj 724 -86 sssad/auto fromattack toattack;
#X obj 724 -67 sssad/auto fromdecay todecay;
#X obj 724 -48 sssad/auto fromshape toshape;
#X obj 724 20 sssad/auto drum_mix drum_mix.r;
#X obj 724 -107 sssad/tablesave seq 64 seq;
#X obj 724 -23 sssad/auto soundpack soundpack.r;
#X restore 62 27 pd loadsave;
#X obj 153 26 clock-gui;
#X obj 260 7 declare -path ../../../../pd-party/droidparty-abstractions
;
#X obj 224 50 cnv 15 49 320 empty \$0-cursor empty 20 12 0 14 -258113
-66577 0;
#X obj 6 63 tgl 45 0 sound1-01.s sound1-01.r empty 17 7 0 10 -262144
-1 -1 1 1;
#X obj 61 63 tgl 45 0 sound1-02.s sound1-02.r empty 17 7 0 10 -262144
-1 -1 0 1;
#X obj 116 63 tgl 45 0 sound1-03.s sound1-03.r empty 17 7 0 10 -262144
-1 -1 0 1;
#X obj 171 63 tgl 45 0 sound1-04.s sound1-04.r empty 17 7 0 10 -262144
-1 -1 0 1;
#X obj 226 63 tgl 45 0 sound1-05.s sound1-05.r empty 17 7 0 10 -262144
-1 -1 1 1;
#X obj 281 63 tgl 45 0 sound1-06.s sound1-06.r empty 17 7 0 10 -262144
-1 -1 0 1;
#X obj 336 63 tgl 45 0 sound1-07.s sound1-07.r empty 17 7 0 10 -262144
-1 -1 0 1;
#X obj 391 63 tgl 45 0 sound1-08.s sound1-08.r empty 17 7 0 10 -262144
-1 -1 0 1;
#X obj 446 63 tgl 45 0 sound1-09.s sound1-09.r empty 17 7 0 10 -262144
-1 -1 1 1;
#X obj 501 63 tgl 45 0 sound1-10.s sound1-10.r empty 17 7 0 10 -262144
-1 -1 0 1;
#X obj 557 63 tgl 45 0 sound1-11.s sound1-11.r empty 17 7 0 10 -262144
-1 -1 0 1;
#X obj 611 63 tgl 45 0 sound1-12.s sound1-12.r empty 17 7 0 10 -262144
-1 -1 0 1;
#X obj 666 63 tgl 45 0 sound1-13.s sound1-13.r empty 17 7 0 10 -262144
-1 -1 1 1;
#X obj 721 63 tgl 45 0 sound1-14.s sound1-14.r empty 17 7 0 10 -262144
-1 -1 0 1;
#X obj 776 63 tgl 45 0 sound1-15.s sound1-15.r empty 17 7 0 10 -262144
-1 -1 0 1;
#X obj 831 63 tgl 45 0 sound1-16.s sound1-16.r empty 17 7 0 10 -262144
-1 -1 0 1;
#X obj 6 124 tgl 45 0 sound2-01.s sound2-01.r empty 17 7 0 10 -262144
-1 -1 0 1;
#X obj 61 124 tgl 45 0 sound2-02.s sound2-02.r empty 17 7 0 10 -262144
-1 -1 0 1;
#X obj 116 124 tgl 45 0 sound2-03.s sound2-03.r empty 17 7 0 10 -262144
-1 -1 1 1;
#X obj 171 124 tgl 45 0 sound2-04.s sound2-04.r empty 17 7 0 10 -262144
-1 -1 0 1;
#X obj 226 124 tgl 45 0 sound2-05.s sound2-05.r empty 17 7 0 10 -262144
-1 -1 0 1;
#X obj 281 124 tgl 45 0 sound2-06.s sound2-06.r empty 17 7 0 10 -262144
-1 -1 0 1;
#X obj 336 124 tgl 45 0 sound2-07.s sound2-07.r empty 17 7 0 10 -262144
-1 -1 0 1;
#X obj 391 124 tgl 45 0 sound2-08.s sound2-08.r empty 17 7 0 10 -262144
-1 -1 1 1;
#X obj 446 124 tgl 45 0 sound2-09.s sound2-09.r empty 17 7 0 10 -262144
-1 -1 0 1;
#X obj 501 124 tgl 45 0 sound2-10.s sound2-10.r empty 17 7 0 10 -262144
-1 -1 0 1;
#X obj 557 124 tgl 45 0 sound2-11.s sound2-11.r empty 17 7 0 10 -262144
-1 -1 0 1;
#X obj 611 124 tgl 45 0 sound2-12.s sound2-12.r empty 17 7 0 10 -262144
-1 -1 1 1;
#X obj 666 124 tgl 45 0 sound2-13.s sound2-13.r empty 17 7 0 10 -262144
-1 -1 0 1;
#X obj 721 124 tgl 45 0 sound2-14.s sound2-14.r empty 17 7 0 10 -262144
-1 -1 0 1;
#X obj 776 124 tgl 45 0 sound2-15.s sound2-15.r empty 17 7 0 10 -262144
-1 -1 0 1;
#X obj 831 124 tgl 45 0 sound2-16.s sound2-16.r empty 17 7 0 10 -262144
-1 -1 0 1;
#X obj 6 189 tgl 45 0 sound3-01.s sound3-01.r empty 17 7 0 10 -262144
-1 -1 0 1;
#X obj 61 189 tgl 45 0 sound3-02.s sound2-03.r empty 17 7 0 10 -262144
-1 -1 0 1;
#X obj 116 189 tgl 45 0 sound3-03.s sound2-03.r empty 17 7 0 10 -262144
-1 -1 0 1;
#X obj 171 189 tgl 45 0 sound3-04.s sound2-03.r empty 17 7 0 10 -262144
-1 -1 0 1;
#X obj 226 189 tgl 45 0 sound3-05.s sound2-03.r empty 17 7 0 10 -262144
-1 -1 0 1;
#X obj 281 189 tgl 45 0 sound3-06.s sound2-03.r empty 17 7 0 10 -262144
-1 -1 1 1;
#X obj 336 189 tgl 45 0 sound3-07.s sound2-03.r empty 17 7 0 10 -262144
-1 -1 0 1;
#X obj 391 189 tgl 45 0 sound3-08.s sound2-03.r empty 17 7 0 10 -262144
-1 -1 0 1;
#X obj 446 189 tgl 45 0 sound3-09.s sound2-03.r empty 17 7 0 10 -262144
-1 -1 0 1;
#X obj 501 189 tgl 45 0 sound3-10.s sound2-13.r empty 17 7 0 10 -262144
-1 -1 0 1;
#X obj 557 189 tgl 45 0 sound3-11.s sound2-13.r empty 17 7 0 10 -262144
-1 -1 0 1;
#X obj 611 189 tgl 45 0 sound3-12.s sound2-13.r empty 17 7 0 10 -262144
-1 -1 0 1;
#X obj 666 189 tgl 45 0 sound3-13.s sound2-13.r empty 17 7 0 10 -262144
-1 -1 0 1;
#X obj 721 189 tgl 45 0 sound3-14.s sound2-13.r empty 17 7 0 10 -262144
-1 -1 1 1;
#X obj 776 189 tgl 45 0 sound3-15.s sound2-13.r empty 17 7 0 10 -262144
-1 -1 0 1;
#X obj 831 189 tgl 45 0 sound3-16.s sound2-13.r empty 17 7 0 10 -262144
-1 -1 1 1;
#X obj 6 250 tgl 45 0 sound4-01.s sound4-01.r empty 17 7 0 10 -262144
-1 -1 0 1;
#X obj 61 250 tgl 45 0 sound4-02.s sound4-02.r empty 17 7 0 10 -262144
-1 -1 1 1;
#X obj 116 250 tgl 45 0 sound4-03.s sound4-03.r empty 17 7 0 10 -262144
-1 -1 1 1;
#X obj 171 250 tgl 45 0 sound4-04.s sound4-04.r empty 17 7 0 10 -262144
-1 -1 1 1;
#X obj 226 250 tgl 45 0 sound4-05.s sound4-05.r empty 17 7 0 10 -262144
-1 -1 0 1;
#X obj 281 250 tgl 45 0 sound4-06.s sound4-06.r empty 17 7 0 10 -262144
-1 -1 0 1;
#X obj 336 250 tgl 45 0 sound4-07.s sound4-07.r empty 17 7 0 10 -262144
-1 -1 1 1;
#X obj 391 250 tgl 45 0 sound4-08.s sound4-08.r empty 17 7 0 10 -262144
-1 -1 1 1;
#X obj 446 250 tgl 45 0 sound4-09.s sound4-09.r empty 17 7 0 10 -262144
-1 -1 1 1;
#X obj 501 250 tgl 45 0 sound4-10.s sound4-10.r empty 17 7 0 10 -262144
-1 -1 0 1;
#X obj 557 250 tgl 45 0 sound4-11.s sound4-11.r empty 17 7 0 10 -262144
-1 -1 1 1;
#X obj 611 250 tgl 45 0 sound4-12.s sound4-12.r empty 17 7 0 10 -262144
-1 -1 1 1;
#X obj 666 250 tgl 45 0 sound4-13.s sound4-13.r empty 17 7 0 10 -262144
-1 -1 1 1;
#X obj 721 250 tgl 45 0 sound4-14.s sound4-14.r empty 17 7 0 10 -262144
-1 -1 1 1;
#X obj 776 250 tgl 45 0 sound4-15.s sound4-15.r empty 17 7 0 10 -262144
-1 -1 0 1;
#X obj 831 250 tgl 45 0 sound4-16.s sound4-16.r empty 17 7 0 10 -262144
-1 -1 0 1;
#X obj 113 395 touch 450 200 fxcontrol;
#X obj 6 310 tgl 45 0 sound5-01.s sound5-01.r empty 17 7 0 10 -262144
-1 -1 0 1;
#X obj 61 310 tgl 45 0 sound5-02.s sound5-02.r empty 17 7 0 10 -262144
-1 -1 0 1;
#X obj 116 310 tgl 45 0 sound5-03.s sound5-03.r empty 17 7 0 10 -262144
-1 -1 0 1;
#X obj 171 310 tgl 45 0 sound5-04.s sound5-04.r empty 17 7 0 10 -262144
-1 -1 1 1;
#X obj 226 310 tgl 45 0 sound5-05.s sound5-05.r empty 17 7 0 10 -262144
-1 -1 0 1;
#X obj 281 310 tgl 45 0 sound5-06.s sound5-06.r empty 17 7 0 10 -262144
-1 -1 0 1;
#X obj 336 310 tgl 45 0 sound5-07.s sound5-07.r empty 17 7 0 10 -262144
-1 -1 0 1;
#X obj 391 310 tgl 45 0 sound5-08.s sound5-08.r empty 17 7 0 10 -262144
-1 -1 0 1;
#X obj 446 310 tgl 45 0 sound5-09.s sound5-09.r empty 17 7 0 10 -262144
-1 -1 0 1;
#X obj 501 310 tgl 45 0 sound5-10.s sound5-10.r empty 17 7 0 10 -262144
-1 -1 1 1;
#X obj 557 310 tgl 45 0 sound5-11.s sound5-11.r empty 17 7 0 10 -262144
-1 -1 0 1;
#X obj 611 310 tgl 45 0 sound5-12.s sound5-12.r empty 17 7 0 10 -262144
-1 -1 0 1;
#X obj 666 310 tgl 45 0 sound5-13.s sound5-13.r empty 17 7 0 10 -262144
-1 -1 0 1;
#X obj 721 310 tgl 45 0 sound5-14.s sound5-14.r empty 17 7 0 10 -262144
-1 -1 0 1;
#X obj 776 310 tgl 45 0 sound5-15.s sound5-15.r empty 17 7 0 10 -262144
-1 -1 0 1;
#X obj 831 310 tgl 45 0 sound5-16.s sound5-16.r empty 17 7 0 10 -262144
-1 -1 0 1;
#X obj 886 68 hradio 35 1 0 6 s1-repeat.s s1-repeat.r Kick_repeat 0
-8 0 10 -262144 -1 -1 1;
#X obj 1111 68 hsl 150 35 0 100 0 0 s1-prob.s s1-prob.r Kick_probability
-2 -8 0 10 -262144 -1 -1 7000 1;
#X obj 886 130 hradio 35 1 0 6 s2-repeat.s s2-repeat.r Snare_repeat
0 -8 0 10 -262144 -1 -1 3;
#X obj 1111 130 hsl 150 35 0 100 0 0 s2-prob.s s2-prob.r Snare_probability
-2 -8 0 10 -262144 -1 -1 10600 1;
#X obj 888 192 hradio 35 1 0 6 s3-repeat.s s3-repeat.r Clap_repeat
0 -8 0 10 -262144 -1 -1 2;
#X obj 1112 192 hsl 150 35 0 100 0 0 s1-prob.s s1-prob.r Clap_probability
-2 -8 0 10 -262144 -1 -1 8500 1;
#X obj 889 253 hradio 35 1 0 6 s4-repeat.s s4-repeat.r Hihat_repeat
0 -8 0 10 -262144 -1 -1 4;
#X obj 1112 253 hsl 150 35 0 100 0 0 s4-prob.s s4-prob.r Hihat_probability
-2 -8 0 10 -262144 -1 -1 6400 1;
#X obj 889 314 hradio 35 1 0 6 s5-repeat.s s5-repeat.r Bell_repeat
0 -8 0 10 -262144 -1 -1 3;
#X obj 1112 314 hsl 150 35 0 100 0 0 s5-prob.s s5-prob.r Bell_probability
-2 -8 0 10 -262144 -1 -1 11700 1;
