#N canvas 105 137 1148 622 10;
#X declare -path ../../../../pd-party/droidparty-abstractions;
#X declare -path ../../../../pd-party/droidparty-abstractions;
#X obj 573 4 cnv 15 49 325 empty aciddrums_cursor empty 20 12 0 14
-258113 -66577 0;
#X obj 31 14 tgl 45 0 sound1-01.s sound1-01.r empty 17 7 0 10 -262144
-1 -1 0 1;
#X obj 99 14 tgl 45 0 sound1-02.s sound1-02.r empty 17 7 0 10 -262144
-1 -1 0 1;
#X obj 167 14 tgl 45 0 sound1-03.s sound1-03.r empty 17 7 0 10 -262144
-1 -1 0 1;
#X obj 235 14 tgl 45 0 sound1-04.s sound1-04.r empty 17 7 0 10 -262144
-1 -1 0 1;
#X obj 303 14 tgl 45 0 sound1-05.s sound1-05.r empty 17 7 0 10 -262144
-1 -1 0 1;
#X obj 371 14 tgl 45 0 sound1-06.s sound1-06.r empty 17 7 0 10 -262144
-1 -1 0 1;
#X obj 439 14 tgl 45 0 sound1-07.s sound1-07.r empty 17 7 0 10 -262144
-1 -1 0 1;
#X obj 507 14 tgl 45 0 sound1-08.s sound1-08.r empty 17 7 0 10 -262144
-1 -1 0 1;
#X obj 575 14 tgl 45 0 sound1-09.s sound1-09.r empty 17 7 0 10 -262144
-1 -1 0 1;
#X obj 643 14 tgl 45 0 sound1-10.s sound1-10.r empty 17 7 0 10 -262144
-1 -1 0 1;
#X obj 712 14 tgl 45 0 sound1-11.s sound1-11.r empty 17 7 0 10 -262144
-1 -1 0 1;
#X obj 779 14 tgl 45 0 sound1-12.s sound1-12.r empty 17 7 0 10 -262144
-1 -1 0 1;
#X obj 848 14 tgl 45 0 sound1-13.s sound1-13.r empty 17 7 0 10 -262144
-1 -1 0 1;
#X obj 916 14 tgl 45 0 sound1-14.s sound1-14.r empty 17 7 0 10 -262144
-1 -1 0 1;
#X obj 983 14 tgl 45 0 sound1-15.s sound1-15.r empty 17 7 0 10 -262144
-1 -1 0 1;
#X obj 1051 14 tgl 45 0 sound1-16.s sound1-16.r empty 17 7 0 10 -262144
-1 -1 0 1;
#X obj 31 78 tgl 45 0 sound2-01.s sound2-01.r empty 17 7 0 10 -262144
-1 -1 0 1;
#X obj 99 78 tgl 45 0 sound2-02.s sound2-02.r empty 17 7 0 10 -262144
-1 -1 0 1;
#X obj 167 78 tgl 45 0 sound2-03.s sound2-03.r empty 17 7 0 10 -262144
-1 -1 0 1;
#X obj 235 78 tgl 45 0 sound2-04.s sound2-04.r empty 17 7 0 10 -262144
-1 -1 0 1;
#X obj 303 78 tgl 45 0 sound2-05.s sound2-05.r empty 17 7 0 10 -262144
-1 -1 0 1;
#X obj 371 78 tgl 45 0 sound2-06.s sound2-06.r empty 17 7 0 10 -262144
-1 -1 0 1;
#X obj 439 78 tgl 45 0 sound2-07.s sound2-07.r empty 17 7 0 10 -262144
-1 -1 0 1;
#X obj 507 78 tgl 45 0 sound2-08.s sound2-08.r empty 17 7 0 10 -262144
-1 -1 0 1;
#X obj 575 78 tgl 45 0 sound2-09.s sound2-09.r empty 17 7 0 10 -262144
-1 -1 0 1;
#X obj 643 78 tgl 45 0 sound2-10.s sound2-10.r empty 17 7 0 10 -262144
-1 -1 0 1;
#X obj 712 78 tgl 45 0 sound2-11.s sound2-11.r empty 17 7 0 10 -262144
-1 -1 0 1;
#X obj 779 78 tgl 45 0 sound2-12.s sound2-12.r empty 17 7 0 10 -262144
-1 -1 0 1;
#X obj 848 78 tgl 45 0 sound2-13.s sound2-13.r empty 17 7 0 10 -262144
-1 -1 0 1;
#X obj 916 78 tgl 45 0 sound2-14.s sound2-14.r empty 17 7 0 10 -262144
-1 -1 0 1;
#X obj 983 78 tgl 45 0 sound2-15.s sound2-15.r empty 17 7 0 10 -262144
-1 -1 0 1;
#X obj 1051 78 tgl 45 0 sound2-16.s sound2-16.r empty 17 7 0 10 -262144
-1 -1 0 1;
#X obj 31 146 tgl 45 0 sound3-01.s sound3-01.r empty 17 7 0 10 -262144
-1 -1 0 1;
#X obj 99 146 tgl 45 0 sound3-02.s sound3-03.r empty 17 7 0 10 -262144
-1 -1 0 1;
#X obj 167 146 tgl 45 0 sound3-03.s sound3-03.r empty 17 7 0 10 -262144
-1 -1 0 1;
#X obj 235 146 tgl 45 0 sound3-04.s sound3-04.r empty 17 7 0 10 -262144
-1 -1 0 1;
#X obj 303 146 tgl 45 0 sound3-05.s sound3-05.r empty 17 7 0 10 -262144
-1 -1 0 1;
#X obj 371 146 tgl 45 0 sound3-06.s sound2-06.r empty 17 7 0 10 -262144
-1 -1 0 1;
#X obj 439 146 tgl 45 0 sound3-07.s sound3-07.r empty 17 7 0 10 -262144
-1 -1 0 1;
#X obj 507 146 tgl 45 0 sound3-08.s sound3-08.r empty 17 7 0 10 -262144
-1 -1 0 1;
#X obj 575 146 tgl 45 0 sound3-09.s sound3-09.r empty 17 7 0 10 -262144
-1 -1 0 1;
#X obj 643 146 tgl 45 0 sound3-10.s sound3-10.r empty 17 7 0 10 -262144
-1 -1 0 1;
#X obj 712 146 tgl 45 0 sound3-11.s sound3-11.r empty 17 7 0 10 -262144
-1 -1 0 1;
#X obj 779 146 tgl 45 0 sound3-12.s sound3-12.r empty 17 7 0 10 -262144
-1 -1 0 1;
#X obj 848 146 tgl 45 0 sound3-13.s sound3-13.r empty 17 7 0 10 -262144
-1 -1 0 1;
#X obj 916 146 tgl 45 0 sound3-14.s sound3-14.r empty 17 7 0 10 -262144
-1 -1 0 1;
#X obj 983 146 tgl 45 0 sound3-15.s sound3-15.r empty 17 7 0 10 -262144
-1 -1 0 1;
#X obj 1051 146 tgl 45 0 sound3-16.s sound3-16.r empty 17 7 0 10 -262144
-1 -1 0 1;
#X obj 31 210 tgl 45 0 sound4-01.s sound4-01.r empty 17 7 0 10 -262144
-1 -1 0 1;
#X obj 99 210 tgl 45 0 sound4-02.s sound4-02.r empty 17 7 0 10 -262144
-1 -1 0 1;
#X obj 167 210 tgl 45 0 sound4-03.s sound4-03.r empty 17 7 0 10 -262144
-1 -1 0 1;
#X obj 235 210 tgl 45 0 sound4-04.s sound4-04.r empty 17 7 0 10 -262144
-1 -1 0 1;
#X obj 303 210 tgl 45 0 sound4-05.s sound4-05.r empty 17 7 0 10 -262144
-1 -1 0 1;
#X obj 371 210 tgl 45 0 sound4-06.s sound4-06.r empty 17 7 0 10 -262144
-1 -1 0 1;
#X obj 439 210 tgl 45 0 sound4-07.s sound4-07.r empty 17 7 0 10 -262144
-1 -1 0 1;
#X obj 507 210 tgl 45 0 sound4-08.s sound4-08.r empty 17 7 0 10 -262144
-1 -1 0 1;
#X obj 575 210 tgl 45 0 sound4-09.s sound4-09.r empty 17 7 0 10 -262144
-1 -1 0 1;
#X obj 643 210 tgl 45 0 sound4-10.s sound4-10.r empty 17 7 0 10 -262144
-1 -1 0 1;
#X obj 712 210 tgl 45 0 sound4-11.s sound4-11.r empty 17 7 0 10 -262144
-1 -1 0 1;
#X obj 779 210 tgl 45 0 sound4-12.s sound4-12.r empty 17 7 0 10 -262144
-1 -1 0 1;
#X obj 848 210 tgl 45 0 sound4-13.s sound4-13.r empty 17 7 0 10 -262144
-1 -1 0 1;
#X obj 916 210 tgl 45 0 sound4-14.s sound4-14.r empty 17 7 0 10 -262144
-1 -1 0 1;
#X obj 983 210 tgl 45 0 sound4-15.s sound4-15.r empty 17 7 0 10 -262144
-1 -1 0 1;
#X obj 1051 210 tgl 45 0 sound4-16.s sound4-16.r empty 17 7 0 10 -262144
-1 -1 1 1;
#X obj 31 273 tgl 45 0 sound5-01.s sound5-01.r empty 17 7 0 10 -262144
-1 -1 0 1;
#X obj 99 273 tgl 45 0 sound5-02.s sound5-02.r empty 17 7 0 10 -262144
-1 -1 0 1;
#X obj 167 273 tgl 45 0 sound5-03.s sound5-03.r empty 17 7 0 10 -262144
-1 -1 0 1;
#X obj 235 273 tgl 45 0 sound5-04.s sound5-04.r empty 17 7 0 10 -262144
-1 -1 0 1;
#X obj 303 273 tgl 45 0 sound5-05.s sound5-05.r empty 17 7 0 10 -262144
-1 -1 0 1;
#X obj 371 273 tgl 45 0 sound5-06.s sound5-06.r empty 17 7 0 10 -262144
-1 -1 0 1;
#X obj 439 273 tgl 45 0 sound5-07.s sound5-07.r empty 17 7 0 10 -262144
-1 -1 0 1;
#X obj 507 273 tgl 45 0 sound5-08.s sound5-08.r empty 17 7 0 10 -262144
-1 -1 0 1;
#X obj 575 273 tgl 45 0 sound5-09.s sound5-09.r empty 17 7 0 10 -262144
-1 -1 0 1;
#X obj 643 273 tgl 45 0 sound5-10.s sound5-10.r empty 17 7 0 10 -262144
-1 -1 0 1;
#X obj 712 273 tgl 45 0 sound5-11.s sound5-11.r empty 17 7 0 10 -262144
-1 -1 0 1;
#X obj 779 273 tgl 45 0 sound5-12.s sound5-12.r empty 17 7 0 10 -262144
-1 -1 0 1;
#X obj 848 273 tgl 45 0 sound5-13.s sound5-13.r empty 17 7 0 10 -262144
-1 -1 0 1;
#X obj 916 273 tgl 45 0 sound5-14.s sound5-14.r empty 17 7 0 10 -262144
-1 -1 0 1;
#X obj 983 273 tgl 45 0 sound5-15.s sound5-15.r empty 17 7 0 10 -262144
-1 -1 0 1;
#X obj 1051 273 tgl 45 0 sound5-16.s sound5-16.r empty 17 7 0 10 -262144
-1 -1 0 1;
#X obj 18 504 bng 45 250 50 0 load_pattern empty Load_Patt 0 -7 0 10
-262144 -1 -1;
#X obj 92 504 bng 45 250 50 0 save_pattern empty Save_Patt 0 -7 0 10
-262144 -1 -1;
#X obj 289 -1 cnv 15 5 335 empty empty empty 20 12 0 14 -261234 -66577
0;
#X obj 562 -1 cnv 15 5 335 empty empty empty 20 12 0 14 -261234 -66577
0;
#X obj 833 0 cnv 15 5 335 empty empty empty 20 12 0 14 -261234 -66577
0;
#X obj 1108 -1 cnv 15 5 335 empty empty empty 20 12 0 14 -261234 -66577
0;
#X obj 18 -2 cnv 15 5 335 empty empty empty 20 12 0 14 -261234 -66577
0;
#X obj 20 356 hradio 45 1 1 6 s1-repeat.s s1-repeat.r Kick_repeat 0
-8 0 10 -262144 -1 -1 0;
#X obj 22 418 hsl 265 45 0 100 0 1 s1-prob.s s1-prob.r Kick_probability
-2 -8 0 10 -262144 -1 -1 26400 1;
#X obj 430 355 hradio 45 1 1 6 s2-repeat.s s2-repeat.r Snare_repeat
0 -8 0 10 -262144 -1 -1 0;
#X obj 431 417 hsl 265 45 0 100 0 1 s2-prob.s s2-prob.r Snare_probability
-2 -8 0 10 -262144 -1 -1 26400 1;
#X obj 428 486 hradio 45 1 1 6 s3-repeat.s s3-repeat.r Clap_repeat
0 -8 0 10 -262144 -1 -1 0;
#X obj 430 550 hsl 265 45 0 100 0 1 s3-prob.s s3-prob.r Clap_probability
-2 -8 0 10 -262144 -1 -1 26400 1;
#X obj 831 354 hradio 45 1 1 6 s4-repeat.s s4-repeat.r Hihat_repeat
0 -8 0 10 -262144 -1 -1 0;
#X obj 833 422 hsl 265 45 0 100 0 1 s4-prob.s s4-prob.r Hihat_probability
-2 -8 0 10 -262144 -1 -1 26400 1;
#X obj 831 489 hradio 45 1 1 6 s5-repeat.s s5-repeat.r Hihat2_repeat
0 -8 0 10 -262144 -1 -1 0;
#X obj 834 553 hsl 265 45 0 100 0 1 s5-prob.s s5-prob.r Hihat2_probability
-2 -8 0 10 -262144 -1 -1 26400 1;
#X obj 177 503 bng 45 250 50 0 reset_pattern empty Reset 0 -7 0 10
-262144 -1 -1;
#X obj 168 612 declare -path ../../../../pd-party/droidparty-abstractions
;
#X obj 44 612 aciddrums_audiocore;
#N canvas 65 54 1301 714 loadsave-mapping 0;
#X obj 640 8 persist-map synth drum_mix drum_mix.r;
#X obj 41 37 persist-map pattern sound1-01.s sound1-01.r;
#X obj 41 54 persist-map pattern sound1-02.s sound1-02.r;
#X obj 41 71 persist-map pattern sound1-03.s sound1-03.r;
#X obj 41 88 persist-map pattern sound1-04.s sound1-04.r;
#X obj 41 105 persist-map pattern sound1-05.s sound1-05.r;
#X obj 41 122 persist-map pattern sound1-06.s sound1-06.r;
#X obj 41 139 persist-map pattern sound1-07.s sound1-07.r;
#X obj 41 156 persist-map pattern sound1-08.s sound1-08.r;
#X obj 41 173 persist-map pattern sound1-09.s sound1-09.r;
#X obj 41 190 persist-map pattern sound1-10.s sound1-10.r;
#X obj 41 207 persist-map pattern sound1-11.s sound1-11.r;
#X obj 41 224 persist-map pattern sound1-12.s sound1-12.r;
#X obj 41 241 persist-map pattern sound1-13.s sound1-13.r;
#X obj 41 258 persist-map pattern sound1-14.s sound1-14.r;
#X obj 41 275 persist-map pattern sound1-15.s sound1-15.r;
#X obj 41 292 persist-map pattern sound1-16.s sound1-16.r;
#X obj 41 314 persist-map pattern sound2-01.s sound2-01.r;
#X obj 41 331 persist-map pattern sound2-02.s sound2-02.r;
#X obj 41 348 persist-map pattern sound2-03.s sound2-03.r;
#X obj 41 365 persist-map pattern sound2-04.s sound2-04.r;
#X obj 41 382 persist-map pattern sound2-05.s sound2-05.r;
#X obj 41 399 persist-map pattern sound2-06.s sound2-06.r;
#X obj 41 416 persist-map pattern sound2-07.s sound2-07.r;
#X obj 41 433 persist-map pattern sound2-08.s sound2-08.r;
#X obj 41 450 persist-map pattern sound2-09.s sound2-09.r;
#X obj 41 467 persist-map pattern sound2-10.s sound2-10.r;
#X obj 41 484 persist-map pattern sound2-11.s sound2-11.r;
#X obj 41 501 persist-map pattern sound2-12.s sound2-12.r;
#X obj 41 518 persist-map pattern sound2-13.s sound2-13.r;
#X obj 41 535 persist-map pattern sound2-14.s sound2-14.r;
#X obj 41 552 persist-map pattern sound2-15.s sound2-15.r;
#X obj 41 569 persist-map pattern sound2-16.s sound2-16.r;
#X obj 41 592 persist-map pattern sound3-01.s sound3-01.r;
#X obj 41 609 persist-map pattern sound3-02.s sound3-02.r;
#X obj 41 626 persist-map pattern sound3-03.s sound3-03.r;
#X obj 41 643 persist-map pattern sound3-04.s sound3-04.r;
#X obj 41 660 persist-map pattern sound3-05.s sound3-05.r;
#X obj 41 677 persist-map pattern sound3-06.s sound3-06.r;
#X obj 41 694 persist-map pattern sound3-07.s sound3-07.r;
#X obj 41 711 persist-map pattern sound3-08.s sound3-08.r;
#X obj 41 728 persist-map pattern sound3-09.s sound3-09.r;
#X obj 41 745 persist-map pattern sound3-10.s sound3-10.r;
#X obj 41 762 persist-map pattern sound3-11.s sound3-11.r;
#X obj 41 779 persist-map pattern sound3-12.s sound3-12.r;
#X obj 41 796 persist-map pattern sound3-13.s sound3-13.r;
#X obj 41 813 persist-map pattern sound3-14.s sound3-14.r;
#X obj 41 830 persist-map pattern sound3-15.s sound3-15.r;
#X obj 41 847 persist-map pattern sound3-16.s sound3-16.r;
#X obj 337 35 persist-map pattern sound4-01.s sound4-01.r;
#X obj 337 52 persist-map pattern sound4-02.s sound4-02.r;
#X obj 337 69 persist-map pattern sound4-03.s sound4-03.r;
#X obj 337 86 persist-map pattern sound4-04.s sound4-04.r;
#X obj 337 103 persist-map pattern sound4-05.s sound4-05.r;
#X obj 337 120 persist-map pattern sound4-06.s sound4-06.r;
#X obj 337 137 persist-map pattern sound4-07.s sound4-07.r;
#X obj 337 154 persist-map pattern sound4-08.s sound4-08.r;
#X obj 337 171 persist-map pattern sound4-09.s sound4-09.r;
#X obj 337 188 persist-map pattern sound4-10.s sound4-10.r;
#X obj 337 205 persist-map pattern sound4-11.s sound4-11.r;
#X obj 337 222 persist-map pattern sound4-12.s sound4-12.r;
#X obj 337 239 persist-map pattern sound4-13.s sound4-13.r;
#X obj 337 256 persist-map pattern sound4-14.s sound4-14.r;
#X obj 337 273 persist-map pattern sound4-15.s sound4-15.r;
#X obj 337 290 persist-map pattern sound4-16.s sound4-16.r;
#X obj 337 312 persist-map pattern sound5-01.s sound5-01.r;
#X obj 337 329 persist-map pattern sound5-02.s sound5-02.r;
#X obj 337 346 persist-map pattern sound5-03.s sound5-03.r;
#X obj 337 363 persist-map pattern sound5-04.s sound5-04.r;
#X obj 337 380 persist-map pattern sound5-05.s sound5-05.r;
#X obj 337 397 persist-map pattern sound5-06.s sound5-06.r;
#X obj 337 414 persist-map pattern sound5-07.s sound5-07.r;
#X obj 337 431 persist-map pattern sound5-08.s sound5-08.r;
#X obj 337 448 persist-map pattern sound5-09.s sound5-09.r;
#X obj 337 465 persist-map pattern sound5-10.s sound5-10.r;
#X obj 337 482 persist-map pattern sound5-11.s sound5-11.r;
#X obj 337 499 persist-map pattern sound5-12.s sound5-12.r;
#X obj 337 516 persist-map pattern sound5-13.s sound5-13.r;
#X obj 337 533 persist-map pattern sound5-14.s sound5-14.r;
#X obj 337 550 persist-map pattern sound5-15.s sound5-15.r;
#X obj 337 567 persist-map pattern sound5-16.s sound5-16.r;
#X obj 641 34 persist-map synth kick_tone.s kick_tone.r;
#X obj 641 51 persist-map synth kick_decay.s kick_decay.r;
#X obj 641 68 persist-map synth kick_gain.s kick_gain.r;
#X obj 641 93 persist-map synth snare_tone.s snare_tone.r;
#X obj 641 110 persist-map synth snare_decay.s snare_decay.r;
#X obj 641 127 persist-map synth snare_gain.s snare_gain.r;
#X obj 641 151 persist-map synth clap_tone.s clap_tone.r;
#X obj 641 168 persist-map synth clap_decay.s clap_decay.r;
#X obj 641 185 persist-map synth clap_gain.s clap_gain.r;
#X obj 641 211 persist-map synth hihat_tone.s hihat_tone.r;
#X obj 641 228 persist-map synth hihat_decay.s hihat_decay.r;
#X obj 641 245 persist-map synth hihat_gain.s hihat_gain.r;
#X obj 641 274 persist-map synth hihat2_tone.s hihat2_tone.r;
#X obj 641 291 persist-map synth hihat2_decay.s hihat2_decay.r;
#X obj 641 308 persist-map synth hihat2_gain.s hihat2_gain.r;
#X obj 337 594 persist-map pattern s1-repeat.s s1-repeat.r;
#X obj 337 611 persist-map pattern s2-repeat.s s2-repeat.r;
#X obj 337 628 persist-map pattern s3-repeat.s s3-repeat.r;
#X obj 337 645 persist-map pattern s4-repeat.s s4-repeat.r;
#X obj 337 662 persist-map pattern s5-repeat.s s5-repeat.r;
#X obj 337 693 persist-map pattern s1-prob.s s1-prob.r;
#X obj 337 710 persist-map pattern s2-prob.s s2-prob.r;
#X obj 337 727 persist-map pattern s3-prob.s s3-prob.r;
#X obj 337 744 persist-map pattern s4-prob.s s4-prob.r;
#X obj 337 761 persist-map pattern s5-prob.s s5-prob.r;
#X msg 676 466 \; drum_mix.r 0.9 \; kick_tone.r 1 \; kick_decay.r 0.1
\; kick_gain.r 0.95 \; snare_tone.r 1 \; snare_decay.r 0.1 \; snare_gain.r
0.95 \; clap_tone.r 1 \; clap_decay.r 0.1 \; clap_gain.r 0.95 \; hihat_tone.r
1 \; hihat_decay.r 0.25 \; hihat_gain.r 0.95 \; hihat2_tone.r 1 \;
hihat2_decay.r 0.5 \; hihat2_gain.r 0.95 \;;
#X obj 676 435 r reset_synth;
#X obj 974 319 loadbang;
#X obj 833 432 r reset_pattern;
#X msg 833 463 \; s1-repeat.r 0 \; s2-repeat.r 0 \; s3-repeat.r 0 \;
s4-repeat.r 0 \; s5-repeat.r 0 \; s1-prob.r 100 \; s2-prob.r 100 \;
s3-prob.r 100 \; s4-prob.r 100 \; s5-prob.r 100 \;;
#X obj 956 438 r reset_pattern;
#X msg 955 462 \; sound1-01.r 0 \; sound1-02.r 0 \; sound1-03.r 0 \;
sound1-04.r 0 \; sound1-05.r 0 \; sound1-06.r 0 \; sound1-07.r 0 \;
sound1-08.r 0 \; sound1-09.r 0 \; sound1-10.r 0 \; sound1-11.r 0 \;
sound1-12.r 0 \; sound1-13.r 0 \; sound1-14.r 0 \; sound1-15.r 0 \;
sound1-16.r 0 \;;
#X obj 1081 434 r reset_pattern;
#X msg 1080 458 \; sound1-01.r 0 \; sound1-02.r 0 \; sound1-03.r 0
\; sound1-04.r 0 \; sound1-05.r 0 \; sound1-06.r 0 \; sound1-07.r 0
\; sound1-08.r 0 \; sound1-09.r 0 \; sound1-10.r 0 \; sound1-11.r 0
\; sound1-12.r 0 \; sound1-13.r 0 \; sound1-14.r 0 \; sound1-15.r 0
\; sound1-16.r 0 \;;
#X obj 957 705 r reset_pattern;
#X msg 956 729 \; sound1-01.r 0 \; sound1-02.r 0 \; sound1-03.r 0 \;
sound1-04.r 0 \; sound1-05.r 0 \; sound1-06.r 0 \; sound1-07.r 0 \;
sound1-08.r 0 \; sound1-09.r 0 \; sound1-10.r 0 \; sound1-11.r 0 \;
sound1-12.r 0 \; sound1-13.r 0 \; sound1-14.r 0 \; sound1-15.r 0 \;
sound1-16.r 0 \;;
#X obj 1082 701 r reset_pattern;
#X msg 1081 725 \; sound1-01.r 0 \; sound1-02.r 0 \; sound1-03.r 0
\; sound1-04.r 0 \; sound1-05.r 0 \; sound1-06.r 0 \; sound1-07.r 0
\; sound1-08.r 0 \; sound1-09.r 0 \; sound1-10.r 0 \; sound1-11.r 0
\; sound1-12.r 0 \; sound1-13.r 0 \; sound1-14.r 0 \; sound1-15.r 0
\; sound1-16.r 0 \;;
#X msg 1197 490 \; sound1-01.r 0 \; sound1-02.r 0 \; sound1-03.r 0
\; sound1-04.r 0 \; sound1-05.r 0 \; sound1-06.r 0 \; sound1-07.r 0
\; sound1-08.r 0 \; sound1-09.r 0 \; sound1-10.r 0 \; sound1-11.r 0
\; sound1-12.r 0 \; sound1-13.r 0 \; sound1-14.r 0 \; sound1-15.r 0
\; sound1-16.r 0 \;;
#X obj 1202 458 r reset_pattern;
#X obj 204 -125 r pattern-load;
#X obj 206 -18 r pattern-save;
#X obj 204 -105 persist-load pattern;
#X obj 206 2 persist-save pattern;
#X obj 670 -164 r synth-load;
#X obj 669 -144 persist-load synth;
#X obj 671 -54 r synth-save;
#X obj 671 -34 persist-save synth;
#X obj 204 -181 r load_pattern;
#X obj 670 -220 r load_synth;
#X obj 205 -74 r save_pattern;
#X msg 204 -161 \; pattern load presets_pattern cbs;
#X msg 670 -200 \; synth load presets_synth cbs;
#X msg 205 -54 \; pattern save presets_pattern cbs;
#X obj 670 -110 r save_synth;
#X msg 670 -90 \; synth save presets_synth cbs;
#X connect 107 0 106 0;
#X connect 108 0 106 0;
#X connect 108 0 110 0;
#X connect 108 0 112 0;
#X connect 108 0 114 0;
#X connect 108 0 119 0;
#X connect 108 0 116 0;
#X connect 108 0 118 0;
#X connect 109 0 110 0;
#X connect 111 0 112 0;
#X connect 113 0 114 0;
#X connect 115 0 116 0;
#X connect 117 0 118 0;
#X connect 120 0 119 0;
#X connect 121 0 123 0;
#X connect 122 0 124 0;
#X connect 125 0 126 0;
#X connect 127 0 128 0;
#X connect 129 0 132 0;
#X connect 130 0 133 0;
#X connect 131 0 134 0;
#X connect 135 0 136 0;
#X restore 720 611 pd loadsave-mapping;
#X obj 523 612 loadsave pattern;
#X obj 628 612 loadsave synth;
