#N canvas 291 243 748 454 10;
#X declare -path ../../../../pd-party/droidparty-abstractions;
#N canvas 571 87 478 686 audio 0;
#X obj 238 538 dac~;
#N canvas 65 82 1301 686 drum-synths 0;
#X obj 30 641 outlet~;
#X obj 30 265 perk-bassdrum \$1/bd;
#X obj 304 242 perk-snare \$1/sn;
#X obj 1054 216 bng 15 250 50 0 empty empty empty 17 7 0 10 -262144
-1 -1;
#X obj 304 226 bng 15 250 50 0 empty empty empty 17 7 0 10 -262144
-1 -1;
#X obj 566 250 bng 15 250 50 0 empty empty empty 17 7 0 10 -262144
-1 -1;
#X obj 30 249 bng 15 250 50 0 empty empty empty 17 7 0 10 -262144 -1
-1;
#X obj 819 208 bng 15 250 50 0 empty empty empty 17 7 0 10 -262144
-1 -1;
#X obj 30 -58 r channel1;
#X obj 304 -56 r channel2;
#X obj 566 -55 r channel3;
#X obj 819 -58 r channel4;
#X obj 1052 -11 r channel5;
#X msg 43 196 3 \$1;
#X msg 82 162 4 \$1;
#X obj 43 162 swap 1;
#X obj 43 179 -;
#X msg 224 242 5 0.5;
#X msg 110 191 6 \$1;
#X msg 224 208 1 0.1;
#X msg 224 225 0 0.2;
#X msg 134 215 7 \$1;
#X msg 484 200 0 0.5;
#X msg 484 217 1 0.6;
#X msg 483 183 2 0.75;
#X msg 483 166 3 0;
#X msg 483 149 6 0;
#X msg 322 86 4 \$1;
#X msg 354 103 5 \$1;
#X msg 483 132 7 1;
#X msg 392 112 8 \$1;
#X msg 418 133 9 \$1;
#X obj 354 86 + 0.25;
#X obj 587 87 swap 1;
#X obj 587 104 -;
#X msg 618 121 3 \$1;
#X msg 587 121 2 \$1;
#X obj 566 266 perk-clap \$1/cl;
#X msg 695 158 4 \$1;
#X msg 727 158 5 \$1;
#X msg 656 175 6 \$1, f 5;
#X obj 656 142 / 2;
#X obj 656 158 + 0.15;
#X msg 711 224 1 0;
#X msg 711 240 0 0.55;
#X msg 767 158 7 \$1;
#X msg 876 118 7 \$1;
#X msg 957 145 11 \$1;
#X obj 819 224 perk-hihat \$1/hh;
#X msg 908 152 5 \$1;
#X msg 835 104 9 \$1;
#X msg 835 121 8 \$1;
#X obj 835 70 * 0.5;
#X obj 835 87 + 0.25;
#X obj 908 118 - 0.4;
#X obj 908 135 * 1.2;
#X obj 224 191 loadbang;
#X obj 43 69 r kick_tone.s;
#X obj 70 93 r kick_decay.s;
#X obj 95 119 r kick_gain.s;
#X obj 483 115 loadbang;
#X obj 349 31 r snare_tone.s;
#X obj 322 10 r snare_decay.s;
#X obj 386 53 r snare_gain.s;
#X obj 711 207 loadbang;
#X obj 587 21 r clap_tone.s;
#X obj 614 42 r clap_decay.s;
#X obj 651 64 r clap_gain.s;
#X obj 835 21 r hihat_tone.s;
#X obj 876 43 r hihat_decay.s;
#X obj 913 65 r hihat_gain.s;
#X obj 30 593 *~ 0.75;
#X msg 1111 125 7 \$1;
#X msg 1192 152 11 \$1;
#X obj 1052 226 perk-hihat \$1/hh;
#X msg 1143 159 5 \$1;
#X msg 1070 111 9 \$1;
#X msg 1070 128 8 \$1;
#X obj 1070 77 * 0.5;
#X obj 1070 94 + 0.25;
#X obj 1143 125 - 0.4;
#X obj 1143 142 * 1.2;
#X obj 1070 28 r hihat2_tone.s;
#X obj 1111 50 r hihat2_decay.s;
#X obj 1148 72 r hihat2_gain.s;
#X obj 31 494 *~;
#X obj 48 465 lop~ 10;
#X obj 48 391 r kick_mute.s;
#X obj 303 488 *~;
#X obj 320 459 lop~ 10;
#X obj 320 389 r snare_mute.s;
#X obj 565 487 *~;
#X obj 582 458 lop~ 10;
#X obj 820 486 *~;
#X obj 837 457 lop~ 10;
#X obj 1051 487 *~;
#X obj 1068 458 lop~ 10;
#X obj 582 387 r clap_mute.s;
#X obj 1068 389 r hihat2_mute.s;
#X obj 48 419 swap 1;
#X obj 48 441 -;
#X obj 320 415 swap 1;
#X obj 320 437 -;
#X obj 583 414 swap 1;
#X obj 583 436 -;
#X obj 841 413 swap 1;
#X obj 841 435 -;
#X obj 837 388 r hihat_mute.s;
#X obj 1070 412 swap 1;
#X obj 1070 434 -;
#X connect 1 0 85 0;
#X connect 2 0 88 0;
#X connect 3 0 74 0;
#X connect 4 0 2 0;
#X connect 5 0 37 0;
#X connect 6 0 1 0;
#X connect 7 0 48 0;
#X connect 8 0 1 0;
#X connect 9 0 2 0;
#X connect 10 0 37 0;
#X connect 11 0 48 0;
#X connect 12 0 74 0;
#X connect 13 0 1 1;
#X connect 14 0 1 1;
#X connect 15 0 16 0;
#X connect 15 1 16 1;
#X connect 16 0 13 0;
#X connect 17 0 1 1;
#X connect 18 0 1 1;
#X connect 19 0 1 1;
#X connect 20 0 1 1;
#X connect 21 0 1 1;
#X connect 22 0 2 1;
#X connect 23 0 2 1;
#X connect 24 0 2 1;
#X connect 25 0 2 1;
#X connect 26 0 2 1;
#X connect 27 0 2 1;
#X connect 28 0 2 1;
#X connect 29 0 2 1;
#X connect 30 0 2 1;
#X connect 31 0 2 1;
#X connect 32 0 28 0;
#X connect 33 0 34 0;
#X connect 33 1 34 1;
#X connect 34 0 36 0;
#X connect 35 0 37 1;
#X connect 36 0 37 1;
#X connect 37 0 91 0;
#X connect 38 0 37 1;
#X connect 39 0 37 1;
#X connect 40 0 37 1;
#X connect 41 0 42 0;
#X connect 42 0 40 0;
#X connect 43 0 37 1;
#X connect 44 0 37 1;
#X connect 45 0 37 1;
#X connect 46 0 48 1;
#X connect 47 0 48 1;
#X connect 48 0 93 0;
#X connect 49 0 48 1;
#X connect 50 0 48 1;
#X connect 51 0 48 1;
#X connect 52 0 53 0;
#X connect 53 0 50 0;
#X connect 53 0 51 0;
#X connect 54 0 55 0;
#X connect 55 0 49 0;
#X connect 56 0 19 0;
#X connect 56 0 20 0;
#X connect 56 0 17 0;
#X connect 57 0 15 0;
#X connect 57 0 14 0;
#X connect 58 0 18 0;
#X connect 59 0 21 0;
#X connect 60 0 29 0;
#X connect 60 0 26 0;
#X connect 60 0 24 0;
#X connect 60 0 25 0;
#X connect 60 0 22 0;
#X connect 60 0 23 0;
#X connect 61 0 30 0;
#X connect 62 0 27 0;
#X connect 62 0 32 0;
#X connect 63 0 31 0;
#X connect 64 0 43 0;
#X connect 65 0 33 0;
#X connect 65 0 35 0;
#X connect 66 0 41 0;
#X connect 66 0 38 0;
#X connect 66 0 39 0;
#X connect 67 0 45 0;
#X connect 68 0 52 0;
#X connect 69 0 46 0;
#X connect 69 0 54 0;
#X connect 70 0 47 0;
#X connect 71 0 0 0;
#X connect 72 0 74 1;
#X connect 73 0 74 1;
#X connect 74 0 95 0;
#X connect 75 0 74 1;
#X connect 76 0 74 1;
#X connect 77 0 74 1;
#X connect 78 0 79 0;
#X connect 79 0 76 0;
#X connect 79 0 77 0;
#X connect 80 0 81 0;
#X connect 81 0 75 0;
#X connect 82 0 78 0;
#X connect 83 0 72 0;
#X connect 83 0 80 0;
#X connect 84 0 73 0;
#X connect 85 0 71 0;
#X connect 86 0 85 1;
#X connect 87 0 99 0;
#X connect 88 0 71 0;
#X connect 89 0 88 1;
#X connect 90 0 101 0;
#X connect 91 0 71 0;
#X connect 92 0 91 1;
#X connect 93 0 71 0;
#X connect 94 0 93 1;
#X connect 95 0 71 0;
#X connect 96 0 95 1;
#X connect 97 0 103 0;
#X connect 98 0 108 0;
#X connect 99 0 100 0;
#X connect 99 1 100 1;
#X connect 100 0 86 0;
#X connect 101 0 102 0;
#X connect 101 1 102 1;
#X connect 102 0 89 0;
#X connect 103 0 104 0;
#X connect 103 1 104 1;
#X connect 104 0 92 0;
#X connect 105 0 106 0;
#X connect 105 1 106 1;
#X connect 106 0 94 0;
#X connect 107 0 105 0;
#X connect 108 0 109 0;
#X connect 108 1 109 1;
#X connect 109 0 96 0;
#X restore 245 284 pd drum-synths;
#X obj 244 511 tanh~;
#X obj 244 481 *~;
#X obj 276 423 / 127;
#X msg 276 444 \$1 5;
#X obj 276 465 line~;
#X obj 112 449 s pos;
#X obj 58 410 mod 16;
#X obj 119 473 s beat;
#X obj 58 238 clock, f 15;
#X floatatom 69 458 5 0 0 0 - - -, f 5;
#N canvas 65 107 1301 686 drum-seq 0;
#X obj 17 34 step 0 sound1-01.s channel1 s1-repeat.s s1-prob.s;
#X obj 17 54 step 1 sound1-02.s channel1 s1-repeat.s s1-prob.s;
#X obj 17 74 step 2 sound1-03.s channel1 s1-repeat.s s1-prob.s;
#X obj 17 94 step 3 sound1-04.s channel1 s1-repeat.s s1-prob.s;
#X obj 17 114 step 4 sound1-05.s channel1 s1-repeat.s s1-prob.s;
#X obj 17 134 step 5 sound1-06.s channel1 s1-repeat.s s1-prob.s;
#X obj 17 154 step 6 sound1-07.s channel1 s1-repeat.s s1-prob.s;
#X obj 17 174 step 7 sound1-08.s channel1 s1-repeat.s s1-prob.s;
#X obj 17 194 step 8 sound1-09.s channel1 s1-repeat.s s1-prob.s;
#X obj 17 214 step 9 sound1-10.s channel1 s1-repeat.s s1-prob.s;
#X obj 17 234 step 10 sound1-11.s channel1 s1-repeat.s s1-prob.s;
#X obj 17 254 step 11 sound1-12.s channel1 s1-repeat.s s1-prob.s;
#X obj 17 274 step 12 sound1-13.s channel1 s1-repeat.s s1-prob.s;
#X obj 17 294 step 13 sound1-14.s channel1 s1-repeat.s s1-prob.s;
#X obj 17 314 step 14 sound1-15.s channel1 s1-repeat.s s1-prob.s;
#X obj 17 334 step 15 sound1-16.s channel1 s1-repeat.s s1-prob.s;
#X obj 15 361 step 0 sound2-01.s channel2 s2-repeat.s s2-prob.s;
#X obj 15 381 step 1 sound2-02.s channel2 s2-repeat.s s2-prob.s;
#X obj 15 401 step 2 sound2-03.s channel2 s2-repeat.s s2-prob.s;
#X obj 15 421 step 3 sound2-04.s channel2 s2-repeat.s s2-prob.s;
#X obj 15 441 step 4 sound2-05.s channel2 s2-repeat.s s2-prob.s;
#X obj 15 461 step 5 sound2-06.s channel2 s2-repeat.s s2-prob.s;
#X obj 15 481 step 6 sound2-07.s channel2 s2-repeat.s s2-prob.s;
#X obj 15 501 step 7 sound2-08.s channel2 s2-repeat.s s2-prob.s;
#X obj 15 521 step 8 sound2-09.s channel2 s2-repeat.s s2-prob.s;
#X obj 15 541 step 9 sound2-10.s channel2 s2-repeat.s s2-prob.s;
#X obj 15 561 step 10 sound2-11.s channel2 s2-repeat.s s2-prob.s;
#X obj 15 581 step 11 sound2-12.s channel2 s2-repeat.s s2-prob.s;
#X obj 15 601 step 12 sound2-13.s channel2 s2-repeat.s s2-prob.s;
#X obj 15 621 step 13 sound2-14.s channel2 s2-repeat.s s2-prob.s;
#X obj 15 641 step 14 sound2-15.s channel2 s2-repeat.s s2-prob.s;
#X obj 15 661 step 15 sound2-16.s channel2 s2-repeat.s s2-prob.s;
#X obj 378 25 step 0 sound3-01.s channel3 s3-repeat.s s3-prob.s;
#X obj 378 45 step 1 sound3-02.s channel3 s3-repeat.s s3-prob.s;
#X obj 378 65 step 2 sound3-03.s channel3 s3-repeat.s s3-prob.s;
#X obj 378 85 step 3 sound3-04.s channel3 s3-repeat.s s3-prob.s;
#X obj 378 105 step 4 sound3-05.s channel3 s3-repeat.s s3-prob.s;
#X obj 378 125 step 5 sound3-06.s channel3 s3-repeat.s s3-prob.s;
#X obj 378 145 step 6 sound3-07.s channel3 s3-repeat.s s3-prob.s;
#X obj 378 165 step 7 sound3-08.s channel3 s3-repeat.s s3-prob.s;
#X obj 378 185 step 8 sound3-09.s channel3 s3-repeat.s s3-prob.s;
#X obj 378 205 step 9 sound3-10.s channel3 s3-repeat.s s3-prob.s;
#X obj 378 225 step 10 sound3-11.s channel3 s3-repeat.s s3-prob.s;
#X obj 378 245 step 11 sound3-12.s channel3 s3-repeat.s s3-prob.s;
#X obj 378 265 step 12 sound3-13.s channel3 s3-repeat.s s3-prob.s;
#X obj 378 285 step 13 sound3-14.s channel3 s3-repeat.s s3-prob.s;
#X obj 378 305 step 14 sound3-15.s channel3 s3-repeat.s s3-prob.s;
#X obj 378 325 step 15 sound3-16.s channel3 s3-repeat.s s3-prob.s;
#X obj 379 369 step 0 sound4-01.s channel4 s4-repeat.s s4-prob.s;
#X obj 379 389 step 1 sound4-02.s channel4 s4-repeat.s s4-prob.s;
#X obj 379 409 step 2 sound4-03.s channel4 s4-repeat.s s4-prob.s;
#X obj 379 429 step 3 sound4-04.s channel4 s4-repeat.s s4-prob.s;
#X obj 379 449 step 4 sound4-05.s channel4 s4-repeat.s s4-prob.s;
#X obj 379 469 step 5 sound4-06.s channel4 s4-repeat.s s4-prob.s;
#X obj 379 489 step 6 sound4-07.s channel4 s4-repeat.s s4-prob.s;
#X obj 379 509 step 7 sound4-08.s channel4 s4-repeat.s s4-prob.s;
#X obj 379 529 step 8 sound4-09.s channel4 s4-repeat.s s4-prob.s;
#X obj 379 549 step 9 sound4-10.s channel4 s4-repeat.s s4-prob.s;
#X obj 379 569 step 10 sound4-11.s channel4 s4-repeat.s s4-prob.s;
#X obj 379 589 step 11 sound4-12.s channel4 s4-repeat.s s4-prob.s;
#X obj 379 609 step 12 sound4-13.s channel4 s4-repeat.s s4-prob.s;
#X obj 379 629 step 13 sound4-14.s channel4 s4-repeat.s s4-prob.s;
#X obj 379 649 step 14 sound4-15.s channel4 s4-repeat.s s4-prob.s;
#X obj 379 669 step 15 sound4-16.s channel4 s4-repeat.s s4-prob.s;
#X obj 711 106 step 4 sound5-05.s channel5 s5-repeat.s s5-prob.s;
#X obj 711 126 step 5 sound5-06.s channel5 s5-repeat.s s5-prob.s;
#X obj 711 146 step 6 sound5-07.s channel5 s5-repeat.s s5-prob.s;
#X obj 711 166 step 7 sound5-08.s channel5 s5-repeat.s s5-prob.s;
#X obj 711 186 step 8 sound5-09.s channel5 s5-repeat.s s5-prob.s;
#X obj 711 206 step 9 sound5-10.s channel5 s5-repeat.s s5-prob.s;
#X obj 711 226 step 10 sound5-11.s channel5 s5-repeat.s s5-prob.s;
#X obj 711 246 step 11 sound5-12.s channel5 s5-repeat.s s5-prob.s;
#X obj 711 266 step 12 sound5-13.s channel5 s5-repeat.s s5-prob.s;
#X obj 711 286 step 13 sound5-14.s channel5 s5-repeat.s s5-prob.s;
#X obj 711 306 step 14 sound5-15.s channel5 s5-repeat.s s5-prob.s;
#X obj 711 326 step 15 sound5-16.s channel5 s5-repeat.s s5-prob.s;
#X obj 711 26 step 0 sound5-01.s channel5 s5-repeat.s s5-prob.s;
#X obj 711 46 step 1 sound5-02.s channel5 s5-repeat.s s5-prob.s;
#X obj 711 66 step 2 sound5-03.s channel5 s5-repeat.s s5-prob.s;
#X obj 711 86 step 3 sound5-04.s channel5 s5-repeat.s s5-prob.s;
#X restore 245 261 pd drum-seq;
#X obj 125 271 s rawmidi;
#X obj 58 495 + 29;
#X obj 58 475 * 68;
#X obj 28 282 bng 15 250 50 0 empty empty empty 17 7 0 10 -262144 -1
-1;
#X msg 58 514 \; aciddrums_cursor pos \$1 0;
#X obj 58 269 / 24;
#X obj 58 291 i;
#X obj 58 314 change;
#X floatatom 80 352 5 0 0 0 - - -, f 5;
#X obj 276 402 r master.s;
#X connect 1 0 3 0;
#X connect 2 0 0 0;
#X connect 2 0 0 1;
#X connect 3 0 2 0;
#X connect 4 0 5 0;
#X connect 5 0 6 0;
#X connect 6 0 3 1;
#X connect 8 0 7 0;
#X connect 8 0 9 0;
#X connect 8 0 15 0;
#X connect 10 0 13 0;
#X connect 10 0 16 0;
#X connect 10 0 18 0;
#X connect 11 0 15 0;
#X connect 14 0 17 0;
#X connect 15 0 14 0;
#X connect 18 0 19 0;
#X connect 19 0 20 0;
#X connect 20 0 21 0;
#X connect 20 0 8 0;
#X connect 22 0 4 0;
#X restore 329 51 pd audio;
#X obj 29 5 declare -path ../../../../pd-party/droidparty-abstractions
;
#N canvas 65 54 1301 714 loadsave-mapping 0;
#X obj 41 37 persist-map pattern sound1-01.s sound1-01.r;
#X obj 41 54 persist-map pattern sound1-02.s sound1-02.r;
#X obj 41 71 persist-map pattern sound1-03.s sound1-03.r;
#X obj 41 88 persist-map pattern sound1-04.s sound1-04.r;
#X obj 41 105 persist-map pattern sound1-05.s sound1-05.r;
#X obj 41 122 persist-map pattern sound1-06.s sound1-06.r;
#X obj 41 139 persist-map pattern sound1-07.s sound1-07.r;
#X obj 41 156 persist-map pattern sound1-08.s sound1-08.r;
#X obj 41 173 persist-map pattern sound1-09.s sound1-09.r;
#X obj 41 190 persist-map pattern sound1-10.s sound1-10.r;
#X obj 41 207 persist-map pattern sound1-11.s sound1-11.r;
#X obj 41 224 persist-map pattern sound1-12.s sound1-12.r;
#X obj 41 241 persist-map pattern sound1-13.s sound1-13.r;
#X obj 41 258 persist-map pattern sound1-14.s sound1-14.r;
#X obj 41 275 persist-map pattern sound1-15.s sound1-15.r;
#X obj 41 292 persist-map pattern sound1-16.s sound1-16.r;
#X obj 41 314 persist-map pattern sound2-01.s sound2-01.r;
#X obj 41 331 persist-map pattern sound2-02.s sound2-02.r;
#X obj 41 348 persist-map pattern sound2-03.s sound2-03.r;
#X obj 41 365 persist-map pattern sound2-04.s sound2-04.r;
#X obj 41 382 persist-map pattern sound2-05.s sound2-05.r;
#X obj 41 399 persist-map pattern sound2-06.s sound2-06.r;
#X obj 41 416 persist-map pattern sound2-07.s sound2-07.r;
#X obj 41 433 persist-map pattern sound2-08.s sound2-08.r;
#X obj 41 450 persist-map pattern sound2-09.s sound2-09.r;
#X obj 41 467 persist-map pattern sound2-10.s sound2-10.r;
#X obj 41 484 persist-map pattern sound2-11.s sound2-11.r;
#X obj 41 501 persist-map pattern sound2-12.s sound2-12.r;
#X obj 41 518 persist-map pattern sound2-13.s sound2-13.r;
#X obj 41 535 persist-map pattern sound2-14.s sound2-14.r;
#X obj 41 552 persist-map pattern sound2-15.s sound2-15.r;
#X obj 41 569 persist-map pattern sound2-16.s sound2-16.r;
#X obj 41 592 persist-map pattern sound3-01.s sound3-01.r;
#X obj 41 609 persist-map pattern sound3-02.s sound3-02.r;
#X obj 41 626 persist-map pattern sound3-03.s sound3-03.r;
#X obj 41 643 persist-map pattern sound3-04.s sound3-04.r;
#X obj 41 660 persist-map pattern sound3-05.s sound3-05.r;
#X obj 41 677 persist-map pattern sound3-06.s sound3-06.r;
#X obj 41 694 persist-map pattern sound3-07.s sound3-07.r;
#X obj 41 711 persist-map pattern sound3-08.s sound3-08.r;
#X obj 41 728 persist-map pattern sound3-09.s sound3-09.r;
#X obj 41 745 persist-map pattern sound3-10.s sound3-10.r;
#X obj 41 762 persist-map pattern sound3-11.s sound3-11.r;
#X obj 41 779 persist-map pattern sound3-12.s sound3-12.r;
#X obj 41 796 persist-map pattern sound3-13.s sound3-13.r;
#X obj 41 813 persist-map pattern sound3-14.s sound3-14.r;
#X obj 41 830 persist-map pattern sound3-15.s sound3-15.r;
#X obj 41 847 persist-map pattern sound3-16.s sound3-16.r;
#X obj 337 35 persist-map pattern sound4-01.s sound4-01.r;
#X obj 337 52 persist-map pattern sound4-02.s sound4-02.r;
#X obj 337 69 persist-map pattern sound4-03.s sound4-03.r;
#X obj 337 86 persist-map pattern sound4-04.s sound4-04.r;
#X obj 337 103 persist-map pattern sound4-05.s sound4-05.r;
#X obj 337 120 persist-map pattern sound4-06.s sound4-06.r;
#X obj 337 137 persist-map pattern sound4-07.s sound4-07.r;
#X obj 337 154 persist-map pattern sound4-08.s sound4-08.r;
#X obj 337 171 persist-map pattern sound4-09.s sound4-09.r;
#X obj 337 188 persist-map pattern sound4-10.s sound4-10.r;
#X obj 337 205 persist-map pattern sound4-11.s sound4-11.r;
#X obj 337 222 persist-map pattern sound4-12.s sound4-12.r;
#X obj 337 239 persist-map pattern sound4-13.s sound4-13.r;
#X obj 337 256 persist-map pattern sound4-14.s sound4-14.r;
#X obj 337 273 persist-map pattern sound4-15.s sound4-15.r;
#X obj 337 290 persist-map pattern sound4-16.s sound4-16.r;
#X obj 337 312 persist-map pattern sound5-01.s sound5-01.r;
#X obj 337 329 persist-map pattern sound5-02.s sound5-02.r;
#X obj 337 346 persist-map pattern sound5-03.s sound5-03.r;
#X obj 337 363 persist-map pattern sound5-04.s sound5-04.r;
#X obj 337 380 persist-map pattern sound5-05.s sound5-05.r;
#X obj 337 397 persist-map pattern sound5-06.s sound5-06.r;
#X obj 337 414 persist-map pattern sound5-07.s sound5-07.r;
#X obj 337 431 persist-map pattern sound5-08.s sound5-08.r;
#X obj 337 448 persist-map pattern sound5-09.s sound5-09.r;
#X obj 337 465 persist-map pattern sound5-10.s sound5-10.r;
#X obj 337 482 persist-map pattern sound5-11.s sound5-11.r;
#X obj 337 499 persist-map pattern sound5-12.s sound5-12.r;
#X obj 337 516 persist-map pattern sound5-13.s sound5-13.r;
#X obj 337 533 persist-map pattern sound5-14.s sound5-14.r;
#X obj 337 550 persist-map pattern sound5-15.s sound5-15.r;
#X obj 337 567 persist-map pattern sound5-16.s sound5-16.r;
#X obj 641 34 persist-map synth kick_tone.s kick_tone.r;
#X obj 641 51 persist-map synth kick_decay.s kick_decay.r;
#X obj 641 68 persist-map synth kick_gain.s kick_gain.r;
#X obj 641 93 persist-map synth snare_tone.s snare_tone.r;
#X obj 641 110 persist-map synth snare_decay.s snare_decay.r;
#X obj 641 127 persist-map synth snare_gain.s snare_gain.r;
#X obj 641 151 persist-map synth clap_tone.s clap_tone.r;
#X obj 641 168 persist-map synth clap_decay.s clap_decay.r;
#X obj 641 185 persist-map synth clap_gain.s clap_gain.r;
#X obj 641 211 persist-map synth hihat_tone.s hihat_tone.r;
#X obj 641 228 persist-map synth hihat_decay.s hihat_decay.r;
#X obj 641 245 persist-map synth hihat_gain.s hihat_gain.r;
#X obj 641 274 persist-map synth hihat2_tone.s hihat2_tone.r;
#X obj 641 291 persist-map synth hihat2_decay.s hihat2_decay.r;
#X obj 641 308 persist-map synth hihat2_gain.s hihat2_gain.r;
#X obj 337 594 persist-map pattern s1-repeat.s s1-repeat.r;
#X obj 337 611 persist-map pattern s2-repeat.s s2-repeat.r;
#X obj 337 628 persist-map pattern s3-repeat.s s3-repeat.r;
#X obj 337 645 persist-map pattern s4-repeat.s s4-repeat.r;
#X obj 337 662 persist-map pattern s5-repeat.s s5-repeat.r;
#X obj 337 693 persist-map pattern s1-prob.s s1-prob.r;
#X obj 337 710 persist-map pattern s2-prob.s s2-prob.r;
#X obj 337 727 persist-map pattern s3-prob.s s3-prob.r;
#X obj 337 744 persist-map pattern s4-prob.s s4-prob.r;
#X obj 337 761 persist-map pattern s5-prob.s s5-prob.r;
#X obj 676 435 r reset_synth;
#X obj 974 319 loadbang;
#X obj 833 432 r reset_pattern;
#X msg 833 463 \; s1-repeat.r 0 \; s2-repeat.r 0 \; s3-repeat.r 0 \;
s4-repeat.r 0 \; s5-repeat.r 0 \; s1-prob.r 100 \; s2-prob.r 100 \;
s3-prob.r 100 \; s4-prob.r 100 \; s5-prob.r 100 \;;
#X obj 956 438 r reset_pattern;
#X msg 955 462 \; sound1-01.r 0 \; sound1-02.r 0 \; sound1-03.r 0 \;
sound1-04.r 0 \; sound1-05.r 0 \; sound1-06.r 0 \; sound1-07.r 0 \;
sound1-08.r 0 \; sound1-09.r 0 \; sound1-10.r 0 \; sound1-11.r 0 \;
sound1-12.r 0 \; sound1-13.r 0 \; sound1-14.r 0 \; sound1-15.r 0 \;
sound1-16.r 0 \;;
#X obj 1081 434 r reset_pattern;
#X msg 1080 458 \; sound2-01.r 0 \; sound2-02.r 0 \; sound2-03.r 0
\; sound2-04.r 0 \; sound2-05.r 0 \; sound2-06.r 0 \; sound2-07.r 0
\; sound2-08.r 0 \; sound2-09.r 0 \; sound2-10.r 0 \; sound2-11.r 0
\; sound2-12.r 0 \; sound2-13.r 0 \; sound2-14.r 0 \; sound2-15.r 0
\; sound2-16.r 0 \;;
#X obj 957 705 r reset_pattern;
#X msg 956 729 \; sound3-01.r 0 \; sound3-02.r 0 \; sound3-03.r 0 \;
sound3-04.r 0 \; sound3-05.r 0 \; sound3-06.r 0 \; sound3-07.r 0 \;
sound3-08.r 0 \; sound3-09.r 0 \; sound3-10.r 0 \; sound3-11.r 0 \;
sound3-12.r 0 \; sound3-13.r 0 \; sound3-14.r 0 \; sound3-15.r 0 \;
sound3-16.r 0 \;;
#X obj 1082 701 r reset_pattern;
#X msg 1081 725 \; sound4-01.r 0 \; sound4-02.r 0 \; sound4-03.r 0
\; sound4-04.r 0 \; sound4-05.r 0 \; sound4-06.r 0 \; sound4-07.r 0
\; sound4-08.r 0 \; sound4-09.r 0 \; sound4-10.r 0 \; sound4-11.r 0
\; sound4-12.r 0 \; sound4-13.r 0 \; sound4-14.r 0 \; sound4-15.r 0
\; sound4-16.r 0 \;;
#X msg 1197 490 \; sound5-01.r 0 \; sound5-02.r 0 \; sound5-03.r 0
\; sound5-04.r 0 \; sound5-05.r 0 \; sound5-06.r 0 \; sound5-07.r 0
\; sound5-08.r 0 \; sound5-09.r 0 \; sound5-10.r 0 \; sound5-11.r 0
\; sound5-12.r 0 \; sound5-13.r 0 \; sound5-14.r 0 \; sound5-15.r 0
\; sound5-16.r 0 \;;
#X obj 1202 458 r reset_pattern;
#X obj 204 -125 r pattern-load;
#X obj 206 -18 r pattern-save;
#X obj 206 2 persist-save pattern;
#X obj 670 -164 r synth-load;
#X obj 671 -54 r synth-save;
#X obj 671 -34 persist-save synth;
#X obj 204 -181 r load_pattern;
#X obj 670 -220 r load_synth;
#X obj 205 -74 r save_pattern;
#X msg 204 -161 \; pattern load presets_pattern cbs;
#X msg 670 -200 \; synth load presets_synth cbs;
#X msg 205 -54 \; pattern save presets_pattern cbs;
#X obj 670 -110 r save_synth;
#X msg 670 -90 \; synth save presets_synth cbs;
#X obj 930 29 persist-map synth kick_mute.s kick_mute.r;
#X obj 940 87 persist-map synth snare_mute.s snare_mute.r;
#X obj 939 154 persist-map synth clap_mute.s clap_mute.r;
#X obj 949 209 persist-map synth hihat_mute.s hihat_mute.r;
#X obj 955 272 persist-map synth hihat2_mute.s hihat2_mute.r;
#X msg 676 470 \; master.r 63 \; kick_tone.r 1 \; kick_decay.r 0.1
\; kick_gain.r 0.95 \; kick_mute.r 0 \; snare_tone.r 1 \; snare_decay.r
0.1 \; snare_gain.r 0.95 \; snare_mute.r 0 \; clap_tone.r 1 \; clap_decay.r
0.1 \; clap_gain.r 0.95 \; clap_mute.r 0 \; hihat_tone.r 1 \; hihat_decay.r
0.25 \; hihat_gain.r 0.95 \; hihat_mute.r 0 \; hihat2_tone.r 1 \; hihat2_decay.r
0.5 \; hihat2_gain.r 0.95 \; hihat2_mute.r 0 \;;
#X obj 204 -105 persist-load pattern;
#X obj 669 -144 persist-load synth;
#X connect 105 0 138 0;
#X connect 106 0 138 0;
#X connect 106 0 108 0;
#X connect 106 0 110 0;
#X connect 106 0 112 0;
#X connect 106 0 117 0;
#X connect 106 0 114 0;
#X connect 106 0 116 0;
#X connect 107 0 108 0;
#X connect 109 0 110 0;
#X connect 111 0 112 0;
#X connect 113 0 114 0;
#X connect 115 0 116 0;
#X connect 118 0 117 0;
#X connect 119 0 139 0;
#X connect 120 0 121 0;
#X connect 122 0 140 0;
#X connect 123 0 124 0;
#X connect 125 0 128 0;
#X connect 126 0 129 0;
#X connect 127 0 130 0;
#X connect 131 0 132 0;
#X restore 255 97 pd loadsave-mapping;
#X obj 58 98 loadsave pattern;
#X obj 163 98 loadsave synth;
#X obj 60 167 delay 100;
#X obj 64 251 persist-load pattern;
#X obj 62 132 loadbang;
#X obj 336 251 persist-load synth;
#X obj 62 210 symbol presets_pattern/pseudo-random.cbs;
#X obj 29 177 bng 15 250 50 0 empty empty empty 17 7 0 10 -262144 -1
-1;
#X obj 328 227 symbol presets_synth/electro-kit.cbs;
#X connect 5 0 9 0;
#X connect 5 0 11 0;
#X connect 7 0 5 0;
#X connect 9 0 6 0;
#X connect 10 0 9 0;
#X connect 11 0 8 0;
