#N canvas 659 0 687 662 10;
#X msg 150 143 36;
#X msg 167 163 37;
#X msg 184 186 38;
#X msg 201 206 39;
#X msg 219 143 40;
#X msg 236 163 41;
#X msg 253 186 42;
#X msg 270 206 43;
#X msg 288 146 44;
#X msg 305 166 45;
#X msg 322 189 46;
#X msg 339 209 47;
#X obj 580 298 * 12;
#X obj 144 323 +;
#X text 253 575 accent/notelength/pitch/time(packed);
#X obj 167 509 sel 0 1;
#X obj 167 534 f 1;
#X obj 198 534 f 500;
#X obj 225 510 r notetime;
#X obj 261 358 + 1;
#X obj 334 359 r \$0-trigger;
#X obj 455 463 sel 0 1;
#X msg 455 489 1;
#X msg 485 488 0.5;
#X obj 334 513 pack 0 0;
#X obj 150 118 select C C# D Eb E F F# G G# A Bb B;
#X obj 374 118 sel Off;
#X obj 469 248 s \$0-trigger;
#X text 612 316 ordre de trigger de gauche à droite : \$0-trigger
note1 octave1 glide1 accent1 half1;
#X obj 150 70 symbol;
#X obj 150 -32 inlet bang;
#X msg 183 46 symbol \$1;
#X obj 455 442 f;
#X obj 261 333 f;
#X obj 167 487 f;
#X obj 580 278 f;
#X obj 223 -7 t b b b b b;
#X obj 98 597 outlet;
#X obj 183 23 r \$1;
#X obj 575 75 r \$2;
#X obj 184 434 r \$3;
#X obj 306 291 r \$4;
#X obj 470 421 r \$5;
#X text 353 -7 onestep note1 octave1 glide1 accent1 half1;
#X msg 598 214 0;
#X msg 615 234 1;
#X msg 632 257 2;
#X msg 649 277 3;
#X msg 673 223 4;
#X obj 542 126 symbol;
#X msg 575 102 symbol \$1;
#X obj 371 68 t b b;
#X obj 98 574 pack 0 0 0 0;
#X obj 184 456 t f b;
#X obj 467 224 b;
#X floatatom 187 578 5 0 0 0 - - -;
#X obj 360 146 b;
#X obj 360 170 s \$0-trigger-off;
#X obj 542 151 select 1 2 3 4;
#X obj 335 418 f;
#X obj 334 460 spigot 1;
#X connect 0 0 13 0;
#X connect 1 0 13 0;
#X connect 2 0 13 0;
#X connect 3 0 13 0;
#X connect 4 0 13 0;
#X connect 5 0 13 0;
#X connect 6 0 13 0;
#X connect 7 0 13 0;
#X connect 8 0 13 0;
#X connect 9 0 13 0;
#X connect 10 0 13 0;
#X connect 11 0 13 0;
#X connect 12 0 13 1;
#X connect 13 0 52 2;
#X connect 15 0 16 0;
#X connect 15 1 17 0;
#X connect 16 0 52 3;
#X connect 16 0 55 0;
#X connect 17 0 52 3;
#X connect 17 0 55 0;
#X connect 18 0 17 1;
#X connect 19 0 59 1;
#X connect 20 0 59 0;
#X connect 21 0 22 0;
#X connect 21 1 23 0;
#X connect 22 0 24 1;
#X connect 23 0 24 1;
#X connect 24 0 52 0;
#X connect 25 0 0 0;
#X connect 25 1 1 0;
#X connect 25 2 2 0;
#X connect 25 3 3 0;
#X connect 25 4 4 0;
#X connect 25 5 5 0;
#X connect 25 6 6 0;
#X connect 25 7 7 0;
#X connect 25 8 8 0;
#X connect 25 9 9 0;
#X connect 25 10 10 0;
#X connect 25 11 11 0;
#X connect 26 0 56 0;
#X connect 26 1 54 0;
#X connect 29 0 25 0;
#X connect 29 0 26 0;
#X connect 30 0 36 0;
#X connect 31 0 29 1;
#X connect 32 0 21 0;
#X connect 33 0 19 0;
#X connect 34 0 15 0;
#X connect 35 0 12 0;
#X connect 36 0 32 0;
#X connect 36 1 33 0;
#X connect 36 2 34 0;
#X connect 36 3 29 0;
#X connect 36 4 51 0;
#X connect 38 0 31 0;
#X connect 39 0 50 0;
#X connect 40 0 53 0;
#X connect 41 0 33 1;
#X connect 42 0 32 1;
#X connect 44 0 35 1;
#X connect 45 0 35 1;
#X connect 46 0 35 1;
#X connect 47 0 35 1;
#X connect 48 0 35 1;
#X connect 49 0 58 0;
#X connect 50 0 49 1;
#X connect 51 0 35 0;
#X connect 51 1 49 0;
#X connect 52 0 37 0;
#X connect 53 0 34 1;
#X connect 54 0 27 0;
#X connect 56 0 57 0;
#X connect 58 0 44 0;
#X connect 58 1 45 0;
#X connect 58 2 46 0;
#X connect 58 3 47 0;
#X connect 58 4 48 0;
#X connect 59 0 60 0;
#X connect 60 0 24 0;
