#N canvas 737 238 450 300 10;
#X obj 52 94 sel \$1;
#X obj 52 145 spigot;
#X obj 128 85 r \$2;
#X obj 54 211 s \$3;
#X obj 52 47 r pos;
#X obj 120 196 bng 15 250 50 0 empty empty empty 17 7 0 10 -262144
-1 -1;
#X obj 139 141 bng 15 250 50 0 empty empty empty 17 7 0 10 -262144
-1 -1;
#X connect 0 0 1 0;
#X connect 0 0 6 0;
#X connect 1 0 3 0;
#X connect 1 0 5 0;
#X connect 2 0 1 1;
#X connect 4 0 0 0;
