#N canvas 65 54 1301 714 10;
#X obj 201 59 sel \$1;
#X obj 133 104 spigot;
#X obj 166 9 r \$2;
#X obj 304 722 s \$3;
#X obj 201 38 r pos;
#X obj 133 68 r rawmidi;
#X obj 133 146 spigot;
#X msg 228 129 0;
#X msg 201 129 1;
#X obj 160 189 + 1;
#X obj 133 189 f 0;
#X obj 175 237 r \$4;
#X obj 304 603 random 100;
#X obj 304 626 moses 100;
#X obj 304 646 b;
#X obj 487 609 r \$5;
#X obj 304 579 b;
#X obj 201 96 t b b;
#X obj 371 687 spigot;
#X obj 401 657 r \$2;
#X obj 133 212 mod 24;
#X obj 133 241 t f b;
#X obj 160 264 f;
#X obj 133 291 list prepend;
#X text 350 48 1- locus / 2 onoff / 3 sound / 4 repeat / 5 proba;
#X obj 133 315 route 0 1 2 3 4 5 6;
#X obj 353 482 b;
#X obj 353 456 sel 3 6 9 12 15 18 21;
#X obj 148 341 sel 12;
#X obj 255 397 sel 6 12 18;
#X obj 255 418 b;
#X obj 303 446 b;
#X obj 303 423 sel 4 8 12 16 20;
#X obj 203 365 sel 8 16;
#X obj 203 385 b;
#X obj 395 520 b;
#X obj 395 494 sel 3 6 9 12 15 18 21;
#X connect 0 0 17 0;
#X connect 0 1 7 0;
#X connect 1 0 6 0;
#X connect 2 0 1 1;
#X connect 4 0 0 0;
#X connect 5 0 1 0;
#X connect 6 0 10 0;
#X connect 7 0 6 1;
#X connect 7 0 10 1;
#X connect 8 0 6 1;
#X connect 9 0 10 1;
#X connect 10 0 9 0;
#X connect 10 0 20 0;
#X connect 11 0 22 1;
#X connect 12 0 13 0;
#X connect 13 0 14 0;
#X connect 14 0 3 0;
#X connect 15 0 13 1;
#X connect 16 0 12 0;
#X connect 17 0 8 0;
#X connect 17 1 18 0;
#X connect 18 0 3 0;
#X connect 19 0 18 1;
#X connect 20 0 21 0;
#X connect 21 0 23 0;
#X connect 21 1 22 0;
#X connect 22 0 23 1;
#X connect 23 0 25 0;
#X connect 25 1 28 0;
#X connect 25 2 33 0;
#X connect 25 3 29 0;
#X connect 25 4 32 0;
#X connect 25 5 27 0;
#X connect 26 0 16 0;
#X connect 27 0 26 0;
#X connect 27 1 26 0;
#X connect 27 2 26 0;
#X connect 27 3 26 0;
#X connect 27 4 26 0;
#X connect 27 5 26 0;
#X connect 27 6 26 0;
#X connect 28 0 16 0;
#X connect 29 0 30 0;
#X connect 29 1 30 0;
#X connect 29 2 30 0;
#X connect 30 0 16 0;
#X connect 31 0 16 0;
#X connect 32 0 31 0;
#X connect 32 1 31 0;
#X connect 32 2 31 0;
#X connect 32 3 31 0;
#X connect 32 4 31 0;
#X connect 33 0 34 0;
#X connect 33 1 34 0;
#X connect 34 0 16 0;
#X connect 36 0 35 0;
#X connect 36 1 35 0;
#X connect 36 2 35 0;
#X connect 36 3 35 0;
#X connect 36 4 35 0;
#X connect 36 5 35 0;
#X connect 36 6 35 0;
