#N canvas 65 87 496 305 10;
#X declare -path ../../../../pd-party/droidparty-abstractions;
#N canvas 491 102 478 686 audio 1;
#X obj 238 538 dac~;
#N canvas 65 97 1301 686 drum-synths 0;
#X obj 29 550 outlet~;
#X obj 30 265 perk-bassdrum \$1/bd;
#X obj 304 242 perk-snare \$1/sn;
#X obj 1054 216 bng 15 250 50 0 empty empty empty 17 7 0 10 -262144
-1 -1;
#X obj 304 226 bng 15 250 50 0 empty empty empty 17 7 0 10 -262144
-1 -1;
#X obj 566 250 bng 15 250 50 0 empty empty empty 17 7 0 10 -262144
-1 -1;
#X obj 30 249 bng 15 250 50 0 empty empty empty 17 7 0 10 -262144 -1
-1;
#X obj 819 208 bng 15 250 50 0 empty empty empty 17 7 0 10 -262144
-1 -1;
#X obj 30 -58 r channel1;
#X obj 304 -56 r channel2;
#X obj 566 -55 r channel3;
#X obj 819 -58 r channel4;
#X obj 1052 -11 r channel5;
#X msg 43 196 3 \$1;
#X msg 82 162 4 \$1;
#X obj 43 162 swap 1;
#X obj 43 179 -;
#X msg 224 242 5 0.5;
#X msg 110 191 6 \$1;
#X msg 224 208 1 0.1;
#X msg 224 225 0 0.2;
#X msg 134 215 7 \$1;
#X msg 484 200 0 0.5;
#X msg 484 217 1 0.6;
#X msg 483 183 2 0.75;
#X msg 483 166 3 0;
#X msg 483 149 6 0;
#X msg 322 86 4 \$1;
#X msg 354 103 5 \$1;
#X msg 483 132 7 1;
#X msg 392 112 8 \$1;
#X msg 418 133 9 \$1;
#X obj 354 86 + 0.25;
#X obj 587 87 swap 1;
#X obj 587 104 -;
#X msg 618 121 3 \$1;
#X msg 587 121 2 \$1;
#X obj 566 266 perk-clap \$1/cl;
#X msg 695 158 4 \$1;
#X msg 727 158 5 \$1;
#X msg 656 175 6 \$1, f 5;
#X obj 656 142 / 2;
#X obj 656 158 + 0.15;
#X msg 711 224 1 0;
#X msg 711 240 0 0.55;
#X msg 767 158 7 \$1;
#X msg 876 118 7 \$1;
#X msg 957 145 11 \$1;
#X obj 819 224 perk-hihat \$1/hh;
#X msg 908 152 5 \$1;
#X msg 835 104 9 \$1;
#X msg 835 121 8 \$1;
#X obj 835 70 * 0.5;
#X obj 835 87 + 0.25;
#X obj 908 118 - 0.4;
#X obj 908 135 * 1.2;
#X obj 224 191 loadbang;
#X obj 43 69 r kick_tone.s;
#X obj 70 93 r kick_decay.s;
#X obj 95 119 r kick_gain.s;
#X obj 483 115 loadbang;
#X obj 349 31 r snare_tone.s;
#X obj 322 10 r snare_decay.s;
#X obj 386 53 r snare_gain.s;
#X obj 711 207 loadbang;
#X obj 587 21 r clap_tone.s;
#X obj 614 42 r clap_decay.s;
#X obj 651 64 r clap_gain.s;
#X obj 835 21 r hihat_tone.s;
#X obj 876 43 r hihat_decay.s;
#X obj 913 65 r hihat_gain.s;
#X obj 29 502 *~ 0.75;
#X msg 1111 125 7 \$1;
#X msg 1192 152 11 \$1;
#X obj 1052 226 perk-hihat \$1/hh;
#X msg 1143 159 5 \$1;
#X msg 1070 111 9 \$1;
#X msg 1070 128 8 \$1;
#X obj 1070 77 * 0.5;
#X obj 1070 94 + 0.25;
#X obj 1143 125 - 0.4;
#X obj 1143 142 * 1.2;
#X obj 1070 28 r hihat2_tone.s;
#X obj 1111 50 r hihat2_decay.s;
#X obj 1148 72 r hihat2_gain.s;
#X connect 1 0 71 0;
#X connect 2 0 71 0;
#X connect 3 0 74 0;
#X connect 4 0 2 0;
#X connect 5 0 37 0;
#X connect 6 0 1 0;
#X connect 7 0 48 0;
#X connect 8 0 1 0;
#X connect 9 0 2 0;
#X connect 10 0 37 0;
#X connect 11 0 48 0;
#X connect 12 0 74 0;
#X connect 13 0 1 1;
#X connect 14 0 1 1;
#X connect 15 0 16 0;
#X connect 15 1 16 1;
#X connect 16 0 13 0;
#X connect 17 0 1 1;
#X connect 18 0 1 1;
#X connect 19 0 1 1;
#X connect 20 0 1 1;
#X connect 21 0 1 1;
#X connect 22 0 2 1;
#X connect 23 0 2 1;
#X connect 24 0 2 1;
#X connect 25 0 2 1;
#X connect 26 0 2 1;
#X connect 27 0 2 1;
#X connect 28 0 2 1;
#X connect 29 0 2 1;
#X connect 30 0 2 1;
#X connect 31 0 2 1;
#X connect 32 0 28 0;
#X connect 33 0 34 0;
#X connect 33 1 34 1;
#X connect 34 0 36 0;
#X connect 35 0 37 1;
#X connect 36 0 37 1;
#X connect 37 0 71 0;
#X connect 38 0 37 1;
#X connect 39 0 37 1;
#X connect 40 0 37 1;
#X connect 41 0 42 0;
#X connect 42 0 40 0;
#X connect 43 0 37 1;
#X connect 44 0 37 1;
#X connect 45 0 37 1;
#X connect 46 0 48 1;
#X connect 47 0 48 1;
#X connect 48 0 71 0;
#X connect 49 0 48 1;
#X connect 50 0 48 1;
#X connect 51 0 48 1;
#X connect 52 0 53 0;
#X connect 53 0 50 0;
#X connect 53 0 51 0;
#X connect 54 0 55 0;
#X connect 55 0 49 0;
#X connect 56 0 19 0;
#X connect 56 0 20 0;
#X connect 56 0 17 0;
#X connect 57 0 15 0;
#X connect 57 0 14 0;
#X connect 58 0 18 0;
#X connect 59 0 21 0;
#X connect 60 0 29 0;
#X connect 60 0 26 0;
#X connect 60 0 24 0;
#X connect 60 0 25 0;
#X connect 60 0 22 0;
#X connect 60 0 23 0;
#X connect 61 0 30 0;
#X connect 62 0 27 0;
#X connect 62 0 32 0;
#X connect 63 0 31 0;
#X connect 64 0 43 0;
#X connect 65 0 33 0;
#X connect 65 0 35 0;
#X connect 66 0 41 0;
#X connect 66 0 38 0;
#X connect 66 0 39 0;
#X connect 67 0 45 0;
#X connect 68 0 52 0;
#X connect 69 0 46 0;
#X connect 69 0 54 0;
#X connect 70 0 47 0;
#X connect 71 0 0 0;
#X connect 72 0 74 1;
#X connect 73 0 74 1;
#X connect 74 0 71 0;
#X connect 75 0 74 1;
#X connect 76 0 74 1;
#X connect 77 0 74 1;
#X connect 78 0 79 0;
#X connect 79 0 76 0;
#X connect 79 0 77 0;
#X connect 80 0 81 0;
#X connect 81 0 75 0;
#X connect 82 0 78 0;
#X connect 83 0 72 0;
#X connect 83 0 80 0;
#X connect 84 0 73 0;
#X restore 245 284 pd drum-synths;
#X obj 244 511 tanh~;
#X obj 276 402 r drum_mix;
#X obj 244 481 *~;
#X obj 276 423 / 127;
#X msg 276 444 \$1 5;
#X obj 276 465 line~;
#X obj 112 377 s pos;
#X obj 58 337 mod 16;
#X obj 119 401 s beat;
#X obj 58 314 f 0;
#X obj 84 314 + 1;
#X obj 58 238 clock, f 15;
#X floatatom 69 416 5 0 0 0 - - -, f 5;
#N canvas 65 107 1301 686 drum-seq 0;
#X obj 17 34 step 0 sound1-01.s channel1 s1-repeat.s s1-prob.s;
#X obj 17 54 step 1 sound1-02.s channel1 s1-repeat.s s1-prob.s;
#X obj 17 74 step 2 sound1-03.s channel1 s1-repeat.s s1-prob.s;
#X obj 17 94 step 3 sound1-04.s channel1 s1-repeat.s s1-prob.s;
#X obj 17 114 step 4 sound1-05.s channel1 s1-repeat.s s1-prob.s;
#X obj 17 134 step 5 sound1-06.s channel1 s1-repeat.s s1-prob.s;
#X obj 17 154 step 6 sound1-07.s channel1 s1-repeat.s s1-prob.s;
#X obj 17 174 step 7 sound1-08.s channel1 s1-repeat.s s1-prob.s;
#X obj 17 194 step 8 sound1-09.s channel1 s1-repeat.s s1-prob.s;
#X obj 17 214 step 9 sound1-10.s channel1 s1-repeat.s s1-prob.s;
#X obj 17 234 step 10 sound1-11.s channel1 s1-repeat.s s1-prob.s;
#X obj 17 254 step 11 sound1-12.s channel1 s1-repeat.s s1-prob.s;
#X obj 17 274 step 12 sound1-13.s channel1 s1-repeat.s s1-prob.s;
#X obj 17 294 step 13 sound1-14.s channel1 s1-repeat.s s1-prob.s;
#X obj 17 314 step 14 sound1-15.s channel1 s1-repeat.s s1-prob.s;
#X obj 17 334 step 15 sound1-16.s channel1 s1-repeat.s s1-prob.s;
#X obj 15 361 step 0 sound2-01.s channel2 s2-repeat.s s2-prob.s;
#X obj 15 381 step 1 sound2-02.s channel2 s2-repeat.s s2-prob.s;
#X obj 15 401 step 2 sound2-03.s channel2 s2-repeat.s s2-prob.s;
#X obj 15 421 step 3 sound2-04.s channel2 s2-repeat.s s2-prob.s;
#X obj 15 441 step 4 sound2-05.s channel2 s2-repeat.s s2-prob.s;
#X obj 15 461 step 5 sound2-06.s channel2 s2-repeat.s s2-prob.s;
#X obj 15 481 step 6 sound2-07.s channel2 s2-repeat.s s2-prob.s;
#X obj 15 501 step 7 sound2-08.s channel2 s2-repeat.s s2-prob.s;
#X obj 15 521 step 8 sound2-09.s channel2 s2-repeat.s s2-prob.s;
#X obj 15 541 step 9 sound2-10.s channel2 s2-repeat.s s2-prob.s;
#X obj 15 561 step 10 sound2-11.s channel2 s2-repeat.s s2-prob.s;
#X obj 15 581 step 11 sound2-12.s channel2 s2-repeat.s s2-prob.s;
#X obj 15 601 step 12 sound2-13.s channel2 s2-repeat.s s2-prob.s;
#X obj 15 621 step 13 sound2-14.s channel2 s2-repeat.s s2-prob.s;
#X obj 15 641 step 14 sound2-15.s channel2 s2-repeat.s s2-prob.s;
#X obj 15 661 step 15 sound2-16.s channel2 s2-repeat.s s2-prob.s;
#X obj 378 25 step 0 sound3-01.s channel3 s3-repeat.s s3-prob.s;
#X obj 378 45 step 1 sound3-02.s channel3 s3-repeat.s s3-prob.s;
#X obj 378 65 step 2 sound3-03.s channel3 s3-repeat.s s3-prob.s;
#X obj 378 85 step 3 sound3-04.s channel3 s3-repeat.s s3-prob.s;
#X obj 378 105 step 4 sound3-05.s channel3 s3-repeat.s s3-prob.s;
#X obj 378 125 step 5 sound3-06.s channel3 s3-repeat.s s3-prob.s;
#X obj 378 145 step 6 sound3-07.s channel3 s3-repeat.s s3-prob.s;
#X obj 378 165 step 7 sound3-08.s channel3 s3-repeat.s s3-prob.s;
#X obj 378 185 step 8 sound3-09.s channel3 s3-repeat.s s3-prob.s;
#X obj 378 205 step 9 sound3-10.s channel3 s3-repeat.s s3-prob.s;
#X obj 378 225 step 10 sound3-11.s channel3 s3-repeat.s s3-prob.s;
#X obj 378 245 step 11 sound3-12.s channel3 s3-repeat.s s3-prob.s;
#X obj 378 265 step 12 sound3-13.s channel3 s3-repeat.s s3-prob.s;
#X obj 378 285 step 13 sound3-14.s channel3 s3-repeat.s s3-prob.s;
#X obj 378 305 step 14 sound3-15.s channel3 s3-repeat.s s3-prob.s;
#X obj 378 325 step 15 sound3-16.s channel3 s3-repeat.s s3-prob.s;
#X obj 379 369 step 0 sound4-01.s channel4 s4-repeat.s s4-prob.s;
#X obj 379 389 step 1 sound4-02.s channel4 s4-repeat.s s4-prob.s;
#X obj 379 409 step 2 sound4-03.s channel4 s4-repeat.s s4-prob.s;
#X obj 379 429 step 3 sound4-04.s channel4 s4-repeat.s s4-prob.s;
#X obj 379 449 step 4 sound4-05.s channel4 s4-repeat.s s4-prob.s;
#X obj 379 469 step 5 sound4-06.s channel4 s4-repeat.s s4-prob.s;
#X obj 379 489 step 6 sound4-07.s channel4 s4-repeat.s s4-prob.s;
#X obj 379 509 step 7 sound4-08.s channel4 s4-repeat.s s4-prob.s;
#X obj 379 529 step 8 sound4-09.s channel4 s4-repeat.s s4-prob.s;
#X obj 379 549 step 9 sound4-10.s channel4 s4-repeat.s s4-prob.s;
#X obj 379 569 step 10 sound4-11.s channel4 s4-repeat.s s4-prob.s;
#X obj 379 589 step 11 sound4-12.s channel4 s4-repeat.s s4-prob.s;
#X obj 379 609 step 12 sound4-13.s channel4 s4-repeat.s s4-prob.s;
#X obj 379 629 step 13 sound4-14.s channel4 s4-repeat.s s4-prob.s;
#X obj 379 649 step 14 sound4-15.s channel4 s4-repeat.s s4-prob.s;
#X obj 379 669 step 15 sound4-16.s channel4 s4-repeat.s s4-prob.s;
#X obj 711 106 step 4 sound5-05.s channel5 s5-repeat.s s5-prob.s;
#X obj 711 126 step 5 sound5-06.s channel5 s5-repeat.s s5-prob.s;
#X obj 711 146 step 6 sound5-07.s channel5 s5-repeat.s s5-prob.s;
#X obj 711 166 step 7 sound5-08.s channel5 s5-repeat.s s5-prob.s;
#X obj 711 186 step 8 sound5-09.s channel5 s5-repeat.s s5-prob.s;
#X obj 711 206 step 9 sound5-10.s channel5 s5-repeat.s s5-prob.s;
#X obj 711 226 step 10 sound5-11.s channel5 s5-repeat.s s5-prob.s;
#X obj 711 246 step 11 sound5-12.s channel5 s5-repeat.s s5-prob.s;
#X obj 711 266 step 12 sound5-13.s channel5 s5-repeat.s s5-prob.s;
#X obj 711 286 step 13 sound5-14.s channel5 s5-repeat.s s5-prob.s;
#X obj 711 306 step 14 sound5-15.s channel5 s5-repeat.s s5-prob.s;
#X obj 711 326 step 15 sound5-16.s channel5 s5-repeat.s s5-prob.s;
#X obj 711 26 step 0 sound5-01.s channel5 s5-repeat.s s5-prob.s;
#X obj 711 46 step 1 sound5-02.s channel5 s5-repeat.s s5-prob.s;
#X obj 711 66 step 2 sound5-03.s channel5 s5-repeat.s s5-prob.s;
#X obj 711 86 step 3 sound5-04.s channel5 s5-repeat.s s5-prob.s;
#X restore 245 261 pd drum-seq;
#X obj 125 271 s rawmidi;
#X obj 58 269 mod 24;
#X obj 58 291 select 0;
#X obj 58 453 + 29;
#X obj 58 433 * 68;
#X obj 28 282 bng 15 250 50 0 empty empty empty 17 7 0 10 -262144 -1
-1;
#X msg 58 514 \; aciddrums_cursor pos \$1 0;
#X connect 1 0 4 0;
#X connect 2 0 0 0;
#X connect 2 0 0 1;
#X connect 3 0 5 0;
#X connect 4 0 2 0;
#X connect 5 0 6 0;
#X connect 6 0 7 0;
#X connect 7 0 4 1;
#X connect 9 0 8 0;
#X connect 9 0 10 0;
#X connect 9 0 20 0;
#X connect 11 0 12 0;
#X connect 11 0 9 0;
#X connect 12 0 11 1;
#X connect 13 0 17 0;
#X connect 13 0 16 0;
#X connect 13 0 21 0;
#X connect 14 0 20 0;
#X connect 17 0 18 0;
#X connect 18 0 11 0;
#X connect 19 0 22 0;
#X connect 20 0 19 0;
#X restore 174 184 pd audio;
#N canvas 726 289 613 463 loadsave-interface 0;
#X obj 44 15 s cb-save;
#X obj 44 -6 r storage-save;
#X obj 144 -6 r storage-load;
#X obj 144 15 s cb-load;
#X obj 13 -108 r wordbutton-save;
#X msg 192 -86 \; storage load savefiles cbs;
#X msg 12 -86 \; storage save savefiles cbs;
#X obj 192 -111 r wordbutton-load;
#X obj 132 71 r cb-save;
#X obj 51 71 r cb-load;
#X obj 51 96 sssad/loadsave;
#X connect 1 0 0 0;
#X connect 2 0 3 0;
#X connect 4 0 6 0;
#X connect 7 0 5 0;
#X connect 8 0 10 1;
#X connect 9 0 10 0;
#X restore 48 154 pd loadsave-interface;
#N canvas 65 54 1301 714 loadsave 0;
#X obj 41 20 sssad/auto drum_mix drum_mix.r;
#X obj 41 20 sssad/auto sound1-01.s sound1-01.r;
#X obj 41 20 sssad/auto sound1-02.s sound1-02.r;
#X obj 41 20 sssad/auto sound1-03.s sound1-03.r;
#X obj 41 20 sssad/auto sound1-04.s sound1-04.r;
#X obj 41 20 sssad/auto sound1-05.s sound1-05.r;
#X obj 41 20 sssad/auto sound1-06.s sound1-06.r;
#X obj 41 20 sssad/auto sound1-07.s sound1-07.r;
#X obj 41 20 sssad/auto sound1-08.s sound1-08.r;
#X obj 41 20 sssad/auto sound1-09.s sound1-09.r;
#X obj 41 20 sssad/auto sound1-10.s sound1-10.r;
#X obj 41 20 sssad/auto sound1-11.s sound1-11.r;
#X obj 41 20 sssad/auto sound1-12.s sound1-12.r;
#X obj 41 20 sssad/auto sound1-13.s sound1-13.r;
#X obj 41 20 sssad/auto sound1-14.s sound1-14.r;
#X obj 41 20 sssad/auto sound1-15.s sound1-15.r;
#X obj 41 20 sssad/auto sound1-16.s sound1-16.r;
#X obj 41 20 sssad/auto sound2-01.s sound2-01.r;
#X obj 41 20 sssad/auto sound2-02.s sound2-02.r;
#X obj 41 20 sssad/auto sound2-03.s sound2-03.r;
#X obj 41 20 sssad/auto sound2-04.s sound2-04.r;
#X obj 41 20 sssad/auto sound2-05.s sound2-05.r;
#X obj 41 20 sssad/auto sound2-06.s sound2-06.r;
#X obj 41 20 sssad/auto sound2-07.s sound2-07.r;
#X obj 41 20 sssad/auto sound2-08.s sound2-08.r;
#X obj 41 20 sssad/auto sound2-09.s sound2-09.r;
#X obj 41 20 sssad/auto sound2-10.s sound2-10.r;
#X obj 41 20 sssad/auto sound2-11.s sound2-11.r;
#X obj 41 20 sssad/auto sound2-12.s sound2-12.r;
#X obj 41 20 sssad/auto sound2-13.s sound2-13.r;
#X obj 41 20 sssad/auto sound2-14.s sound2-14.r;
#X obj 41 20 sssad/auto sound2-15.s sound2-15.r;
#X obj 41 20 sssad/auto sound2-16.s sound2-16.r;
#X obj 41 20 sssad/auto sound3-01.s sound3-01.r;
#X obj 41 20 sssad/auto sound3-02.s sound3-02.r;
#X obj 41 20 sssad/auto sound3-03.s sound3-03.r;
#X obj 41 20 sssad/auto sound3-04.s sound3-04.r;
#X obj 41 20 sssad/auto sound3-05.s sound3-05.r;
#X obj 41 20 sssad/auto sound3-06.s sound3-06.r;
#X obj 41 20 sssad/auto sound3-07.s sound3-07.r;
#X obj 41 20 sssad/auto sound3-08.s sound3-08.r;
#X obj 41 20 sssad/auto sound3-09.s sound3-09.r;
#X obj 41 20 sssad/auto sound3-10.s sound3-10.r;
#X obj 41 20 sssad/auto sound3-11.s sound3-11.r;
#X obj 41 20 sssad/auto sound3-12.s sound3-12.r;
#X obj 41 20 sssad/auto sound3-13.s sound3-13.r;
#X obj 41 20 sssad/auto sound3-14.s sound3-14.r;
#X obj 41 20 sssad/auto sound3-15.s sound3-15.r;
#X obj 41 20 sssad/auto sound3-16.s sound3-16.r;
#X obj 41 20 sssad/auto sound4-01.s sound4-01.r;
#X obj 41 20 sssad/auto sound4-02.s sound4-02.r;
#X obj 41 20 sssad/auto sound4-03.s sound4-03.r;
#X obj 41 20 sssad/auto sound4-04.s sound4-04.r;
#X obj 41 20 sssad/auto sound4-05.s sound4-05.r;
#X obj 41 20 sssad/auto sound4-06.s sound4-06.r;
#X obj 41 20 sssad/auto sound4-07.s sound4-07.r;
#X obj 41 20 sssad/auto sound4-08.s sound4-08.r;
#X obj 41 20 sssad/auto sound4-09.s sound4-09.r;
#X obj 41 20 sssad/auto sound4-10.s sound4-10.r;
#X obj 41 20 sssad/auto sound4-11.s sound4-11.r;
#X obj 41 20 sssad/auto sound4-12.s sound4-12.r;
#X obj 41 20 sssad/auto sound4-13.s sound4-13.r;
#X obj 41 20 sssad/auto sound4-14.s sound4-14.r;
#X obj 41 20 sssad/auto sound4-15.s sound4-15.r;
#X obj 41 20 sssad/auto sound4-16.s sound4-16.r;
#X obj 41 20 sssad/auto sound5-01.s sound5-01.r;
#X obj 41 20 sssad/auto sound5-02.s sound5-02.r;
#X obj 41 20 sssad/auto sound5-03.s sound5-03.r;
#X obj 41 20 sssad/auto sound5-04.s sound5-04.r;
#X obj 41 20 sssad/auto sound5-05.s sound5-05.r;
#X obj 41 20 sssad/auto sound5-06.s sound5-06.r;
#X obj 41 20 sssad/auto sound5-07.s sound5-07.r;
#X obj 41 20 sssad/auto sound5-08.s sound5-08.r;
#X obj 41 20 sssad/auto sound5-09.s sound5-09.r;
#X obj 41 20 sssad/auto sound5-10.s sound5-10.r;
#X obj 41 20 sssad/auto sound5-11.s sound5-11.r;
#X obj 41 20 sssad/auto sound5-12.s sound5-12.r;
#X obj 41 20 sssad/auto sound5-13.s sound5-13.r;
#X obj 41 20 sssad/auto sound5-14.s sound5-14.r;
#X obj 41 20 sssad/auto sound5-15.s sound5-15.r;
#X obj 41 20 sssad/auto sound5-16.s sound5-16.r;
#X obj 41 20 sssad/auto kick_tone.s kick_tone.r;
#X obj 41 20 sssad/auto kick_decay.s kick_decay.r;
#X obj 41 20 sssad/auto kick_gain.s kick_gain.r;
#X obj 41 20 sssad/auto snare_tone.s snare_tone.r;
#X obj 41 20 sssad/auto snare_decay.s snare_decay.r;
#X obj 41 20 sssad/auto snare_gain.s snare_gain.r;
#X obj 41 20 sssad/auto clap_tone.s clap_tone.r;
#X obj 41 20 sssad/auto clap_decay.s clap_decay.r;
#X obj 41 20 sssad/auto clap_gain.s clap_gain.r;
#X obj 41 20 sssad/auto hihat_tone.s hihat_tone.r;
#X obj 41 20 sssad/auto hihat_decay.s hihat_decay.r;
#X obj 41 20 sssad/auto hihat_gain.s hihat_gain.r;
#X obj 41 20 sssad/auto cowbell_tone.s cowbell_tone.r;
#X obj 41 20 sssad/auto cowbell_decay.s cowbell_decay.r;
#X obj 41 20 sssad/auto cowbell_gain.s cowbell_gain.r;
#X obj 41 20 sssad/auto s1-repeat.s s1-repeat.r;
#X obj 41 20 sssad/auto s2-repeat.s s2-repeat.r;
#X obj 41 20 sssad/auto s3-repeat.s s3-repeat.r;
#X obj 41 20 sssad/auto s4-repeat.s s4-repeat.r;
#X obj 41 20 sssad/auto s5-repeat.s s5-repeat.r;
#X obj 41 20 sssad/auto s1-prob.s s1-prob.r;
#X obj 41 20 sssad/auto s2-prob.s s2-prob.r;
#X obj 41 20 sssad/auto s3-prob.s s3-prob.r;
#X obj 41 20 sssad/auto s4-prob.s s4-prob.r;
#X obj 41 20 sssad/auto s5-prob.s s5-prob.r;
#X restore 77 183 pd loadsave;
#X obj 245 152 clock-gui;
#X obj 27 94 declare -path ../../../../pd-party/droidparty-abstractions
;
#X obj 43 125 loadsave storage;
