#N canvas 417 175 618 398 10;
#X floatatom 54 37 5 0 0 0 Nombre - -, f 5;
#X obj 116 38 bng 32 250 50 0 empty empty Bang_A 0 -7 0 10 -262144
-1 -1;
#X obj 181 38 tgl 32 0 empty empty Inter_A 0 -7 0 10 -262144 -1 -1
0 1;
#X obj 251 39 vsl 16 64 0 127 0 0 empty empty Slider_V 0 -9 0 10 -262144
-1 -1 0 1;
#X obj 336 37 vradio 32 1 0 3 empty empty Right_Choice 0 -8 0 10 -262144
-1 -1 0;
#X text 373 46 Normal;
#X text 373 80 Heavy;
#X text 372 112 Mad;
#N canvas 0 50 450 250 (subpatch) 0;
#X array Shape 10 float 1;
#A 0 0.58 0.6 0.54 0.38 -0.580001 -0.740001 -0.700001 -0.580001 -0.320001
0.12;
#X coords 0 1 10 -1 100 100 1 0 0;
#X restore 457 27 graph;
